<svg xmlns="http://www.w3.org/2000/svg" version="1.1" viewBox="0 0 512 512" style="shape-rendering:geometricPrecision; text-rendering:geometricPrecision; image-rendering:optimizeQuality; fill-rule:evenodd; clip-rule:evenodd" xmlns:xlink="http://www.w3.org/1999/xlink">
<g><path style="opacity:0.997" fill="#f34336" d="M 84.5,-0.5 C 148.167,-0.5 211.833,-0.5 275.5,-0.5C 300.694,6.20116 315.194,22.5345 319,48.5C 319.5,89.1653 319.667,129.832 319.5,170.5C 318.188,178.068 318.188,185.735 319.5,193.5C 319.5,278.833 319.5,364.167 319.5,449.5C 317.199,448.94 314.866,448.44 312.5,448C 223.5,447.333 134.5,447.333 45.5,448C 43.8455,448.608 42.1789,449.108 40.5,449.5C 40.3333,316.5 40.5,183.5 41,50.5C 43.8736,23.4676 58.3736,6.46762 84.5,-0.5 Z"/></g>
<g><path style="opacity:0.981" fill="#455963" d="M 319.5,193.5 C 318.188,185.735 318.188,178.068 319.5,170.5C 337.184,173.702 351.018,182.702 361,197.5C 373.864,220.436 380.864,245.102 382,271.5C 382.693,282.825 383.193,294.158 383.5,305.5C 382.374,332.51 381.041,359.51 379.5,386.5C 378.698,402.701 381.865,418.034 389,432.5C 402.603,446.276 418.77,450.443 437.5,445C 446.151,441.016 451.985,434.516 455,425.5C 459.742,405.372 460.742,385.039 458,364.5C 454.442,336.151 450.775,307.817 447,279.5C 446.667,255.167 446.333,230.833 446,206.5C 427.657,189.806 414.323,169.806 406,146.5C 402.119,127.146 406.952,110.312 420.5,96C 398.335,78.8238 373.335,67.8238 345.5,63C 338.364,57.3794 337.698,51.046 343.5,44C 345.639,42.5961 347.972,41.7628 350.5,41.5C 406.242,52.925 450.075,81.925 482,128.5C 495.33,152.004 494.663,175.004 480,197.5C 476.633,201.203 472.966,204.536 469,207.5C 468.333,229.167 468.333,250.833 469,272.5C 473.28,305.462 477.28,338.462 481,371.5C 483.414,394.376 481.081,416.709 474,438.5C 461.046,463.393 440.546,473.56 412.5,469C 377.102,462.256 358.935,440.756 358,404.5C 357.991,372.151 358.824,339.817 360.5,307.5C 361.507,279.889 358.007,252.889 350,226.5C 346.106,215.211 339.606,205.711 330.5,198C 327.029,195.928 323.362,194.428 319.5,193.5 Z M 436.5,110.5 C 448.996,121.177 459.163,133.844 467,148.5C 468.429,156.119 468.762,163.785 468,171.5C 465.919,177.327 462.586,182.327 458,186.5C 444.409,173.906 434.409,158.906 428,141.5C 426.092,136.155 426.092,130.822 428,125.5C 430.256,120.101 433.09,115.101 436.5,110.5 Z"/></g>
<g><path style="opacity:1" fill="#cfd7db" d="M 90.5,42.5 C 150.917,42.0077 211.25,42.5077 271.5,44C 273.617,45.7309 275.117,47.8976 276,50.5C 276.667,94.8333 276.667,139.167 276,183.5C 274.73,187.77 271.896,190.27 267.5,191C 208.5,191.667 149.5,191.667 90.5,191C 88,189.833 86.1667,188 85,185.5C 84.3333,139.833 84.3333,94.1667 85,48.5C 86.3597,45.9774 88.193,43.9774 90.5,42.5 Z"/></g>
<g><path style="opacity:0.998" fill="#455963" d="M 319.5,449.5 C 330.794,453.632 337.627,461.632 340,473.5C 340.667,483.833 340.667,494.167 340,504.5C 339.033,507.621 337.2,509.954 334.5,511.5C 231.5,511.5 128.5,511.5 25.5,511.5C 23.2043,509.599 21.371,507.266 20,504.5C 19.3333,494.167 19.3333,483.833 20,473.5C 22.3726,461.632 29.2059,453.632 40.5,449.5C 42.1789,449.108 43.8455,448.608 45.5,448C 134.5,447.333 223.5,447.333 312.5,448C 314.866,448.44 317.199,448.94 319.5,449.5 Z"/></g>
</svg>
