<svg xmlns="http://www.w3.org/2000/svg" viewBox="0 0 512 512" version="1.1" style="shape-rendering:geometricPrecision; text-rendering:geometricPrecision; image-rendering:optimizeQuality; fill-rule:evenodd; clip-rule:evenodd" xmlns:xlink="http://www.w3.org/1999/xlink">
<g><path style="opacity:0.978" fill="#cccccc" d="M 510.5,105.5 C 464.899,69.5863 414.899,62.0863 360.5,83C 346.766,89.4192 334.099,97.4192 322.5,107C 310.631,118.702 298.965,130.535 287.5,142.5C 279.833,135.167 272.167,127.833 264.5,120.5C 281.513,100.98 300.513,83.8132 321.5,69C 362.312,46.782 404.646,43.4486 448.5,59C 472.723,69.7182 493.39,85.2182 510.5,105.5 Z"/></g>
<g><path style="opacity:1" fill="#e5e5e5" d="M 510.5,105.5 C 510.833,105.5 511.167,105.5 511.5,105.5C 511.5,106.5 511.5,107.5 511.5,108.5C 493.854,125.812 476.187,143.145 458.5,160.5C 449.283,151.113 439.616,142.28 429.5,134C 404.521,120.59 380.187,121.59 356.5,137C 343.661,148.673 331.328,160.839 319.5,173.5C 308.219,163.887 297.553,153.554 287.5,142.5C 298.965,130.535 310.631,118.702 322.5,107C 334.099,97.4192 346.766,89.4192 360.5,83C 414.899,62.0863 464.899,69.5863 510.5,105.5 Z"/></g>
<g><path style="opacity:0.998" fill="#f45049" d="M 264.5,120.5 C 272.167,127.833 279.833,135.167 287.5,142.5C 297.553,153.554 308.219,163.887 319.5,173.5C 336.132,190.632 352.965,207.632 370,224.5C 387.082,244.128 390.082,265.794 379,289.5C 376.385,293.783 373.385,297.783 370,301.5C 336.299,335.368 302.465,369.035 268.5,402.5C 267.85,402.196 267.183,401.863 266.5,401.5C 245.915,412.962 225.915,412.129 206.5,399C 169.916,361.915 132.916,325.415 95.5,289.5C 103.833,280.833 112.167,272.167 120.5,263.5C 128.758,256.911 136.425,249.578 143.5,241.5C 135.514,233.014 127.348,224.681 119,216.5C 115.345,211.036 113.845,205.036 114.5,198.5C 164.5,172.5 214.5,146.5 264.5,120.5 Z M 228.5,264.5 C 239.404,293.562 260.404,307.729 291.5,307C 298.869,302.825 300.369,296.992 296,289.5C 294.581,288.54 293.081,287.707 291.5,287C 264.745,285.741 249.745,271.907 246.5,245.5C 260.146,232.188 273.813,218.855 287.5,205.5C 305.153,222.653 322.653,239.986 340,257.5C 342,261.167 342,264.833 340,268.5C 317.833,290.667 295.667,312.833 273.5,335C 270.2,336.879 266.866,336.879 263.5,335C 245.833,317.333 228.167,299.667 210.5,282C 216.369,275.964 222.369,270.13 228.5,264.5 Z"/></g>
<g><path style="opacity:0.989" fill="#fbd15e" d="M 458.5,193.5 C 460.089,192.379 461.756,192.546 463.5,194C 491.356,217.898 502.856,248.065 498,284.5C 491.545,302.999 478.378,311.999 458.5,311.5C 452.436,307.064 448.602,301.064 447,293.5C 442.151,259.286 446.318,226.286 459.5,194.5C 459.376,193.893 459.043,193.56 458.5,193.5 Z"/></g>
<g><path style="opacity:1" fill="#f99241" d="M 458.5,193.5 C 459.043,193.56 459.376,193.893 459.5,194.5C 446.318,226.286 442.151,259.286 447,293.5C 448.602,301.064 452.436,307.064 458.5,311.5C 433.395,308.729 421.061,294.729 421.5,269.5C 422.118,238.267 434.452,212.933 458.5,193.5 Z"/></g>
<g><path style="opacity:1" fill="#d13030" d="M 114.5,198.5 C 113.845,205.036 115.345,211.036 119,216.5C 127.348,224.681 135.514,233.014 143.5,241.5C 136.425,249.578 128.758,256.911 120.5,263.5C 112.202,255.702 104.035,247.702 96,239.5C 88.094,225.44 90.594,213.607 103.5,204C 107.193,202.153 110.86,200.32 114.5,198.5 Z"/></g>
<g><path style="opacity:0.952" fill="#cbcbcb" d="M 246.5,245.5 C 249.745,271.907 264.745,285.741 291.5,287C 293.081,287.707 294.581,288.54 296,289.5C 300.369,296.992 298.869,302.825 291.5,307C 260.404,307.729 239.404,293.562 228.5,264.5C 233.775,257.556 239.775,251.223 246.5,245.5 Z"/></g>
<g><path style="opacity:1" fill="#d13130" d="M 95.5,289.5 C 132.916,325.415 169.916,361.915 206.5,399C 225.915,412.129 245.915,412.962 266.5,401.5C 267.183,401.863 267.85,402.196 268.5,402.5C 260.16,413.011 250.16,421.511 238.5,428C 219.044,435.608 200.711,433.608 183.5,422C 171.995,411.328 160.661,400.494 149.5,389.5C 133.218,371.551 116.218,354.218 98.5,337.5C 90.1667,328.833 81.8333,320.167 73.5,311.5C 80.5,303.833 87.8333,296.5 95.5,289.5 Z"/></g>
<g><path style="opacity:1" fill="#cccccc" d="M 73.5,311.5 C 81.8333,320.167 90.1667,328.833 98.5,337.5C 90.8333,345.5 83.1667,353.5 75.5,361.5C 71.7728,357.767 67.7728,354.434 63.5,351.5C 58.6576,346.491 53.9909,341.324 49.5,336C 56.9926,327.341 64.9926,319.174 73.5,311.5 Z"/></g>
<g><path style="opacity:0.995" fill="#e5e5e5" d="M 98.5,337.5 C 116.218,354.218 133.218,371.551 149.5,389.5C 141.521,397.145 133.521,404.812 125.5,412.5C 120.146,407.478 114.813,402.478 109.5,397.5C 101.222,387.553 92.2216,378.22 82.5,369.5C 80.1667,366.833 77.8333,364.167 75.5,361.5C 83.1667,353.5 90.8333,345.5 98.5,337.5 Z"/></g>
<g><path style="opacity:1" fill="#3b3d4c" d="M 63.5,351.5 C 67.7728,354.434 71.7728,357.767 75.5,361.5C 77.8333,364.167 80.1667,366.833 82.5,369.5C 61.1164,391.884 39.1164,413.551 16.5,434.5C 10.8333,429.167 5.16667,423.833 -0.5,418.5C -0.5,417.5 -0.5,416.5 -0.5,415.5C 21.1667,394.5 42.5,373.167 63.5,351.5 Z"/></g>
<g><path style="opacity:0.995" fill="#5b5d6f" d="M 82.5,369.5 C 92.2216,378.22 101.222,387.553 109.5,397.5C 88.1877,419.479 66.521,441.146 44.5,462.5C 34.8123,453.479 25.479,444.146 16.5,434.5C 39.1164,413.551 61.1164,391.884 82.5,369.5 Z"/></g>
</svg>
