<svg viewBox="0 0 512 512" xmlns="http://www.w3.org/2000/svg" version="1.1"  style="shape-rendering:geometricPrecision; text-rendering:geometricPrecision; image-rendering:optimizeQuality; fill-rule:evenodd; clip-rule:evenodd" xmlns:xlink="http://www.w3.org/1999/xlink">
<g><path style="opacity:0.973" fill="#f0cd01" d="M 232.5,-0.5 C 240.833,-0.5 249.167,-0.5 257.5,-0.5C 154.539,10.8871 81.3724,63.5537 38,157.5C 13.0531,219.743 12.0531,282.41 35,345.5C 39.1287,354.751 42.962,364.085 46.5,373.5C 41.6763,376.979 38.0096,381.313 35.5,386.5C 20.9751,363.426 10.8084,338.426 5,311.5C 2.91726,300.398 1.08393,289.398 -0.5,278.5C -0.5,263.167 -0.5,247.833 -0.5,232.5C 10.3875,142.857 54.7208,75.3573 132.5,30C 163.971,13.3053 197.304,3.1386 232.5,-0.5 Z"/></g>
<g><path style="opacity:1" fill="#fedd4f" d="M 257.5,-0.5 C 264.5,-0.5 271.5,-0.5 278.5,-0.5C 307.553,2.59856 335.553,10.0986 362.5,22C 371.048,25.7677 379.048,30.2677 386.5,35.5C 385.448,35.3505 384.448,35.5172 383.5,36C 369.965,49.3682 356.631,62.8682 343.5,76.5C 312.862,61.9053 280.528,55.2386 246.5,56.5C 164.91,63.3547 106.744,103.688 72,177.5C 50.0882,233.498 51.5882,288.832 76.5,343.5C 66.1396,353.194 56.1396,363.194 46.5,373.5C 42.962,364.085 39.1287,354.751 35,345.5C 12.0531,282.41 13.0531,219.743 38,157.5C 81.3724,63.5537 154.539,10.8871 257.5,-0.5 Z"/></g>
<g><path style="opacity:1" fill="#fee992" d="M 386.5,35.5 C 401.932,43.8838 415.932,54.2172 428.5,66.5C 415.5,80.1667 402.167,93.5 388.5,106.5C 374.565,94.8977 359.565,84.8977 343.5,76.5C 356.631,62.8682 369.965,49.3682 383.5,36C 384.448,35.5172 385.448,35.3505 386.5,35.5 Z"/></g>
<g><path style="opacity:1" fill="#febc00" d="M 246.5,56.5 C 301.223,61.6947 346.89,84.6947 383.5,125.5C 383.461,126.583 383.127,127.583 382.5,128.5C 365.897,144.621 349.564,160.954 333.5,177.5C 324.731,147.229 305.231,127.229 275,117.5C 274.667,110.167 274.333,102.833 274,95.5C 266.055,81.4152 255.222,78.7486 241.5,87.5C 240.657,85.8267 239.324,84.66 237.5,84C 224.142,80.0962 214.975,84.5962 210,97.5C 209.5,104.492 209.334,111.492 209.5,118.5C 182.661,125.847 164.161,142.514 154,168.5C 140.92,219.346 159.087,253.346 208.5,270.5C 209.499,280.812 209.832,291.145 209.5,301.5C 200.121,294.958 190.788,294.958 181.5,301.5C 179.88,299.016 177.547,297.516 174.5,297C 162.813,295.005 154.646,299.505 150,310.5C 149.178,325.567 152.011,339.901 158.5,353.5C 143.919,366.578 129.752,380.245 116,394.5C 115.536,395.094 115.369,395.761 115.5,396.5C 112.5,393.833 109.5,391.167 106.5,388.5C 94.8977,374.565 84.8977,359.565 76.5,343.5C 51.5882,288.832 50.0882,233.498 72,177.5C 106.744,103.688 164.91,63.3547 246.5,56.5 Z"/></g>
<g><path style="opacity:1" fill="#f68f00" d="M 246.5,56.5 C 280.528,55.2386 312.862,61.9053 343.5,76.5C 359.565,84.8977 374.565,94.8977 388.5,106.5C 398.602,116.262 407.935,126.595 416.5,137.5C 431.176,158.525 441.843,181.525 448.5,206.5C 465.077,283.593 445.077,349.426 388.5,404C 348.481,438.733 301.815,455.566 248.5,454.5C 334.657,443.335 392.824,397.001 423,315.5C 442.643,245.029 429.476,181.695 383.5,125.5C 346.89,84.6947 301.223,61.6947 246.5,56.5 Z"/></g>
<g><path style="opacity:1" fill="#fedd50" d="M 428.5,66.5 C 439.239,75.903 448.905,86.2363 457.5,97.5C 443.218,110.114 429.552,123.447 416.5,137.5C 407.935,126.595 398.602,116.262 388.5,106.5C 402.167,93.5 415.5,80.1667 428.5,66.5 Z"/></g>
<g><path style="opacity:1" fill="#f68e01" d="M 241.5,87.5 C 239.425,90.6456 237.592,93.9789 236,97.5C 235.5,104.492 235.334,111.492 235.5,118.5C 209.008,126.152 190.508,142.819 180,168.5C 166.893,219.966 185.393,253.966 235.5,270.5C 235.831,297.339 235.498,324.005 234.5,350.5C 220.268,340.703 213.434,327.036 214,309.5C 212.672,306.688 211.172,304.022 209.5,301.5C 209.832,291.145 209.499,280.812 208.5,270.5C 159.087,253.346 140.92,219.346 154,168.5C 164.161,142.514 182.661,125.847 209.5,118.5C 209.334,111.492 209.5,104.492 210,97.5C 214.975,84.5962 224.142,80.0962 237.5,84C 239.324,84.66 240.657,85.8267 241.5,87.5 Z"/></g>
<g><path style="opacity:1" fill="#fee993" d="M 333.5,177.5 C 335.105,184.759 335.605,192.093 335,199.5C 330.647,211.431 322.147,216.264 309.5,214C 307.114,212.807 304.78,211.64 302.5,210.5C 301.011,208.195 299.511,205.862 298,203.5C 297.61,192.883 294.944,182.883 290,173.5C 286.291,168.29 281.791,163.957 276.5,160.5C 276.44,159.957 276.107,159.624 275.5,159.5C 274.171,186.664 274.171,213.664 275.5,240.5C 319.72,253.891 339.22,283.558 334,329.5C 326.707,361.956 307.207,382.956 275.5,392.5C 275.666,398.842 275.5,405.175 275,411.5C 271.066,425.82 261.899,430.987 247.5,427C 245.612,425.606 243.612,424.44 241.5,423.5C 238.876,419.915 237.043,415.915 236,411.5C 235.5,405.175 235.334,398.842 235.5,392.5C 201.266,382.088 181.432,359.088 176,323.5C 174.128,315.153 175.961,307.82 181.5,301.5C 190.788,294.958 200.121,294.958 209.5,301.5C 211.172,304.022 212.672,306.688 214,309.5C 213.434,327.036 220.268,340.703 234.5,350.5C 234.56,351.043 234.893,351.376 235.5,351.5C 236.829,324.336 236.829,297.336 235.5,270.5C 185.393,253.966 166.893,219.966 180,168.5C 190.508,142.819 209.008,126.152 235.5,118.5C 235.334,111.492 235.5,104.492 236,97.5C 237.592,93.9789 239.425,90.6456 241.5,87.5C 255.222,78.7486 266.055,81.4152 274,95.5C 274.333,102.833 274.667,110.167 275,117.5C 305.231,127.229 324.731,147.229 333.5,177.5 Z"/></g>
<g><path style="opacity:1" fill="#fee992" d="M 457.5,97.5 C 472.812,116.439 484.812,137.439 493.5,160.5C 479.219,176.449 464.219,191.782 448.5,206.5C 441.843,181.525 431.176,158.525 416.5,137.5C 429.552,123.447 443.218,110.114 457.5,97.5 Z"/></g>
<g><path style="opacity:1" fill="#faa300" d="M 383.5,125.5 C 429.476,181.695 442.643,245.029 423,315.5C 392.824,397.001 334.657,443.335 248.5,454.5C 234.276,453.972 220.276,451.972 206.5,448.5C 181.722,442.108 159.055,431.442 138.5,416.5C 130.242,410.58 122.575,403.913 115.5,396.5C 115.369,395.761 115.536,395.094 116,394.5C 129.752,380.245 143.919,366.578 158.5,353.5C 170.099,373.248 186.932,386.581 209,393.5C 209.333,399.833 209.667,406.167 210,412.5C 215.127,427.146 224.961,431.646 239.5,426C 240.381,425.292 241.047,424.458 241.5,423.5C 243.612,424.44 245.612,425.606 247.5,427C 261.899,430.987 271.066,425.82 275,411.5C 275.5,405.175 275.666,398.842 275.5,392.5C 307.207,382.956 326.707,361.956 334,329.5C 339.22,283.558 319.72,253.891 275.5,240.5C 275.5,238.833 275.5,237.167 275.5,235.5C 282.272,228.893 288.939,222.06 295.5,215C 295.272,214.601 294.938,214.435 294.5,214.5C 297.101,213.199 299.768,211.866 302.5,210.5C 304.78,211.64 307.114,212.807 309.5,214C 322.147,216.264 330.647,211.431 335,199.5C 335.605,192.093 335.105,184.759 333.5,177.5C 349.564,160.954 365.897,144.621 382.5,128.5C 383.127,127.583 383.461,126.583 383.5,125.5 Z"/></g>
<g><path style="opacity:1" fill="#f68f03" d="M 234.5,160.5 C 235.497,182.994 235.831,205.661 235.5,228.5C 221.088,222.21 214.088,211.043 214.5,195C 215.383,180.059 222.049,168.559 234.5,160.5 Z"/></g>
<g><path style="opacity:1" fill="#fbc355" d="M 234.5,160.5 C 234.56,159.957 234.893,159.624 235.5,159.5C 236.829,182.663 236.829,205.663 235.5,228.5C 235.831,205.661 235.497,182.994 234.5,160.5 Z"/></g>
<g><path style="opacity:1" fill="#fcc754" d="M 276.5,160.5 C 275.504,176.658 275.17,192.991 275.5,209.5C 275.5,218.167 275.5,226.833 275.5,235.5C 275.5,237.167 275.5,238.833 275.5,240.5C 274.171,213.664 274.171,186.664 275.5,159.5C 276.107,159.624 276.44,159.957 276.5,160.5 Z"/></g>
<g><path style="opacity:1" fill="#f68f02" d="M 276.5,160.5 C 281.791,163.957 286.291,168.29 290,173.5C 294.944,182.883 297.61,192.883 298,203.5C 299.511,205.862 301.011,208.195 302.5,210.5C 299.768,211.866 297.101,213.199 294.5,214.5C 287.356,215.62 281.023,213.953 275.5,209.5C 275.17,192.991 275.504,176.658 276.5,160.5 Z"/></g>
<g><path style="opacity:1" fill="#fedd4f" d="M 493.5,160.5 C 502.955,183.654 508.955,207.654 511.5,232.5C 511.5,247.833 511.5,263.167 511.5,278.5C 500.612,368.144 456.279,435.644 378.5,481C 347.029,497.695 313.696,507.861 278.5,511.5C 271.5,511.5 264.5,511.5 257.5,511.5C 226.361,508.667 196.361,501.001 167.5,488.5C 180.5,475.167 193.5,461.833 206.5,448.5C 220.276,451.972 234.276,453.972 248.5,454.5C 301.815,455.566 348.481,438.733 388.5,404C 445.077,349.426 465.077,283.593 448.5,206.5C 464.219,191.782 479.219,176.449 493.5,160.5 Z"/></g>
<g><path style="opacity:1" fill="#febc00" d="M 275.5,209.5 C 281.023,213.953 287.356,215.62 294.5,214.5C 294.938,214.435 295.272,214.601 295.5,215C 288.939,222.06 282.272,228.893 275.5,235.5C 275.5,226.833 275.5,218.167 275.5,209.5 Z"/></g>
<g><path style="opacity:1" fill="#fbc355" d="M 235.5,270.5 C 236.829,297.336 236.829,324.336 235.5,351.5C 234.893,351.376 234.56,351.043 234.5,350.5C 235.498,324.005 235.831,297.339 235.5,270.5 Z"/></g>
<g><path style="opacity:1" fill="#fbc254" d="M 275.5,282.5 C 275.169,305.339 275.503,328.006 276.5,350.5C 276.44,351.043 276.107,351.376 275.5,351.5C 274.171,328.337 274.171,305.337 275.5,282.5 Z"/></g>
<g><path style="opacity:1" fill="#f68f03" d="M 275.5,282.5 C 289.614,288.525 296.614,299.358 296.5,315C 295.904,330.369 289.237,342.203 276.5,350.5C 275.503,328.006 275.169,305.339 275.5,282.5 Z"/></g>
<g><path style="opacity:1" fill="#f68e01" d="M 181.5,301.5 C 175.961,307.82 174.128,315.153 176,323.5C 181.432,359.088 201.266,382.088 235.5,392.5C 235.334,398.842 235.5,405.175 236,411.5C 237.043,415.915 238.876,419.915 241.5,423.5C 241.047,424.458 240.381,425.292 239.5,426C 224.961,431.646 215.127,427.146 210,412.5C 209.667,406.167 209.333,399.833 209,393.5C 186.932,386.581 170.099,373.248 158.5,353.5C 152.011,339.901 149.178,325.567 150,310.5C 154.646,299.505 162.813,295.005 174.5,297C 177.547,297.516 179.88,299.016 181.5,301.5 Z"/></g>
<g><path style="opacity:1" fill="#fee992" d="M 76.5,343.5 C 84.8977,359.565 94.8977,374.565 106.5,388.5C 96.5,398.833 86.5,409.167 76.5,419.5C 73.1667,422.5 69.8333,425.5 66.5,428.5C 54.2172,415.932 43.8838,401.932 35.5,386.5C 38.0096,381.313 41.6763,376.979 46.5,373.5C 56.1396,363.194 66.1396,353.194 76.5,343.5 Z"/></g>
<g><path style="opacity:1" fill="#fedd50" d="M 106.5,388.5 C 109.5,391.167 112.5,393.833 115.5,396.5C 122.575,403.913 130.242,410.58 138.5,416.5C 137.761,416.369 137.094,416.536 136.5,417C 126.298,427.369 115.965,437.535 105.5,447.5C 95.7595,438.09 86.0929,428.757 76.5,419.5C 86.5,409.167 96.5,398.833 106.5,388.5 Z"/></g>
<g><path style="opacity:1" fill="#fee992" d="M 138.5,416.5 C 159.055,431.442 181.722,442.108 206.5,448.5C 193.5,461.833 180.5,475.167 167.5,488.5C 165.427,490.58 163.093,492.246 160.5,493.5C 136.933,484.727 115.6,472.393 96.5,456.5C 99.8333,453.833 102.833,450.833 105.5,447.5C 115.965,437.535 126.298,427.369 136.5,417C 137.094,416.536 137.761,416.369 138.5,416.5 Z"/></g>
<g><path style="opacity:0.971" fill="#f0cd03" d="M 76.5,419.5 C 86.0929,428.757 95.7595,438.09 105.5,447.5C 102.833,450.833 99.8333,453.833 96.5,456.5C 85.5702,448.239 75.5702,438.906 66.5,428.5C 69.8333,425.5 73.1667,422.5 76.5,419.5 Z"/></g>
<g><path style="opacity:0.914" fill="#f0ce06" d="M 167.5,488.5 C 196.361,501.001 226.361,508.667 257.5,511.5C 249.167,511.5 240.833,511.5 232.5,511.5C 207.652,508.955 183.652,502.955 160.5,493.5C 163.093,492.246 165.427,490.58 167.5,488.5 Z"/></g>
</svg>
