<?xml version="1.0" encoding="utf-8"?>
<!-- Generator: Adobe Illustrator 25.0.1, SVG Export Plug-In . SVG Version: 6.00 Build 0)  -->
<svg version="1.1" id="Capa_1" xmlns="http://www.w3.org/2000/svg" xmlns:xlink="http://www.w3.org/1999/xlink" x="0px" y="0px"
	 viewBox="0 0 874.2 467" style="enable-background:new 0 0 874.2 467;" xml:space="preserve">
<style type="text/css">
	.st0{fill:#FAFAFA;}
	.st1{fill:#E1E1E1;}
	.st2{fill:#ECECEC;}
	.st3{fill:#F5F5F5;}
	.st4{fill:#FFFFFF;}
	.st5{fill:#1A2E35;}
	.st6{fill:#445057;}
	.st7{fill:#E4A100;}
	.st8{fill:#375A64;}
	.st9{fill:#FFBF9D;}
	.st10{opacity:0.3;}
	.st11{fill:#FF9A6C;}
</style>
<g>
	<g>
		<g>
			<rect x="215.9" y="13.2" class="st0" width="388.9" height="304.2"/>
		</g>
		<g>
			<g>
				<path class="st1" d="M604.9,317.4c0-1.8-0.1-120.6-0.2-304.2l0.2,0.2c-110.8,0-244.7,0-388.9,0h0l0.3-0.3
					c0,109.7,0,213.4,0,304.2l-0.2-0.2C446.9,317.3,602.8,317.4,604.9,317.4c-2.1,0-158,0.1-388.9,0.2l-0.2,0v-0.2
					c0-90.8,0-194.5,0-304.2v-0.3h0.3h0c144.2,0,278.1,0,388.9,0h0.2l0,0.2C605,196.8,604.9,315.6,604.9,317.4z"/>
			</g>
		</g>
	</g>
	<g>
		<g>
			<g>
				<g>
					<g>
						<g>
							<g>
								<g>
									<g>
										<g>
											<g>
												<path class="st2" d="M272.6,87.7l-22.9,0c-1.6,0-2.9-1.3-2.9-2.9l0-31.7c0-1.6,1.3-2.9,2.9-2.9h14.5l11.3,11.6l0,23
													C275.5,86.4,274.2,87.7,272.6,87.7z"/>
											</g>
										</g>
									</g>
								</g>
							</g>
						</g>
						<g>
							<g>
								<g>
									<g>
										<g>
											<g>
												<path class="st3" d="M264.2,50.2l0,8.9c0,1.5,1.2,2.7,2.7,2.7l8.6,0L264.2,50.2z"/>
											</g>
										</g>
									</g>
								</g>
							</g>
						</g>
						<g>
							<g>
								<g>
									<g>
										<g>
											<g>
												<path class="st1" d="M264.4,59.9c0,0-0.1,2.2,2.4,2.9c0.1,0,0.2,0,0.3,0.1c1.1,0.2,8.5,1.5,8.5,1.3c0-0.2,0-2.4,0-2.4
													h-8.6C266.9,61.8,264.8,61.7,264.4,59.9z"/>
											</g>
										</g>
									</g>
								</g>
							</g>
						</g>
					</g>
				</g>
				<g>
					<g>
						<g>
							<g>
								<g>
									<g>
										<g>
											<path class="st1" d="M272.6,87.7c0,0,0.2,0,0.5-0.1c0.3-0.1,0.8-0.2,1.3-0.6c0.5-0.4,1-1.1,1-2c0-0.9,0-2,0-3.2
												c0-4.8,0-11.7,0-20l0,0.1c-3.4-3.5-7.2-7.4-11.3-11.6l0.1,0c-2.7,0-5.5,0-8.4,0c-1.4,0-2.9,0-4.4,0c-0.4,0-0.7,0-1.1,0
												c-0.4,0-0.7,0-1.1,0c-0.7,0.1-1.4,0.5-1.8,1.1c-0.3,0.4-0.5,0.9-0.5,1.4c0,0.5,0,1,0,1.6c0,1,0,2.1,0,3.1
												c0,2,0,4.1,0,6.1c0,4,0,7.8,0,11.4c0,1.8,0,3.6,0,5.3c0,0.9,0,1.7,0,2.6c0,0.4,0,0.8,0,1.2c0,0.4,0,0.8,0.1,1.2
												c0.1,0.8,0.6,1.5,1.3,1.8c0.3,0.2,0.7,0.3,1.1,0.4c0.4,0,0.8,0,1.1,0c1.5,0,2.9,0,4.3,0c5.5,0,10,0,13.1,0
												c1.5,0,2.7,0,3.6,0c0.4,0,0.7,0,0.9,0C272.5,87.7,272.6,87.7,272.6,87.7s-0.1,0-0.3,0c-0.2,0-0.5,0-0.9,0
												c-0.8,0-2,0-3.6,0c-3.1,0-7.6,0-13.1,0c-1.4,0-2.8,0-4.3,0c-0.4,0-0.8,0-1.1,0c-0.4-0.1-0.8-0.2-1.1-0.4
												c-0.7-0.4-1.2-1.1-1.4-1.9c-0.1-0.4-0.1-0.8-0.1-1.2c0-0.4,0-0.8,0-1.2c0-0.8,0-1.7,0-2.6c0-1.7,0-3.5,0-5.3
												c0-3.6,0-7.5,0-11.4c0-2,0-4,0-6.1c0-1,0-2.1,0-3.1c0-0.5,0-1,0-1.6c0-0.5,0.2-1.1,0.5-1.5c0.5-0.6,1.2-1.1,1.9-1.2
												c0.4-0.1,0.8,0,1.1,0c0.4,0,0.7,0,1.1,0c1.5,0,2.9,0,4.4,0c2.9,0,5.7,0,8.4,0l0,0l0,0c4.1,4.2,7.8,8.1,11.2,11.6l0,0v0
												c0,8.3,0,15.2,0,20c0,1.2,0,2.3,0,3.2c-0.1,1-0.6,1.7-1.1,2.1c-0.5,0.4-1,0.5-1.3,0.6c-0.2,0-0.3,0-0.4,0
												C272.7,87.7,272.6,87.7,272.6,87.7z"/>
										</g>
									</g>
								</g>
							</g>
						</g>
					</g>
				</g>
				<g>
					<g>
						<g>
							<g>
								<g>
									<g>
										<g>
											<path class="st1" d="M275.5,61.8c0,0-0.1,0-0.2,0c-0.2,0-0.4,0-0.6,0c-0.6,0-1.4,0-2.3,0c-1,0-2.2,0-3.5,0
												c-0.7,0-1.3,0-2,0c-0.7,0-1.5-0.3-2-0.9c-0.3-0.3-0.4-0.6-0.6-1c-0.1-0.4-0.1-0.8-0.1-1.1c0-0.7,0-1.4,0-2
												c0-1.3,0-2.5,0-3.5c0-1,0-1.7,0-2.3c0-0.3,0-0.5,0-0.6c0-0.1,0-0.2,0-0.2c0,0,0,0.1,0,0.2c0,0.2,0,0.4,0,0.6
												c0,0.6,0,1.4,0,2.3c0,1,0,2.2,0,3.5c0,0.7,0,1.3,0,2c0,0.7,0.2,1.4,0.6,2c0.5,0.5,1.2,0.9,1.9,0.9c0.7,0,1.4,0,2,0
												c1.3,0,2.5,0,3.5,0c1,0,1.7,0,2.3,0c0.3,0,0.5,0,0.6,0C275.4,61.8,275.5,61.8,275.5,61.8z"/>
										</g>
									</g>
								</g>
							</g>
						</g>
					</g>
				</g>
			</g>
			<g>
				<g>
					<g>
						<path class="st1" d="M263.8,58.2c0,0.1-2.7,0.1-6,0.1c-3.3,0-6,0-6-0.1c0-0.1,2.7-0.1,6-0.1C261.1,58.1,263.8,58.1,263.8,58.2
							z"/>
					</g>
				</g>
			</g>
			<g>
				<g>
					<g>
						<path class="st1" d="M269.5,62.6c0,0.1-4,0.1-8.9,0.1c-4.9,0-8.9,0-8.9-0.1c0-0.1,4-0.1,8.9-0.1
							C265.5,62.5,269.5,62.6,269.5,62.6z"/>
					</g>
				</g>
			</g>
			<g>
				<g>
					<g>
						<path class="st1" d="M269.5,67.1c0,0.1-4,0.1-8.9,0.1c-4.9,0-8.9,0-8.9-0.1c0-0.1,4-0.1,8.9-0.1C265.5,67,269.5,67,269.5,67.1
							z"/>
					</g>
				</g>
			</g>
			<g>
				<g>
					<g>
						<path class="st1" d="M269.5,71.5c0,0.1-4,0.1-8.9,0.1c-4.9,0-8.9,0-8.9-0.1c0-0.1,4-0.1,8.9-0.1
							C265.5,71.4,269.5,71.5,269.5,71.5z"/>
					</g>
				</g>
			</g>
			<g>
				<g>
					<g>
						<path class="st1" d="M269.5,76c0,0.1-4,0.1-8.9,0.1c-4.9,0-8.9,0-8.9-0.1c0-0.1,4-0.1,8.9-0.1C265.5,75.9,269.5,75.9,269.5,76
							z"/>
					</g>
				</g>
			</g>
			<g>
				<g>
					<g>
						<path class="st1" d="M269.5,81.5c0,0.1-4,0.1-8.9,0.1c-4.9,0-8.9,0-8.9-0.1c0-0.1,4-0.1,8.9-0.1
							C265.5,81.4,269.5,81.4,269.5,81.5z"/>
					</g>
				</g>
			</g>
		</g>
		<g>
			<g>
				<path class="st1" d="M275.4,97.2c0,0.1-6.4,0.3-14.2,0.3c-7.8,0-14.2-0.1-14.2-0.3c0-0.1,6.4-0.3,14.2-0.3
					C269,96.9,275.4,97,275.4,97.2z"/>
			</g>
		</g>
		<g>
			<g>
				<path class="st1" d="M270.3,100.9c0,0.1-4.1,0.3-9.1,0.3c-5.1,0-9.1-0.1-9.1-0.3s4.1-0.3,9.1-0.3
					C266.2,100.6,270.3,100.8,270.3,100.9z"/>
			</g>
		</g>
	</g>
	<g>
		<g>
			<g>
				<g>
					<g>
						<g>
							<g>
								<g>
									<g>
										<g>
											<g>
												<path class="st2" d="M272.6,168.8h-22.9c-1.6,0-2.9-1.3-2.9-2.9l0-31.7c0-1.6,1.3-2.9,2.9-2.9l14.5,0l11.3,11.6l0,23
													C275.5,167.5,274.2,168.8,272.6,168.8z"/>
											</g>
										</g>
									</g>
								</g>
							</g>
						</g>
						<g>
							<g>
								<g>
									<g>
										<g>
											<g>
												<path class="st3" d="M264.2,131.3l0,8.9c0,1.5,1.2,2.7,2.7,2.7l8.6,0L264.2,131.3z"/>
											</g>
										</g>
									</g>
								</g>
							</g>
						</g>
						<g>
							<g>
								<g>
									<g>
										<g>
											<g>
												<path class="st1" d="M264.4,141c0,0-0.1,2.2,2.4,2.9c0.1,0,0.2,0,0.3,0.1c1.1,0.2,8.5,1.5,8.5,1.3c0-0.2,0-2.4,0-2.4
													h-8.6C266.9,142.9,264.8,142.9,264.4,141z"/>
											</g>
										</g>
									</g>
								</g>
							</g>
						</g>
					</g>
				</g>
				<g>
					<g>
						<g>
							<g>
								<g>
									<g>
										<g>
											<path class="st1" d="M272.6,168.8c0,0,0.2,0,0.5-0.1c0.3-0.1,0.8-0.2,1.3-0.6c0.5-0.4,1-1.1,1-2c0-0.9,0-2,0-3.2
												c0-4.8,0-11.7,0-20l0,0.1c-3.4-3.5-7.2-7.4-11.3-11.6l0.1,0c-2.7,0-5.5,0-8.4,0c-1.4,0-2.9,0-4.4,0c-0.4,0-0.7,0-1.1,0
												c-0.4,0-0.7,0-1.1,0c-0.7,0.1-1.4,0.5-1.8,1.1c-0.3,0.4-0.5,0.9-0.5,1.4c0,0.5,0,1,0,1.6c0,1,0,2.1,0,3.1
												c0,2,0,4.1,0,6.1c0,4,0,7.8,0,11.4c0,1.8,0,3.6,0,5.3c0,0.9,0,1.7,0,2.6c0,0.4,0,0.8,0,1.2c0,0.4,0,0.8,0.1,1.2
												c0.1,0.8,0.6,1.5,1.3,1.8c0.3,0.2,0.7,0.3,1.1,0.4c0.4,0,0.8,0,1.1,0c1.5,0,2.9,0,4.3,0c5.5,0,10,0,13.1,0
												c1.5,0,2.7,0,3.6,0c0.4,0,0.7,0,0.9,0C272.5,168.8,272.6,168.8,272.6,168.8s-0.1,0-0.3,0c-0.2,0-0.5,0-0.9,0
												c-0.8,0-2,0-3.6,0c-3.1,0-7.6,0-13.1,0c-1.4,0-2.8,0-4.3,0c-0.4,0-0.8,0-1.1,0c-0.4-0.1-0.8-0.2-1.1-0.4
												c-0.7-0.4-1.2-1.1-1.4-1.9c-0.1-0.4-0.1-0.8-0.1-1.2c0-0.4,0-0.8,0-1.2c0-0.8,0-1.7,0-2.6c0-1.7,0-3.5,0-5.3
												c0-3.6,0-7.5,0-11.4c0-2,0-4,0-6.1c0-1,0-2.1,0-3.1c0-0.5,0-1,0-1.6c0-0.5,0.2-1.1,0.5-1.5c0.5-0.6,1.2-1.1,1.9-1.2
												c0.4-0.1,0.8,0,1.1,0c0.4,0,0.7,0,1.1,0c1.5,0,2.9,0,4.4,0c2.9,0,5.7,0,8.4,0h0l0,0c4.1,4.2,7.8,8.1,11.2,11.6l0,0v0
												c0,8.3,0,15.2,0,20c0,1.2,0,2.3,0,3.2c-0.1,1-0.6,1.7-1.1,2.1c-0.5,0.4-1,0.5-1.3,0.6c-0.2,0-0.3,0-0.4,0
												C272.7,168.8,272.6,168.8,272.6,168.8z"/>
										</g>
									</g>
								</g>
							</g>
						</g>
					</g>
				</g>
				<g>
					<g>
						<g>
							<g>
								<g>
									<g>
										<g>
											<path class="st1" d="M275.5,142.9c0,0-0.1,0-0.2,0c-0.2,0-0.4,0-0.6,0c-0.6,0-1.4,0-2.3,0c-1,0-2.2,0-3.5,0
												c-0.7,0-1.3,0-2,0c-0.7,0-1.5-0.3-2-0.9c-0.3-0.3-0.4-0.6-0.6-1c-0.1-0.4-0.1-0.8-0.1-1.1c0-0.7,0-1.4,0-2
												c0-1.3,0-2.5,0-3.5c0-1,0-1.7,0-2.3c0-0.3,0-0.5,0-0.6c0-0.1,0-0.2,0-0.2c0,0,0,0.1,0,0.2c0,0.2,0,0.4,0,0.6
												c0,0.6,0,1.4,0,2.3c0,1,0,2.2,0,3.5c0,0.7,0,1.3,0,2c0,0.7,0.2,1.4,0.6,2c0.5,0.5,1.2,0.9,1.9,0.9c0.7,0,1.4,0,2,0
												c1.3,0,2.5,0,3.5,0c1,0,1.7,0,2.3,0c0.3,0,0.5,0,0.6,0C275.4,142.9,275.5,142.9,275.5,142.9z"/>
										</g>
									</g>
								</g>
							</g>
						</g>
					</g>
				</g>
			</g>
			<g>
				<g>
					<g>
						<path class="st1" d="M263.8,139.3c0,0.1-2.7,0.1-6,0.1c-3.3,0-6,0-6-0.1c0-0.1,2.7-0.1,6-0.1
							C261.1,139.2,263.8,139.2,263.8,139.3z"/>
					</g>
				</g>
			</g>
			<g>
				<g>
					<g>
						<path class="st1" d="M269.5,143.8c0,0.1-4,0.1-8.9,0.1c-4.9,0-8.9,0-8.9-0.1c0-0.1,4-0.1,8.9-0.1
							C265.5,143.7,269.5,143.7,269.5,143.8z"/>
					</g>
				</g>
			</g>
			<g>
				<g>
					<g>
						<path class="st1" d="M269.5,148.2c0,0.1-4,0.1-8.9,0.1c-4.9,0-8.9,0-8.9-0.1c0-0.1,4-0.1,8.9-0.1
							C265.5,148.1,269.5,148.2,269.5,148.2z"/>
					</g>
				</g>
			</g>
			<g>
				<g>
					<g>
						<path class="st1" d="M269.5,152.7c0,0.1-4,0.1-8.9,0.1c-4.9,0-8.9,0-8.9-0.1c0-0.1,4-0.1,8.9-0.1
							C265.5,152.6,269.5,152.6,269.5,152.7z"/>
					</g>
				</g>
			</g>
			<g>
				<g>
					<g>
						<path class="st1" d="M269.5,157.1c0,0.1-4,0.1-8.9,0.1c-4.9,0-8.9,0-8.9-0.1c0-0.1,4-0.1,8.9-0.1
							C265.5,157,269.5,157.1,269.5,157.1z"/>
					</g>
				</g>
			</g>
			<g>
				<g>
					<g>
						<path class="st1" d="M269.5,162.6c0,0.1-4,0.1-8.9,0.1c-4.9,0-8.9,0-8.9-0.1c0-0.1,4-0.1,8.9-0.1
							C265.5,162.5,269.5,162.6,269.5,162.6z"/>
					</g>
				</g>
			</g>
		</g>
		<g>
			<g>
				<path class="st1" d="M275.4,178.3c0,0.1-6.4,0.3-14.2,0.3c-7.8,0-14.2-0.1-14.2-0.3c0-0.1,6.4-0.3,14.2-0.3
					C269,178.1,275.4,178.2,275.4,178.3z"/>
			</g>
		</g>
		<g>
			<g>
				<path class="st1" d="M270.3,182c0,0.1-4.1,0.3-9.1,0.3c-5.1,0-9.1-0.1-9.1-0.3s4.1-0.3,9.1-0.3
					C266.2,181.8,270.3,181.9,270.3,182z"/>
			</g>
		</g>
	</g>
	<g>
		<g>
			<g>
				<g>
					<g>
						<g>
							<g>
								<g>
									<g>
										<g>
											<g>
												<path class="st2" d="M271,268.3h-22.9c-1.6,0-2.9-1.3-2.9-2.9l0-31.7c0-1.6,1.3-2.9,2.9-2.9l14.5,0l11.3,11.6v23
													C273.9,267.1,272.6,268.3,271,268.3z"/>
											</g>
										</g>
									</g>
								</g>
							</g>
						</g>
						<g>
							<g>
								<g>
									<g>
										<g>
											<g>
												<path class="st3" d="M262.7,230.9v8.9c0,1.5,1.2,2.7,2.7,2.7l8.6,0L262.7,230.9z"/>
											</g>
										</g>
									</g>
								</g>
							</g>
						</g>
						<g>
							<g>
								<g>
									<g>
										<g>
											<g>
												<path class="st1" d="M262.8,240.6c0,0-0.1,2.2,2.4,2.9c0.1,0,0.2,0,0.3,0.1c1.1,0.2,8.5,1.5,8.5,1.3c0-0.2,0-2.4,0-2.4
													h-8.6C265.3,242.5,263.2,242.4,262.8,240.6z"/>
											</g>
										</g>
									</g>
								</g>
							</g>
						</g>
					</g>
				</g>
				<g>
					<g>
						<g>
							<g>
								<g>
									<g>
										<g>
											<path class="st1" d="M271,268.3c0,0,0.2,0,0.5-0.1c0.3-0.1,0.8-0.2,1.3-0.6c0.5-0.4,1-1.1,1-2c0-0.9,0-2,0-3.2
												c0-4.8,0-11.7,0-20l0,0.1c-3.4-3.5-7.2-7.4-11.3-11.6l0.1,0c-2.7,0-5.5,0-8.4,0c-1.4,0-2.9,0-4.4,0c-0.4,0-0.7,0-1.1,0
												c-0.4,0-0.7,0-1.1,0c-0.7,0.1-1.4,0.5-1.8,1.1c-0.3,0.4-0.5,0.9-0.5,1.4c0,0.5,0,1,0,1.6c0,1,0,2.1,0,3.1
												c0,2,0,4.1,0,6.1c0,4,0,7.8,0,11.4c0,1.8,0,3.6,0,5.3c0,0.9,0,1.7,0,2.6c0,0.4,0,0.8,0,1.2c0,0.4,0,0.8,0.1,1.2
												c0.1,0.8,0.6,1.5,1.3,1.8c0.3,0.2,0.7,0.3,1.1,0.4c0.4,0,0.8,0,1.1,0c1.5,0,2.9,0,4.3,0c5.5,0,10,0,13.1,0
												c1.5,0,2.7,0,3.6,0c0.4,0,0.7,0,0.9,0C270.9,268.3,271,268.3,271,268.3s-0.1,0-0.3,0c-0.2,0-0.5,0-0.9,0
												c-0.8,0-2,0-3.6,0c-3.1,0-7.6,0-13.1,0c-1.4,0-2.8,0-4.3,0c-0.4,0-0.8,0-1.1,0c-0.4-0.1-0.8-0.2-1.1-0.4
												c-0.7-0.4-1.2-1.1-1.4-1.9c-0.1-0.4-0.1-0.8-0.1-1.2c0-0.4,0-0.8,0-1.2c0-0.8,0-1.7,0-2.6c0-1.7,0-3.5,0-5.3
												c0-3.6,0-7.5,0-11.4c0-2,0-4,0-6.1c0-1,0-2.1,0-3.1c0-0.5,0-1,0-1.6c0-0.5,0.2-1.1,0.5-1.5c0.5-0.6,1.2-1.1,1.9-1.2
												c0.4-0.1,0.8,0,1.1,0c0.4,0,0.7,0,1.1,0c1.5,0,2.9,0,4.4,0c2.9,0,5.7,0,8.4,0h0l0,0c4.1,4.2,7.8,8.1,11.2,11.6l0,0l0,0
												c0,8.3,0,15.2,0,20c0,1.2,0,2.3,0,3.2c-0.1,1-0.6,1.7-1.1,2.1c-0.5,0.4-1,0.5-1.3,0.6c-0.2,0-0.3,0-0.4,0
												C271.1,268.3,271,268.3,271,268.3z"/>
										</g>
									</g>
								</g>
							</g>
						</g>
					</g>
				</g>
				<g>
					<g>
						<g>
							<g>
								<g>
									<g>
										<g>
											<path class="st1" d="M273.9,242.5c0,0-0.1,0-0.2,0c-0.2,0-0.4,0-0.6,0c-0.6,0-1.4,0-2.3,0c-1,0-2.2,0-3.5,0
												c-0.7,0-1.3,0-2,0c-0.7,0-1.5-0.3-2-0.9c-0.3-0.3-0.4-0.6-0.6-1c-0.1-0.4-0.1-0.8-0.1-1.1c0-0.7,0-1.4,0-2
												c0-1.3,0-2.5,0-3.5c0-1,0-1.7,0-2.3c0-0.3,0-0.5,0-0.6c0-0.1,0-0.2,0-0.2c0,0,0,0.1,0,0.2c0,0.2,0,0.4,0,0.6
												c0,0.6,0,1.4,0,2.3c0,1,0,2.2,0,3.5c0,0.7,0,1.3,0,2c0,0.7,0.2,1.4,0.6,2c0.5,0.5,1.2,0.9,1.9,0.9c0.7,0,1.4,0,2,0
												c1.3,0,2.5,0,3.5,0c1,0,1.7,0,2.3,0c0.3,0,0.5,0,0.6,0C273.8,242.5,273.9,242.5,273.9,242.5z"/>
										</g>
									</g>
								</g>
							</g>
						</g>
					</g>
				</g>
			</g>
			<g>
				<g>
					<g>
						<path class="st1" d="M262.2,238.8c0,0.1-2.7,0.1-6,0.1c-3.3,0-6,0-6-0.1c0-0.1,2.7-0.1,6-0.1
							C259.5,238.7,262.2,238.8,262.2,238.8z"/>
					</g>
				</g>
			</g>
			<g>
				<g>
					<g>
						<path class="st1" d="M268,243.3c0,0.1-4,0.1-8.9,0.1c-4.9,0-8.9,0-8.9-0.1c0-0.1,4-0.1,8.9-0.1C264,243.2,268,243.2,268,243.3
							z"/>
					</g>
				</g>
			</g>
			<g>
				<g>
					<g>
						<path class="st1" d="M268,247.8c0,0.1-4,0.1-8.9,0.1c-4.9,0-8.9,0-8.9-0.1c0-0.1,4-0.1,8.9-0.1C264,247.6,268,247.7,268,247.8
							z"/>
					</g>
				</g>
			</g>
			<g>
				<g>
					<g>
						<path class="st1" d="M268,252.2c0,0.1-4,0.1-8.9,0.1c-4.9,0-8.9,0-8.9-0.1c0-0.1,4-0.1,8.9-0.1C264,252.1,268,252.2,268,252.2
							z"/>
					</g>
				</g>
			</g>
			<g>
				<g>
					<g>
						<path class="st1" d="M268,256.7c0,0.1-4,0.1-8.9,0.1c-4.9,0-8.9,0-8.9-0.1c0-0.1,4-0.1,8.9-0.1C264,256.6,268,256.6,268,256.7
							z"/>
					</g>
				</g>
			</g>
			<g>
				<g>
					<g>
						<path class="st1" d="M268,262.2c0,0.1-4,0.1-8.9,0.1c-4.9,0-8.9,0-8.9-0.1c0-0.1,4-0.1,8.9-0.1C264,262.1,268,262.1,268,262.2
							z"/>
					</g>
				</g>
			</g>
		</g>
		<g>
			<g>
				<path class="st1" d="M273.8,277.9c0,0.1-6.4,0.3-14.2,0.3c-7.8,0-14.2-0.1-14.2-0.3c0-0.1,6.4-0.3,14.2-0.3
					C267.4,277.6,273.8,277.7,273.8,277.9z"/>
			</g>
		</g>
		<g>
			<g>
				<path class="st1" d="M268.7,281.6c0,0.1-4.1,0.3-9.1,0.3c-5.1,0-9.1-0.1-9.1-0.3c0-0.1,4.1-0.3,9.1-0.3
					C264.6,281.3,268.7,281.4,268.7,281.6z"/>
			</g>
		</g>
	</g>
	<g>
		<g>
			<g>
				<g>
					<g>
						<g>
							<g>
								<g>
									<g>
										<g>
											<g>
												<path class="st2" d="M421.9,266.1h-22.9c-1.6,0-2.9-1.3-2.9-2.9l0-31.7c0-1.6,1.3-2.9,2.9-2.9l14.5,0l11.3,11.6l0,23
													C424.7,264.8,423.5,266.1,421.9,266.1z"/>
											</g>
										</g>
									</g>
								</g>
							</g>
						</g>
						<g>
							<g>
								<g>
									<g>
										<g>
											<g>
												<path class="st3" d="M413.5,228.6v8.9c0,1.5,1.2,2.7,2.7,2.7l8.6,0L413.5,228.6z"/>
											</g>
										</g>
									</g>
								</g>
							</g>
						</g>
						<g>
							<g>
								<g>
									<g>
										<g>
											<g>
												<path class="st1" d="M413.6,238.3c0,0-0.1,2.2,2.4,2.9c0.1,0,0.2,0,0.3,0.1c1.1,0.2,8.5,1.5,8.5,1.3c0-0.2,0-2.4,0-2.4
													l-8.6,0C416.1,240.2,414,240.1,413.6,238.3z"/>
											</g>
										</g>
									</g>
								</g>
							</g>
						</g>
					</g>
				</g>
				<g>
					<g>
						<g>
							<g>
								<g>
									<g>
										<g>
											<path class="st1" d="M421.9,266.1c0,0,0.2,0,0.5-0.1c0.3-0.1,0.8-0.2,1.3-0.6c0.5-0.4,1-1.1,1-2c0-0.9,0-2,0-3.2
												c0-4.8,0-11.7,0-20l0,0.1c-3.4-3.5-7.2-7.4-11.3-11.6l0.1,0c-2.7,0-5.5,0-8.4,0c-1.4,0-2.9,0-4.4,0c-0.4,0-0.7,0-1.1,0
												c-0.4,0-0.7,0-1.1,0c-0.7,0.1-1.4,0.5-1.8,1.1c-0.3,0.4-0.5,0.9-0.5,1.4c0,0.5,0,1,0,1.6c0,1,0,2.1,0,3.1
												c0,2,0,4.1,0,6.1c0,4,0,7.8,0,11.4c0,1.8,0,3.6,0,5.3c0,0.9,0,1.7,0,2.6c0,0.4,0,0.8,0,1.2c0,0.4,0,0.8,0.1,1.2
												c0.1,0.8,0.6,1.5,1.3,1.8c0.3,0.2,0.7,0.3,1.1,0.4c0.4,0,0.8,0,1.1,0c1.5,0,2.9,0,4.3,0c5.5,0,10,0,13.1,0
												c1.5,0,2.7,0,3.6,0c0.4,0,0.7,0,0.9,0C421.8,266.1,421.9,266.1,421.9,266.1s-0.1,0-0.3,0c-0.2,0-0.5,0-0.9,0
												c-0.8,0-2,0-3.6,0c-3.1,0-7.6,0-13.1,0c-1.4,0-2.8,0-4.3,0c-0.4,0-0.8,0-1.1,0c-0.4-0.1-0.8-0.2-1.1-0.4
												c-0.7-0.4-1.2-1.1-1.4-1.9c-0.1-0.4-0.1-0.8-0.1-1.2c0-0.4,0-0.8,0-1.2c0-0.8,0-1.7,0-2.6c0-1.7,0-3.5,0-5.3
												c0-3.6,0-7.5,0-11.4c0-2,0-4,0-6.1c0-1,0-2.1,0-3.1c0-0.5,0-1,0-1.6c0-0.5,0.2-1.1,0.5-1.5c0.5-0.6,1.2-1.1,1.9-1.2
												c0.4-0.1,0.8,0,1.1,0c0.4,0,0.7,0,1.1,0c1.5,0,2.9,0,4.4,0c2.9,0,5.7,0,8.4,0h0l0,0c4.1,4.2,7.8,8.1,11.2,11.6l0,0l0,0
												c0,8.3,0,15.2,0,20c0,1.2,0,2.3,0,3.2c-0.1,1-0.6,1.7-1.1,2.1c-0.5,0.4-1,0.5-1.3,0.6c-0.2,0-0.3,0-0.4,0
												C421.9,266.1,421.9,266.1,421.9,266.1z"/>
										</g>
									</g>
								</g>
							</g>
						</g>
					</g>
				</g>
				<g>
					<g>
						<g>
							<g>
								<g>
									<g>
										<g>
											<path class="st1" d="M424.7,240.2c0,0-0.1,0-0.2,0c-0.2,0-0.4,0-0.6,0c-0.6,0-1.4,0-2.3,0c-1,0-2.2,0-3.5,0
												c-0.7,0-1.3,0-2,0c-0.7,0-1.5-0.3-2-0.9c-0.3-0.3-0.4-0.6-0.6-1c-0.1-0.4-0.1-0.8-0.1-1.1c0-0.7,0-1.4,0-2
												c0-1.3,0-2.5,0-3.5c0-1,0-1.7,0-2.3c0-0.3,0-0.5,0-0.6c0-0.1,0-0.2,0-0.2c0,0,0,0.1,0,0.2c0,0.2,0,0.4,0,0.6
												c0,0.6,0,1.4,0,2.3c0,1,0,2.2,0,3.5c0,0.7,0,1.3,0,2c0,0.7,0.2,1.4,0.6,2c0.5,0.5,1.2,0.9,1.9,0.9c0.7,0,1.4,0,2,0
												c1.3,0,2.5,0,3.5,0c1,0,1.7,0,2.3,0c0.3,0,0.5,0,0.6,0C424.7,240.2,424.7,240.2,424.7,240.2z"/>
										</g>
									</g>
								</g>
							</g>
						</g>
					</g>
				</g>
			</g>
			<g>
				<g>
					<g>
						<path class="st1" d="M413,236.6c0,0.1-2.7,0.1-6,0.1c-3.3,0-6,0-6-0.1c0-0.1,2.7-0.1,6-0.1C410.3,236.5,413,236.5,413,236.6z"
							/>
					</g>
				</g>
			</g>
			<g>
				<g>
					<g>
						<path class="st1" d="M418.8,241c0,0.1-4,0.1-8.9,0.1c-4.9,0-8.9,0-8.9-0.1c0-0.1,4-0.1,8.9-0.1
							C414.8,240.9,418.8,241,418.8,241z"/>
					</g>
				</g>
			</g>
			<g>
				<g>
					<g>
						<path class="st1" d="M418.8,245.5c0,0.1-4,0.1-8.9,0.1c-4.9,0-8.9,0-8.9-0.1c0-0.1,4-0.1,8.9-0.1
							C414.8,245.4,418.8,245.4,418.8,245.5z"/>
					</g>
				</g>
			</g>
			<g>
				<g>
					<g>
						<path class="st1" d="M418.8,249.9c0,0.1-4,0.1-8.9,0.1c-4.9,0-8.9,0-8.9-0.1s4-0.1,8.9-0.1
							C414.8,249.8,418.8,249.9,418.8,249.9z"/>
					</g>
				</g>
			</g>
			<g>
				<g>
					<g>
						<path class="st1" d="M418.8,254.4c0,0.1-4,0.1-8.9,0.1c-4.9,0-8.9,0-8.9-0.1c0-0.1,4-0.1,8.9-0.1
							C414.8,254.3,418.8,254.3,418.8,254.4z"/>
					</g>
				</g>
			</g>
			<g>
				<g>
					<g>
						<path class="st1" d="M418.8,259.9c0,0.1-4,0.1-8.9,0.1c-4.9,0-8.9,0-8.9-0.1c0-0.1,4-0.1,8.9-0.1
							C414.8,259.8,418.8,259.8,418.8,259.9z"/>
					</g>
				</g>
			</g>
		</g>
		<g>
			<g>
				<path class="st1" d="M424.6,275.6c0,0.1-6.4,0.3-14.2,0.3c-7.8,0-14.2-0.1-14.2-0.3c0-0.1,6.4-0.3,14.2-0.3
					C418.2,275.3,424.6,275.4,424.6,275.6z"/>
			</g>
		</g>
		<g>
			<g>
				<path class="st1" d="M419.5,279.3c0,0.1-4.1,0.3-9.1,0.3c-5.1,0-9.1-0.1-9.1-0.3c0-0.1,4.1-0.3,9.1-0.3
					C415.4,279,419.5,279.2,419.5,279.3z"/>
			</g>
		</g>
	</g>
	<g>
		<g>
			<g>
				<g>
					<path class="st2" d="M330.9,36.2l1.1,20.5c0,0.7,0.6,1.3,1.2,1.3h31.7c0.7,0,1.2-0.6,1.2-1.4l0-16c0-0.8-0.5-1.4-1.2-1.4
						l-19.5,0.1c-0.3,0-0.6-0.1-0.8-0.4l-3.4-3.9c-0.2-0.3-0.5-0.4-0.8-0.4h-8.2C331.4,34.7,330.8,35.4,330.9,36.2z"/>
				</g>
			</g>
			<g>
				<g>
					<rect x="331.4" y="36.8" class="st3" width="34.6" height="24.1"/>
				</g>
			</g>
			<g>
				<g>
					<path class="st2" d="M328.7,39l2.6,25.2c0,0.4,0.4,0.8,0.8,0.8l33.7,0c0.4,0,0.7-0.4,0.8-0.8l1.7-25.2c0-0.5-0.3-1-0.8-1h-38
						C329,38,328.6,38.5,328.7,39z"/>
				</g>
			</g>
		</g>
		<g>
			<g>
				<path class="st1" d="M362.6,77.7c0,0.1-6.4,0.3-14.2,0.3c-7.8,0-14.2-0.1-14.2-0.3s6.4-0.3,14.2-0.3
					C356.3,77.4,362.6,77.5,362.6,77.7z"/>
			</g>
		</g>
		<g>
			<g>
				<path class="st1" d="M357.6,81.4c0,0.1-4.1,0.3-9.1,0.3c-5.1,0-9.1-0.1-9.1-0.3c0-0.1,4.1-0.3,9.1-0.3
					C353.5,81.1,357.6,81.3,357.6,81.4z"/>
			</g>
		</g>
	</g>
	<g>
		<g>
			<g>
				<g>
					<path class="st2" d="M332,132.6l1.1,20.5c0,0.7,0.6,1.3,1.2,1.3h31.7c0.7,0,1.2-0.6,1.2-1.4v-16c0-0.8-0.5-1.4-1.2-1.4
						l-19.5,0.1c-0.3,0-0.6-0.1-0.8-0.4l-3.4-3.9c-0.2-0.3-0.5-0.4-0.8-0.4h-8.2C332.5,131.2,332,131.8,332,132.6z"/>
				</g>
			</g>
			<g>
				<g>
					<rect x="332.5" y="133.3" class="st3" width="34.6" height="24.1"/>
				</g>
			</g>
			<g>
				<g>
					<path class="st2" d="M329.8,135.5l2.6,25.2c0,0.4,0.4,0.8,0.8,0.8h33.7c0.4,0,0.7-0.4,0.8-0.8l1.7-25.2c0-0.5-0.3-1-0.8-1
						l-38,0C330.1,134.5,329.7,134.9,329.8,135.5z"/>
				</g>
			</g>
		</g>
		<g>
			<g>
				<path class="st1" d="M363.8,174.2c0,0.1-6.4,0.3-14.2,0.3c-7.8,0-14.2-0.1-14.2-0.3c0-0.1,6.4-0.3,14.2-0.3
					C357.4,173.9,363.8,174,363.8,174.2z"/>
			</g>
		</g>
		<g>
			<g>
				<path class="st1" d="M358.7,177.9c0,0.1-4.1,0.3-9.1,0.3c-5.1,0-9.1-0.1-9.1-0.3c0-0.1,4.1-0.3,9.1-0.3
					C354.6,177.6,358.7,177.7,358.7,177.9z"/>
			</g>
		</g>
	</g>
	<g>
		<g>
			<g>
				<g>
					<path class="st2" d="M315.3,251.6l1.1,20.5c0,0.7,0.6,1.3,1.2,1.3h31.7c0.7,0,1.2-0.6,1.2-1.4v-16c0-0.8-0.5-1.4-1.2-1.4
						l-19.5,0.1c-0.3,0-0.6-0.1-0.8-0.4l-3.4-3.9c-0.2-0.3-0.5-0.4-0.8-0.4h-8.2C315.8,250.1,315.2,250.8,315.3,251.6z"/>
				</g>
			</g>
			<g>
				<g>
					<rect x="315.8" y="252.2" class="st3" width="34.6" height="24.1"/>
				</g>
			</g>
			<g>
				<g>
					<path class="st2" d="M313,254.4l2.6,25.2c0,0.4,0.4,0.8,0.8,0.8h33.7c0.4,0,0.7-0.4,0.8-0.8l1.7-25.2c0-0.5-0.3-1-0.8-1l-38,0
						C313.3,253.4,313,253.9,313,254.4z"/>
				</g>
			</g>
		</g>
		<g>
			<g>
				<path class="st1" d="M347,293.1c0,0.1-6.4,0.3-14.2,0.3c-7.8,0-14.2-0.1-14.2-0.3s6.4-0.3,14.2-0.3
					C340.7,292.8,347,292.9,347,293.1z"/>
			</g>
		</g>
		<g>
			<g>
				<path class="st1" d="M342,296.8c0,0.1-4.1,0.3-9.1,0.3c-5.1,0-9.1-0.1-9.1-0.3s4.1-0.3,9.1-0.3C337.9,296.5,342,296.7,342,296.8
					z"/>
			</g>
		</g>
	</g>
	<g>
		<g>
			<g>
				<g>
					<rect x="431.1" y="30.5" class="st4" width="228.9" height="201.3"/>
				</g>
				<g>
					<g>
						<path class="st1" d="M660,231.8c0-1.9-0.1-80.2-0.2-201.3l0.2,0.2c-65.8,0-144.5,0-228.9,0h0l0.3-0.3c0,73.2,0,142,0,201.3
							l-0.2-0.2C567.7,231.7,657.9,231.8,660,231.8c-2,0-92.3,0.1-228.9,0.2l-0.2,0l0-0.2c0-59.2,0-128.1,0-201.3v-0.3h0.3h0
							c84.4,0,163,0,228.9,0l0.2,0l0,0.2C660.1,151.6,660,229.9,660,231.8z"/>
					</g>
				</g>
			</g>
		</g>
		<g>
			<g>
				<g>
					<path class="st1" d="M660.6,51.2c0,0.1-50.8,0.2-113.5,0.2c-62.7,0-113.5-0.1-113.5-0.2c0-0.1,50.8-0.2,113.5-0.2
						C609.8,51,660.6,51.1,660.6,51.2z"/>
				</g>
			</g>
		</g>
		<g>
			<g>
				<g>
					<path class="st2" d="M446.7,41.8c0,1.3-1.1,2.3-2.3,2.3S442,43,442,41.8s1.1-2.3,2.3-2.3S446.7,40.5,446.7,41.8z"/>
				</g>
			</g>
			<g>
				<g>
					<path class="st2" d="M454.4,41.8c0,1.3-1.1,2.3-2.3,2.3c-1.3,0-2.3-1.1-2.3-2.3s1.1-2.3,2.3-2.3
						C453.3,39.4,454.4,40.5,454.4,41.8z"/>
				</g>
			</g>
			<g>
				<g>
					<path class="st2" d="M462.1,41.8c0,1.3-1.1,2.3-2.3,2.3c-1.3,0-2.3-1.1-2.3-2.3s1.1-2.3,2.3-2.3
						C461,39.4,462.1,40.5,462.1,41.8z"/>
				</g>
			</g>
		</g>
		<g>
			<g>
				<g>
					<g>
						<path class="st1" d="M649.3,68.9c0,0,0.1,0,0.4-0.1c0.2-0.1,0.6-0.3,0.8-0.8c0.1-0.2,0.1-0.5,0.1-0.8c0-0.3,0-0.7,0-1
							c0-0.7,0-1.6,0-2.6c0-1,0-2,0-3.2c0-0.3,0-0.6,0-0.9c0-0.3-0.2-0.6-0.4-0.8c-0.2-0.2-0.5-0.3-0.8-0.3c-0.3,0-0.7,0-1,0
							c-2.8,0-5.9,0-9.3,0c-13.9,0-33,0-54.1,0.1c-0.6,0-1.1,0.5-1.1,1.1c0,0.7,0,1.3,0,2c0,1.3,0,2.6,0,3.9c0,0.6,0,1.3,0,1.9
							c0,0.3,0,0.6,0.1,0.8c0.1,0.2,0.4,0.4,0.6,0.5c0.1,0,0.3,0.1,0.4,0.1l0.5,0l0.9,0c0.6,0,1.3,0,1.9,0c5,0,9.8,0,14.4,0
							c9.2,0,17.4,0,24.3,0c6.9,0,12.5,0,16.4,0.1c1.9,0,3.4,0,4.5,0c0.5,0,0.9,0,1.2,0C649.2,68.9,649.3,68.9,649.3,68.9
							s-0.1,0-0.4,0c-0.3,0-0.7,0-1.2,0c-1,0-2.5,0-4.5,0c-3.9,0-9.5,0-16.4,0.1c-6.9,0-15.2,0-24.3,0c-4.6,0-9.4,0-14.4,0
							c-0.6,0-1.2,0-1.9,0l-0.9,0l-0.5,0c-0.2,0-0.4,0-0.5-0.1c-0.3-0.1-0.6-0.4-0.8-0.7c-0.2-0.3-0.2-0.7-0.2-1c0-0.6,0-1.3,0-1.9
							c0-1.3,0-2.6,0-3.9c0-0.7,0-1.3,0-2c0-0.8,0.7-1.4,1.5-1.4c21.1,0,40.3,0,54.1,0.1c3.5,0,6.6,0,9.3,0c0.3,0,0.7,0,1,0
							c0.4,0,0.7,0.2,0.9,0.4c0.2,0.2,0.4,0.6,0.4,0.9c0,0.3,0,0.6,0,0.9c0,1.2,0,2.3,0,3.2c0,1,0,1.8,0,2.6c0,0.4,0,0.7,0,1
							c0,0.3,0,0.6-0.1,0.9c-0.2,0.5-0.6,0.7-0.9,0.8C649.5,69,649.3,68.9,649.3,68.9z"/>
					</g>
				</g>
			</g>
			<g>
				<g>
					<path class="st1" d="M587.7,65l0.2-0.4c0.3,0.2,0.7,0.4,1.1,0.4c0.6,0,0.8-0.2,0.8-0.5c0-0.8-2-0.3-2-1.6c0-0.5,0.4-1,1.3-1
						c0.4,0,0.8,0.1,1.1,0.3l-0.2,0.4c-0.3-0.2-0.6-0.3-0.9-0.3c-0.6,0-0.8,0.2-0.8,0.5c0,0.8,2,0.3,2,1.5c0,0.5-0.4,1-1.3,1
						C588.5,65.4,588,65.3,587.7,65z"/>
				</g>
				<g>
					<path class="st1" d="M593.3,64.3h-2.1c0.1,0.4,0.4,0.7,0.9,0.7c0.3,0,0.5-0.1,0.7-0.3l0.3,0.3c-0.2,0.3-0.6,0.4-1,0.4
						c-0.8,0-1.4-0.5-1.4-1.3c0-0.8,0.5-1.3,1.3-1.3c0.7,0,1.3,0.5,1.3,1.3C593.3,64.2,593.3,64.2,593.3,64.3z M591.2,63.9h1.6
						c0-0.4-0.4-0.7-0.8-0.7C591.6,63.2,591.2,63.5,591.2,63.9z"/>
				</g>
				<g>
					<path class="st1" d="M595.9,63.8v1.5h-0.4v-0.3c-0.2,0.2-0.4,0.4-0.8,0.4c-0.6,0-0.9-0.3-0.9-0.8c0-0.4,0.3-0.7,1-0.7h0.7v-0.1
						c0-0.4-0.2-0.6-0.7-0.6c-0.3,0-0.6,0.1-0.8,0.3l-0.2-0.3c0.3-0.2,0.6-0.3,1.1-0.3C595.5,62.8,595.9,63.1,595.9,63.8z
						 M595.4,64.6v-0.4h-0.7c-0.5,0-0.6,0.2-0.6,0.4c0,0.3,0.2,0.4,0.6,0.4C595,65.1,595.3,64.9,595.4,64.6z"/>
				</g>
				<g>
					<path class="st1" d="M598.1,62.8v0.4c0,0-0.1,0-0.1,0c-0.5,0-0.8,0.3-0.8,0.9v1.3h-0.5v-2.6h0.4v0.4
						C597.3,63,597.6,62.8,598.1,62.8z"/>
				</g>
				<g>
					<path class="st1" d="M598.4,64.1c0-0.8,0.6-1.3,1.3-1.3c0.5,0,0.8,0.2,1,0.5l-0.4,0.2c-0.2-0.3-0.4-0.4-0.7-0.4
						c-0.5,0-0.9,0.4-0.9,0.9c0,0.6,0.4,0.9,0.9,0.9c0.3,0,0.5-0.1,0.7-0.4l0.4,0.2c-0.2,0.4-0.6,0.5-1,0.5
						C599,65.4,598.4,64.9,598.4,64.1z"/>
				</g>
				<g>
					<path class="st1" d="M603.8,63.9v1.5h-0.5V64c0-0.5-0.3-0.7-0.7-0.7c-0.5,0-0.8,0.3-0.8,0.8v1.3h-0.5v-3.6h0.5v1.4
						c0.2-0.2,0.5-0.4,0.9-0.4C603.3,62.8,603.8,63.2,603.8,63.9z"/>
				</g>
				<g>
					<path class="st1" d="M604.4,65.1c0-0.2,0.1-0.3,0.3-0.3c0.2,0,0.3,0.1,0.3,0.3c0,0.2-0.1,0.3-0.3,0.3
						C604.6,65.4,604.4,65.3,604.4,65.1z"/>
				</g>
				<g>
					<path class="st1" d="M605.5,65.1c0-0.2,0.1-0.3,0.3-0.3c0.2,0,0.3,0.1,0.3,0.3c0,0.2-0.1,0.3-0.3,0.3
						C605.7,65.4,605.5,65.3,605.5,65.1z"/>
				</g>
				<g>
					<path class="st1" d="M606.6,65.1c0-0.2,0.1-0.3,0.3-0.3c0.2,0,0.3,0.1,0.3,0.3c0,0.2-0.1,0.3-0.3,0.3
						C606.8,65.4,606.6,65.3,606.6,65.1z"/>
				</g>
			</g>
		</g>
		<g>
			<g>
				<g>
					<g>
						<path class="st1" d="M572.9,86.1v36.1h43.9V86.1c0-1.7-1.4-3.1-3.1-3.1H576C574.3,83,572.9,84.4,572.9,86.1z"/>
					</g>
				</g>
				<g>
					<g>
						<g>
							<polyline class="st3" points="574.9,102.6 575.2,89.4 613.6,89.4 613.6,96.9 							"/>
						</g>
					</g>
				</g>
				<g>
					<g>
						<g>
							<rect x="577.7" y="85.8" class="st3" width="33.5" height="3.6"/>
						</g>
					</g>
					<g>
						<g>
							<g>
								<path class="st1" d="M577.7,85.8c0,0,0,0,0.2,0c0.1,0,0.3,0,0.5,0c0.5,0,1.1,0,1.9,0c1.7,0,4.1,0,7.1-0.1
									c6.1,0,14.5,0,23.9-0.1l0.2,0v0.2c0,1.1,0,2.4,0,3.6c-0.4,0.4-0.1,0.1-0.2,0.2h0h0h0l-0.1,0h-0.2h-0.3l-0.7,0
									c-0.5,0-0.9,0-1.4,0c-0.9,0-1.8,0-2.7,0c-1.8,0-3.5,0-5.2,0c-3.4,0-6.6,0-9.5,0c-5.8,0-10.4-0.1-13.4-0.1l-0.1,0l0-0.1
									c0-1.2,0-2.1,0-2.7c0-0.3,0-0.5,0-0.7C577.7,85.8,577.7,85.8,577.7,85.8c0,0,0,0.1,0,0.2c0,0.2,0,0.4,0,0.7
									c0,0.6,0,1.5,0,2.6l-0.1-0.1c3,0,7.6,0,13.4-0.1c2.9,0,6.1,0,9.5,0c1.7,0,3.4,0,5.2,0c0.9,0,1.8,0,2.7,0c0.5,0,0.9,0,1.4,0
									l0.7,0h0.3h0.2h0.1h0h0h0c-0.1,0.1,0.2-0.2-0.2,0.2c0-1.2,0-2.4,0-3.6l0.2,0.2c-9.4,0-17.7-0.1-23.8-0.1c-3,0-5.4,0-7.1-0.1
									c-0.8,0-1.5,0-1.9,0c-0.2,0-0.4,0-0.5,0C577.8,85.8,577.7,85.8,577.7,85.8z"/>
							</g>
						</g>
					</g>
				</g>
				<g>
					<g>
						<g>
							<path class="st1" d="M615.2,131.2c0,0.1-8.4,0.2-18.7,0.2c-10.3,0-18.7-0.1-18.7-0.2c0-0.1,8.4-0.2,18.7-0.2
								C606.8,131.1,615.2,131.1,615.2,131.2z"/>
						</g>
					</g>
				</g>
				<g>
					<g>
						<path class="st2" d="M569.5,96.1l3.4,26.1h43.9V96.9h-19.9l-3.9-3.4h-21.2C570.4,93.5,569.3,94.7,569.5,96.1z"/>
					</g>
				</g>
				<g>
					<g>
						<g>
							<path class="st1" d="M604.7,107.1c0,0.1-4.8,0.2-10.7,0.2c-5.9,0-10.7-0.1-10.7-0.2c0-0.1,4.8-0.2,10.7-0.2
								C599.9,107,604.7,107,604.7,107.1z"/>
						</g>
					</g>
				</g>
				<g>
					<g>
						<g>
							<path class="st1" d="M604.7,109.7c0,0.1-4.8,0.2-10.7,0.2c-5.9,0-10.7-0.1-10.7-0.2c0-0.1,4.8-0.2,10.7-0.2
								C599.9,109.5,604.7,109.6,604.7,109.7z"/>
						</g>
					</g>
				</g>
			</g>
			<g>
				<g>
					<g>
						<path class="st1" d="M606,136.1c0,0.1-5.3,0.2-11.7,0.2c-6.5,0-11.7-0.1-11.7-0.2s5.3-0.2,11.7-0.2
							C600.7,136,606,136,606,136.1z"/>
					</g>
				</g>
			</g>
		</g>
		<g>
			<g>
				<g>
					<g>
						<path class="st1" d="M477.4,86.1v36.1h43.9V86.1c0-1.7-1.4-3.1-3.1-3.1h-37.7C478.8,83,477.4,84.4,477.4,86.1z"/>
					</g>
				</g>
				<g>
					<g>
						<g>
							<polyline class="st3" points="479.5,102.6 479.8,89.4 518.2,89.4 518.2,96.9 							"/>
						</g>
					</g>
				</g>
				<g>
					<g>
						<g>
							<rect x="482.3" y="85.8" class="st3" width="33.5" height="3.6"/>
						</g>
					</g>
					<g>
						<g>
							<g>
								<path class="st1" d="M482.3,85.8c0,0,0,0,0.2,0c0.1,0,0.3,0,0.5,0c0.5,0,1.1,0,1.9,0c1.7,0,4.1,0,7.1-0.1
									c6.1,0,14.5,0,23.9-0.1l0.2,0v0.2c0,1.1,0,2.4,0,3.6c-0.4,0.4-0.1,0.1-0.2,0.2h0h0h0l-0.1,0h-0.2h-0.3l-0.7,0
									c-0.5,0-0.9,0-1.4,0c-0.9,0-1.8,0-2.7,0c-1.8,0-3.5,0-5.2,0c-3.4,0-6.6,0-9.5,0c-5.8,0-10.4-0.1-13.4-0.1l-0.1,0l0-0.1
									c0-1.2,0-2.1,0-2.7c0-0.3,0-0.5,0-0.7C482.3,85.8,482.3,85.8,482.3,85.8c0,0,0,0.1,0,0.2c0,0.2,0,0.4,0,0.7
									c0,0.6,0,1.5,0,2.6l-0.1-0.1c3,0,7.6,0,13.4-0.1c2.9,0,6.1,0,9.5,0c1.7,0,3.4,0,5.2,0c0.9,0,1.8,0,2.7,0c0.5,0,0.9,0,1.4,0
									l0.7,0h0.3h0.2h0.1h0h0h0c-0.1,0.1,0.2-0.2-0.2,0.2c0-1.2,0-2.4,0-3.6l0.2,0.2c-9.4,0-17.7-0.1-23.8-0.1c-3,0-5.4,0-7.1-0.1
									c-0.8,0-1.5,0-1.9,0c-0.2,0-0.4,0-0.5,0C482.4,85.8,482.3,85.8,482.3,85.8z"/>
							</g>
						</g>
					</g>
				</g>
				<g>
					<g>
						<g>
							<path class="st1" d="M519.7,131.2c0,0.1-8.4,0.2-18.7,0.2c-10.3,0-18.7-0.1-18.7-0.2c0-0.1,8.4-0.2,18.7-0.2
								C511.4,131.1,519.7,131.1,519.7,131.2z"/>
						</g>
					</g>
				</g>
				<g>
					<g>
						<path class="st2" d="M474.1,96.1l3.4,26.1h43.9V96.9h-19.9l-3.9-3.4h-21.2C475,93.5,473.9,94.7,474.1,96.1z"/>
					</g>
				</g>
				<g>
					<g>
						<g>
							<path class="st1" d="M509.2,107.1c0,0.1-4.8,0.2-10.7,0.2c-5.9,0-10.7-0.1-10.7-0.2c0-0.1,4.8-0.2,10.7-0.2
								C504.4,107,509.2,107,509.2,107.1z"/>
						</g>
					</g>
				</g>
				<g>
					<g>
						<g>
							<path class="st1" d="M509.2,109.7c0,0.1-4.8,0.2-10.7,0.2c-5.9,0-10.7-0.1-10.7-0.2c0-0.1,4.8-0.2,10.7-0.2
								C504.4,109.5,509.2,109.6,509.2,109.7z"/>
						</g>
					</g>
				</g>
			</g>
			<g>
				<g>
					<g>
						<path class="st1" d="M510.5,136.1c0,0.1-5.3,0.2-11.7,0.2c-6.5,0-11.7-0.1-11.7-0.2s5.3-0.2,11.7-0.2
							C505.3,136,510.5,136,510.5,136.1z"/>
					</g>
				</g>
			</g>
		</g>
		<g>
			<g>
				<g>
					<g>
						<path class="st1" d="M476.1,162.8v36.1h43.9v-36.1c0-1.7-1.4-3.1-3.1-3.1h-37.7C477.5,159.7,476.1,161.1,476.1,162.8z"/>
					</g>
				</g>
				<g>
					<g>
						<g>
							<polyline class="st3" points="478.1,179.3 478.4,166 516.8,166 516.8,173.6 							"/>
						</g>
					</g>
				</g>
				<g>
					<g>
						<g>
							<rect x="480.9" y="162.5" class="st3" width="33.5" height="3.6"/>
						</g>
					</g>
					<g>
						<g>
							<g>
								<path class="st1" d="M480.9,162.5c0,0,0,0,0.2,0c0.1,0,0.3,0,0.5,0c0.5,0,1.1,0,1.9,0c1.7,0,4.1,0,7.1-0.1
									c6.1,0,14.5,0,23.9-0.1l0.2,0v0.2c0,1.1,0,2.4,0,3.6c-0.4,0.4-0.1,0.1-0.2,0.2h0h0h0l-0.1,0h-0.2h-0.3l-0.7,0
									c-0.5,0-0.9,0-1.4,0c-0.9,0-1.8,0-2.7,0c-1.8,0-3.5,0-5.2,0c-3.4,0-6.6,0-9.5,0c-5.8,0-10.4-0.1-13.4-0.1l-0.1,0l0-0.1
									c0-1.2,0-2.1,0-2.7c0-0.3,0-0.5,0-0.7C480.9,162.5,480.9,162.4,480.9,162.5c0,0,0,0.1,0,0.2c0,0.2,0,0.4,0,0.7
									c0,0.6,0,1.5,0,2.6l-0.1-0.1c3,0,7.6,0,13.4-0.1c2.9,0,6.1,0,9.5,0c1.7,0,3.4,0,5.2,0c0.9,0,1.8,0,2.7,0c0.5,0,0.9,0,1.4,0
									l0.7,0h0.3h0.2h0.1h0h0h0c-0.1,0.1,0.2-0.2-0.2,0.2c0-1.2,0-2.4,0-3.6l0.2,0.2c-9.4,0-17.7-0.1-23.8-0.1c-3,0-5.4,0-7.1-0.1
									c-0.8,0-1.5,0-1.9,0c-0.2,0-0.4,0-0.5,0C481,162.5,480.9,162.5,480.9,162.5z"/>
							</g>
						</g>
					</g>
				</g>
				<g>
					<g>
						<g>
							<path class="st1" d="M518.4,207.9c0,0.1-8.4,0.2-18.7,0.2c-10.3,0-18.7-0.1-18.7-0.2s8.4-0.2,18.7-0.2
								C510,207.7,518.4,207.8,518.4,207.9z"/>
						</g>
					</g>
				</g>
				<g>
					<g>
						<path class="st2" d="M472.7,172.8l3.4,26.1h43.9v-25.3H500l-3.9-3.4H475C473.6,170.2,472.5,171.4,472.7,172.8z"/>
					</g>
				</g>
				<g>
					<g>
						<g>
							<path class="st1" d="M507.9,183.8c0,0.1-4.8,0.2-10.7,0.2c-5.9,0-10.7-0.1-10.7-0.2s4.8-0.2,10.7-0.2
								C503.1,183.6,507.9,183.7,507.9,183.8z"/>
						</g>
					</g>
				</g>
				<g>
					<g>
						<g>
							<path class="st1" d="M507.9,186.4c0,0.1-4.8,0.2-10.7,0.2c-5.9,0-10.7-0.1-10.7-0.2c0-0.1,4.8-0.2,10.7-0.2
								C503.1,186.2,507.9,186.3,507.9,186.4z"/>
						</g>
					</g>
				</g>
			</g>
			<g>
				<g>
					<g>
						<path class="st1" d="M509.2,212.8c0,0.1-5.3,0.2-11.7,0.2c-6.5,0-11.7-0.1-11.7-0.2c0-0.1,5.3-0.2,11.7-0.2
							C503.9,212.6,509.2,212.7,509.2,212.8z"/>
					</g>
				</g>
			</g>
		</g>
		<g>
			<g>
				<g>
					<g>
						<path class="st1" d="M572.5,162.8v36.1h43.9v-36.1c0-1.7-1.4-3.1-3.1-3.1h-37.7C573.9,159.7,572.5,161.1,572.5,162.8z"/>
					</g>
				</g>
				<g>
					<g>
						<g>
							<polyline class="st3" points="574.6,179.3 574.9,166 613.3,166 613.3,173.6 							"/>
						</g>
					</g>
				</g>
				<g>
					<g>
						<g>
							<rect x="577.4" y="162.5" class="st3" width="33.5" height="3.6"/>
						</g>
					</g>
					<g>
						<g>
							<g>
								<path class="st1" d="M577.4,162.5c0,0,0,0,0.2,0c0.1,0,0.3,0,0.5,0c0.5,0,1.1,0,1.9,0c1.7,0,4.1,0,7.1-0.1
									c6.1,0,14.5,0,23.9-0.1l0.2,0v0.2c0,1.1,0,2.4,0,3.6c-0.4,0.4-0.1,0.1-0.2,0.2h0h0h0l-0.1,0h-0.2h-0.3l-0.7,0
									c-0.5,0-0.9,0-1.4,0c-0.9,0-1.8,0-2.7,0c-1.8,0-3.5,0-5.2,0c-3.4,0-6.6,0-9.5,0c-5.8,0-10.4-0.1-13.4-0.1l-0.1,0l0-0.1
									c0-1.2,0-2.1,0-2.7c0-0.3,0-0.5,0-0.7C577.4,162.5,577.4,162.4,577.4,162.5c0,0,0,0.1,0,0.2c0,0.2,0,0.4,0,0.7
									c0,0.6,0,1.5,0,2.6l-0.1-0.1c3,0,7.6,0,13.4-0.1c2.9,0,6.1,0,9.5,0c1.7,0,3.4,0,5.2,0c0.9,0,1.8,0,2.7,0c0.5,0,0.9,0,1.4,0
									l0.7,0h0.3h0.2h0.1h0h0h0c-0.1,0.1,0.2-0.2-0.2,0.2c0-1.2,0-2.4,0-3.6l0.2,0.2c-9.4,0-17.7-0.1-23.8-0.1c-3,0-5.4,0-7.1-0.1
									c-0.8,0-1.5,0-1.9,0c-0.2,0-0.4,0-0.5,0C577.5,162.5,577.4,162.5,577.4,162.5z"/>
							</g>
						</g>
					</g>
				</g>
				<g>
					<g>
						<g>
							<path class="st1" d="M614.8,207.9c0,0.1-8.4,0.2-18.7,0.2c-10.3,0-18.7-0.1-18.7-0.2s8.4-0.2,18.7-0.2
								C606.5,207.7,614.8,207.8,614.8,207.9z"/>
						</g>
					</g>
				</g>
				<g>
					<g>
						<path class="st2" d="M569.2,172.8l3.4,26.1h43.9v-25.3h-19.9l-3.9-3.4h-21.2C570.1,170.2,569,171.4,569.2,172.8z"/>
					</g>
				</g>
				<g>
					<g>
						<g>
							<path class="st1" d="M604.3,183.8c0,0.1-4.8,0.2-10.7,0.2c-5.9,0-10.7-0.1-10.7-0.2s4.8-0.2,10.7-0.2
								C599.5,183.6,604.3,183.7,604.3,183.8z"/>
						</g>
					</g>
				</g>
				<g>
					<g>
						<g>
							<path class="st1" d="M604.3,186.4c0,0.1-4.8,0.2-10.7,0.2c-5.9,0-10.7-0.1-10.7-0.2c0-0.1,4.8-0.2,10.7-0.2
								C599.5,186.2,604.3,186.3,604.3,186.4z"/>
						</g>
					</g>
				</g>
			</g>
			<g>
				<g>
					<g>
						<path class="st1" d="M605.6,212.8c0,0.1-5.3,0.2-11.7,0.2c-6.5,0-11.7-0.1-11.7-0.2c0-0.1,5.3-0.2,11.7-0.2
							C600.4,212.6,605.6,212.7,605.6,212.8z"/>
					</g>
				</g>
			</g>
		</g>
	</g>
</g>
<g>
	<g>
		<path class="st5" d="M656.8,457.3c0,0.1-101.2,0.3-226,0.3c-124.8,0-226-0.1-226-0.3c0-0.1,101.2-0.3,226-0.3
			C555.7,457.1,656.8,457.2,656.8,457.3z"/>
	</g>
</g>
<g>
	<g>
		<g>
			<path class="st0" d="M485.8,246.5h-80.1l-15.3,22.7l-14.9-22.7h-78.7c-5,0-9.1-4.1-9.1-9.1v-156c0-5,4.1-9.1,9.1-9.1h189
				c5,0,9.1,4.1,9.1,9.1v156C494.9,242.5,490.9,246.5,485.8,246.5z"/>
		</g>
		<g>
			<g>
				<path class="st5" d="M485.8,246.5c0,0,0.2,0,0.5,0c0.3,0,0.8-0.1,1.5-0.2c1.3-0.3,3.2-1,4.9-3c0.8-1,1.6-2.2,1.9-3.8
					c0.1-0.4,0.1-0.8,0.2-1.2c0-0.4,0.1-0.8,0-1.3c0-0.9,0-1.8,0-2.7c0-3.8,0-8.1,0-13c0-19.5,0-47.8-0.1-82.7c0-17.5,0-36.6,0-57.1
					c0.1-2.5-1-5-2.9-6.8c-0.9-0.9-2.1-1.5-3.3-1.9c-1.2-0.4-2.5-0.5-3.8-0.4c-5.3,0-10.7,0-16.2,0c-10.9,0-22.2,0-33.7,0
					c-23.1,0-47.3,0-72.4,0c-12.6,0-25.3,0-38.3,0c-6.5,0-13,0-19.6,0c-1.6,0-3.3,0-4.9,0l-2.5,0c-0.4,0-0.8,0-1.2,0
					c-0.4,0.1-0.8,0.1-1.2,0.2c-1.6,0.4-3,1.2-4.2,2.3c-1.1,1.2-2,2.6-2.3,4.2c-0.4,1.4-0.2,2.9-0.3,4.4c0,1.5,0,3,0,4.5
					c0,3,0,6,0,8.9c0,5.9,0,11.9,0,17.7c0,11.7,0,23.3,0,34.7c0,22.8,0,44.9,0,66.1c0,5.3,0,10.5,0,15.7c0,1.3,0,2.6,0,3.9
					c0,1.3-0.1,2.6,0.2,3.8c0.5,2.5,2.1,4.6,4.2,5.9c1.1,0.6,2.2,1,3.5,1.2c1.2,0.1,2.5,0.1,3.7,0.1c2.5,0,5,0,7.4,0
					c4.9,0,9.8,0,14.6,0c19.2,0,37.2,0,54,0l0.1,0l0.1,0.1c5.2,7.9,10.2,15.5,14.9,22.7l-0.3,0c5.5-8.1,10.6-15.6,15.3-22.7l0-0.1
					l0.1,0c25.3,0,45.3,0.1,59,0.1c6.8,0,12.1,0,15.7,0c1.8,0,3.1,0,4,0C485.4,246.5,485.8,246.5,485.8,246.5s-0.5,0-1.4,0
					c-0.9,0-2.3,0-4,0c-3.6,0-8.8,0-15.7,0c-13.7,0-33.7,0-59,0.1l0.1-0.1c-4.7,7.1-9.8,14.6-15.3,22.7l-0.2,0.2l-0.2-0.2
					c-4.7-7.2-9.7-14.8-14.9-22.7l0.2,0.1c-16.8,0-34.8,0-54,0c-4.8,0-9.7,0-14.6,0c-2.5,0-4.9,0-7.4,0c-1.3,0-2.5,0.1-3.8-0.1
					c-1.3-0.2-2.5-0.6-3.6-1.2c-2.2-1.3-3.9-3.6-4.4-6.2c-0.3-1.3-0.2-2.6-0.2-3.9c0-1.3,0-2.6,0-3.9c0-5.2,0-10.4,0-15.7
					c0-21.2,0-43.3,0-66.1c0-11.4,0-23,0-34.7c0-5.9,0-11.8,0-17.7c0-3,0-6,0-8.9c0-1.5,0-3,0-4.5v-2.2c0-0.8,0.1-1.5,0.3-2.3
					c0.4-1.7,1.3-3.2,2.5-4.4c1.2-1.2,2.7-2.1,4.4-2.5c0.4-0.1,0.8-0.2,1.3-0.2c0.4,0,0.9-0.1,1.3-0.1h2.5c1.6,0,3.3,0,4.9,0
					c6.6,0,13.1,0,19.6,0c13,0,25.7,0,38.3,0c25.1,0,49.3,0,72.4,0c11.5,0,22.8,0,33.7,0c5.5,0,10.9,0,16.2,0c1.3,0,2.7,0,4,0.5
					c1.3,0.4,2.5,1.1,3.4,2c1,0.9,1.8,2,2.3,3.2c0.5,1.2,0.7,2.6,0.7,3.9c0,20.5,0,39.6,0,57.1c0,34.9-0.1,63.1-0.1,82.7
					c0,4.9,0,9.2,0,13c0,0.9,0,1.8,0,2.7c0,0.4,0,0.9-0.1,1.3c-0.1,0.4-0.1,0.8-0.2,1.2c-0.4,1.6-1.1,2.8-2,3.8
					c-1.7,2-3.7,2.7-5,2.9c-0.6,0.1-1.1,0.2-1.5,0.2C486,246.5,485.8,246.5,485.8,246.5z"/>
			</g>
		</g>
	</g>
	<g>
		<g>
			<path class="st5" d="M368.3,168.2c0,2-1.5,3.3-3.9,3.3h-1.8v2.5h-2.1V165h3.9C366.7,165,368.3,166.2,368.3,168.2z M366.1,168.2
				c0-1-0.6-1.6-1.9-1.6h-1.7v3.1h1.7C365.5,169.8,366.1,169.2,366.1,168.2z"/>
		</g>
		<g>
			<path class="st5" d="M375.7,170v4h-1.9v-0.9c-0.4,0.6-1.1,1-2.1,1c-1.6,0-2.6-0.9-2.6-2.1c0-1.2,0.9-2.1,3-2.1h1.6
				c0-0.9-0.5-1.4-1.6-1.4c-0.7,0-1.5,0.2-2,0.6l-0.7-1.4c0.8-0.5,1.9-0.8,3-0.8C374.5,167,375.7,167.9,375.7,170z M373.7,171.8
				v-0.7h-1.4c-0.9,0-1.2,0.3-1.2,0.8c0,0.5,0.4,0.8,1.1,0.8C372.9,172.8,373.5,172.5,373.7,171.8z"/>
		</g>
		<g>
			<path class="st5" d="M376.9,173.4l0.7-1.5c0.6,0.4,1.6,0.7,2.4,0.7c0.9,0,1.3-0.2,1.3-0.6c0-1.1-4.2,0-4.2-2.8
				c0-1.3,1.2-2.3,3.2-2.3c1,0,2,0.2,2.7,0.6l-0.7,1.4c-0.7-0.4-1.4-0.5-2-0.5c-0.9,0-1.3,0.3-1.3,0.6c0,1.2,4.2,0,4.2,2.8
				c0,1.3-1.2,2.2-3.3,2.2C378.7,174.1,377.5,173.8,376.9,173.4z"/>
		</g>
		<g>
			<path class="st5" d="M383.7,173.4l0.7-1.5c0.6,0.4,1.6,0.7,2.4,0.7c0.9,0,1.3-0.2,1.3-0.6c0-1.1-4.2,0-4.2-2.8
				c0-1.3,1.2-2.3,3.2-2.3c1,0,2,0.2,2.7,0.6l-0.7,1.4c-0.7-0.4-1.4-0.5-2-0.5c-0.9,0-1.3,0.3-1.3,0.6c0,1.2,4.2,0,4.2,2.8
				c0,1.3-1.2,2.2-3.3,2.2C385.6,174.1,384.4,173.8,383.7,173.4z"/>
		</g>
		<g>
			<path class="st5" d="M402.4,167.1l-2.5,7h-1.9l-1.6-4.3l-1.6,4.3h-1.9l-2.5-7h1.9l1.6,4.7l1.7-4.7h1.7l1.7,4.7l1.7-4.7H402.4z"/>
		</g>
		<g>
			<path class="st5" d="M402.6,170.5c0-2.1,1.6-3.6,3.8-3.6c2.2,0,3.8,1.5,3.8,3.6c0,2.1-1.6,3.6-3.8,3.6
				C404.2,174.1,402.6,172.6,402.6,170.5z M408.2,170.5c0-1.2-0.8-1.9-1.8-1.9c-1,0-1.8,0.7-1.8,1.9c0,1.2,0.8,1.9,1.8,1.9
				C407.4,172.5,408.2,171.7,408.2,170.5z"/>
		</g>
		<g>
			<path class="st5" d="M415.9,167v1.9c-0.2,0-0.3,0-0.5,0c-1.1,0-1.9,0.6-1.9,1.9v3.3h-2v-7h1.9v0.9C414,167.3,414.8,167,415.9,167
				z"/>
		</g>
		<g>
			<path class="st5" d="M424.2,164.4v9.6h-1.9v-0.8c-0.5,0.6-1.2,0.9-2.2,0.9c-2,0-3.5-1.4-3.5-3.6c0-2.2,1.5-3.6,3.5-3.6
				c0.9,0,1.6,0.3,2.1,0.8v-3.4H424.2z M422.2,170.5c0-1.2-0.8-1.9-1.8-1.9c-1,0-1.8,0.7-1.8,1.9c0,1.2,0.8,1.9,1.8,1.9
				C421.4,172.5,422.2,171.7,422.2,170.5z"/>
		</g>
	</g>
	<g>
		<path class="st2" d="M340.7,223.5h-13.5c-3,0-5.5-2.5-5.5-5.5v-22.8c0-3,2.5-5.5,5.5-5.5h13.5c3,0,5.5,2.5,5.5,5.5V218
			C346.2,221,343.8,223.5,340.7,223.5z"/>
	</g>
	<g>
		<g>
			<path class="st2" d="M398.3,223.5h-12.8c-3,0-5.5-2.5-5.5-5.5v-22.8c0-3,2.5-5.5,5.5-5.5h12.8c3,0,5.5,2.5,5.5,5.5V218
				C403.8,221,401.4,223.5,398.3,223.5z"/>
		</g>
		<g>
			<path class="st2" d="M369.8,223.5H357c-3,0-5.5-2.5-5.5-5.5v-22.8c0-3,2.5-5.5,5.5-5.5h12.8c3,0,5.5,2.5,5.5,5.5V218
				C375.3,221,372.8,223.5,369.8,223.5z"/>
		</g>
		<g>
			<path class="st2" d="M427.4,223.5H414c-3,0-5.5-2.5-5.5-5.5v-22.8c0-3,2.5-5.5,5.5-5.5h13.5c3,0,5.5,2.5,5.5,5.5V218
				C432.9,221,430.5,223.5,427.4,223.5z"/>
		</g>
		<g>
			<path class="st2" d="M455.4,223.5H442c-3,0-5.5-2.5-5.5-5.5v-22.8c0-3,2.5-5.5,5.5-5.5h13.5c3,0,5.5,2.5,5.5,5.5V218
				C460.9,221,458.5,223.5,455.4,223.5z"/>
		</g>
		<g>
			<g>
				<path class="st6" d="M337.2,205.7l2.6,1.4l-1.2,2l-2.6-1.6l0,2.9h-2.3l0-2.9l-2.6,1.6l-1.2-2l2.6-1.4l-2.6-1.4l1.2-2l2.6,1.6
					l0-2.9h2.3l0,2.9l2.6-1.6l1.2,2L337.2,205.7z"/>
			</g>
		</g>
		<g>
			<g>
				<path class="st6" d="M365.6,205.5l2.6,1.4l-1.2,2l-2.6-1.6l0,2.9h-2.3l0-2.9l-2.6,1.6l-1.2-2l2.6-1.4l-2.6-1.4l1.2-2l2.6,1.6
					l0-2.9h2.3l0,2.9l2.6-1.6l1.2,2L365.6,205.5z"/>
			</g>
		</g>
		<g>
			<g>
				<path class="st6" d="M394.7,205.5l2.6,1.4l-1.2,2l-2.6-1.6l0,2.9h-2.3l0-2.9l-2.6,1.6l-1.2-2l2.6-1.4l-2.6-1.4l1.2-2l2.6,1.6
					l0-2.9h2.3l0,2.9l2.6-1.6l1.2,2L394.7,205.5z"/>
			</g>
		</g>
		<g>
			<g>
				<path class="st6" d="M423,205.5l2.6,1.4l-1.2,2l-2.6-1.6l0,2.9h-2.3l0-2.9l-2.6,1.6l-1.2-2l2.6-1.4l-2.6-1.4l1.2-2l2.6,1.6
					l0-2.9h2.3l0,2.9l2.6-1.6l1.2,2L423,205.5z"/>
			</g>
		</g>
		<g>
			<g>
				<path class="st5" d="M340.3,223.7h-12.6c-3.2,0-5.9-2.6-5.9-5.9v-22.4c0-3.2,2.6-5.9,5.9-5.9h12.6c3.2,0,5.9,2.6,5.9,5.9v22.4
					C346.2,221,343.6,223.7,340.3,223.7z M327.7,189.9c-3,0-5.5,2.5-5.5,5.5v22.4c0,3,2.5,5.5,5.5,5.5h12.6c3,0,5.5-2.5,5.5-5.5
					v-22.4c0-3-2.5-5.5-5.5-5.5H327.7z"/>
			</g>
		</g>
		<g>
			<g>
				<path class="st5" d="M369.6,223.7H357c-3.2,0-5.9-2.6-5.9-5.9v-22.4c0-3.2,2.6-5.9,5.9-5.9h12.6c3.2,0,5.9,2.6,5.9,5.9v22.4
					C375.5,221,372.9,223.7,369.6,223.7z M357,189.9c-3,0-5.5,2.5-5.5,5.5v22.4c0,3,2.5,5.5,5.5,5.5h12.6c3,0,5.5-2.5,5.5-5.5v-22.4
					c0-3-2.5-5.5-5.5-5.5H357z"/>
			</g>
		</g>
		<g>
			<g>
				<path class="st5" d="M398.2,223.7h-12.6c-3.2,0-5.9-2.6-5.9-5.9v-22.4c0-3.2,2.6-5.9,5.9-5.9h12.6c3.2,0,5.9,2.6,5.9,5.9v22.4
					C404.1,221,401.4,223.7,398.2,223.7z M385.5,189.9c-3,0-5.5,2.5-5.5,5.5v22.4c0,3,2.5,5.5,5.5,5.5h12.6c3,0,5.5-2.5,5.5-5.5
					v-22.4c0-3-2.5-5.5-5.5-5.5H385.5z"/>
			</g>
		</g>
		<g>
			<g>
				<path class="st5" d="M427,223.7h-12.6c-3.2,0-5.9-2.6-5.9-5.9v-22.4c0-3.2,2.6-5.9,5.9-5.9H427c3.2,0,5.9,2.6,5.9,5.9v22.4
					C432.9,221,430.3,223.7,427,223.7z M414.4,189.9c-3,0-5.5,2.5-5.5,5.5v22.4c0,3,2.5,5.5,5.5,5.5H427c3,0,5.5-2.5,5.5-5.5v-22.4
					c0-3-2.5-5.5-5.5-5.5H414.4z"/>
			</g>
		</g>
		<g>
			<g>
				<path class="st5" d="M455,223.7h-12.6c-3.2,0-5.9-2.6-5.9-5.9v-22.4c0-3.2,2.6-5.9,5.9-5.9H455c3.2,0,5.9,2.6,5.9,5.9v22.4
					C460.9,221,458.3,223.7,455,223.7z M442.4,189.9c-3,0-5.5,2.5-5.5,5.5v22.4c0,3,2.5,5.5,5.5,5.5H455c3,0,5.5-2.5,5.5-5.5v-22.4
					c0-3-2.5-5.5-5.5-5.5H442.4z"/>
			</g>
		</g>
		<g>
			<g>
				<path class="st6" d="M455.5,214.7c0,0.1-3,0.3-6.8,0.3c-3.7,0-6.8-0.1-6.8-0.3c0-0.1,3-0.3,6.8-0.3
					C452.4,214.4,455.5,214.5,455.5,214.7z"/>
			</g>
		</g>
	</g>
	<g>
		<g>
			<g>
				<circle class="st7" cx="392.5" cy="127.4" r="27.3"/>
			</g>
		</g>
		<g>
			<g>
				<g>
					<path class="st4" d="M387.7,122.4h-0.5v-2.5c0-2.9,2.4-5.3,5.3-5.3s5.3,2.4,5.3,5.3v2.1h-0.5v-2.1c0-2.7-2.2-4.9-4.9-4.9
						c-2.7,0-4.9,2.2-4.9,4.9V122.4z"/>
				</g>
			</g>
			<g>
				<g>
					<g>
						<path class="st4" d="M399.2,140.2h-13.5c-1.2,0-2.2-1-2.2-2.2v-13.5c0-1.2,1-2.2,2.2-2.2h13.5c1.2,0,2.2,1,2.2,2.2v13.5
							C401.5,139.2,400.5,140.2,399.2,140.2z M385.7,122.6c-1,0-1.8,0.8-1.8,1.8v13.5c0,1,0.8,1.8,1.8,1.8h13.5c1,0,1.8-0.8,1.8-1.8
							v-13.5c0-1-0.8-1.8-1.8-1.8H385.7z"/>
					</g>
				</g>
				<g>
					<g>
						<g>
							<path class="st4" d="M392.5,131.6c-1.2,0-2.1-1-2.1-2.1c0-1.2,1-2.1,2.1-2.1c1.2,0,2.1,1,2.1,2.1
								C394.7,130.7,393.7,131.6,392.5,131.6z M392.5,127.8c-0.9,0-1.7,0.7-1.7,1.7c0,0.9,0.7,1.7,1.7,1.7c0.9,0,1.7-0.7,1.7-1.7
								C394.2,128.6,393.5,127.8,392.5,127.8z"/>
						</g>
					</g>
					<g>
						<g>
							<rect x="392.2" y="131.3" class="st4" width="0.5" height="3.8"/>
						</g>
					</g>
				</g>
			</g>
		</g>
	</g>
	<g>
		<g>
			
				<ellipse transform="matrix(0.215 -0.9766 0.9766 0.215 288.4471 534.4113)" class="st1" cx="476.6" cy="87.8" rx="8.4" ry="8.4"/>
		</g>
		<g>
			<g>
				<path class="st4" d="M473.9,90.8c-0.1,0-0.1,0-0.2-0.1c-0.1-0.1-0.1-0.3,0-0.4l5.5-5.5c0.1-0.1,0.3-0.1,0.4,0
					c0.1,0.1,0.1,0.3,0,0.4l-5.5,5.5C474,90.7,474,90.8,473.9,90.8z"/>
			</g>
			<g>
				<path class="st4" d="M479.4,90.8c-0.1,0-0.1,0-0.2-0.1l-5.5-5.5c-0.1-0.1-0.1-0.3,0-0.4c0.1-0.1,0.3-0.1,0.4,0l5.5,5.5
					c0.1,0.1,0.1,0.3,0,0.4C479.5,90.7,479.4,90.8,479.4,90.8z"/>
			</g>
		</g>
	</g>
</g>
<g>
	<g>
		<g>
			<path class="st8" d="M259.9,405.7c0,0-27.2-31.3-37.5-62.6c-10.3-31.3-5.4-27.7-5.4-27.7s13.9,30.4,24.4,45.1
				c10.5,14.7,29.3,36.3,29.3,36.3L259.9,405.7z"/>
		</g>
	</g>
	<g>
		<g>
			<path class="st8" d="M265.3,320.2c-0.9-1.5-3.2-0.7-3,1c1.7,11,5.2,36.8,5.1,53.6c-0.2,21.8,0,30.2,0,30.2h11.3
				c0,0-2-45-4.6-58.7C272.5,336.6,268.7,326,265.3,320.2z"/>
		</g>
	</g>
	<g>
		<g>
			<path class="st8" d="M271.5,401.3c0,0,7.1-15,9.3-33.8c0.9-8-0.7-18.8-3.2-33.3c-1.2-7-1.5-12.3-1.4-16c0-2.8,3.7-3.7,5.1-1.3
				c1.4,2.4,5.3,10.8,6.3,16c2.7,14.3,5.9,21.4,3.5,34.9c-2.4,13.5-11.2,34.4-11.2,34.4L271.5,401.3z"/>
		</g>
	</g>
	<g>
		<g>
			<path class="st8" d="M281.7,402.2c0,0,29.9-64.2,32-73.7c2.1-9.5,9.1-31.5,9.9-30.2c0.8,1.2,2.1,12.8-3.3,26.1
				c-5.4,13.3-28.4,79.8-28.4,79.8h-10.2"/>
		</g>
	</g>
	<g>
		<g>
			<g>
				<path class="st5" d="M268.2,399.3c0,0-0.3-0.2-0.8-0.6c-0.5-0.4-1.3-1-2.3-1.8c-2-1.6-4.8-3.9-8-7.1
					c-6.5-6.3-14.6-15.9-21.7-27.8c-7.1-11.9-11.8-23.5-14.8-32.1c-1.5-4.3-2.6-7.8-3.3-10.2c-0.4-1.2-0.6-2.2-0.8-2.8
					c-0.2-0.6-0.3-1-0.2-1c0,0,0.1,0.3,0.4,1c0.2,0.7,0.5,1.6,0.9,2.8c0.8,2.4,1.9,5.9,3.5,10.1c3.1,8.5,7.9,20,14.9,31.9
					c7,11.9,15,21.5,21.4,27.8c3.2,3.2,5.9,5.6,7.9,7.2c1,0.8,1.7,1.4,2.2,1.9C268,399.1,268.3,399.3,268.2,399.3z"/>
			</g>
		</g>
	</g>
	<g>
		<g>
			<g>
				<path class="st5" d="M271.5,368.5c0,0-0.1-0.7-0.3-1.9c-0.1-1.3-0.3-3.1-0.6-5.1c-0.5-4.3-1.2-10.3-2.3-16.9
					c-1.1-6.6-2.2-12.5-3.1-16.8c-0.4-2.1-0.8-3.8-1.1-5.1c-0.3-1.2-0.4-1.9-0.3-1.9c0,0,0.2,0.6,0.6,1.8c0.3,1.2,0.8,2.9,1.3,5
					c1,4.3,2.3,10.2,3.3,16.8c1.1,6.6,1.7,12.6,2.1,17c0.2,2.2,0.3,3.9,0.3,5.2C271.5,367.8,271.6,368.5,271.5,368.5z"/>
			</g>
		</g>
	</g>
	<g>
		<g>
			<g>
				<path class="st5" d="M278.5,316.4c0,0,0.1,0.3,0.4,0.8c0.2,0.6,0.5,1.4,0.9,2.4c0.4,1,0.8,2.3,1.3,3.8c0.4,1.5,1,3.2,1.5,5.1
					c0.2,1,0.5,2,0.7,3c0.3,1.1,0.4,2.2,0.7,3.3c0.5,2.3,0.8,4.8,1.2,7.3c0.6,5.2,0.9,11,0.7,17c-0.2,6-1,11.8-1.9,16.9
					c-0.5,2.6-1,5-1.7,7.2c-0.3,1.1-0.6,2.2-0.9,3.2c-0.3,1-0.6,2-1,3c-0.6,1.9-1.3,3.6-1.8,5c-0.5,1.5-1.1,2.7-1.6,3.7
					c-0.4,1-0.8,1.7-1.1,2.3c-0.2,0.5-0.4,0.8-0.4,0.8c0,0,0.1-0.3,0.3-0.8c0.2-0.6,0.6-1.4,1-2.4c0.4-1,0.9-2.3,1.4-3.8
					c0.5-1.5,1.2-3.1,1.7-5c0.3-0.9,0.6-1.9,0.9-3c0.3-1,0.6-2.1,0.9-3.2c0.6-2.2,1.1-4.7,1.6-7.2c0.9-5.1,1.6-10.8,1.9-16.8
					c0.2-6-0.1-11.7-0.7-16.9c-0.3-2.6-0.6-5-1.1-7.3c-0.2-1.1-0.4-2.2-0.6-3.3c-0.2-1-0.5-2.1-0.7-3c-0.4-1.9-0.9-3.6-1.4-5.1
					c-0.4-1.5-0.8-2.8-1.2-3.8c-0.3-1-0.6-1.8-0.8-2.4C278.6,316.7,278.5,316.4,278.5,316.4z"/>
			</g>
		</g>
	</g>
	<g>
		<g>
			<g>
				<path class="st5" d="M323.3,299.5c0,0,0,0.1,0,0.3c0,0.2-0.1,0.5-0.1,0.8c-0.1,0.7-0.3,1.8-0.6,3.2c-0.6,2.8-1.5,6.7-3,11.6
					c-1.5,4.8-3.5,10.5-6,16.7c-2.4,6.2-5.2,13-7.9,20.2c-2.7,7.2-4.8,14.2-6.7,20.6c-1.9,6.4-3.8,12.1-5.5,16.8
					c-1.8,4.7-3.4,8.5-4.7,11c-0.6,1.3-1.2,2.2-1.5,2.9c-0.2,0.3-0.3,0.5-0.4,0.7c-0.1,0.2-0.2,0.2-0.2,0.2c0,0,0-0.1,0.1-0.3
					c0.1-0.2,0.2-0.5,0.4-0.8c0.3-0.7,0.8-1.6,1.4-2.9c1.2-2.5,2.8-6.3,4.5-11c1.7-4.7,3.5-10.5,5.4-16.9c1.9-6.4,4-13.4,6.7-20.7
					c2.7-7.2,5.5-14,7.9-20.2c2.4-6.2,4.5-11.8,6.1-16.6c1.5-4.8,2.6-8.7,3.2-11.5c0.3-1.4,0.5-2.4,0.7-3.2c0.1-0.3,0.1-0.6,0.2-0.8
					C323.2,299.6,323.3,299.5,323.3,299.5z"/>
			</g>
		</g>
	</g>
	<g>
		<g>
			<g>
				<path class="st8" d="M231.1,285.3c-1.9-1.9-5,0.1-4.2,2.6c0.8,2.6,2,5.9,3.8,9.7c4.1,8.7,16.2,40.1,21.8,57.3
					c5.6,17.2,13.6,49.3,13.6,49.3l12.1-2c0,0-11-52.7-21.8-71.7C247.7,315.2,239,293.1,231.1,285.3z"/>
			</g>
		</g>
		<g>
			<g>
				<g>
					<path class="st5" d="M255.8,365.6c0,0,0.3,0.5,0.6,1.4c0.4,0.9,0.8,2.3,1.4,4c1.1,3.4,2.5,8.2,3.8,13.6
						c1.4,5.3,2.5,10.2,3.3,13.7c0.4,1.7,0.7,3.1,0.9,4.2c0.2,1,0.3,1.5,0.2,1.6c0,0-0.2-0.5-0.5-1.5c-0.3-1.1-0.7-2.5-1.1-4.1
						c-0.9-3.6-2.1-8.4-3.5-13.7c-1.4-5.3-2.7-10.1-3.7-13.6c-0.5-1.6-0.9-3-1.2-4.1C255.9,366.2,255.7,365.6,255.8,365.6z"/>
				</g>
			</g>
		</g>
		<g>
			<g>
				<g>
					<path class="st5" d="M272.1,403.2c0,0,0-0.1-0.1-0.3c0-0.3-0.1-0.6-0.1-0.9c-0.1-0.8-0.2-2.1-0.5-3.7
						c-0.4-3.2-1.2-7.7-2.5-13.3c-1.3-5.6-3.2-12.1-5.6-19.3c-2.5-7.1-5.6-14.9-9.1-22.9c-7.1-16-14.2-30.1-18.8-40.6
						c-2.4-5.2-4.2-9.5-5.4-12.5c-0.6-1.5-1.1-2.6-1.4-3.4c-0.1-0.4-0.2-0.7-0.3-0.9c-0.1-0.2-0.1-0.3-0.1-0.3c0,0,0.1,0.1,0.2,0.3
						c0.1,0.2,0.2,0.5,0.4,0.9c0.4,0.8,0.8,1.9,1.5,3.4c1.3,2.9,3.2,7.2,5.6,12.4c4.8,10.4,11.9,24.5,19,40.5
						c3.5,8,6.6,15.7,9.1,22.9c2.5,7.2,4.3,13.8,5.5,19.4c1.2,5.6,2,10.2,2.3,13.4c0.2,1.6,0.3,2.8,0.4,3.7c0,0.4,0.1,0.7,0.1,1
						C272.1,403.1,272.1,403.2,272.1,403.2z"/>
				</g>
			</g>
		</g>
		<g>
			<g>
				<g>
					<path class="st5" d="M278.1,402.2c0,0-0.2-0.7-0.4-2c-0.2-1.4-0.6-3.3-0.9-5.5c-0.8-4.7-2.1-11.1-3.9-18.1
						c-1.8-7-3.8-13.3-5.4-17.7c-0.8-2.2-1.4-3.9-1.9-5.3c-0.5-1.2-0.7-1.9-0.6-2c0,0,0.3,0.7,0.9,1.9c0.5,1.2,1.2,3,2.1,5.2
						c1.7,4.5,3.8,10.7,5.6,17.7c1.8,7,3,13.5,3.8,18.2c0.3,2.4,0.6,4.3,0.7,5.6C278.1,401.5,278.2,402.2,278.1,402.2z"/>
				</g>
			</g>
		</g>
	</g>
</g>
<g>
	<g>
		<g>
			<rect x="255.8" y="400.5" class="st7" width="47.1" height="57.4"/>
		</g>
	</g>
	<g>
		<g>
			<rect x="246.1" y="400.5" class="st6" width="41.8" height="57.4"/>
		</g>
	</g>
</g>
<g>
	<g>
		<g>
			<g>
				<polygon class="st9" points="578.1,272.8 553.3,269.2 503.8,276.6 489.9,281.5 492.4,311.9 540,320.6 572.1,311.1 584.2,293.3 
									"/>
			</g>
		</g>
		<g>
			<g>
				<g>
					<path class="st7" d="M593.7,275.7l-20.7-4.9c0,0-14.6,45.3-50.8,43.3c-29.5-1.6-29.8-34.5-29.8-34.5l-21.2,6.8
						c0,0-8.1,54.5,0.9,93c2.1,9,4.9,21.2,4.9,21.2l-2.9,56.4l157,0.3L593.7,275.7L593.7,275.7z"/>
				</g>
			</g>
			<g class="st10">
				<g>
					<path d="M532.1,446.1c7.6-0.2,14.7,0.5,22.3,0.3c9.2-0.2,18.4-0.4,27.5,1c6.8,1.1,13.4,3.2,20.2,4.3c9.3,1.5,19.1,0.9,27.4-3.5
						l-1.3-7.7l-31.3-7.5L532.1,446.1z"/>
				</g>
			</g>
			<g>
				<g>
					<path class="st7" d="M453.4,299.2c7.2-9.3,19.1-13.1,19.1-13.1l8,69.9l-15.2,101.8l-49.8-0.2
						C415.5,457.6,443,312.6,453.4,299.2z"/>
				</g>
			</g>
			<g>
				<g>
					<path class="st7" d="M591.2,275.2c0,0,33.5,2.7,45.6,57.6c5.4,24.9,12.3,54,14.3,73.6c1.4,14.2-6.3,36.4-20.4,38.2l-17.8,2.4
						c-3.5,0.5-7.1,0.4-10.5-0.4c-11.2-2.6-12.4-10.3-14.4-18.5l-5.2-16.4c-2.8-15.6,11.7-18.5,19.7-18.3l-6-71.2L591.2,275.2z"/>
				</g>
			</g>
			<g>
				<g>
					<g>
						<path class="st5" d="M468.4,324.9c0,0-0.1,0.3-0.2,0.8c-0.1,0.6-0.2,1.3-0.3,2.2c-0.1,0.5-0.1,1-0.2,1.6
							c-0.1,0.6-0.1,1.2-0.2,1.9c-0.1,1.4-0.3,2.9-0.4,4.7c-0.3,3.5-0.2,7.6-0.1,12.2c0.2,4.6,0.7,9.6,1.5,14.9
							c0.8,5.3,1.7,10.2,2.7,14.7c1,4.5,2,8.5,2.8,11.9c0.9,3.4,1.6,6.1,2.1,8c0.2,0.9,0.4,1.6,0.6,2.2c0.1,0.5,0.2,0.7,0.2,0.7
							c0,0,0-0.3-0.1-0.8c-0.1-0.5-0.3-1.3-0.5-2.2c-0.5-1.9-1.1-4.7-1.9-8c-0.8-3.4-1.7-7.4-2.7-11.9c-1-4.5-1.9-9.5-2.7-14.7
							c-0.8-5.2-1.3-10.3-1.5-14.8c-0.2-4.6-0.2-8.7,0-12.2c0-1.7,0.2-3.3,0.3-4.7c0.1-0.7,0.1-1.3,0.2-1.9c0.1-0.6,0.1-1.1,0.2-1.6
							c0.1-0.9,0.2-1.7,0.2-2.2C468.4,325.2,468.4,325,468.4,324.9z"/>
					</g>
				</g>
			</g>
			<g>
				<g>
					<g>
						<path class="st5" d="M628.9,412.7c0,0,0-0.5-0.3-1.4c-0.2-0.9-0.6-2.1-1.3-3.6c-1.3-3-3.9-6.8-7.9-9.8
							c-4-2.9-8.5-4.2-11.7-4.6c-1.6-0.2-2.9-0.2-3.8-0.1c-0.9,0.1-1.4,0.1-1.4,0.2c0,0.1,2-0.1,5.2,0.3c3.2,0.4,7.5,1.7,11.5,4.6
							c4,2.9,6.5,6.6,7.9,9.5C628.4,410.8,628.8,412.7,628.9,412.7z"/>
					</g>
				</g>
			</g>
			<g>
				<g>
					<g>
						<path class="st5" d="M621.1,385.3c0,0-0.3-0.1-0.8-0.1c-0.5,0-1.3,0-2.2,0.1c-1.9,0.2-4.4,0.7-7.1,1.8
							c-2.7,1.1-4.8,2.5-6.3,3.7c-0.7,0.6-1.3,1.1-1.6,1.5c-0.4,0.4-0.5,0.6-0.5,0.6c0.1,0.1,0.9-0.7,2.4-1.8
							c1.5-1.1,3.7-2.4,6.3-3.5c2.6-1.1,5.1-1.6,6.9-1.9C620,385.5,621.1,385.4,621.1,385.3z"/>
					</g>
				</g>
			</g>
			<g>
				<g>
					<g>
						<path class="st5" d="M586.4,314.2c0,0,0.1-0.5,0.1-1.5c0-0.9,0.1-2.3,0.2-4c0.2-3.4,0.8-8,2.2-12.9c1.4-4.9,3.3-9.2,4.8-12.2
							c0.8-1.5,1.4-2.7,1.9-3.5c0.5-0.8,0.7-1.3,0.7-1.3c0,0-0.3,0.4-0.9,1.2c-0.5,0.8-1.3,1.9-2.1,3.4c-1.7,3-3.6,7.3-5,12.2
							c-1.4,5-2,9.7-2.1,13.1c-0.1,1.7-0.1,3.1,0,4C586.3,313.7,586.4,314.2,586.4,314.2z"/>
					</g>
				</g>
			</g>
			<g>
				<g>
					<g>
						<path class="st5" d="M522.1,364.1c0,0,0,0.2,0.2,0.6c0.1,0.4,0.3,0.9,0.6,1.6c0.5,1.4,1.4,3.4,2.8,5.7
							c1.4,2.3,3.3,4.8,5.9,7.3c2.5,2.5,5.7,4.8,9.4,6.6c3.7,1.8,7.5,2.8,11,3.2c3.5,0.5,6.7,0.4,9.4,0c2.6-0.3,4.7-0.9,6.2-1.4
							c0.7-0.2,1.2-0.4,1.6-0.6c0.4-0.1,0.6-0.2,0.5-0.2c0,0-0.8,0.2-2.2,0.6c-1.4,0.4-3.5,0.9-6.1,1.2c-5.2,0.6-12.8,0.1-20.1-3.4
							c-7.3-3.5-12.4-9.1-15.2-13.6c-1.4-2.2-2.3-4.2-2.9-5.5C522.5,364.8,522.2,364.1,522.1,364.1z"/>
					</g>
				</g>
			</g>
			<g>
				<g>
					<g>
						<path class="st5" d="M592.8,441.4c0.1,0,0.6,0.7,1.8,1.7c1.3,1,3.3,2.2,6.1,2.9c2.8,0.8,6.3,1.1,10.1,0.9
							c3.8-0.3,8.1-0.7,12.4-1.4c4.4-0.7,8.6-1.5,12.2-2.8c1.8-0.7,3.2-1.8,4.5-3c1.2-1.2,2.3-2.4,3.1-3.5c1.7-2.4,2.8-4.5,3.4-5.9
							c0.3-0.7,0.6-1.3,0.7-1.7c0.2-0.4,0.2-0.6,0.3-0.6c0,0,0,0.2-0.2,0.6c-0.1,0.4-0.3,1-0.6,1.8c-0.6,1.5-1.6,3.7-3.3,6.1
							c-0.8,1.2-1.9,2.5-3.1,3.7c-1.3,1.2-2.8,2.3-4.6,3.1c-3.7,1.4-7.9,2.2-12.3,2.9c-4.4,0.7-8.6,1.1-12.5,1.3
							c-3.9,0.2-7.4-0.2-10.2-1c-2.8-0.8-4.9-2.1-6.2-3.1c-0.6-0.6-1.1-1-1.3-1.4C593,441.6,592.8,441.4,592.8,441.4z"/>
					</g>
				</g>
			</g>
			<g>
				<g>
					<g>
						<path class="st5" d="M587.3,331.7c0.1,0,3.7,13.7,7.9,30.7c4.2,17,7.5,30.8,7.4,30.8c-0.1,0-3.7-13.7-7.9-30.7
							C590.5,345.5,587.2,331.7,587.3,331.7z"/>
					</g>
				</g>
			</g>
			<g>
				<g>
					<g>
						<path class="st5" d="M583,409.2c0,0-0.1-0.4-0.2-1.1c-0.1-0.7-0.2-1.8-0.1-3.1c0.1-1.3,0.5-2.9,1.5-4.4c0.5-0.7,1-1.5,1.7-2.2
							c0.7-0.7,1.5-1.3,2.4-1.8c3.6-1.9,7.2-2.8,9.8-3.2c1.3-0.2,2.4-0.3,3.1-0.3c0.7,0,1.1,0,1.1,0c0,0.1-1.6,0.2-4.2,0.6
							c-2.5,0.5-6.1,1.4-9.6,3.2c-0.8,0.5-1.6,1-2.3,1.7c-0.7,0.6-1.2,1.4-1.7,2.1c-1,1.4-1.4,2.9-1.5,4.2c-0.1,1.3-0.1,2.3-0.1,3.1
							C583.1,408.8,583.1,409.2,583,409.2z"/>
					</g>
				</g>
			</g>
			<g class="st10">
				<g>
					<g>
						<path d="M469.9,371.1c-8.6-14.5-8.7-33.3-1.3-48.4c-2.2,16.1-2,32.5,1.5,48.3"/>
					</g>
				</g>
			</g>
		</g>
		<g>
			<g>
				<g>
					<g>
						<path class="st9" d="M515.2,407.3C515.2,407.3,515.2,407.3,515.2,407.3C515.2,407.3,515.2,407.3,515.2,407.3z"/>
					</g>
				</g>
				<g>
					<g>
						<path class="st9" d="M515.6,407.4c0,0,0.1,0,0.1,0.1C515.7,407.5,515.6,407.5,515.6,407.4z"/>
					</g>
				</g>
				<g>
					<g>
						<path class="st9" d="M515.3,407.3c0.1,0.1,0.2,0.1,0.3,0.1C515.5,407.4,515.4,407.3,515.3,407.3z"/>
					</g>
				</g>
				<g>
					<g>
						<path class="st9" d="M515.1,407.2c0.1,0,0.1,0,0.1,0.1C515.1,407.2,515.1,407.2,515.1,407.2z"/>
					</g>
				</g>
				<g>
					<g>
						<path class="st9" d="M483.6,436.1c2.7-5.1,23.7-18.5,23.7-18.5l-5.7-1.3l-6.3,2.7c0,0-0.4,2.6-2.7,5.9
							c-2.3,3.3-6.2-0.1-6.2-0.1L489,412l12.4-7.5c0,0,11.7,1.8,13.6,2.7l5,4.6c2.2,1.7,8.5,8.5,10.2,8.7c1.7,0.2,56-12,56-12l0,0
							c7.4,5.9,11.4,17.6,12.6,26.1c0,0,1.3,4.2-0.1,6.4l-66.7,5.2l-14.1,3.9c0,0-7.8,3.2-11.6,4c-4.7,1-7.9-0.5-8-3.1
							c-0.1-2.6,3.5-2.9,3.5-2.9s5.9-2.1,9.1-4c3.2-1.8,5.1-5.6,5.1-5.6l-5,0.6c0,0-10.7,7.4-14.7,9.6c-4,2.2-4.8-1.8-5.1-3
							c-0.3-1.2,12-13.3,12-13.3s-11.7,7.2-13.9,9.1c-2.1,1.8-5.2,2.4-5.9,1.1C482.8,441.3,480.9,441.2,483.6,436.1z"/>
					</g>
				</g>
				<g>
					<g>
						<path class="st9" d="M515.7,407.5c0,0,0.1,0,0.1,0.1C515.8,407.5,515.7,407.5,515.7,407.5z"/>
					</g>
				</g>
				<g>
					<g>
						<path class="st9" d="M515.9,407.6C515.9,407.6,515.9,407.6,515.9,407.6L515.9,407.6z"/>
					</g>
				</g>
				<g>
					<g>
						<path class="st9" d="M515.8,407.6C515.9,407.6,515.9,407.6,515.8,407.6C515.9,407.6,515.9,407.6,515.8,407.6z"/>
					</g>
				</g>
			</g>
			<g>
				<g>
					<g>
						<path class="st11" d="M541.5,437.3c0,0,0.1-0.3,0.1-0.8c0-0.3,0-0.6-0.1-1c0-0.4-0.1-0.8-0.2-1.3c-0.4-1.9-1.6-4.3-3.4-6.6
							c-1.8-2.3-3.7-4.1-5.1-5.3c-1.4-1.2-2.4-1.9-2.4-1.9c0,0.1,0.8,0.8,2.2,2.1c1.4,1.3,3.2,3.1,5,5.4c1.8,2.3,3,4.6,3.5,6.4
							C541.5,436.1,541.4,437.3,541.5,437.3z"/>
					</g>
				</g>
			</g>
			<g>
				<g>
					<g>
						<path class="st11" d="M507.8,417.2c0,0.1,1.7,0.3,3.6-0.3c1.9-0.6,3.1-1.8,3.1-1.9c-0.1-0.1-1.4,0.8-3.2,1.4
							C509.4,417.1,507.8,417.1,507.8,417.2z"/>
					</g>
				</g>
			</g>
			<g>
				<g>
					<g>
						<path class="st11" d="M504.3,431.2c0.1,0.1,2.5-0.7,5.4-1.9c2.9-1.2,5.2-2.3,5.2-2.4c-0.1-0.1-2.4,0.7-5.4,1.9
							C506.5,430,504.2,431,504.3,431.2z"/>
					</g>
				</g>
			</g>
			<g>
				<g>
					<g>
						<path class="st11" d="M515.6,438.3c0.1,0.1,1.3-0.4,2.7-1c1.5-0.6,2.7-1,2.7-1.1c0-0.1-1.3,0.1-2.9,0.7
							C516.6,437.4,515.5,438.2,515.6,438.3z"/>
					</g>
				</g>
			</g>
			<g>
				<g>
					<g>
						<path class="st11" d="M506,432.1c-0.1,0.1,1.2,0.6,2.1,1.8c0.9,1.2,1,2.5,1.2,2.5c0.1,0,0.1-0.3,0-0.9
							c-0.1-0.5-0.3-1.3-0.8-1.9c-0.5-0.7-1.1-1.1-1.6-1.3C506.4,432.1,506,432,506,432.1z"/>
					</g>
				</g>
			</g>
			<g>
				<g>
					<g>
						<path class="st11" d="M501.1,424.3c-0.1,0.1,0.9,0.6,1.5,1.7c0.6,1.1,0.6,2.1,0.8,2.1c0.1,0,0.4-1.1-0.3-2.4
							C502.3,424.5,501.1,424.2,501.1,424.3z"/>
					</g>
				</g>
			</g>
			<g>
				<g>
					<g>
						<path class="st11" d="M502.8,410.4c0.1,0,0.2-0.2,0.4-0.7c0.1-0.5,0.2-1.1,0-1.9c-0.2-0.7-0.5-1.3-0.9-1.6
							c-0.3-0.3-0.6-0.5-0.7-0.4c-0.1,0.1,0.8,0.9,1.1,2.2C503,409.3,502.6,410.4,502.8,410.4z"/>
					</g>
				</g>
			</g>
			<g>
				<g>
					<g>
						<path class="st5" d="M599.4,442.8c0,0-0.1-0.5-0.1-1.5c0-0.5,0-1.1-0.1-1.8c0-0.7-0.1-1.5-0.2-2.4c-0.3-3.5-1.1-8.3-2.9-13.4
							c-0.9-2.5-2-4.8-3.2-6.8c-0.6-1-1.1-1.9-1.8-2.8c-0.3-0.4-0.6-0.8-0.9-1.2c-0.3-0.4-0.6-0.7-0.9-1.1c-2.2-2.7-3.9-4.1-3.8-4.2
							c0,0,0.4,0.3,1.2,1c0.4,0.3,0.8,0.7,1.3,1.2c0.5,0.5,1.1,1.1,1.6,1.8c0.3,0.3,0.6,0.7,0.9,1.1c0.3,0.4,0.6,0.8,0.9,1.2
							c0.6,0.8,1.2,1.8,1.8,2.8c1.2,2,2.3,4.4,3.2,6.9c1.8,5.1,2.6,10,2.8,13.5c0.1,0.9,0.1,1.7,0.1,2.4c0,0.7,0,1.3,0,1.8
							C599.5,442.3,599.4,442.8,599.4,442.8z"/>
					</g>
				</g>
			</g>
		</g>
		<g class="st10">
			<g>
				<path d="M622.3,395.2c-6.1-2.6-13.3-3.2-19.8-1.8h0c11.5-0.7,22.7,6.7,26.7,17.2c0.5,1.3,1.4,2.8,2.8,2.6c1.3-0.2,1.7-1.8,1.7-3
					C633.7,403.5,628.4,397.7,622.3,395.2z"/>
			</g>
		</g>
		<g>
			<g>
				<path class="st4" d="M468,320.2c0,0-0.3-0.1-0.9-0.3c-0.6-0.2-1.4-0.6-2.3-1.1c-1.9-1-4.5-2.5-7.2-4.4c-2.7-2-4.8-4-6.3-5.6
					c-0.7-0.8-1.3-1.4-1.7-1.9c-0.4-0.5-0.6-0.7-0.5-0.8c0.1-0.1,1,0.9,2.5,2.4c1.5,1.5,3.8,3.5,6.4,5.4c2.6,1.9,5.2,3.5,7,4.5
					C466.8,319.6,468,320.2,468,320.2z"/>
			</g>
		</g>
		<g>
			<g>
				<path class="st4" d="M586.9,324.1c0,0-0.1,0.1-0.3,0.2c-0.2,0.1-0.5,0.3-0.8,0.5c-0.7,0.4-1.7,1-3.1,1.7c-2.7,1.4-6.8,3.3-12,5
					c-5.2,1.8-11.6,3.4-18.8,4.5c-7.2,1.1-15.2,1.8-23.6,2c-8.4,0.2-16.4,0-23.6-0.1c-7.3-0.2-13.8-0.6-19.3-1.5
					c-5.4-0.8-9.8-2-12.7-2.9c-1.5-0.5-2.6-0.9-3.3-1.2c-0.4-0.1-0.6-0.3-0.8-0.4c-0.2-0.1-0.3-0.1-0.3-0.1c0,0,0.1,0,0.3,0.1
					c0.2,0.1,0.5,0.2,0.9,0.3c0.8,0.3,1.9,0.7,3.3,1.1c2.9,0.9,7.2,2,12.7,2.8c5.4,0.8,12,1.2,19.2,1.3c7.3,0.1,15.2,0.3,23.6,0.1
					c8.4-0.2,16.3-0.8,23.5-1.9c7.2-1.1,13.5-2.7,18.7-4.4c5.2-1.7,9.3-3.5,12-4.9c1.4-0.7,2.4-1.2,3.1-1.6c0.3-0.2,0.6-0.3,0.8-0.4
					C586.8,324.2,586.9,324.1,586.9,324.1z"/>
			</g>
		</g>
		<g>
			<g>
				<path class="st4" d="M468.3,360.8c0,0-0.5-0.1-1.3-0.3c-0.9-0.2-2.1-0.6-3.4-0.9c-2.9-0.8-6.9-2-11.3-3.3
					c-4.4-1.3-8.3-2.5-11.2-3.4c-1.3-0.4-2.5-0.8-3.4-1.1c-0.8-0.3-1.2-0.4-1.2-0.5c0,0,0.5,0.1,1.3,0.3c0.9,0.2,2.1,0.6,3.4,0.9
					c2.9,0.8,6.9,2,11.3,3.3c4.4,1.3,8.3,2.5,11.2,3.4c1.3,0.4,2.5,0.8,3.4,1.1C467.9,360.6,468.3,360.8,468.3,360.8z"/>
			</g>
		</g>
		<g>
			<g>
				<path class="st4" d="M471.3,417.8c0,0.1-10.3-2.8-23-6.6c-12.6-3.8-22.9-7-22.8-7.1c0-0.1,10.3,2.8,23,6.6
					C461.1,414.4,471.4,417.6,471.3,417.8z"/>
			</g>
		</g>
		<g>
			<g>
				<path class="st4" d="M620.2,294.6c0,0-0.4,0.3-1.1,0.9c-0.7,0.6-1.9,1.3-3.2,2.2c-2.8,1.8-6.7,4.2-11.3,6.4
					c-4.6,2.2-8.8,3.9-12,5c-1.6,0.5-2.8,1-3.7,1.2c-0.9,0.3-1.4,0.4-1.4,0.4c0,0,0.5-0.2,1.3-0.5c1-0.4,2.2-0.8,3.7-1.4
					c3.1-1.2,7.3-2.9,11.9-5.2c4.5-2.2,8.5-4.5,11.3-6.2c1.3-0.8,2.5-1.5,3.3-2.1C619.7,294.8,620.2,294.6,620.2,294.6z"/>
			</g>
		</g>
		<g>
			<g>
				<path class="st4" d="M640.7,353.1c0,0-0.6,0.3-1.7,0.8c-1.1,0.5-2.7,1.1-4.7,1.9c-4,1.5-9.6,3.2-16,4.5
					c-6.4,1.3-12.3,1.8-16.5,2c-2.1,0.1-3.9,0.1-5,0.1c-1.2,0-1.8-0.1-1.8-0.1c0,0,0.7-0.1,1.8-0.1c1.2,0,2.9-0.1,5-0.2
					c4.2-0.3,10.1-0.9,16.4-2.1c6.4-1.3,12-2.9,16-4.3c2-0.7,3.6-1.3,4.7-1.7C640.1,353.3,640.7,353.1,640.7,353.1z"/>
			</g>
		</g>
		<g>
			<g>
				<path class="st4" d="M611.1,446.7c0,0,0-0.2,0.1-0.6c0.1-0.4,0.2-1,0.3-1.6c0.1-0.7,0.3-1.6,0.4-2.6c0.1-1,0.3-2.1,0.3-3.4
					c0-0.6,0.1-1.3,0.1-2c0-0.7,0-1.4,0-2.2c0-1.5-0.1-3.1-0.1-4.8c-0.3-3.4-0.8-7-1.7-10.8c-0.9-3.8-2.2-7.3-3.5-10.4
					c-0.7-1.5-1.3-3-2.1-4.3c-0.4-0.7-0.7-1.3-1-1.9c-0.4-0.6-0.7-1.2-1-1.7c-0.6-1.1-1.3-2-1.9-2.9c-0.5-0.9-1.1-1.6-1.5-2.1
					c-0.4-0.5-0.7-1-1-1.3c-0.2-0.3-0.3-0.5-0.3-0.5c0,0,0.1,0.1,0.4,0.4c0.3,0.3,0.6,0.8,1,1.3c0.5,0.5,1,1.2,1.6,2.1
					c0.6,0.8,1.3,1.8,1.9,2.9c0.3,0.5,0.7,1.1,1.1,1.7c0.4,0.6,0.7,1.3,1,1.9c0.7,1.3,1.4,2.8,2.1,4.3c1.3,3.1,2.6,6.6,3.5,10.4
					c0.9,3.8,1.4,7.5,1.6,10.9c0.1,1.7,0.2,3.3,0.1,4.8c0,0.8,0,1.5-0.1,2.2c-0.1,0.7-0.1,1.4-0.2,2c-0.1,1.3-0.3,2.4-0.4,3.4
					c-0.1,1-0.3,1.9-0.5,2.6c-0.1,0.7-0.3,1.2-0.4,1.6C611.1,446.5,611.1,446.7,611.1,446.7z"/>
			</g>
		</g>
		<g>
			<g>
				<path class="st4" d="M650.9,415.2c-0.1,0-0.1-0.8-0.3-2.3c-0.2-1.5-0.8-3.6-2-6c-1.2-2.4-3.2-5-5.8-7.3c-2.7-2.3-6-4.4-9.9-5.8
					c-3.9-1.3-7.8-1.9-11.3-2c-3.6-0.1-6.8,0.1-9.5,0.4c-2.7,0.3-4.9,0.5-6.4,0.7c-0.7,0.1-1.3,0.1-1.7,0.2c-0.4,0-0.6,0-0.6,0
					c0,0,0.2-0.1,0.6-0.1c0.5-0.1,1-0.2,1.7-0.3c1.5-0.2,3.7-0.6,6.4-0.9c2.7-0.3,5.9-0.6,9.5-0.5c3.6,0.1,7.6,0.6,11.5,2
					c3.9,1.4,7.4,3.5,10,5.9c2.7,2.4,4.7,5.1,5.8,7.5c1.2,2.5,1.7,4.6,1.9,6.1c0.1,0.7,0.1,1.3,0.1,1.7
					C650.9,414.9,650.9,415.2,650.9,415.2z"/>
			</g>
		</g>
		<g>
			<g>
				<path class="st4" d="M540,385.3c0,0-0.2,0.1-0.6,0.1c-0.4,0-1,0.1-1.7,0.2c-1.5,0.1-3.6,0.3-6.2,0.5c-5.2,0.4-12.4,0.9-20.4,1.3
					c-8,0.4-15.2,0.7-20.5,0.7c-2.6,0-4.7,0-6.2,0c-0.7,0-1.2,0-1.7-0.1c-0.4,0-0.6,0-0.6-0.1c0,0,0.2,0,0.6-0.1c0.4,0,1,0,1.7,0
					c1.5,0,3.6-0.1,6.2-0.2c5.2-0.2,12.5-0.5,20.4-0.9c7.9-0.4,15.1-0.9,20.4-1.2c2.6-0.1,4.7-0.3,6.2-0.3c0.7,0,1.2-0.1,1.7-0.1
					C539.8,385.3,540,385.3,540,385.3z"/>
			</g>
		</g>
		<g class="st10">
			<g>
				<g>
					<path d="M546,387.5c6.5,1.9,15.5,2.4,21.8,0c-5,7-14.5,9.6-22.8,7.3c-8.3-2.3-15.9-10.6-16.6-19.2
						C532.5,381,539.5,385.6,546,387.5z"/>
				</g>
			</g>
		</g>
		<g>
			<g>
				<path class="st4" d="M598.6,380.7c0,0-0.2,0.1-0.5,0.1c-0.4,0.1-0.9,0.2-1.5,0.3c-1.3,0.3-3.2,0.6-5.5,1
					c-4.7,0.8-11.2,1.8-18.4,2.7c-7.2,0.9-13.8,1.5-18.5,1.8c-2.4,0.2-4.3,0.3-5.6,0.3c-0.6,0-1.1,0-1.5,0.1c-0.4,0-0.5,0-0.5,0
					c0,0,0.2,0,0.5-0.1c0.4,0,0.9-0.1,1.5-0.2c1.4-0.1,3.3-0.3,5.6-0.5c4.7-0.4,11.3-1.1,18.5-1.9c7.2-0.9,13.7-1.8,18.4-2.6
					c2.3-0.4,4.2-0.6,5.6-0.9c0.6-0.1,1.1-0.2,1.5-0.2C598.5,380.7,598.6,380.7,598.6,380.7z"/>
			</g>
		</g>
		<g class="st10">
			<g>
				<path d="M587.8,334.8c-1.6,18.6,3.5,37.1,8.5,55.2c0.3,1.1,0.6,2.2,1.4,3.1c0.7,0.9,2,1.4,3.1,0.9c1.6-0.8,1.4-3.1,0.9-4.8
					c-4.7-17.9-9.3-35.7-14-53.6"/>
			</g>
		</g>
	</g>
	<g>
		<g>
			<g>
				<g>
					<path class="st1" d="M327,353.4l21.2,103.9H495h37c2,0,3.7-1.6,3.7-3.7l0,0c0-2-1.6-3.7-3.7-3.7h-37l-19.6-96.7
						c-0.4-1.9-2-3.2-3.9-3.2L331,348.6C328.5,348.6,326.5,350.9,327,353.4z"/>
				</g>
			</g>
			<g>
				<g>
					<g>
						<path class="st5" d="M327,353.4c0,0,0-0.1-0.1-0.3c0-0.2-0.1-0.5,0-0.9c0.1-0.8,0.5-2.2,1.9-3c0.4-0.2,0.8-0.4,1.2-0.5
							c0.5-0.1,0.9-0.1,1.4-0.1c1,0,2.1,0,3.3,0c2.4,0,5.2,0,8.3,0.1c12.5,0.1,30.6,0.3,53.1,0.5c11.3,0.1,23.7,0.2,37,0.4
							c6.7,0.1,13.6,0.1,20.7,0.2c3.6,0,7.2,0.1,10.9,0.1c1.8,0,3.7,0,5.6,0.1c0.5,0,0.9,0,1.4,0c0.5,0.1,1,0.2,1.4,0.4
							c0.9,0.4,1.6,1.2,2,2.1c0.2,0.5,0.3,1,0.4,1.4l0.3,1.4c0.2,0.9,0.4,1.9,0.6,2.8c0.4,1.9,0.8,3.8,1.2,5.7
							c0.8,3.8,1.6,7.7,2.4,11.6c1.6,7.8,3.2,15.8,4.9,23.9c3.3,16.3,6.8,33.2,10.3,50.7l-0.2-0.2c6.9,0,14.1,0,21.3,0
							c3.6,0,7.3,0,10.9,0l2.8,0h1.4c0.4,0,0.9,0,1.4,0.1c1,0.2,1.8,0.8,2.4,1.6c0.6,0.8,0.8,1.8,0.7,2.8c-0.2,1.2-0.9,2.3-2,2.9
							c-0.5,0.3-1.1,0.4-1.7,0.5l-1.7,0c-2.2,0-4.5,0-6.7,0c-4.5,0-8.9,0-13.3,0c-8.8,0-17.5,0-26.1,0c-17.2,0-33.8,0-49.7,0
							c-31.9,0-61.1,0-86.3,0l-0.2,0l0-0.2c-6.5-31.9-11.7-57.9-15.4-75.9c-1.8-9-3.2-16-4.2-20.8c-0.5-2.4-0.8-4.2-1.1-5.4
							C327.1,354,327,353.4,327,353.4s0.1,0.6,0.4,1.8c0.3,1.2,0.6,3,1.1,5.4c1,4.8,2.4,11.8,4.3,20.7c3.7,18,9,44,15.6,75.9
							l-0.2-0.2c25.2,0,54.4,0,86.3,0c16,0,32.6,0,49.7,0c8.6,0,17.3,0,26.1,0c4.4,0,8.9,0,13.3,0c2.2,0,4.5,0,6.7,0l1.7,0
							c0.5,0,1-0.2,1.5-0.4c0.9-0.5,1.6-1.4,1.7-2.5c0.1-0.9-0.1-1.8-0.6-2.5c-0.5-0.7-1.3-1.2-2.1-1.4c-0.4-0.1-0.9-0.1-1.3-0.1
							l-1.4,0l-2.8,0c-3.7,0-7.3,0-10.9,0c-7.2,0-14.4,0-21.3,0h-0.2l0-0.2c-3.5-17.5-7-34.4-10.3-50.7c-1.7-8.1-3.3-16.1-4.9-23.9
							c-0.8-3.9-1.6-7.8-2.3-11.6c-0.4-1.9-0.8-3.8-1.1-5.7c-0.2-0.9-0.4-1.9-0.6-2.8l-0.3-1.4c-0.1-0.5-0.2-0.9-0.4-1.3
							c-0.4-0.8-1-1.5-1.8-1.9c-0.4-0.2-0.8-0.3-1.3-0.4c-0.4,0-0.9,0-1.4,0c-1.9,0-3.7,0-5.6-0.1c-3.7,0-7.3-0.1-10.9-0.1
							c-7.1-0.1-14.1-0.2-20.7-0.2c-13.4-0.2-25.7-0.3-37-0.4c-22.5-0.3-40.6-0.5-53.1-0.7c-3.1,0-5.9-0.1-8.3-0.1
							c-1.2,0-2.3,0-3.3,0c-0.5,0-1,0-1.4,0.1c-0.4,0.1-0.8,0.3-1.2,0.5c-1.4,0.9-1.9,2.2-1.9,3C326.9,353,327.1,353.4,327,353.4z"
							/>
					</g>
				</g>
			</g>
		</g>
		<g>
			<g>
				<path class="st4" d="M411.7,401c0,3.4-2.7,6.1-6.1,6.1c-3.4,0-6.1-2.7-6.1-6.1c0-3.4,2.7-6.1,6.1-6.1
					C409,394.9,411.7,397.6,411.7,401z"/>
			</g>
		</g>
		<g>
			<g>
				<g>
					<path class="st5" d="M327.2,354.2c0,0,0.2,0,0.6,0c0.4,0,1.1,0,1.9,0c1.7,0,4.1,0,7.1,0c6.2,0,15.2,0.1,26.3,0.1
						c22.2,0.2,52.8,0.4,86.7,0.6c4.2,0,8.4,0.1,12.5,0.1c1,0,2.1,0,3.1,0c0.5,0,1,0,1.6,0.1c0.5,0.1,1,0.3,1.5,0.6
						c0.9,0.6,1.6,1.5,1.9,2.5c0.2,1,0.4,2,0.6,3c1.6,7.8,3.1,15.4,4.5,22.6c2.8,14.4,5.4,27.3,7.6,38.2c2.1,10.9,3.9,19.7,5.1,25.8
						c0.6,3,1,5.4,1.3,7c0.1,0.8,0.3,1.4,0.3,1.8c0.1,0.4,0.1,0.6,0.1,0.6s-0.1-0.2-0.1-0.6c-0.1-0.4-0.2-1-0.4-1.8
						c-0.3-1.6-0.8-4-1.4-7c-1.2-6.1-3-14.9-5.2-25.8c-2.2-10.9-4.8-23.8-7.7-38.2c-1.4-7.2-2.9-14.7-4.5-22.6c-0.2-1-0.4-2-0.6-2.9
						c-0.2-0.9-0.8-1.7-1.7-2.2c-0.4-0.3-0.9-0.4-1.3-0.5c-0.5-0.1-1-0.1-1.5-0.1c-1,0-2,0-3.1,0c-4.1,0-8.3-0.1-12.5-0.1
						c-33.8-0.3-64.5-0.6-86.7-0.8c-11.1-0.1-20.1-0.2-26.3-0.3c-3.1,0-5.5-0.1-7.1-0.1c-0.8,0-1.4,0-1.9,0
						C327.4,354.3,327.2,354.2,327.2,354.2z"/>
				</g>
			</g>
		</g>
	</g>
	<g>
		<g>
			<g>
				<g>
					<path class="st5" d="M572.6,196.4c0.6,19.2-7.6,38.4-21.7,51.4c-3.2-9.4-6.5-18.7-9.7-28.1"/>
				</g>
			</g>
			<g>
				<g>
					<g>
						<path class="st5" d="M499.4,140.5c8.3-4.6,18.4-5.2,27.7-3.3c9.3,1.9,18,6.1,26.2,10.8c4.6,2.7,9.2,5.6,12.5,9.8
							c6,7.6,12,20.1,12.6,29.8c0.5,7.8-2.5,27.5-5.9,34.6c-3,6.5-17.3,11.5-24.3,13.1l-64.5-75
							C486.1,151.9,491.9,144.6,499.4,140.5z"/>
					</g>
				</g>
				<g>
					<g>
						<path class="st5" d="M488.3,150.6l15.5-2.8c-8.5,20.1-10.7,66.2-15.6,87.5c-5.7-8.3-18.9-33.5-18.2-43.5
							C470.7,181.8,469.9,148.9,488.3,150.6z"/>
					</g>
				</g>
				<g>
					<path class="st9" d="M561.7,184.1c-0.8-11.8-8.4-21.4-19.9-24.3l-35.6-9.1c-15.4-1.7-25.7,17.3-26.7,32.7
						c-1.1,17.2-1.8,35.3,0.2,48.1c4,25.8,23.8,29.1,23.8,29.1c0,0,0,12.3,0,19.8l11.9,49.3l38.4-53.1l8-92.2
						C561.8,184,561.7,184.7,561.7,184.1z"/>
				</g>
				<g>
					<g>
						<g>
							<g>
								<g>
									<g>
										<g>
											<g>
												<g>
													<g>
														<g>
															<g>
																<g>
																	<g>
																		<g>
																			<g>
																				<path class="st5" d="M487.2,202.9c-0.1,1.7,1.4,3.2,3.2,3.3c1.8,0.1,3.3-1.2,3.4-3c0.1-1.7-1.4-3.2-3.2-3.3
																					C488.8,199.8,487.3,201.1,487.2,202.9z"/>
																			</g>
																		</g>
																	</g>
																</g>
															</g>
														</g>
													</g>
												</g>
											</g>
										</g>
									</g>
								</g>
							</g>
						</g>
					</g>
				</g>
				<g>
					<g>
						<g>
							<g>
								<g>
									<g>
										<g>
											<g>
												<g>
													<g>
														<g>
															<g>
																<g>
																	<g>
																		<g>
																			<g>
																				<g>
																					<path class="st5" d="M483.3,193.5c0.4,0.4,2.9-1.4,6.5-1.4c3.6,0,6.2,1.8,6.5,1.4c0.2-0.2-0.2-1-1.4-1.8
																						c-1.1-0.8-3-1.6-5.2-1.6c-2.2,0-4.1,0.8-5.2,1.7C483.5,192.5,483.1,193.3,483.3,193.5z"/>
																				</g>
																			</g>
																		</g>
																	</g>
																</g>
															</g>
														</g>
													</g>
												</g>
											</g>
										</g>
									</g>
								</g>
							</g>
						</g>
					</g>
				</g>
				<g>
					<g>
						<g>
							<g>
								<g>
									<g>
										<g>
											<g>
												<g>
													<g>
														<g>
															<g>
																<g>
																	<g>
																		<g>
																			<g>
																				<path class="st5" d="M518.2,202.9c-0.1,1.7,1.4,3.2,3.2,3.3c1.8,0.1,3.3-1.2,3.4-3c0.1-1.7-1.4-3.2-3.2-3.3
																					C519.8,199.8,518.3,201.1,518.2,202.9z"/>
																			</g>
																		</g>
																	</g>
																</g>
															</g>
														</g>
													</g>
												</g>
											</g>
										</g>
									</g>
								</g>
							</g>
						</g>
					</g>
				</g>
				<g>
					<g>
						<g>
							<g>
								<g>
									<g>
										<g>
											<g>
												<g>
													<g>
														<g>
															<g>
																<g>
																	<g>
																		<g>
																			<g>
																				<g>
																					<path class="st5" d="M517.1,193.5c0.4,0.4,2.9-1.4,6.5-1.4c3.6,0,6.2,1.8,6.5,1.4c0.2-0.2-0.2-1-1.4-1.8
																						c-1.1-0.8-3-1.6-5.2-1.6c-2.2,0-4.1,0.8-5.2,1.7C517.3,192.5,516.9,193.3,517.1,193.5z"/>
																				</g>
																			</g>
																		</g>
																	</g>
																</g>
															</g>
														</g>
													</g>
												</g>
											</g>
										</g>
									</g>
								</g>
							</g>
						</g>
					</g>
				</g>
				<g>
					<g>
						<g>
							<g>
								<g>
									<g>
										<g>
											<g>
												<g>
													<g>
														<g>
															<g>
																<g>
																	<g>
																		<g>
																			<g>
																				<g>
																					<path class="st5" d="M506,221.4c0-0.2-2.2-0.6-5.8-1.1c-0.9-0.1-1.8-0.3-1.9-0.9c-0.2-0.7,0.2-1.6,0.6-2.7
																						c0.9-2.2,1.8-4.5,2.7-6.9c3.7-9.8,6.5-17.9,6.1-18.1c-0.4-0.1-3.8,7.7-7.5,17.5c-0.9,2.4-1.8,4.7-2.6,6.9
																						c-0.3,1-0.9,2.2-0.5,3.6c0.2,0.7,0.9,1.2,1.5,1.3c0.6,0.2,1.1,0.2,1.5,0.2C503.7,221.6,506,221.6,506,221.4z"
																						/>
																				</g>
																			</g>
																		</g>
																	</g>
																</g>
															</g>
														</g>
													</g>
												</g>
											</g>
										</g>
									</g>
								</g>
							</g>
						</g>
					</g>
				</g>
				<g>
					<g>
						<g>
							<g>
								<g>
									<path class="st11" d="M537.6,251.4c0,0-8.4,17.7-34.2,15.2l0-6.1C503.4,260.6,520.4,261.7,537.6,251.4z"/>
								</g>
							</g>
						</g>
					</g>
				</g>
				<g>
					<g>
						<g>
							<g>
								<g>
									<g>
										<g>
											<g>
												<g>
													<g>
														<g>
															<g>
																<g>
																	<path class="st5" d="M518.2,180.7c0.3,1,3.9,0.5,8.1,1c4.2,0.4,7.5,1.7,8.1,0.8c0.2-0.4-0.3-1.3-1.7-2.3
																		c-1.3-0.9-3.5-1.8-6-2.1c-2.5-0.3-4.8,0.1-6.3,0.7C518.8,179.4,518.1,180.2,518.2,180.7z"/>
																</g>
															</g>
														</g>
													</g>
												</g>
											</g>
										</g>
									</g>
								</g>
							</g>
						</g>
					</g>
				</g>
				<g>
					<g>
						<g>
							<g>
								<g>
									<g>
										<g>
											<g>
												<g>
													<g>
														<g>
															<g>
																<g>
																	<path class="st5" d="M484.5,182.6c0.6,0.8,3.1,0,6-0.1c2.9-0.1,5.4,0.6,6-0.3c0.3-0.4-0.1-1.2-1.2-2
																		c-1.1-0.8-2.9-1.4-4.9-1.3c-2,0.1-3.8,0.8-4.8,1.6C484.6,181.4,484.2,182.2,484.5,182.6z"/>
																</g>
															</g>
														</g>
													</g>
												</g>
											</g>
										</g>
									</g>
								</g>
							</g>
						</g>
					</g>
				</g>
				<g>
					<g>
						<g>
							<g>
								<g>
									<path class="st5" d="M486.5,159.9c1.6-3.9,5.8-6.2,10-6.4c4.2-0.2,8.3,1.4,11.9,3.5c15.3,8.9,23.2,30.3,38.4,39.5
										c3.7,2.3,8.6,0.2,11.8,3.2c3.2,3,5.2,7.8,3.5,11.8c2-2.8,4.1-5.6,5.3-8.9c1.2-3.3,1.3-7-0.4-10c-1.3-2.3-3.6-4-4.3-6.6
										c-0.6-2.2,0.3-4.6,0.2-6.9c-0.1-2.3-1.2-4.5-2.4-6.6c-5.9-10.5-14.1-20-24.6-25.9c-6.9-3.9-14.7-6.1-22.6-5.8
										c-7.9,0.3-15.7,3.2-21.5,8.5C488.3,152.3,484.7,155.6,486.5,159.9"/>
								</g>
							</g>
						</g>
					</g>
				</g>
				<g>
					<g>
						<g>
							<g>
								<g>
									<g>
										<g>
											<g>
												<g>
													<g>
														<g>
															<g>
																<g>
																	<g>
																		<g>
																			<g>
																				<g>
																					<g>
																						<g>
																							<path class="st9" d="M558.1,202.8c0.3-0.7,13.7-5.6,13.9,8.7c0.2,13.9-13.8,11.1-13.9,10.7
																								C558.1,221.8,558.1,202.8,558.1,202.8z"/>
																						</g>
																					</g>
																				</g>
																			</g>
																		</g>
																	</g>
																</g>
															</g>
														</g>
													</g>
												</g>
											</g>
										</g>
									</g>
								</g>
							</g>
						</g>
					</g>
					<g>
						<g>
							<g>
								<g>
									<g>
										<g>
											<g>
												<g>
													<g>
														<g>
															<g>
																<g>
																	<g>
																		<g>
																			<g>
																				<g>
																					<g>
																						<g>
																							<g>
																								<path class="st11" d="M562.4,216.9c0.1,0,0.2,0.2,0.7,0.4c0.4,0.2,1.1,0.3,1.8,0c1.5-0.6,2.7-2.9,2.7-5.4
																									c0-1.3-0.3-2.5-0.7-3.5c-0.4-1-1.1-1.7-1.8-1.8c-0.7-0.2-1.3,0.3-1.4,0.7c-0.2,0.4-0.1,0.7-0.2,0.7
																									c0,0-0.3-0.2-0.2-0.8c0.1-0.3,0.2-0.6,0.5-0.9c0.3-0.3,0.8-0.4,1.3-0.4c1.1,0.1,2,1,2.5,2.1
																									c0.6,1.1,0.9,2.4,0.9,3.9c-0.1,2.8-1.5,5.4-3.5,6c-1,0.3-1.8,0-2.2-0.3
																									C562.4,217.2,562.3,216.9,562.4,216.9z"/>
																							</g>
																						</g>
																					</g>
																				</g>
																			</g>
																		</g>
																	</g>
																</g>
															</g>
														</g>
													</g>
												</g>
											</g>
										</g>
									</g>
								</g>
							</g>
						</g>
					</g>
				</g>
				<g>
					<g>
						<g>
							<g>
								<g>
									<g>
										<path class="st8" d="M563.6,195.6c0,0-0.3-0.1-0.8-0.5c-0.5-0.3-1.3-0.8-2.3-1.5c-1.9-1.4-4.6-3.6-7.5-6.8
											c-2.9-3.2-5.9-7.3-9.2-11.9c-3.3-4.6-6.9-9.7-11.5-14.3c-2.3-2.2-4.8-4.3-7.4-5.8c-2.6-1.6-5.3-2.8-8-3.6
											c-5.3-1.7-10.5-2.1-14.7-1.8c-4.2,0.3-7.6,1.2-9.8,1.9c-1.1,0.3-2,0.7-2.6,1c-0.6,0.2-0.9,0.3-0.9,0.3
											c0,0,0.3-0.2,0.9-0.4c0.6-0.3,1.4-0.7,2.5-1.1c2.2-0.8,5.6-1.8,9.9-2.1c4.3-0.4,9.5,0,14.9,1.7c2.7,0.8,5.5,2,8.1,3.6
											c2.7,1.6,5.1,3.6,7.5,5.9c4.6,4.6,8.2,9.8,11.5,14.4c3.2,4.6,6.2,8.7,9,11.9c2.8,3.2,5.4,5.5,7.3,6.9
											c0.9,0.7,1.7,1.2,2.2,1.6C563.4,195.4,563.7,195.6,563.6,195.6z"/>
									</g>
								</g>
							</g>
						</g>
					</g>
				</g>
				<g>
					<g>
						<g>
							<g>
								<g>
									<g>
										<path class="st4" d="M564,219.4c1.4-0.3,2.8,0.7,3.2,2c0.3,1.3-0.5,2.9-1.8,3.3c-1.3,0.4-2.9-0.3-3.4-1.6
											c-0.5-1.3,0.2-2.9,1.4-3.5"/>
									</g>
								</g>
							</g>
						</g>
					</g>
					<g>
						<g>
							<g>
								<g>
									<g>
										<g>
											<path class="st5" d="M563.3,219.6c0.1,0.1-0.9,0.5-1.2,1.9c-0.2,0.7-0.1,1.5,0.5,2.2c0.6,0.6,1.6,1,2.6,0.7
												c0.9-0.3,1.6-1.2,1.7-2.1c0.1-0.9-0.3-1.6-0.8-2.1c-1.1-0.9-2.1-0.7-2.1-0.8c0,0,0.2-0.1,0.7-0.2c0.4,0,1.1,0.1,1.7,0.6
												c0.6,0.5,1.2,1.4,1.1,2.5c-0.1,1.1-0.8,2.2-2.1,2.6c-1.3,0.4-2.5-0.1-3.2-1c-0.7-0.8-0.8-1.9-0.5-2.7
												c0.2-0.8,0.7-1.3,1.1-1.5C563.1,219.6,563.3,219.5,563.3,219.6z"/>
										</g>
									</g>
								</g>
							</g>
						</g>
					</g>
				</g>
			</g>
			<g>
				<g>
					<path class="st5" d="M560.2,199.6c0.2,3.8,0.4,7.8-1.4,11.2c-1.8,3.4-6.2,5.7-9.5,3.8c-2.7-1.5-3.5-5-3.9-8
						c-1.3-8.8-1.9-17.8-3.3-26.6L560.2,199.6z"/>
				</g>
			</g>
			<g>
				<g>
					<g>
						<path class="st8" d="M489.9,153.3c0,0.1,1.2-0.2,3.4-0.3c2.2-0.1,5.5,0.2,9.2,1.7c1.8,0.7,3.8,1.7,5.8,3
							c1.9,1.3,3.9,2.8,5.9,4.5c4,3.4,8.1,7.6,11.6,12.5c1.8,2.5,3.3,5,5,7.4c1.7,2.4,3.5,4.5,5.6,6.3c4,3.5,8.2,6,11.7,7.8
							c3.5,1.9,6.5,3.2,8.6,4.1c1,0.4,1.8,0.7,2.4,1c0.5,0.2,0.8,0.3,0.8,0.3c0,0-0.3-0.2-0.8-0.4c-0.6-0.3-1.4-0.7-2.3-1.1
							c-2-1-4.9-2.4-8.4-4.3c-3.5-1.9-7.6-4.4-11.5-7.9c-2-1.7-3.8-3.8-5.4-6.2c-1.7-2.3-3.2-4.9-5-7.4c-3.6-5-7.7-9.2-11.8-12.6
							c-2-1.7-4.1-3.2-6-4.5c-2-1.3-4-2.2-5.9-2.9c-3.8-1.4-7.1-1.6-9.4-1.5c-1.1,0.1-2,0.2-2.6,0.4
							C490.2,153.2,489.9,153.3,489.9,153.3z"/>
					</g>
				</g>
			</g>
			<g>
				<g>
					<g>
						<path class="st8" d="M560.5,191c0,0,0.4,0.3,1.2,0.8c1,0.6,2.1,1.2,3.5,2.1c0.4,0.2,0.8,0.4,1.2,0.7c0.4,0.2,0.9,0.5,1.5,0.5
							c0.3,0,0.6,0,0.9-0.2c0.3-0.2,0.5-0.6,0.5-0.9c0-0.7-0.4-1.3-0.7-1.8c-1.3-2-2.6-4.2-4.1-6.5l-0.5,0.5c1.3,1,2.8,1.7,4.5,2.2
							c1.6,0.5,3.3,0.7,5,0.6c0.4,0,0.8-0.1,1.3-0.2c0.4-0.1,0.9-0.4,1.1-0.9c0.2-0.5,0-1.1-0.2-1.4c-0.2-0.4-0.5-0.6-0.8-0.9
							c-2.1-2-3.6-4.1-4.7-6c-2.2-3.8-2.9-6.4-3-6.4c0,0,0.1,0.7,0.4,1.9c0.4,1.2,1,2.9,2.1,4.8c1.1,1.9,2.6,4.1,4.7,6.2
							c0.5,0.5,1,1.1,0.8,1.5c-0.2,0.4-1,0.7-1.7,0.7c-1.5,0.1-3.1-0.1-4.7-0.6c-1.6-0.5-3-1.2-4.2-2.1l-1.7-1.2l1.1,1.7
							c1.5,2.3,2.9,4.5,4.2,6.5c0.3,0.5,0.6,1,0.6,1.4c0,0.4-0.4,0.6-0.8,0.6c-0.9,0-1.7-0.7-2.5-1c-1.4-0.7-2.6-1.4-3.6-1.9
							C561,191.2,560.6,191,560.5,191z"/>
					</g>
				</g>
			</g>
		</g>
		<g>
			<path class="st11" d="M519.5,228c-0.5-2.1-2.6-3.7-4.8-3.5c-1.6,0.2-3,1.2-3.7,2.7c-0.7,1.4-0.7,3.1-0.2,4.6l0.1,0.3
				c1.5,1.6,4,2.2,5.9,1.3S520,230.1,519.5,228z"/>
		</g>
		<g>
			<g>
				<g>
					<g>
						<g>
							<g>
								<g>
									<g>
										<g>
											<path class="st5" d="M508.3,232.2c0-0.5,3.6-0.4,6.3-3.3c2.7-2.9,2.5-6.8,3-6.8c0.2,0,0.7,0.9,0.6,2.5
												c0,1.6-0.6,3.9-2.3,5.7c-1.7,1.8-3.8,2.5-5.3,2.6C509.1,232.8,508.2,232.4,508.3,232.2z"/>
										</g>
									</g>
								</g>
							</g>
						</g>
					</g>
				</g>
			</g>
		</g>
	</g>
	<g>
		<g>
			<path class="st4" d="M629.4,450.5c0,0-0.1,0-0.2,0c-0.2,0-0.4,0-0.7,0.1c-0.7,0.1-1.6,0.1-2.8,0.2c-2.4,0.2-5.9,0.4-10.1,0.7
				c-8.6,0.5-20.4,1-33.5,1.2c-13.1,0.2-24.9,0.1-33.5-0.1c-4.3-0.1-7.8-0.2-10.2-0.3c-1.2-0.1-2.1-0.1-2.8-0.1c-0.3,0-0.5,0-0.7,0
				c-0.2,0-0.2,0-0.2,0c0,0,0.1,0,0.2,0c0.2,0,0.4,0,0.7,0c0.7,0,1.6,0,2.8,0c2.4,0,5.9,0.1,10.2,0.2c8.6,0.1,20.4,0.2,33.5,0
				c13.1-0.2,24.9-0.7,33.5-1.1c4.2-0.2,7.7-0.4,10.1-0.5c1.2-0.1,2.1-0.1,2.8-0.1c0.3,0,0.5,0,0.7,0
				C629.3,450.5,629.4,450.5,629.4,450.5z"/>
		</g>
	</g>
</g>
</svg>
