<?xml version="1.0" encoding="utf-8"?>
<!-- Generator: Adobe Illustrator 25.0.1, SVG Export Plug-In . SVG Version: 6.00 Build 0)  -->
<svg version="1.1" id="bb8a55da-36b7-4070-be8a-1e4e62c87f0e"
	 xmlns="http://www.w3.org/2000/svg" xmlns:xlink="http://www.w3.org/1999/xlink" x="0px" y="0px" viewBox="0 0 916.8 612.1"
	 style="enable-background:new 0 0 916.8 612.1;" xml:space="preserve">
<style type="text/css">
	.st0{fill:#D4A102;}
	.st1{fill:#495157;}
	.st2{fill:#D6A100;}
	.st3{fill:none;}
</style>
<g>
	<g>
		<path class="st0" d="M549.9,209.7l-97.3-101.4l-21.8,20.9l97.2,101.4c8.8,9.2,8.5,23.9-0.7,32.7l-10.8,10.4l0,0L469.3,319
			c-4.3,4.1-10,6.4-15.9,6.4l-0.6,0c-6.2-0.1-11.9-2.6-16.2-7.1l-30.1-31.4l0-0.1l-23-24.1c-0.2-0.2-0.5-0.5-0.7-0.8
			c-3.9-4.5-5.9-10-5.7-15.7c0.1-5.9,2.4-11.4,6.5-15.6l0.2-0.2l5.8-6.5l-20.3-21.5l-4.6,4.7c-3.9,4.2-7.2,8-9.3,10.9
			c-13.3,20.8-10.7,47.8,6.3,65.6l12.8,13.3l-0.1,0.1l40.3,42.1c9.8,10.3,23.1,16.1,37.4,16.4l1.2,0c13.8,0,26.9-5.2,36.9-14.8
			l34.5-33.1l0,0l23.6-22.6C569.6,264.8,570.3,231,549.9,209.7z"/>
		<path class="st1" d="M475.4,247.4L378.1,146c-8.8-9.2-8.5-23.9,0.7-32.7l11-10.6l0,0L437,57.6c4.3-4.1,10-6.4,16-6.4l0.6,0
			c6.2,0.1,11.9,2.6,16.2,7.1l30.1,31.4l-0.1,0.1l23.1,24.1c0.2,0.2,0.4,0.4,0.6,0.7c3.9,4.5,5.9,10.1,5.8,15.8
			c-0.1,5.8-2.4,11.2-6.3,15.4l0,0l-0.4,0.4l-5.8,6.4l20.3,21.5l4.6-4.7c3.9-4.3,7.2-8.1,9.3-10.9c13.3-20.8,10.8-47.8-6.3-65.6
			l-12.8-13.3l0.1-0.1l-40.3-42.1c-9.8-10.3-23.1-16.1-37.4-16.4l-1.2,0c-13.8,0-26.9,5.3-36.9,14.8l-34.2,32.8l0,0l-23.9,22.9
			c-21.2,20.4-22,54.2-1.6,75.4l97.3,101.4L475.4,247.4z"/>
	</g>
	<path class="st1" d="M190,463.8l-33.9,0.1l-36.1,0.1c-5.4,0-9.8-4.4-9.8-9.8l0-5.8l0-9.6h0v-0.3h0l0-9.6l0-4h0l0-14.2
		c0-2.6,1-5,2.9-6.9c1.9-1.9,4.3-2.9,6.9-2.9l19.7,0h0.7l0,0l17.8,0h1.5c0.2,0,0.4,0,0.5,0c2.4,0.1,4.7,1.1,6.4,2.8
		c1.8,1.8,2.8,4.2,2.9,6.7c0,0,0,0,0,0l0.5,6.6l19.6,0.1l-0.2-5.7c-0.2-2.6-0.4-5.5-0.8-7.7c-3.2-13.1-14.9-22.8-28.9-22.8l-2.4,0
		l-5,0v0l-32.3,0.1c-7.9,0-15.4,3.1-21,8.8c-5.6,5.6-8.7,13.2-8.7,21l0,13h0l0,5.2l0,7.9h0l0,3.1h0l0,1.3h0l0,13
		c0,16.4,13.4,29.7,29.8,29.7l16.7-0.1l19.5,0l0.9,0l33-0.1L190,463.8z"/>
	<path class="st1" d="M308.1,432.6l0-3.4h0l0-5.7h0l0-13c0-7.9-3.1-15.4-8.7-21c-5.1-5.1-11.8-8.2-18.9-8.7c-0.7,0-1.4-0.1-2.1-0.1
		l-20.3,0l-20.3,0c-0.7,0-1.4,0.1-2.1,0.1c-7.1,0.5-13.8,3.5-18.9,8.7c-5.6,5.6-8.7,13.2-8.7,21l0,13h0l0,5.7h0v3.4h0l0,3.7h0l0,3.3
		l0,14.6c0,3.3,0.6,6.5,1.6,9.5c3.8,11,13.8,19.1,25.8,20l5.6,0l0.9,0l16,0l16.1,0l0.9,0l5.6,0c12-0.9,22-9,25.8-20
		c1-3,1.6-6.2,1.6-9.5l0-14.6l0-3.3h0L308.1,432.6L308.1,432.6z M288.1,448.5l0,5.8c0,5-3.8,9.1-8.7,9.6c-0.4,0-0.7,0.1-1.1,0.1
		l-20.2-0.1L238,464c-0.4,0-0.8-0.1-1.1-0.1c-4.8-0.6-8.6-4.6-8.7-9.6l0-5.8h0l0-8.8v-1.3h0l0-14.4h0l0-7.2l0-6.3c0-2.6,1-5,2.9-6.9
		c1.9-1.9,4.3-2.9,6.9-2.9h0.1c0.1,0,0.1,0,0.2,0c0.2,0,0.3,0,0.5,0h1.4l8.8,0l8.6,0h0.5h0.3h0.5l8.6,0l8.8,0h1.5c0.2,0,0.3,0,0.5,0
		c0.1,0,0.1,0,0.2,0h0.2c2.6,0,5,1,6.9,2.9c1.9,1.9,2.9,4.3,2.9,6.9l0,6.3l0,7.2h0l0,14.4l0,1.3L288.1,448.5L288.1,448.5z"/>
	<path class="st1" d="M735.3,432.6l0-3.4l0,0l0-5.7h0l0-13c0-7.9-3.1-15.4-8.7-21c-5.1-5.1-11.8-8.2-18.9-8.7
		c-0.7,0-1.4-0.1-2.1-0.1l-20.3,0l-20.3,0c-0.7,0-1.4,0.1-2.1,0.1c-7.1,0.5-13.8,3.5-18.9,8.7c-5.6,5.6-8.7,13.2-8.7,21l0,13h0
		l0,5.7l0,0v3.4h0l0,3.7h0l0,3.3l0,14.6c0,3.3,0.6,6.5,1.6,9.5c3.8,11,13.8,19.1,25.8,20l5.6,0l0.9,0l16.1,0l16,0l0.9,0l5.6,0
		c12-0.9,22-9,25.8-20c1-3,1.6-6.2,1.6-9.5l0-14.6l0-3.3h0L735.3,432.6L735.3,432.6z M715.3,448.5l0,5.8c0,5-3.8,9.1-8.7,9.6
		c-0.4,0-0.8,0.1-1.1,0.1l-20.2-0.1l-20.2,0.1c-0.4,0-0.8-0.1-1.1-0.1c-4.8-0.6-8.6-4.6-8.7-9.6l0-5.8h0l0-8.8v-1.3l0,0l0-14.4h0
		l0-7.2l0-6.3c0-2.6,1-5,2.9-6.9c1.9-1.9,4.3-2.9,6.9-2.9h0.2c0.1,0,0.1,0,0.2,0c0.2,0,0.3,0,0.5,0h1.4l8.8,0l8.5,0h0.5h0.3h0.5
		l8.5,0l8.8,0h1.4c0.2,0,0.3,0,0.5,0c0.1,0,0.1,0,0.2,0h0.2c2.6,0,5,1,6.9,2.9c1.9,1.9,2.9,4.3,2.9,6.9l0,6.3l0,7.2h0l0,14.4l0,1.3
		L715.3,448.5L715.3,448.5z"/>
	<path class="st1" d="M825,465.9h-42.8c-4.1,0-6.1-1.5-6.1-4.6v-25.7v-1.9V419v-1.4v-35.5c0-0.9-0.5-1.4-1.6-1.4h-19.7
		c-1.1,0-1.6,0.5-1.6,1.4v35.5v1.4v14.7v1.9v24c0,7.8,1.8,13.6,5.5,17.4c3.7,3.8,9.9,6.1,18.6,6.7c0.5,0.1,1.2,0.1,1.9,0.1
		c0.7,0,1.5,0,2.4,0H825c1,0,1.6-0.5,1.6-1.4v-15.3C826.6,466.3,826,465.9,825,465.9z"/>
	<path class="st1" d="M414.9,380.7h-19.7c-1.1,0-1.6,0.5-1.6,1.4v7v1.4v6.5v2.4v51.4v3.8v6.3v0.1v2.5c0,0.9-0.4,1.4-1.1,1.4
		c-0.7,0-1.3-0.5-1.6-1.4l-0.8-2.6h0l-15.6-54.3h0l-3.7-12l-1-3.4c-0.1-0.2-0.2-0.4-0.3-0.6c-1.1-2.9-3-5.3-5.8-7
		c-3-1.8-7.8-2.8-14.4-2.8c-4.5,0-8.3,0.4-11.3,1.2c-3,0.8-5.4,2-7.2,3.6c-1.5,1.3-2.6,3-3.3,5c-0.2,0.4-0.3,0.9-0.5,1.3
		c-0.2,0.8-0.4,1.7-0.6,2.7c-0.3,2-0.5,4.2-0.5,6.6v4.7v0.7v6.1v61.7v2.2v5.3c0,1.4,0.5,2.1,1.6,2.1h19.7c1.1,0,1.6-0.7,1.6-2.1
		v-5.3v-2.2v-61.7v-6.1v-0.7V401c0-0.8,0.4-1.2,1.1-1.2c0.6,0,1.1,0.4,1.4,1.2l1.5,4.8h0l15.9,55h0l0.3,0.9l0.5,1.6h0l3.2,10.4
		c0.4,1.3,1.1,2.5,2.1,3.7c0.1,0.1,0.2,0.2,0.2,0.2c0.9,1.1,1.9,2.1,3.1,3c1.3,1,2.6,1.8,4,2.4c1.4,0.6,2.8,0.9,4,0.9h14.5
		c2.2,0,4.3-0.5,6.2-1.5c1.9-1,3.6-2.2,5-3.8c0.3-0.3,0.5-0.7,0.8-1c0.3-0.3,0.6-0.7,0.8-1c2.3-4.4,2.9-10.4,3.1-13.5v-2.2v-0.1
		v-6.3v-3.8v-51.4V397v-6.5v-1.4v-7C416.5,381.2,415.9,380.7,414.9,380.7z"/>
	<path class="st2" d="M163.9,522.3h-5.3c-4.6,0-6.8-1.8-6.8-5.8c0-4.5,3.4-6.7,10.4-6.7c4.7,0,9.1,0.8,13.1,2.3l1.1,0.4v-6.8
		l-0.6-0.2c-4.2-1.2-8.8-1.8-13.6-1.8c-11.6,0-17.4,4.3-17.4,12.8c0,8.1,4.6,12.2,13.8,12.2h5.3c4.8,0,7,1.9,7,5.8
		c0,4.7-3.2,7-9.8,7c-4.9,0-9.5-0.8-13.7-2.3l-1.1-0.4v6.8l0.6,0.2c4.4,1.2,9.2,1.8,14.2,1.8c11.2,0,16.8-4.4,16.8-13
		C177.9,526.4,173.1,522.3,163.9,522.3z"/>
	<rect x="185.5" y="515.3" class="st2" width="7" height="31.9"/>
	<rect x="185.5" y="503.3" class="st2" width="7" height="6.7"/>
	<path class="st2" d="M214.7,528h-4.3c-3.5,0-3.9-1.7-3.9-3.2c0-0.9,0-3.5,6.7-3.5c3.5,0,7,0.6,10.5,1.7l1.1,0.4V517l-0.6-0.2
		c-3.6-1-7.3-1.5-11-1.5c-8.9,0-13.4,3.2-13.4,9.5c0,6.4,3.7,9.8,10.6,9.8h4.3c3.7,0,4.2,1.7,4.2,3.2c0,0.9,0,3.5-6.4,3.5
		c-3.5,0-7.1-0.6-10.5-1.7l-1.1-0.4v6.4l0.6,0.2c3.6,1,7.3,1.5,11,1.5c8.9,0,13.4-3.2,13.4-9.5C225.9,533.3,223.9,528,214.7,528z"/>
	<path class="st2" d="M237.6,510.4h-4.9v27.8c0,5.9,2.9,9,8.5,9h5.9v-6h-4.5c-1.3,0-2.8-0.4-2.8-3.4v-16.5h7.3v-6h-8.4L237.6,510.4z
		"/>
	<path class="st2" d="M268.8,515.3c-9.8,0-14.8,5.3-14.8,15.6c0,10.8,5.5,16.3,16.4,16.3c3.9,0,7.2-0.4,10-1.2l0.6-0.2v-6.1
		l-1.1,0.3c-2.6,0.7-5.6,1.1-8.9,1.1c-6.4,0-9.6-2.5-10-7.6h21.1l0.1-0.7c0.2-1.4,0.3-2.7,0.3-4
		C282.5,519.9,277.9,515.3,268.8,515.3z M268.8,521.3c4.3,0,6.5,2,6.9,6.3h-14.5C261.7,523.3,264.1,521.3,268.8,521.3z"/>
	<path class="st2" d="M323.4,515.3c-3.3,0-6.6,1.3-9.8,3.7c-1.8-2.5-4.9-3.7-9.2-3.7c-3.2,0-6.2,1.1-9,3.1l-0.7-3.1h-5.1v31.9h7
		v-22.4c2.2-2.3,4.5-3.4,7.2-3.4c2.1,0,4.8,0.6,4.8,6v19.8h7v-22.4c2.3-2.3,4.6-3.4,7.1-3.4c2.1,0,4.9,0.6,4.9,5.9v19.9h7v-19.6
		C334.7,519.6,330.8,515.3,323.4,515.3z"/>
	<path class="st2" d="M354.7,515.3c-3.2,0-6.5,0.5-9.8,1.5l-0.6,0.2v6.1l1.1-0.3c3.2-0.9,6.3-1.4,9.3-1.4c7.3,0,7.3,3.3,7.3,4.4v1.9
		c-2.4-0.3-4.7-0.5-7-0.5c-8.7,0-13.1,3.4-13.1,10.2c0,4.6,2,10,11.6,10c3.4,0,6.6-0.9,9.6-2.7l1.6,2.7h4.3v-21.7
		C369,518.8,364.2,515.3,354.7,515.3z M355,533.1c2.3,0,4.7,0.2,7,0.5v5.1c-2.3,1.7-5.2,2.5-8.5,2.5c-3.2,0-4.6-1.2-4.6-4.1
		C348.9,535.5,349.5,533.1,355,533.1z"/>
	<path class="st2" d="M391,528h-4.3c-3.5,0-3.9-1.7-3.9-3.2c0-0.9,0-3.5,6.7-3.5c3.5,0,7,0.6,10.5,1.7l1.1,0.4V517l-0.6-0.2
		c-3.6-1-7.3-1.5-11-1.5c-8.9,0-13.4,3.2-13.4,9.5c0,6.4,3.7,9.8,10.6,9.8h4.3c3.7,0,4.2,1.7,4.2,3.2c0,0.9,0,3.5-6.4,3.5
		c-3.5,0-7.1-0.6-10.5-1.7l-1.1-0.4v6.4l0.6,0.2c3.6,1,7.3,1.5,11,1.5c8.9,0,13.4-3.2,13.4-9.5C402.2,533.3,400.3,528,391,528z"/>
	<rect x="423.2" y="504.4" class="st2" width="7" height="42.9"/>
	<path class="st2" d="M452.9,515.3c-3.5,0-6.7,1.1-9.7,3.2l-0.8-3.2h-5.1v31.9h7v-22.5c2.5-2.2,5.1-3.4,7.9-3.4c4,0,5.9,1.9,5.9,5.9
		v19.9h7v-19.8C465.1,519.5,460.9,515.3,452.9,515.3z"/>
	<path class="st2" d="M510.9,515.3c-10.1,0-15.2,5.4-15.2,16c0,10.6,5.2,15.9,15.2,15.9c10.1,0,15.3-5.4,15.3-15.9
		C526.1,520.7,521,515.3,510.9,515.3z M510.9,541.2c-5.5,0-8.2-3.3-8.2-10.1c0-6.6,2.7-9.8,8.2-9.8c5.5,0,8.2,3.2,8.2,9.8
		C519.1,538,516.4,541.2,510.9,541.2z"/>
	<path class="st2" d="M539.1,518.5l-0.8-3.1h-5.1v31.9h7v-22.5c2.1-2.2,4.7-3.3,7.9-3.3h0.8v-6.1h-0.8
		C544.7,515.3,541.7,516.4,539.1,518.5z"/>
	<path class="st2" d="M590,515.3c-3.3,0-6.6,1.3-9.8,3.7c-1.8-2.5-4.9-3.7-9.2-3.7c-3.2,0-6.2,1.1-9,3.1l-0.7-3.1h-5.1v31.9h7v-22.4
		c2.2-2.3,4.5-3.4,7.2-3.4c2.1,0,4.8,0.6,4.8,6v19.8h7v-22.4c2.2-2.3,4.6-3.4,7.1-3.4c2.1,0,4.9,0.6,4.9,5.9v19.9h7v-19.6
		C601.3,519.6,597.4,515.3,590,515.3z"/>
	<polygon class="st2" points="632.5,503.3 623.1,503.3 617.2,511.9 623.9,511.9 	"/>
	<path class="st2" d="M621.3,515.3c-3.2,0-6.5,0.5-9.8,1.5l-0.6,0.2v6.1l1.1-0.3c3.2-0.9,6.3-1.4,9.3-1.4c7.3,0,7.3,3.3,7.3,4.4v1.9
		c-2.4-0.3-4.7-0.5-7-0.5c-8.7,0-13.1,3.4-13.1,10.2c0,4.6,2,10,11.7,10c3.4,0,6.6-0.9,9.6-2.7l1.6,2.7h4.3v-21.7
		C635.6,518.8,630.8,515.3,621.3,515.3z M621.5,533.1c2.3,0,4.7,0.2,7,0.5v5.1c-2.3,1.7-5.2,2.5-8.5,2.5c-3.2,0-4.6-1.2-4.6-4.1
		C615.4,535.5,616.1,533.1,621.5,533.1z"/>
	<path class="st2" d="M647.5,510.4h-4.9v27.8c0,5.9,2.9,9,8.5,9h5.9v-6h-4.5c-1.3,0-2.8-0.4-2.8-3.4v-16.5h7.3v-6h-8.4L647.5,510.4z
		"/>
	<rect x="664" y="503.3" class="st2" width="7" height="6.7"/>
	<rect x="664" y="515.3" class="st2" width="7" height="31.9"/>
	<path class="st2" d="M695,515.3c-11.3,0-17,5.2-17,15.4c0,11,5.7,16.5,17,16.5c2.9,0,5.7-0.3,8.3-0.9l0.7-0.2v-6.1l-1,0.2
		c-2.4,0.6-5.2,0.8-8.2,0.8c-6.5,0-9.7-3.4-9.7-10.5c0-6.3,3.2-9.4,9.7-9.4c3,0,5.7,0.3,8.2,0.8l1,0.2v-6.1l-0.7-0.2
		C700.7,515.6,698,515.3,695,515.3z"/>
	<path class="st2" d="M726.2,515.3c-10.1,0-15.2,5.4-15.2,16c0,10.6,5.2,15.9,15.2,15.9c10.1,0,15.2-5.4,15.2-15.9
		C741.4,520.7,736.3,515.3,726.2,515.3z M726.2,541.2c-5.5,0-8.2-3.3-8.2-10.1c0-6.6,2.7-9.8,8.2-9.8c5.5,0,8.2,3.2,8.2,9.8
		C734.4,538,731.7,541.2,726.2,541.2z"/>
	<path class="st2" d="M763.5,528h-4.3c-3.5,0-3.9-1.7-3.9-3.2c0-0.9,0-3.5,6.7-3.5c3.5,0,7,0.6,10.5,1.7l1.1,0.4V517l-0.6-0.2
		c-3.6-1-7.3-1.5-11-1.5c-8.9,0-13.4,3.2-13.4,9.5c0,6.4,3.7,9.8,10.6,9.8h4.3c3.7,0,4.2,1.7,4.2,3.2c0,0.9,0,3.5-6.4,3.5
		c-3.5,0-7.1-0.6-10.5-1.7l-1.1-0.4v6.4l0.6,0.2c3.6,1,7.3,1.5,11,1.5c8.9,0,13.4-3.2,13.4-9.5C774.7,533.3,772.7,528,763.5,528z"/>
	<path class="st1" d="M513.8,380.7h-77.5c-1.1,0-1.6,0.5-1.6,1.5v16.4c0,1,0.5,1.5,1.6,1.5H462c1,0,1.6,0.5,1.6,1.5v0.2v7.1v1.6
		v28.6v17.1v3.2v23.1c0,1,0.5,1.5,1.6,1.5h19.7c1.1,0,1.6-0.5,1.6-1.5v-23.1v-3.2v-17.1v-28.6v-1.6v-7.1v-0.2c0-1,0.5-1.5,1.6-1.5
		h25.7c1.1,0,1.6-0.5,1.6-1.5v-16.4C515.4,381.2,514.8,380.7,513.8,380.7z"/>
	<path class="st3" d="M588.2,398.8h-30.9c-1,0-1.6,0.5-1.6,1.4v0.4h36.1C590.7,399.6,589.5,398.9,588.2,398.8z"/>
	<path class="st3" d="M555.7,409.7v0.6v6.4v8.4c0,0.9,0.6,1.4,1.7,1.4H586c1.5,0,3.1-0.7,4.9-1.9c1.5-1.1,2.6-2.7,3.4-4.9
		c0.7-1.8,1-3.8,1.1-6h0c0-1.2,0-2.3,0-3.5h0c0,0,0,0,0-0.1c0-1.3-0.1-2.5-0.2-3.6c-0.2-1.1-0.5-2.1-1-3c-0.7-1.3-1.6-2.4-2.4-3.2
		h-36.1V409.7z"/>
	<path class="st3" d="M593.2,402L593.2,402C593.2,402,593.2,402,593.2,402C593.2,402,593.2,402,593.2,402z"/>
	<path class="st3" d="M594.2,403.6c-0.1-0.1-0.2-0.2-0.2-0.4c0.4,0.9,1.2,3,0.8,3.6c-0.5,0.7-4.7,1.2-5.4,1.3l-1.5-8h-30.6
		c-1,0-1.6,0.5-1.6,1.5v0.5v7.7v0.6v6.4v8.4c0,0.9,0.6,1.4,1.7,1.4H586c1.5,0,3.1-0.7,4.9-1.9c1.5-1.1,2.6-2.7,3.4-4.9
		c0.7-1.8,1-3.8,1.1-6h0c0-1.2,0-2.3,0-3.5h0c0,0,0,0,0-0.1c0-1.3-0.1-2.5-0.2-3.6C595.1,405.5,594.7,404.5,594.2,403.6z"/>
	<path class="st1" d="M618.8,478.2l-1.1-3h0l-2.5-7.9l-4.4-11.9c-0.8-2.2-1.8-4.4-2.8-6.5c-1-2.1-2.7-4.5-5.1-7.3
		c-0.1-0.2-0.2-0.4-0.2-0.6c0-0.3,0.1-0.5,0.2-0.7c0.2-0.2,0.3-0.3,0.4-0.4c1.2-0.6,2.3-1.2,3.3-1.8c3.9-2.8,10.7-9.8,11-23.9h0
		c0-1.3,0-2.6,0-3.9h0c0,0,0,0,0,0v-3.2c-0.1-2.4-1.2-6.7-1.2-6.7c-1.2-5.2-3.3-9.3-6.4-12.4c-2.7-2.7-5.5-4.6-8.4-5.7
		c-2.8-1.1-5.7-1.6-8.7-1.6h-58.7c-1.1,0-1.6,0.5-1.6,1.5v18.2v1.6v7.7v0.6v6.4v50.6v7.9v1.1v6.2c0,0.9,0.5,1.4,1.6,1.4h19.7
		c1,0,1.6-0.5,1.6-1.4v-6.2v-1.1v-7.9v-20c0-0.9,0.5-1.4,1.6-1.4h19.3c4.5,0.6,7.5,3.4,9,8.6l3.8,9.6l3,8.3l1,3l0.4,0.9l2.8,7.7
		l0,0.1h1.4l0.3,0c0.3,0,0.5,0,0.5,0h1.6h20.1C620,482.1,619.4,480.2,618.8,478.2z M595.5,410.2c0,1.2,0,2.3,0,3.5
		c-0.1,2.2-0.5,4.2-1.1,6c-0.8,2.1-1.9,3.8-3.4,4.9c-1.8,1.3-3.4,1.9-4.9,1.9h-28.6c-1.2,0-1.7-0.5-1.7-1.4v-8.4v-6.4v-0.6V402v-0.5
		c0-1,0.5-1.5,1.6-1.5c0,0,30.6,0,30.6,0c3.9,0,6.8,2.8,7.3,6.6C595.4,407.7,595.5,408.8,595.5,410.2z"/>
	<path class="st1" d="M593.8,402.8c-0.2-0.3-0.4-0.5-0.6-0.7c0.3,0.4,0.5,0.8,0.8,1.2C593.9,402.9,593.8,402.8,593.8,402.8z"/>
	<path class="st2" d="M485.4,502.9c-8.8,0-13.3,4-13.3,11.8v32.6h7v-25.9h9.4v-6h-9.4v-0.8c0-3.8,2-5.6,6.2-5.6
		c1.1,0,2.2,0.1,3.2,0.3v-6C487.6,503,486.5,502.9,485.4,502.9z"/>
</g>
</svg>
