
<svg xmlns="http://www.w3.org/2000/svg" version="1.1" viewBox="0 0 512 512" style="shape-rendering:geometricPrecision; text-rendering:geometricPrecision; image-rendering:optimizeQuality; fill-rule:evenodd; clip-rule:evenodd" xmlns:xlink="http://www.w3.org/1999/xlink">
<g><path style="opacity:0.988" fill="#159ce4" d="M 62.5,-0.5 C 70.5,-0.5 78.5,-0.5 86.5,-0.5C 113.157,4.76516 132.324,19.7652 144,44.5C 156.826,81.6747 147.993,112.508 117.5,137C 97.659,149.633 76.3256,152.967 53.5,147C 23.9755,136.983 5.97552,116.816 -0.5,86.5C -0.5,78.5 -0.5,70.5 -0.5,62.5C 7.5,28.5 28.5,7.5 62.5,-0.5 Z"/></g>
<g><path style="opacity:0.996" fill="#4dbbeb" d="M 346.5,29.5 C 346.5,59.5 346.5,89.5 346.5,119.5C 302.499,119.667 258.499,119.5 214.5,119C 188.233,110.32 176.733,92.153 180,64.5C 184.833,46.3333 196.333,34.8333 214.5,30C 258.499,29.5 302.499,29.3333 346.5,29.5 Z"/></g>
<g><path style="opacity:1" fill="#159ce4" d="M 346.5,29.5 C 389.835,29.3333 433.168,29.5 476.5,30C 494.682,35.0157 506.348,46.5157 511.5,64.5C 511.5,71.1667 511.5,77.8333 511.5,84.5C 506.348,102.484 494.682,113.984 476.5,119C 433.168,119.5 389.835,119.667 346.5,119.5C 346.5,89.5 346.5,59.5 346.5,29.5 Z"/></g>
<g><path style="opacity:0.988" fill="#159ce4" d="M -0.5,268.5 C -0.5,260.5 -0.5,252.5 -0.5,244.5C 6.58345,212.58 25.9168,192.08 57.5,183C 92.9741,176.661 120.474,188.494 140,218.5C 157.578,255.604 151.412,288.104 121.5,316C 97.6727,332.791 72.0061,336.125 44.5,326C 19.7652,314.324 4.76516,295.157 -0.5,268.5 Z"/></g>
<g><path style="opacity:0.996" fill="#4dbbeb" d="M 346.5,211.5 C 346.5,241.5 346.5,271.5 346.5,301.5C 302.499,301.667 258.499,301.5 214.5,301C 188.233,292.32 176.733,274.153 180,246.5C 184.833,228.333 196.333,216.833 214.5,212C 258.499,211.5 302.499,211.333 346.5,211.5 Z"/></g>
<g><path style="opacity:1" fill="#159ce4" d="M 346.5,211.5 C 389.835,211.333 433.168,211.5 476.5,212C 494.682,217.016 506.348,228.516 511.5,246.5C 511.5,253.167 511.5,259.833 511.5,266.5C 506.348,284.484 494.682,295.984 476.5,301C 433.168,301.5 389.835,301.667 346.5,301.5C 346.5,271.5 346.5,241.5 346.5,211.5 Z"/></g>
<g><path style="opacity:0.988" fill="#159ce4" d="M 86.5,511.5 C 78.5,511.5 70.5,511.5 62.5,511.5C 28.5,503.5 7.5,482.5 -0.5,448.5C -0.5,440.5 -0.5,432.5 -0.5,424.5C 4.76516,397.843 19.7652,378.676 44.5,367C 81.6747,354.174 112.508,363.007 137,393.5C 149.633,413.341 152.967,434.674 147,457.5C 136.983,487.024 116.816,505.024 86.5,511.5 Z"/></g>
<g><path style="opacity:0.996" fill="#4dbbeb" d="M 346.5,391.5 C 346.5,421.5 346.5,451.5 346.5,481.5C 302.499,481.667 258.499,481.5 214.5,481C 188.233,472.32 176.733,454.153 180,426.5C 184.833,408.333 196.333,396.833 214.5,392C 258.499,391.5 302.499,391.333 346.5,391.5 Z"/></g>
<g><path style="opacity:1" fill="#159ce4" d="M 346.5,391.5 C 389.835,391.333 433.168,391.5 476.5,392C 494.682,397.016 506.348,408.516 511.5,426.5C 511.5,433.167 511.5,439.833 511.5,446.5C 506.348,464.484 494.682,475.984 476.5,481C 433.168,481.5 389.835,481.667 346.5,481.5C 346.5,451.5 346.5,421.5 346.5,391.5 Z"/></g>
</svg>
