<?xml version="1.0" encoding="utf-8"?>
<!-- Generator: Adobe Illustrator 25.0.1, SVG Export Plug-In . SVG Version: 6.00 Build 0)  -->
<svg version="1.1" xmlns="http://www.w3.org/2000/svg" xmlns:xlink="http://www.w3.org/1999/xlink" x="0px" y="0px"
	 viewBox="0 0 500 500" style="enable-background:new 0 0 500 500;" xml:space="preserve">
<style type="text/css">
	.st0{fill:#EBEBEB;}
	.st1{fill:#E0E0E0;}
	.st2{display:none;}
	.st3{display:inline;fill:#F5F5F5;}
	.st4{fill:#263238;}
	.st5{fill:#FFFFFF;}
	.st6{fill:#C9A024;}
	.st7{fill:#050505;}
	.st8{fill:#FF725E;}
	.st9{fill:#FFBF9D;}
	.st10{fill:#FF9A6C;}
	.st11{fill:#455A64;}
	.st12{fill:#4C5157;}
	.st13{opacity:0.3;}
</style>
<g id="Background_Complete">
	<g>
		<path class="st0" d="M259.8,49c-5.6-2.7-11.9-3-15.9-2.4c-3.7,0.6-9.1,2-13.7,5.5c-2.8,2.2-4.9,5-6.2,8.2c-1.6,3.8-2,8.3-1.4,13.3
			c0.1,0.8,0.5,1.4,1.1,1.9c0.6,0.5,1.4,0.7,2.1,0.5l9.8-1.5c1.4-0.2,2.4-1.4,2.4-2.8c0-3.1,1-8.6,8.3-9.8c5.6-0.9,8.5,2.7,9.5,4.4
			c1.6,2.6,1.8,6,0.6,9.1c-1.9,4.7-6.6,6.1-9.3,6.5c-3,0.5-5.1,3.3-4.6,6.3l1.6,10.5c0.2,1.5,1.7,2.6,3.2,2.4l9.5-1.4
			c1.5-0.2,2.6-1.7,2.4-3.2l-0.3-2.2c0-0.1,0-0.1,0.1-0.1c2-1.1,5.9-3.5,9.1-7.9c4.1-5.5,5.6-12,4.5-19.4
			C270.8,56.3,264.7,51.3,259.8,49z"/>
		<path class="st0" d="M252.9,103l-0.8,0.1c-4,0.6-6.7,4.3-6.1,8.3c0.6,4,4.3,6.7,8.3,6.1l0.8-0.1c4-0.6,6.7-4.3,6.1-8.3
			C260.6,105.2,256.9,102.4,252.9,103z"/>
	</g>
	<g>
		<path class="st0" d="M63.7,218.8c-2.8-3.5-6.8-5.7-9.6-6.6c-2.6-0.8-6.6-1.6-10.7-0.7c-2.5,0.5-4.8,1.7-6.7,3.3
			c-2.2,2-4,4.8-5.2,8.3c-0.2,0.5-0.1,1.1,0.1,1.6c0.3,0.5,0.7,0.9,1.2,1l6.9,2.2c1,0.3,2-0.2,2.5-1.1c1-2.1,3.4-5.3,8.6-3.8
			c3.9,1.2,4.7,4.5,4.8,5.9c0.2,2.2-0.7,4.5-2.5,6.1c-2.8,2.4-6.3,1.8-8.1,1.3c-2.1-0.7-4.4,0.5-5,2.6l-2.3,7.4
			c-0.3,1.1,0.3,2.2,1.3,2.6l6.7,2.1c1.1,0.3,2.2-0.3,2.6-1.3l0.5-1.6c0,0,0-0.1,0.1-0.1c1.7-0.1,5-0.4,8.5-2.2
			c4.4-2.3,7.5-6.1,9.1-11.3C68.6,227.1,66.1,221.9,63.7,218.8z"/>
		<path class="st0" d="M41.9,251.8l-0.6-0.2c-2.8-0.9-5.8,0.7-6.7,3.5c-0.9,2.8,0.7,5.8,3.5,6.7l0.6,0.2c2.8,0.9,5.8-0.7,6.7-3.5
			C46.2,255.7,44.7,252.7,41.9,251.8z"/>
	</g>
	<g>
		<g>
			<g>
				<g>
					<path class="st0" d="M360,458.4c24.3-1.1,55.2-8.8,74.1-24.7C408.1,434.3,381.7,443.1,360,458.4"/>
				</g>
			</g>
		</g>
		<g>
			<g>
				<g>
					<path class="st0" d="M377,429.6c24.3-1.1,55.2-8.8,74.1-24.7C425,405.6,398.7,414.3,377,429.6"/>
				</g>
			</g>
		</g>
		<g>
			<g>
				<g>
					<path class="st0" d="M395.2,402.2c24.3-1.1,55.2-8.8,74.1-24.7C443.2,378.1,416.9,386.9,395.2,402.2"/>
				</g>
			</g>
		</g>
		<g>
			<g>
				<g>
					<path class="st0" d="M415.5,373.9c24.2-4,54.1-15.5,70.8-33.4C460.3,344.4,435.1,356.2,415.5,373.9"/>
				</g>
			</g>
		</g>
		<g>
			<g>
				<g>
					<path class="st0" d="M433.3,353c21.5-12.3,45.5-33.3,54.4-55.4C464.5,310.4,445.1,330.1,433.3,353"/>
				</g>
			</g>
		</g>
		<g>
			<g>
				<g>
					<path class="st0" d="M424.7,362.9c6.6-24.1,8.7-56.6-1-79.6C416.1,309,416.5,337.3,424.7,362.9"/>
				</g>
			</g>
		</g>
		<g>
			<g>
				<g>
					<path class="st0" d="M407.5,386c4.7-25.6,3.9-59.5-8.4-82.7C393.6,330.6,396.6,360,407.5,386"/>
				</g>
			</g>
		</g>
		<g>
			<g>
				<g>
					<path class="st0" d="M386.9,414.3c4.7-25.6,3.9-59.5-8.4-82.7C373,358.9,376,388.3,386.9,414.3"/>
				</g>
			</g>
		</g>
		<g>
			<g>
				<g>
					<path class="st0" d="M365.1,450.1c4.7-25.6,3.9-59.5-8.4-82.7C351.2,394.8,354.1,424.2,365.1,450.1"/>
				</g>
			</g>
		</g>
		<g>
			<g>
				<g>
					<g>
						<path class="st1" d="M356.7,463.3c-3.5,6.5-6.3,11.8-8.1,15.5c-0.9,1.8-1.6,3.2-2.1,4.3c-0.2,0.5-0.4,0.8-0.5,1.1
							c-0.1,0.3-0.2,0.4-0.2,0.4c0,0,0.1-0.1,0.2-0.4c0.2-0.3,0.4-0.6,0.6-1.1c0.6-1,1.3-2.4,2.3-4.2c1.9-3.7,4.8-8.9,8.4-15.4
							c3.6-6.5,8-14.1,13-22.5c5.1-8.4,10.8-17.5,17-26.9c12.5-18.8,24.8-35.2,33.9-46.8c4.6-5.8,8.3-10.5,10.9-13.7
							c1.3-1.6,2.3-2.8,3-3.7c0.3-0.4,0.6-0.7,0.8-1c0.2-0.2,0.2-0.3,0.2-0.4c0,0-0.1,0.1-0.3,0.3c-0.2,0.2-0.5,0.6-0.8,0.9
							c-0.8,0.9-1.8,2.1-3.1,3.6c-2.7,3.1-6.5,7.7-11.2,13.5c-9.3,11.5-21.6,27.9-34.2,46.7"/>
					</g>
				</g>
			</g>
		</g>
	</g>
	<g>
		<g>
			<g>
				<g>
					<path class="st0" d="M314.7,295c8.9-21.9,14.5-52.3,8.1-75.4C312.9,242.9,310,269.7,314.7,295"/>
				</g>
			</g>
		</g>
		<g>
			<g>
				<g>
					<path class="st0" d="M296.1,268.4c8.9-21.9,14.5-52.3,8.1-75.4C294.3,216.3,291.4,243.1,296.1,268.4"/>
				</g>
			</g>
		</g>
		<g>
			<g>
				<g>
					<path class="st0" d="M279.2,241.3c8.9-21.9,14.5-52.3,8.1-75.4C277.4,189.1,274.5,216,279.2,241.3"/>
				</g>
			</g>
		</g>
		<g>
			<g>
				<g>
					<path class="st0" d="M262.4,211.9c6.2-23,8.1-54-1-76C254.4,160.4,254.8,187.5,262.4,211.9"/>
				</g>
			</g>
		</g>
		<g>
			<g>
				<g>
					<path class="st0" d="M251.2,187.7c-2.2-24-11.1-53.6-27.1-70.4C226.1,143,235.7,168.1,251.2,187.7"/>
				</g>
			</g>
		</g>
		<g>
			<g>
				<g>
					<path class="st0" d="M256.4,199.4c-18.7-15.6-46.5-30.5-70.8-31.2C205.4,185.2,230.5,196.3,256.4,199.4"/>
				</g>
			</g>
		</g>
		<g>
			<g>
				<g>
					<path class="st0" d="M269.9,223.9c-20.7-14.5-51-27.4-76.4-25.9C215.4,213.8,242.5,223.1,269.9,223.9"/>
				</g>
			</g>
		</g>
		<g>
			<g>
				<g>
					<path class="st0" d="M286.6,253.4c-20.7-14.5-51-27.4-76.4-25.9C232.1,243.4,259.3,252.6,286.6,253.4"/>
				</g>
			</g>
		</g>
		<g>
			<g>
				<g>
					<path class="st0" d="M309.4,287.2c-20.7-14.5-51-27.4-76.4-25.9C254.9,277.2,282.1,286.4,309.4,287.2"/>
				</g>
			</g>
		</g>
		<g>
			<g>
				<g>
					<g>
						<path class="st1" d="M317.8,299.9c4.3,5.7,7.9,10.3,10.5,13.4c1.2,1.5,2.2,2.7,2.9,3.6c0.3,0.4,0.6,0.7,0.8,0.9
							c0.2,0.2,0.3,0.3,0.3,0.3c0,0-0.1-0.1-0.2-0.4c-0.2-0.3-0.4-0.6-0.7-1c-0.7-0.9-1.6-2.1-2.8-3.7c-2.5-3.2-6-7.8-10.2-13.6
							c-4.3-5.8-9.2-12.7-14.6-20.6c-5.3-7.9-11.1-16.6-16.9-25.9c-11.5-18.6-21.1-36.1-27.7-48.8c-3.3-6.4-5.9-11.6-7.7-15.2
							c-0.9-1.7-1.6-3.1-2.1-4.1c-0.2-0.4-0.4-0.8-0.6-1.1c-0.1-0.2-0.2-0.4-0.2-0.4c0,0,0,0.1,0.1,0.4c0.1,0.3,0.3,0.7,0.5,1.1
							c0.5,1,1.1,2.4,1.9,4.2c1.7,3.7,4.2,8.9,7.4,15.3c6.4,12.9,15.9,30.3,27.5,49"/>
					</g>
				</g>
			</g>
		</g>
	</g>
	<g>
		<path class="st0" d="M484.2,209.1c-4.1-4.9-9.8-7.8-13.7-8.9c-3.7-1.1-9.3-2-15.1-0.7c-3.6,0.8-6.7,2.5-9.3,4.9
			c-3.1,2.9-5.4,6.8-7,11.8c-0.2,0.7-0.2,1.5,0.2,2.2c0.4,0.7,1,1.2,1.7,1.4l9.7,2.8c1.4,0.4,2.8-0.3,3.4-1.6
			c1.3-2.9,4.6-7.5,11.9-5.6c5.6,1.5,6.7,6.2,6.9,8.1c0.4,3.2-0.9,6.4-3.4,8.7c-3.8,3.5-8.7,2.8-11.4,2.1c-3-0.8-6.1,0.9-7,3.9
			l-3,10.5c-0.4,1.5,0.4,3.1,2,3.6l9.5,2.7c1.5,0.4,3.1-0.4,3.6-2l0.6-2.2c0-0.1,0.1-0.1,0.1-0.1c2.4-0.1,7-0.8,11.8-3.4
			c6.1-3.4,10.3-8.8,12.4-16.2C491.3,220.6,487.7,213.4,484.2,209.1z"/>
		<path class="st0" d="M454.7,256.3l-0.8-0.2c-4-1.1-8.1,1.2-9.2,5.1c-1.1,4,1.2,8.1,5.1,9.2l0.8,0.2c4,1.1,8.1-1.2,9.2-5.1
			C461,261.6,458.7,257.5,454.7,256.3z"/>
	</g>
	<g>
		<path class="st0" d="M163.7,294.6c-4.7-3.5-10.5-5-14.3-5.2c-3.6-0.2-8.8,0.1-13.7,2.6c-3,1.5-5.5,3.7-7.3,6.4
			c-2.2,3.2-3.5,7.3-3.8,12.1c-0.1,0.7,0.2,1.4,0.7,2c0.5,0.5,1.1,0.9,1.9,0.9l9.3,0.5c1.3,0.1,2.5-0.9,2.8-2.2
			c0.6-2.9,2.5-7.8,9.5-7.5c5.3,0.2,7.3,4.1,7.9,5.8c1,2.8,0.5,6-1.2,8.5c-2.7,4-7.3,4.4-9.8,4.3c-2.9-0.1-5.3,2.1-5.5,4.9
			l-0.5,10.1c-0.1,1.5,1.1,2.7,2.5,2.8l9.1,0.5c1.5,0.1,2.7-1.1,2.8-2.5l0.1-2.1c0-0.1,0-0.1,0.1-0.1c2.1-0.6,6.2-2.2,10-5.6
			c4.8-4.3,7.5-10.1,7.8-17.2C172.5,303.5,167.8,297.7,163.7,294.6z"/>
		<path class="st0" d="M147.1,343.4l-0.8,0c-3.8-0.2-7.1,2.7-7.3,6.6c-0.2,3.8,2.7,7.1,6.6,7.3l0.8,0c3.8,0.2,7.1-2.7,7.3-6.6
			C153.8,346.8,150.9,343.6,147.1,343.4z"/>
	</g>
	<g>
		<path class="st0" d="M115.1,472.7h8.6c5.1-18.1,7.5-38.3,4.2-55.1C120.2,434.4,115.8,453.5,115.1,472.7z"/>
		<path class="st0" d="M113.5,388.6c-10.6,23-14.9,50-12.1,76c0.1,0.2,0.2,0.4,0.3,0.6C111.3,443.2,118.2,412.6,113.5,388.6z"/>
		<path class="st0" d="M90.7,356.2c-7.8,23.7-9.2,50.3-4.2,75c0.3,0.8,0.6,1.5,1,2.3C94.5,410.3,97.9,379.1,90.7,356.2z"/>
		<path class="st0" d="M75.8,404.8c-0.1-0.3-0.1-0.4-0.1-0.4C75.7,404.3,75.8,404.5,75.8,404.8c0.2,0.3,0.4,0.6,0.6,1.1
			c0.2,0.4,0.3,0.8,0.5,1.3c0.3,0.6,0.7,1.1,1,1.7c-0.7-24.8-7.4-55.8-21.7-74c0.3,25.5,7.5,50.8,20.1,71.5c0-0.1-0.1-0.2-0.1-0.4
			C76.1,405.4,75.9,405.1,75.8,404.8z"/>
		<path class="st0" d="M81.8,421c-0.1-0.2-0.1-0.4-0.2-0.6c-16.8-17-42.1-33.6-64.8-35.8C34.4,403.3,57.5,416.2,81.8,421z"/>
		<path class="st0" d="M93.6,447.1c-0.1-0.1-0.2-0.2-0.3-0.2c0,0.1,0.1,0.1,0.1,0.2C93.4,447.1,93.5,447.1,93.6,447.1z"/>
		<path class="st0" d="M22.4,415.7c19.6,17.4,44.5,28.5,70.1,31.3c-0.2-0.4-0.4-0.8-0.5-1.2C73.1,430.1,46,415.8,22.4,415.7z"/>
		<path class="st0" d="M36.6,447.1c12.9,11.4,28,20.1,44,25.5h19.8C82.1,458.9,57.9,447.2,36.6,447.1z"/>
		<path class="st1" d="M84,426.6c2.2,5.6,4.9,12.1,8,19.2c0.2,0.4,0.4,0.8,0.5,1.2c3.5,8,7.4,16.6,11.8,25.7h1
			c-1.2-2.5-2.4-5-3.6-7.5c-0.1-0.2-0.2-0.4-0.3-0.6c-2.9-6.1-5.5-11.9-8-17.4c0-0.1-0.1-0.1-0.1-0.2c-2.1-4.8-4-9.3-5.8-13.4
			c-0.3-0.8-0.6-1.5-1-2.3c-0.7-1.7-1.4-3.3-2-4.9c-2.8-6.8-4.9-12.3-6.4-16.1c-0.5-1.2-0.9-2.2-1.2-3.1c-0.2-0.5-0.4-0.9-0.5-1.3
			c-0.2-0.5-0.3-0.8-0.5-1.1c-0.1-0.3-0.2-0.4-0.2-0.4c0,0,0,0.1,0.1,0.4c0.1,0.3,0.2,0.7,0.4,1.2c0,0.1,0.1,0.2,0.1,0.4
			c0.4,1.1,0.9,2.4,1.5,4.1c0.9,2.6,2.2,6,3.8,10.1c0.1,0.2,0.1,0.4,0.2,0.6C82.5,422.8,83.2,424.6,84,426.6z"/>
	</g>
</g>
<g id="Background_Simple" class="st2">
	<path class="st3" d="M73.3,99.4l1.7-4c14.7-34,46.6-57.7,83.3-60.4c4.7-0.3,9.5-0.4,14.2,0c34,2.5,66.2,23.6,82.5,53.9
		c9.6,17.9,14.5,39.3,29.9,52.4c20,17.1,49.5,13.6,75.2,9.3c25.7-4.4,55.2-7.7,75.2,9.4c12.5,10.7,18.3,27.7,19.7,44.1
		c3.7,43.7-21.2,86.6-57,111.1c-35.8,24.6-80.8,32.5-124,29.8c-60.5-3.8-121-28.7-161.6-74.4C71.8,224.9,53.9,157.5,73.3,99.4z"/>
	
		<ellipse transform="matrix(0.7071 -0.7071 0.7071 0.7071 -254.9051 181.2093)" class="st3" cx="91.3" cy="398.3" rx="32.6" ry="32.6"/>
</g>
<g id="Floor">
	<g>
		<path class="st4" d="M470.4,472.3c0,0.2-98.7,0.3-220.4,0.3c-121.7,0-220.4-0.1-220.4-0.3c0-0.2,98.7-0.3,220.4-0.3
			C371.7,472,470.4,472.1,470.4,472.3z"/>
	</g>
</g>
<g id="Speech_Bubble_2">
	<g>
		<g>
			<g>
				
					<ellipse transform="matrix(0.9325 -0.3612 0.3612 0.9325 -39.3947 33.5073)" class="st5" cx="69.9" cy="122.1" rx="32.2" ry="32.2"/>
				<g>
					<path class="st4" d="M102.2,122.1c0,0,0-0.2,0-0.5c0-0.4-0.1-0.9-0.1-1.5c0-0.3,0-0.7-0.1-1.1c0-0.4-0.1-0.9-0.2-1.3
						c-0.1-0.5-0.2-1-0.2-1.6c-0.1-0.6-0.3-1.1-0.4-1.8c-0.6-2.5-1.7-5.4-3.6-8.5c-1.9-3.1-4.5-6.3-8.2-9.1c-0.5-0.3-0.9-0.7-1.4-1
						c-0.5-0.3-1-0.6-1.5-0.9c-0.5-0.3-1-0.7-1.6-0.9c-0.5-0.3-1.1-0.5-1.7-0.8c-0.3-0.1-0.6-0.3-0.8-0.4c-0.3-0.1-0.6-0.2-0.9-0.3
						c-0.6-0.2-1.2-0.4-1.8-0.7c-0.6-0.2-1.3-0.3-1.9-0.5c-0.6-0.1-1.3-0.4-1.9-0.4c-1.3-0.2-2.7-0.5-4.1-0.5
						c-0.7,0-1.4-0.1-2.1-0.1c-0.7,0-1.4,0.1-2.1,0.1c-0.4,0-0.7,0-1.1,0.1l-1.1,0.2c-0.7,0.1-1.4,0.2-2.2,0.4
						c-1.4,0.4-2.9,0.7-4.3,1.3c-1.4,0.5-2.8,1.2-4.2,1.8c-0.7,0.4-1.3,0.8-2,1.2c-0.3,0.2-0.7,0.4-1,0.6l-0.9,0.7
						c-1.3,0.9-2.4,2-3.6,3.1c-0.5,0.6-1.1,1.2-1.6,1.8l-0.4,0.5l-0.4,0.5l-0.7,1l-0.7,1l-0.6,1.1l-0.6,1.1l-0.3,0.5l-0.3,0.6
						c-0.4,0.7-0.7,1.5-1.1,2.3c-0.3,0.8-0.6,1.6-0.9,2.4c-1,3.2-1.6,6.6-1.7,10.1c0,3.5,0.6,6.9,1.6,10.1c0.3,0.8,0.6,1.6,0.9,2.4
						c0.4,0.8,0.7,1.5,1.1,2.3l0.3,0.6l0.3,0.5l0.6,1.1l0.6,1.1l0.7,1l0.7,1l0.4,0.5l0.4,0.5c0.5,0.6,1.1,1.2,1.6,1.8
						c1.2,1.1,2.3,2.2,3.6,3.1l0.9,0.7c0.3,0.2,0.7,0.4,1,0.6c0.7,0.4,1.3,0.8,2,1.2c1.4,0.7,2.7,1.4,4.2,1.8
						c1.4,0.6,2.9,0.9,4.3,1.3c0.7,0.1,1.4,0.2,2.2,0.3l1.1,0.2c0.4,0,0.7,0,1.1,0.1c0.7,0,1.4,0.1,2.1,0.1c0.7,0,1.4-0.1,2.1-0.1
						c1.4,0,2.7-0.3,4.1-0.5c0.7-0.1,1.3-0.3,1.9-0.4c0.6-0.2,1.3-0.3,1.9-0.5c0.6-0.2,1.2-0.4,1.8-0.7c0.3-0.1,0.6-0.2,0.9-0.3
						c0.3-0.1,0.6-0.3,0.8-0.4c0.6-0.3,1.1-0.5,1.7-0.8c0.6-0.3,1-0.6,1.6-0.9c0.5-0.3,1-0.6,1.5-0.9c0.5-0.3,0.9-0.7,1.4-1
						c3.6-2.8,6.3-6,8.2-9.1c1.8-3.1,3-6.1,3.6-8.5c0.1-0.6,0.4-1.2,0.4-1.8c0.1-0.6,0.2-1.1,0.2-1.6c0.1-0.5,0.2-0.9,0.2-1.3
						c0-0.4,0-0.8,0.1-1.1c0-0.7,0.1-1.2,0.1-1.5C102.1,122.3,102.2,122.1,102.2,122.1s0,0.2,0,0.5c0,0.4,0,0.9-0.1,1.5
						c0,0.3,0,0.7,0,1.1c0,0.4-0.1,0.9-0.2,1.4c-0.1,0.5-0.1,1-0.2,1.6c-0.1,0.6-0.3,1.1-0.4,1.8c-0.5,2.5-1.7,5.5-3.5,8.6
						c-1.8,3.1-4.5,6.4-8.2,9.2c-0.5,0.3-0.9,0.7-1.4,1c-0.5,0.3-1,0.6-1.5,0.9c-0.5,0.3-1,0.7-1.6,0.9c-0.6,0.3-1.1,0.5-1.7,0.8
						c-0.3,0.1-0.6,0.3-0.9,0.4c-0.3,0.1-0.6,0.2-0.9,0.3c-0.6,0.2-1.2,0.4-1.8,0.7c-0.6,0.2-1.3,0.3-1.9,0.5
						c-0.6,0.1-1.3,0.4-2,0.4c-1.3,0.2-2.7,0.5-4.1,0.5c-0.7,0-1.4,0.1-2.1,0.1c-0.7,0-1.4-0.1-2.1-0.1c-0.4,0-0.7,0-1.1-0.1
						l-1.1-0.2c-0.7-0.1-1.5-0.2-2.2-0.3c-1.4-0.4-2.9-0.7-4.3-1.3c-1.5-0.5-2.8-1.2-4.2-1.9c-0.7-0.4-1.3-0.8-2-1.2
						c-0.3-0.2-0.7-0.4-1-0.6l-1-0.7c-1.3-0.9-2.5-2-3.7-3.1c-0.5-0.6-1.1-1.2-1.6-1.8l-0.4-0.5l-0.4-0.5l-0.7-1l-0.7-1l-0.7-1.1
						l-0.7-1.1l-0.3-0.5l-0.3-0.6c-0.4-0.8-0.7-1.5-1.1-2.3c-0.3-0.8-0.6-1.6-0.9-2.4c-1.1-3.3-1.6-6.7-1.7-10.2
						c0-3.5,0.6-7,1.7-10.2c0.3-0.8,0.6-1.6,0.9-2.4c0.4-0.8,0.7-1.5,1.1-2.3l0.3-0.6l0.3-0.5l0.7-1.1l0.7-1.1l0.7-1l0.7-1l0.4-0.5
						l0.4-0.5c0.6-0.6,1.1-1.2,1.6-1.8c1.2-1.1,2.4-2.2,3.7-3.1l1-0.7c0.3-0.2,0.7-0.4,1-0.6c0.7-0.4,1.3-0.8,2-1.2
						c1.4-0.7,2.8-1.4,4.2-1.9c1.4-0.6,2.9-0.9,4.3-1.3c0.7-0.1,1.5-0.2,2.2-0.3l1.1-0.2c0.4,0,0.7,0,1.1-0.1c0.7,0,1.4-0.1,2.1-0.1
						c0.7,0,1.4,0.1,2.1,0.1c1.4,0,2.8,0.3,4.1,0.5c0.7,0.1,1.3,0.3,2,0.4c0.6,0.2,1.3,0.3,1.9,0.5c0.6,0.2,1.2,0.4,1.8,0.7
						c0.3,0.1,0.6,0.2,0.9,0.3c0.3,0.1,0.6,0.3,0.9,0.4c0.6,0.3,1.1,0.5,1.7,0.8c0.6,0.3,1.1,0.6,1.6,0.9c0.5,0.3,1,0.6,1.5,0.9
						c0.5,0.4,0.9,0.7,1.4,1c3.7,2.8,6.3,6.1,8.2,9.2c1.8,3.1,3,6.1,3.5,8.6c0.1,0.6,0.3,1.2,0.4,1.8c0.1,0.6,0.2,1.1,0.2,1.6
						c0.1,0.5,0.1,0.9,0.2,1.4c0,0.4,0,0.8,0,1.1c0,0.7,0,1.2,0.1,1.5C102.2,122,102.2,122.1,102.2,122.1z"/>
				</g>
			</g>
			<g>
				<path class="st6" d="M58.5,116.6h6.1c0,0,0-5.1,5.3-5.2c2.8,0,4.2,1.8,4.8,3.2c0.7,1.6,0.5,3.5-0.4,5c-1,1.7-3.3,3.3-7.4,2.5v9
					h6.1v-3.3c0,0,8.5-2.2,8.5-11.5c0-8.9-8-11-11.5-11C67.3,105.2,58.4,105.8,58.5,116.6z"/>
				<rect x="66.8" y="133.4" class="st6" width="6.1" height="5.7"/>
			</g>
		</g>
		<g>
			<path class="st5" d="M103.6,152.3c0,2.7-2.2,4.9-4.9,4.9s-4.9-2.2-4.9-4.9c0-2.7,2.2-4.9,4.9-4.9S103.6,149.6,103.6,152.3z"/>
			<g>
				<path class="st4" d="M103.6,152.3c0,0,0-0.4-0.2-1.2c-0.2-0.7-0.7-1.8-1.8-2.6c-1.1-0.8-2.8-1.3-4.5-0.6
					c-0.8,0.3-1.6,0.9-2.2,1.7c-0.6,0.8-0.9,1.8-0.9,2.8c0,1,0.3,2,0.9,2.8c0.6,0.8,1.4,1.4,2.2,1.7c1.7,0.6,3.4,0.2,4.5-0.6
					c1.1-0.8,1.6-1.9,1.8-2.6C103.6,152.7,103.6,152.3,103.6,152.3c0,0,0,0.1,0,0.3c0,0.2,0,0.5-0.1,0.9c-0.2,0.8-0.6,1.9-1.8,2.8
					c-1.1,0.9-3,1.4-4.8,0.8c-0.9-0.3-1.8-0.9-2.4-1.8c-0.6-0.8-1-1.9-1-3c0-1.1,0.4-2.2,1-3c0.6-0.8,1.5-1.5,2.4-1.8
					c1.8-0.7,3.7-0.1,4.8,0.8c1.1,0.9,1.6,2,1.8,2.8c0.1,0.4,0.1,0.7,0.1,0.9C103.6,152.2,103.6,152.3,103.6,152.3z"/>
			</g>
		</g>
	</g>
</g>
<g id="Speech_Bubble_1">
	<g>
		<g>
			<g>
				
					<ellipse transform="matrix(0.7071 -0.7071 0.7071 0.7071 53.1105 332.5085)" class="st5" cx="427.9" cy="102.1" rx="33.8" ry="33.8"/>
				<g>
					<path class="st4" d="M461.8,102.1c0,0,0-0.2,0-0.5c0-0.4-0.1-0.9-0.1-1.6c0-0.4,0-0.7-0.1-1.2c0-0.4-0.1-0.9-0.2-1.4
						c-0.1-0.5-0.2-1.1-0.3-1.6c-0.1-0.6-0.3-1.2-0.4-1.8c-0.6-2.6-1.8-5.7-3.7-9c-1.9-3.3-4.8-6.7-8.6-9.6c-0.5-0.4-1-0.7-1.5-1.1
						c-0.5-0.3-1.1-0.6-1.6-1c-0.5-0.3-1.1-0.7-1.6-0.9c-0.6-0.3-1.2-0.6-1.7-0.8c-0.3-0.1-0.6-0.3-0.9-0.4
						c-0.3-0.1-0.6-0.2-0.9-0.3c-0.6-0.2-1.3-0.5-1.9-0.7c-0.6-0.2-1.3-0.3-2-0.5c-0.7-0.2-1.3-0.4-2-0.5c-1.4-0.2-2.8-0.5-4.3-0.5
						c-0.7,0-1.5-0.1-2.2-0.1c-0.7,0-1.5,0.1-2.2,0.1c-0.4,0-0.8,0-1.1,0.1l-1.1,0.2c-0.7,0.1-1.5,0.2-2.3,0.4
						c-1.5,0.4-3,0.7-4.5,1.3c-1.5,0.5-2.9,1.2-4.4,1.9c-0.7,0.4-1.4,0.8-2.1,1.3c-0.3,0.2-0.7,0.4-1,0.7l-1,0.7
						c-1.4,0.9-2.6,2.1-3.8,3.2c-0.6,0.6-1.1,1.3-1.7,1.9l-0.4,0.5l-0.4,0.5l-0.8,1l-0.8,1l-0.7,1.1l-0.7,1.1l-0.3,0.6l-0.3,0.6
						c-0.4,0.8-0.8,1.6-1.1,2.4c-0.3,0.8-0.6,1.7-0.9,2.5c-1.1,3.4-1.7,7-1.7,10.6c0,3.7,0.6,7.2,1.7,10.6c0.3,0.8,0.6,1.7,0.9,2.5
						c0.4,0.8,0.8,1.6,1.1,2.4l0.3,0.6l0.3,0.6l0.7,1.1l0.7,1.1l0.8,1l0.8,1l0.4,0.5l0.4,0.5c0.6,0.6,1.1,1.3,1.7,1.9
						c1.3,1.1,2.4,2.3,3.8,3.2l1,0.7c0.3,0.2,0.7,0.4,1,0.7c0.7,0.4,1.4,0.9,2.1,1.3c1.5,0.7,2.9,1.4,4.4,1.9c1.5,0.6,3,0.9,4.5,1.3
						c0.8,0.2,1.5,0.2,2.3,0.4l1.1,0.2c0.4,0,0.8,0,1.1,0.1c0.7,0,1.5,0.1,2.2,0.1c0.7,0,1.5-0.1,2.2-0.1c1.5,0,2.9-0.3,4.3-0.5
						c0.7-0.1,1.4-0.3,2-0.5c0.7-0.2,1.3-0.3,2-0.5c0.6-0.2,1.3-0.5,1.9-0.7c0.3-0.1,0.6-0.2,0.9-0.3c0.3-0.1,0.6-0.3,0.9-0.4
						c0.6-0.3,1.2-0.6,1.7-0.8c0.6-0.3,1.1-0.6,1.6-1c0.5-0.3,1.1-0.6,1.6-1c0.5-0.4,1-0.7,1.5-1.1c3.8-2.9,6.6-6.3,8.6-9.6
						c1.9-3.3,3.2-6.4,3.7-9c0.2-0.7,0.4-1.3,0.4-1.8c0.1-0.6,0.2-1.1,0.3-1.6c0.1-0.5,0.2-1,0.2-1.4c0-0.4,0-0.8,0.1-1.2
						c0-0.7,0.1-1.2,0.1-1.6C461.7,102.3,461.8,102.1,461.8,102.1s0,0.2,0,0.5c0,0.4,0,0.9-0.1,1.6c0,0.4,0,0.8,0,1.2
						c0,0.4-0.1,0.9-0.2,1.4c-0.1,0.5-0.2,1.1-0.2,1.7c-0.1,0.6-0.3,1.2-0.4,1.9c-0.6,2.6-1.8,5.8-3.7,9.1c-1.9,3.3-4.7,6.7-8.6,9.7
						c-0.5,0.4-1,0.7-1.5,1.1c-0.5,0.3-1.1,0.7-1.6,1c-0.5,0.3-1.1,0.7-1.7,1c-0.6,0.3-1.2,0.6-1.8,0.9c-0.3,0.1-0.6,0.3-0.9,0.4
						c-0.3,0.1-0.6,0.2-0.9,0.3c-0.6,0.2-1.3,0.5-1.9,0.7c-0.6,0.2-1.3,0.4-2,0.5c-0.7,0.2-1.3,0.4-2.1,0.5
						c-1.4,0.2-2.8,0.5-4.3,0.5c-0.7,0-1.5,0.1-2.2,0.1c-0.7,0-1.5-0.1-2.3-0.1c-0.4,0-0.8,0-1.1-0.1l-1.1-0.2
						c-0.8-0.1-1.5-0.2-2.3-0.4c-1.5-0.4-3.1-0.7-4.5-1.3c-1.5-0.5-3-1.2-4.4-1.9c-0.7-0.4-1.4-0.8-2.1-1.3
						c-0.3-0.2-0.7-0.4-1.1-0.7l-1-0.7c-1.4-0.9-2.6-2.1-3.9-3.3c-0.6-0.6-1.2-1.3-1.7-1.9l-0.4-0.5l-0.4-0.5l-0.8-1l-0.8-1
						l-0.7-1.1l-0.7-1.1l-0.3-0.6l-0.3-0.6c-0.4-0.8-0.8-1.6-1.2-2.4c-0.3-0.8-0.6-1.7-0.9-2.5c-1.1-3.4-1.7-7.1-1.8-10.7
						c0-3.7,0.6-7.3,1.8-10.7c0.3-0.8,0.6-1.7,0.9-2.5c0.4-0.8,0.8-1.6,1.2-2.4l0.3-0.6l0.3-0.6l0.7-1.1l0.7-1.1l0.8-1l0.8-1
						l0.4-0.5l0.4-0.5c0.6-0.6,1.2-1.3,1.7-1.9c1.3-1.1,2.5-2.3,3.9-3.3l1-0.7c0.3-0.3,0.7-0.4,1.1-0.7c0.7-0.4,1.4-0.9,2.1-1.3
						c1.5-0.7,2.9-1.5,4.4-1.9c1.5-0.6,3-0.9,4.5-1.3c0.8-0.2,1.5-0.2,2.3-0.4l1.1-0.2c0.4,0,0.8,0,1.1-0.1c0.8,0,1.5-0.1,2.3-0.1
						c0.7,0,1.5,0.1,2.2,0.1c1.5,0,2.9,0.3,4.3,0.5c0.7,0.1,1.4,0.3,2.1,0.5c0.7,0.2,1.4,0.3,2,0.5c0.6,0.2,1.3,0.5,1.9,0.7
						c0.3,0.1,0.6,0.2,0.9,0.3c0.3,0.1,0.6,0.3,0.9,0.4c0.6,0.3,1.2,0.6,1.8,0.9c0.6,0.3,1.1,0.7,1.7,1c0.5,0.3,1.1,0.6,1.6,1
						c0.5,0.4,1,0.7,1.5,1.1c3.8,2.9,6.7,6.4,8.6,9.7c1.9,3.3,3.1,6.4,3.7,9.1c0.1,0.7,0.4,1.3,0.4,1.9c0.1,0.6,0.2,1.1,0.2,1.7
						c0.1,0.5,0.2,1,0.2,1.4c0,0.4,0,0.8,0,1.2c0,0.7,0,1.2,0.1,1.6C461.8,102,461.8,102.1,461.8,102.1z"/>
				</g>
			</g>
			<g>
				<path class="st6" d="M415.9,96.3h6.4c0,0,0-5.4,5.6-5.5c2.9-0.1,4.4,1.9,5,3.3c0.7,1.7,0.5,3.6-0.5,5.2
					c-1.1,1.8-3.5,3.4-7.8,2.7v9.4h6.4v-3.4c0,0,8.9-2.3,8.9-12.1c0-9.4-8.4-11.6-12-11.6C425.2,84.3,415.8,85,415.9,96.3z"/>
				<rect x="424.7" y="113.9" class="st6" width="6.5" height="6"/>
			</g>
		</g>
		<g>
			<path class="st5" d="M396.4,131.3c0,2.9-2.3,5.2-5.2,5.2c-2.9,0-5.2-2.3-5.2-5.2c0-2.9,2.3-5.2,5.2-5.2
				C394.1,126.1,396.4,128.5,396.4,131.3z"/>
			<g>
				<path class="st4" d="M396.4,131.3c0,0,0-0.5-0.2-1.2c-0.2-0.8-0.7-1.9-1.9-2.7c-1.1-0.9-3-1.3-4.7-0.7c-0.9,0.3-1.7,0.9-2.3,1.7
					c-0.6,0.8-1,1.9-1,2.9c0,1.1,0.4,2.1,1,2.9c0.6,0.8,1.4,1.4,2.3,1.7c1.8,0.7,3.6,0.2,4.7-0.7c1.2-0.9,1.7-2,1.9-2.7
					C396.4,131.8,396.4,131.3,396.4,131.3c0,0,0,0.1,0,0.3c0,0.2,0,0.5-0.1,0.9c-0.2,0.8-0.7,2-1.9,2.9c-1.2,0.9-3.1,1.5-5,0.8
					c-0.9-0.3-1.9-1-2.5-1.9c-0.7-0.9-1-2-1.1-3.2c0-1.2,0.4-2.3,1.1-3.2c0.6-0.9,1.6-1.5,2.5-1.9c1.9-0.7,3.9-0.1,5,0.8
					c1.2,0.9,1.7,2.1,1.9,2.9c0.1,0.4,0.1,0.7,0.1,0.9C396.5,131.2,396.5,131.3,396.4,131.3z"/>
			</g>
		</g>
	</g>
</g>
<g id="Character_1">
	<g>
		<g>
			<path class="st4" d="M208.3,379.9c-10.8-27-18.9-45.8-18.9-45.8l-98.7,15c0,0-17.7,45.5-16.2,66.1c1.5,20.6,8.8,57,8.8,57h119.4
				C202.7,472.1,219.1,406.9,208.3,379.9z"/>
			<g>
				<g>
					<path class="st7" d="M172.7,154.3c0.8-7.8,1.9-15.6,4.8-22.9c2.9-7.3,7.5-14.1,14.1-18.3l1.7,1.6c1.2-3.4,4.3-5.9,7.8-6.5
						c3.5-0.5,7.3,1,9.4,3.8c3.8-1,8.1,0.5,10.4,3.7c2.3,3.2,2.4,7.8,0.2,11.1c3.5,0.4,6.7,3.2,7.5,6.7c0.9,3.5-0.6,7.4-3.6,9.4
						c3.9,3.4,5.5,9.2,3.8,14.1c-1.7,4.9-6.6,8.5-11.7,8.7c1.2,4.5-1.2,9.6-5.3,11.7c-4.1,2.1-9.7,0.9-12.6-2.7
						c0.4,4.7-3.4,9.1-7.9,10.2c-4.5,1.1-9.5-0.7-12.8-4c-3.3-3.3-5.1-7.9-5.8-12.5C171.9,163.7,172.2,159,172.7,154.3z"/>
					<g>
						<g>
							<g>
								<path class="st8" d="M193.7,119.8c4.5,1.5,5.5,5.1,6.4,8.2c2,6.6-0.3,16.4-3.9,22.2c-3.7,5.8-7.7,8.8-14.6,9.8
									c-0.2-10.5-0.4-20.9-0.7-31.4L193.7,119.8z"/>
							</g>
							<g>
								<g>
									<g>
										<g>
											<path d="M196.3,137.8c3.1-4,2.7-10.3-1-13.9c2-2.5,1.3-6.3-0.7-8.8c-2-2.5-5-3.9-7.9-5.2c-1.6-7.3-9.8-12.4-17.1-10.7
												c-3.8-5.6-11.9-6.4-18.3-4.6c-1.6,0.5-3.2,1.1-4.8,1c-1.2,0-2.4-0.3-3.6-0.5c-6.6-0.9-13.1,3.7-15.7,9.9
												c-0.4,1-0.7,2-1.4,2.8c-0.9,1.1-2.1,1.7-3.2,2.6c-2.4,1.8-3.9,4.8-4,7.8c-0.1,2.6,0.7,5.3-0.4,7.6
												c-0.5,1.2-1.5,2.1-1.9,3.3c-1.2,3.5,2.7,7.1,2,10.7c-0.1,0.7-0.5,1.4-0.7,2.2c-0.4,1.5-0.3,3.1,0.4,4.5
												c0.5,1.1,1.4,2.1,1.4,3.3c0.1,0.9-0.3,1.8-0.5,2.7c-0.4,2.2,4.2,10.6,6.1,11.7l56.1,0.5c4.2-0.9,7.7-4.7,8.1-9
												c0.1-0.7,0.1-1.5,0.5-2.1c0.4-0.5,1-0.7,1.5-1c3.6-1.9,4.1-6.9,3.7-11c-0.1-0.6-0.1-1.2,0-1.7
												C195.1,139.1,195.8,138.5,196.3,137.8z"/>
										</g>
									</g>
									<g>
										<g>
											<path class="st9" d="M180.2,137.9c0.2-9.9-6.1-21.3-15.9-26.2c-6.2-3.1-11.1-3.1-14.3-3.5c-7.3-0.9-13.2,2.8-13.2,2.8
												c-3.1,0.7-14.4,11.1-15,22.4c-0.7,12.5-1,27.8,0.6,37.1c3.2,18.7,17.6,21,17.6,21c0,0-1.3,31.1-1.3,31.1l27.7,22.7
												l8.5-37.3L180.2,137.9z"/>
										</g>
									</g>
									<g>
										<g>
											<g>
												<g>
													<g>
														<g>
															<path class="st10" d="M139.9,191.5c0,0,12.7,0.7,25.1-7c0,0-6.5,13.3-25.3,11.7L139.9,191.5z"/>
														</g>
													</g>
												</g>
											</g>
										</g>
									</g>
									<g>
										<g>
											<g>
												<g>
													<g>
														<g>
															<path class="st9" d="M177.4,155.7c0-1.4,1.6-4.7,2.9-4.9c3.7-0.6,10.3-0.4,10.5,9c0.2,12.8-12.3,9.9-12.7,10
																C176,170.2,177.4,160.5,177.4,155.7z"/>
														</g>
													</g>
												</g>
											</g>
										</g>
									</g>
									<g>
										<g>
											<g>
												<g>
													<g>
														<g>
															<g>
																<path class="st10" d="M181.5,165c0.1,0,0.2,0.2,0.6,0.3c0.4,0.2,1,0.3,1.7,0c1.3-0.5,2.4-2.7,2.5-5
																	c0-1.2-0.3-2.3-0.7-3.2c-0.4-0.9-1-1.6-1.7-1.7c-0.7-0.1-1.2,0.3-1.3,0.6c-0.2,0.4-0.1,0.6-0.1,0.6
																	c0,0-0.3-0.2-0.2-0.7c0-0.3,0.2-0.6,0.5-0.8c0.3-0.3,0.8-0.4,1.2-0.3c1,0.1,1.9,0.9,2.4,1.9c0.5,1,0.8,2.2,0.8,3.6
																	c0,2.6-1.3,5-3.2,5.6c-0.9,0.2-1.7,0-2-0.3C181.6,165.3,181.5,165,181.5,165z"/>
															</g>
														</g>
													</g>
												</g>
											</g>
										</g>
									</g>
									<path d="M118.9,131.5c0.4-4.6,2.3-9.1,4.5-13.1c1.6-2.8,3.3-5.6,5.8-7.7c2-1.8,4.5-3,6.9-4.2c6.4-3,13.6-5.6,20.5-4.1
										c3.7,0.8,7.1,2.8,10.3,4.8c2.5,1.5,5,3.1,7.1,5.1c1.8,1.8,3.3,3.9,4.6,6.1c3.1,5.3,5.3,11.1,5.7,17.2
										c0.4,6.1,5,11.5,1.5,16.4c-0.3,0.4-6.6,1.7-7.1,1.9c-1,0.4-2.2-0.7-2.2-1.8c0-1.1,0.8-2.1,1.6-2.8
										c-1.6-0.1-2.7-1.8-2.6-3.4c0.1-1.6,1-3,2-4.2c0.1-0.2,0.2-0.3,0.3-0.5c0.1-0.5-0.5-0.9-1-1.1c-2.3-1.3-2.5-5.1-0.5-6.7
										c-3.1-0.7-5-4.4-3.9-7.3c0.2-0.5,0.4-1,0.2-1.4c-0.2-0.4-0.7-0.6-1.2-0.7c-3.4-1-5.6-4.8-4.9-8.3c-1.8,0.1-3.6,0.2-5.3-0.2
										c-1.7-0.4-3.4-1.4-4.2-3c-1.1,2-3.4,3.4-5.7,3.6c-2.3,0.1-4.7-1-6-2.9c-3,0.3-6-0.2-8.8-1.4c-0.7,2.8-2.9,5.1-5.6,6
										c-0.5,0.2-1.1,0.3-1.4,0.8c-0.2,0.3-0.1,0.7-0.1,1c0.1,1.8-1.1,2.5-2.1,4c-1,1.5-2.7,3.7-4.4,3.2c0.2,3-1.4,5.3-4,6.9
										L118.9,131.5z"/>
									<g>
										<g>
											<path class="st11" d="M116.3,129.1c0,0,0.1-0.5,0.7-1.4c0.3-0.4,0.6-0.9,1-1.6c0.3-0.6,0.6-1.4,0.7-2.4
												c0.1-0.9,0-2-0.1-3.2c-0.1-1.2-0.2-2.4,0.1-3.8c0.2-1.3,0.8-2.8,1.6-4c0.4-0.6,1-1.3,1.6-1.8c0.6-0.6,1.3-1,2-1.5
												c0.7-0.5,1.4-1,1.9-1.7c0.5-0.7,0.8-1.6,1.2-2.4c0.7-1.7,1.7-3.5,3.1-5c1.3-1.5,3-2.9,4.9-3.9c1-0.5,2-0.9,3.1-1.2
												c1.1-0.2,2.2-0.4,3.4-0.4c0.6,0,1.1,0.1,1.7,0.1c0.6,0.1,1.1,0.2,1.7,0.3c1.1,0.2,2.3,0.2,3.4,0c1.1-0.2,2.3-0.7,3.4-1
												c1.2-0.3,2.4-0.5,3.6-0.7c1.2-0.1,2.5-0.1,3.7-0.1c1.3,0.1,2.5,0.3,3.8,0.7c2.5,0.7,4.8,2.1,6.5,4.2
												c0.2,0.2,0.3,0.4,0.5,0.6l-0.2-0.1c3.9-0.9,7.9,0.1,11,2.1c3.1,2,5.5,5.2,6.2,8.7l-0.1-0.1c1.6,0.7,3.1,1.4,4.5,2.3
												c1.4,0.9,2.7,1.9,3.7,3.2c1,1.3,1.6,2.8,1.7,4.4c0.1,1.5-0.2,3.2-1.2,4.3l0-0.2c1.8,1.8,2.8,4.2,3,6.5
												c0.2,2.3-0.2,4.6-1.3,6.4c-0.2,0.5-0.6,0.9-0.8,1.3c-0.3,0.4-0.6,0.8-0.9,1.1c-0.2,0.4-0.4,0.8-0.4,1.3
												c0,0.4,0,0.9,0,1.3c0.1,1.8,0.1,3.4-0.1,4.9c-0.2,1.5-0.6,2.7-1.2,3.7c-0.6,1-1.3,1.7-2,2.1c-0.7,0.4-1.2,0.6-1.6,0.9
												c-0.3,0.2-0.5,0.4-0.5,0.4c0,0,0.1-0.2,0.4-0.4c0.3-0.3,0.9-0.4,1.5-0.9c0.6-0.4,1.3-1.1,1.9-2.1c0.6-1,1-2.2,1.2-3.7
												c0.2-1.4,0.2-3.1,0.1-4.8c0-0.4-0.1-0.9-0.1-1.4c0-0.5,0.2-1,0.5-1.4c0.3-0.4,0.6-0.8,0.9-1.2c0.3-0.4,0.6-0.8,0.8-1.2
												c1-1.8,1.4-4,1.2-6.2c-0.2-2.2-1.1-4.6-2.9-6.3l-0.1-0.1l0.1-0.1c0.9-1.1,1.2-2.6,1.1-4.1c-0.1-1.5-0.7-3-1.6-4.2
												c-0.9-1.3-2.2-2.3-3.6-3.1c-1.4-0.9-2.9-1.6-4.5-2.3l-0.1,0l0-0.1c-0.7-3.4-3-6.5-6.1-8.5c-3.1-2-7-3-10.7-2.1l-0.1,0
												l-0.1-0.1c-0.2-0.2-0.3-0.4-0.5-0.6c-1.6-2-3.9-3.4-6.3-4.1c-1.2-0.3-2.4-0.6-3.7-0.6c-1.2-0.1-2.5-0.1-3.7,0.1
												c-1.2,0.1-2.4,0.3-3.6,0.7c-1.2,0.3-2.3,0.7-3.5,1c-0.6,0.1-1.2,0.2-1.8,0.2c-0.6,0-1.2-0.1-1.8-0.2
												c-0.6-0.1-1.1-0.2-1.7-0.3c-0.6-0.1-1.1-0.1-1.7-0.1c-1.1,0-2.2,0.2-3.3,0.4c-1,0.3-2.1,0.6-3,1.1
												c-1.9,0.9-3.5,2.3-4.8,3.8c-1.3,1.5-2.3,3.2-3,4.9c-0.3,0.9-0.7,1.7-1.2,2.5c-0.6,0.7-1.3,1.3-2,1.7
												c-0.7,0.5-1.4,0.9-2,1.5c-0.6,0.5-1.1,1.1-1.5,1.8c-0.9,1.3-1.4,2.6-1.6,3.9c-0.3,1.3-0.2,2.6-0.1,3.7
												c0.1,1.2,0.2,2.2,0.1,3.2c-0.1,1-0.4,1.8-0.7,2.4c-0.4,0.6-0.8,1.1-1,1.6c-0.3,0.4-0.5,0.8-0.6,1
												C116.3,129,116.3,129.1,116.3,129.1z"/>
										</g>
									</g>
									<g>
										<g>
											<path class="st11" d="M163.5,96.4c0,0-0.3-0.2-1-0.5c-0.6-0.3-1.6-0.7-2.8-0.8c-1.2-0.1-2.7,0-4.2,0.6
												c-1.5,0.7-2.9,1.9-3.8,3.5c-0.3,0.5-0.5,1-0.6,1.5c-0.1,0.5-0.2,1,0.1,1.3l0.3,0.4l-0.5-0.1c-1.4-0.4-2.9-0.1-4,0.5
												c-1.1,0.6-1.8,1.5-2.2,2.4c-0.4,0.8-0.5,1.6-0.5,2.1c0,0.5,0,0.8,0,0.8c0,0,0-0.1-0.1-0.2c0-0.1-0.1-0.3-0.1-0.6
												c0-0.5,0-1.3,0.4-2.2c0.4-0.9,1.1-1.9,2.2-2.6c1.1-0.7,2.7-1,4.2-0.6l-0.2,0.3c-0.4-0.5-0.3-1.1-0.2-1.7
												c0.2-0.5,0.4-1,0.7-1.5c1-1.7,2.4-3,4-3.6c1.6-0.7,3.1-0.8,4.4-0.6c1.3,0.2,2.2,0.6,2.8,0.9c0.3,0.2,0.5,0.3,0.7,0.4
												C163.5,96.3,163.6,96.4,163.5,96.4z"/>
										</g>
									</g>
									<g>
										<g>
											<path class="st11" d="M184.4,110.9c0,0-0.1,0.2-0.4,0.5c-0.3,0.3-0.8,0.7-1.4,1c-0.7,0.4-1.5,0.7-2.5,0.8
												c-1,0.1-2.2-0.2-3.2-0.9l0.3,0c-0.1,0.2-0.2,0.3-0.4,0.5c-0.1,0.2-0.3,0.3-0.4,0.5c-0.9,1-2.1,1.7-3.2,2
												c-1.1,0.4-2.2,0.5-3,0.4c-0.9-0.1-1.6-0.3-2-0.4c-0.4-0.2-0.7-0.3-0.7-0.4c0-0.1,1,0.5,2.7,0.5c0.8,0,1.9-0.1,2.9-0.5
												c1.1-0.4,2.1-1,3-1.9c0.1-0.2,0.3-0.3,0.4-0.5c0.1-0.2,0.2-0.3,0.4-0.5l0.1-0.2l0.2,0.1c0.9,0.7,2,0.9,2.9,0.9
												c1,0,1.8-0.4,2.4-0.7C183.7,111.5,184.4,110.9,184.4,110.9z"/>
										</g>
									</g>
									<g>
										<g>
											<path class="st11" d="M191.3,122.7c0,0,0,0.1,0,0.2c0,0.1-0.1,0.4-0.3,0.6c-0.3,0.5-1,1.1-2.1,1.4
												c-1.1,0.3-2.4,0.1-3.7-0.4c-0.7-0.2-1.3-0.5-2-0.8c-0.7-0.3-1.4-0.8-1.8-1.6c0-0.1-0.1-0.1-0.1-0.2l0.3,0.1
												c-1.2,1-2.5,1.8-3.8,2.3c-1.3,0.5-2.6,0.6-3.6,0.4c-1-0.2-1.8-0.6-2.2-1c-0.2-0.2-0.4-0.3-0.5-0.5
												c-0.1-0.1-0.1-0.2-0.1-0.2c0,0,0.2,0.2,0.7,0.5c0.4,0.3,1.2,0.7,2.2,0.8c1,0.2,2.2,0,3.4-0.5c1.2-0.5,2.5-1.3,3.7-2.3
												l0.2-0.2l0.1,0.3c0,0.1,0,0.1,0.1,0.2c0.3,0.7,0.9,1.1,1.6,1.4c0.7,0.3,1.3,0.6,2,0.8c1.3,0.5,2.5,0.7,3.5,0.4
												c1-0.2,1.7-0.8,2-1.2C191.2,123.1,191.2,122.7,191.3,122.7z"/>
										</g>
									</g>
								</g>
							</g>
						</g>
						<g>
							<g>
								<g>
									<g>
										<g>
											<g>
												<g>
													<g>
														<g>
															<path class="st4" d="M150,148.7c-0.1,1.2,0.9,2.3,2.2,2.5c1.3,0.1,2.4-0.8,2.5-2.1c0.1-1.2-0.9-2.3-2.2-2.5
																C151.2,146.6,150.1,147.5,150,148.7z"/>
														</g>
													</g>
												</g>
											</g>
										</g>
									</g>
								</g>
							</g>
						</g>
						<g>
							<g>
								<g>
									<g>
										<g>
											<g>
												<g>
													<g>
														<g>
															<path class="st4" d="M127,148.1c-0.1,1.2,0.9,2.3,2.2,2.5c1.3,0.1,2.4-0.8,2.5-2.1c0.1-1.2-0.9-2.3-2.2-2.5
																C128.2,145.9,127.1,146.8,127,148.1z"/>
														</g>
													</g>
												</g>
											</g>
										</g>
									</g>
								</g>
							</g>
						</g>
						<g>
							<g>
								<g>
									<g>
										<g>
											<g>
												<g>
													<g>
														<g>
															<g>
																<path class="st4" d="M126.1,140.2c0.3,0.3,2.1-1,4.7-0.9c2.5,0.1,4.4,1.4,4.7,1.1c0.1-0.1-0.1-0.7-0.9-1.3
																	c-0.8-0.6-2.1-1.2-3.7-1.3c-1.6,0-2.9,0.5-3.7,1.1C126.2,139.5,126,140.1,126.1,140.2z"/>
															</g>
														</g>
													</g>
												</g>
											</g>
										</g>
									</g>
								</g>
							</g>
						</g>
						<g>
							<g>
								<g>
									<g>
										<g>
											<g>
												<g>
													<g>
														<g>
															<g>
																<path class="st4" d="M151.4,141.5c0.3,0.3,2-1.2,4.6-1.3c2.5-0.2,4.5,1,4.7,0.6c0.1-0.1-0.2-0.7-1.1-1.2
																	c-0.8-0.5-2.2-1-3.8-0.9c-1.6,0.1-2.9,0.8-3.6,1.4C151.5,140.8,151.3,141.4,151.4,141.5z"/>
															</g>
														</g>
													</g>
												</g>
											</g>
										</g>
									</g>
								</g>
							</g>
						</g>
						<g>
							<g>
								<g>
									<g>
										<g>
											<g>
												<g>
													<g>
														<g>
															<path class="st4" d="M141.9,160.6c0-0.1-1.6-0.5-4.1-0.9c-0.6-0.1-1.3-0.2-1.4-0.7c-0.1-0.5,0.2-1.2,0.5-1.9
																c0.7-1.6,1.4-3.2,2.1-4.9c2.9-7,5-12.7,4.7-12.8c-0.3-0.1-2.9,5.4-5.8,12.4c-0.7,1.7-1.4,3.4-2,4.9
																c-0.3,0.7-0.7,1.6-0.4,2.5c0.2,0.5,0.6,0.9,1,1c0.4,0.1,0.8,0.2,1.1,0.2C140.3,160.7,141.9,160.8,141.9,160.6z"/>
														</g>
													</g>
												</g>
											</g>
										</g>
									</g>
								</g>
							</g>
						</g>
						<path class="st10" d="M145.9,164.4c1,0.1,1.9,0.6,2.5,1.4c0.6,0.8,1,2.7,0.4,3.4c-0.5,0.6-2.6,0.6-4,0.4
							c-0.7-0.1-1.2-0.5-1.5-1.2l-0.6-1.6c-0.3-0.9,0.2-2,1.1-2.3C144.4,164.3,145.2,164.3,145.9,164.4z"/>
						<g>
							<g>
								<g>
									<g>
										<g>
											<path class="st4" d="M150.3,132.2c0.4,0.6,2.8-0.2,5.8-0.4c3-0.3,5.5,0.1,5.8-0.6c0.1-0.3-0.4-0.9-1.5-1.4
												c-1.1-0.5-2.7-0.8-4.5-0.7c-1.8,0.2-3.4,0.7-4.3,1.4C150.5,131.3,150.1,131.9,150.3,132.2z"/>
										</g>
									</g>
								</g>
							</g>
						</g>
						<g>
							<g>
								<g>
									<g>
										<g>
											<path class="st4" d="M126.7,136.1c0.5,0.6,2.5-0.1,5-0.2c2.4-0.2,4.5,0.3,5-0.4c0.2-0.3-0.1-0.9-1.1-1.4
												c-0.9-0.5-2.4-0.9-4.1-0.8c-1.7,0.1-3.1,0.7-4,1.3C126.8,135.2,126.5,135.8,126.7,136.1z"/>
										</g>
									</g>
								</g>
							</g>
						</g>
					</g>
				</g>
				<g>
					<g>
						<path class="st12" d="M214.5,241.8l-24,87.1l8.4,25c-31.7,14-77.6,18.4-113.7,0.9c0,0,12.3-36,12.7-43c0.4-7-2.6-48,0.7-61.7
							c3.3-13.7,12.9-43.2,12.9-43.2l28.1-4.5c12.9,6.9,21.2,8,35-0.1l26.2,5.7L214.5,241.8z"/>
					</g>
					<g>
						<path class="st12" d="M111.9,206.8c0,0-15.1,1.6-21.2,14c-6,12.3-22.7,66.6-23.6,75.7c-0.9,9.1,6.5,21.3,12.9,23l19.5-19.4
							l16.2,1.4l21.3-99.2L111.9,206.8z"/>
					</g>
					<g class="st13">
						<g>
							<path d="M100.5,240.2c-4.7,12.2-6,25.7-3.8,38.5c-3.5-1.3-7.1-2.6-10.6-4c2.9,4,6.7,7.3,11.1,9.7c-2.9-0.8-5.8-1.7-8.8-1.5
								c-3,0.2-6.1,1.6-7.4,4.3c3.5-0.6,7-1.3,10.5-0.9c3.5,0.4,7.1,2,8.9,5c-2.6-11.3-3.6-23-3-34.6"/>
						</g>
					</g>
				</g>
				<g>
					<g class="st13">
						<g>
							<path d="M96.1,314.9l79.3,7.9c-5.7-0.1-10.1,4.7-15.1,7.6c-9.2,5.3-20.6,3.8-31,2.2c-8.7-1.4-17.3-2.7-26-4.1
								c-2.2-0.3-4.5-0.8-6.1-2.3C94.3,323.4,95.1,318.8,96.1,314.9z"/>
						</g>
					</g>
					<g>
						<path class="st9" d="M156.7,308.4l13.3-12.8c1.3-1.2,3.1-1.9,4.8-1.7c3.8,0.4,10.2,1,11.5,1.5c1.9,0.7,3.7,1.8,4.2,2.7
							c0.5,0.9,2.3,6.6,2.4,7.5c0.1,0.4-0.1,1.6-0.2,2.7c-0.2,1.3-1.6,2.1-2.8,1.4c-0.5-0.3-1-0.7-1.3-1.2c-0.8-1.6-0.7-2.2-0.7-2.2
							s0.4,5.7-4.2,5.8c0,0,2.1,4.9-3.8,6.9c0,0,0.2,3.2-4.8,3.6c-5,0.4-9.5,0-9.5,0s-9.1,6.6-15.6,7c-6.4,0.4-20.8-2.4-20.8-2.4
							l-1.7-26.5L156.7,308.4z"/>
					</g>
					<g>
						<g>
							<path class="st10" d="M174.6,300.3c0,0,0.8,0.4,2.1,0.9c1.3,0.5,3.2,1.2,5.3,1.7c1,0.3,2.1,0.5,3,0.7
								c0.9,0.2,1.4,0.9,1.8,1.5c0.4,0.6,0.7,1.1,1,1.4c0.3,0.3,0.4,0.4,0.5,0.4c0,0-0.1-0.2-0.3-0.5c-0.2-0.3-0.5-0.8-0.9-1.4
								c-0.2-0.3-0.4-0.6-0.7-0.9c-0.3-0.3-0.7-0.6-1.2-0.7c-0.9-0.3-1.9-0.4-3-0.7c-2.1-0.6-4-1.2-5.3-1.6
								C175.5,300.5,174.7,300.2,174.6,300.3z"/>
						</g>
					</g>
					<g>
						<g>
							<path class="st10" d="M172.9,308.4c0,0,0.5,0.3,1.5,0.7c0.9,0.4,2.2,0.9,3.7,1.3c1.5,0.5,2.8,0.9,3.8,1.1
								c1,0.3,1.6,0.4,1.6,0.3c0,0-0.6-0.3-1.5-0.6c-1.1-0.4-2.3-0.8-3.7-1.2c-1.4-0.5-2.6-0.9-3.7-1.2
								C173.6,308.5,173,308.4,172.9,308.4z"/>
						</g>
					</g>
					<g>
						<g>
							<path class="st10" d="M169.7,316c0,0.1,2.3,0.3,5.1,1.1c2.8,0.7,4.9,1.7,4.9,1.6c0,0-0.5-0.3-1.4-0.7
								c-0.9-0.4-2.1-0.8-3.5-1.2c-1.4-0.4-2.7-0.6-3.6-0.7C170.2,315.9,169.7,315.9,169.7,316z"/>
						</g>
					</g>
					<g>
						<path class="st12" d="M138.9,328.9L80,319.5c0,0,7.1-29.5,17.4-29.5c1.5,0,53.8,17,53.8,17L138.9,328.9z"/>
					</g>
					<g>
						<g>
							<path class="st10" d="M149.2,316.1c0,0,0.6-0.5,1.4-1.3c0.9-0.9,2-2,3.2-3.2c1.2-1.2,2.4-2.4,3.1-3.2
								c0.8-0.9,1.2-1.4,1.2-1.4c0,0-0.6,0.5-1.4,1.3c-0.9,0.9-2,2-3.2,3.2c-1.2,1.2-2.4,2.4-3.1,3.2
								C149.6,315.5,149.2,316,149.2,316.1z"/>
						</g>
					</g>
				</g>
				<g>
					<path class="st4" d="M151.2,307c0,0-0.3,0-0.7-0.1c-0.6-0.2-1.3-0.3-2.1-0.6c-1.9-0.6-4.5-1.3-7.7-2.2
						c-6.5-1.9-15.4-4.6-25.2-7.6c-5.4-1.7-10.6-3.3-15.2-4.7l-0.1,0l-0.1-0.1c-1.8-2.4-4.5-3.9-6.9-4.6c-2.4-0.7-4.7-0.8-6.6-0.7
						c-1.9,0.2-3.3,0.6-4.2,0.8c-1,0.3-1.5,0.5-1.5,0.5c0,0,0.4-0.3,1.4-0.7c0.9-0.4,2.4-0.9,4.3-1.1c1.9-0.2,4.2-0.2,6.8,0.5
						c2.5,0.7,5.3,2.2,7.3,4.8l-0.2-0.2c4.6,1.4,9.8,3,15.2,4.6c9.8,3,18.7,5.8,25.2,7.8c3.1,1,5.7,1.8,7.6,2.5
						c0.8,0.3,1.5,0.5,2.1,0.7C151,306.8,151.2,306.9,151.2,307z"/>
				</g>
			</g>
			<g>
				<g>
					<g>
						<g>
							<path class="st9" d="M135.6,212.5c0.5-1.6,3.3-16.8,4.4-20.3c1.6-5,14.5-13.8,14.5-13.8s-2-4.7-7.5-2.2
								c-6.5,2.9-9.7,7.7-11.4,6.7c-1.6-1-11.9-11.4-14.6-11.1c-2.8,0.3-3.4,3.2-2.4,4.3c1,1.1,2.1,3,2.1,3s-5.9-1.8-4.8,4.7
								c0,0-6.7-4.2-6.1,4.7c0,0-4.4-1.8-5.4,1.3c-1,3.1,1.9,6.7,3.4,9.2c1.5,2.5,6.3,16.7,6.3,16.7l0.1,12.6l23.5-4.8L135.6,212.5z
								"/>
							<g>
								<path class="st10" d="M135.6,212.5c0,0,0.1,0.2,0.2,0.7c0.1,0.5,0.3,1.2,0.4,2.1c0.4,1.9,0.9,4.6,1.6,8.1l0,0.2l-0.2,0
									c-5.8,1.2-13.8,2.9-23.5,5l-0.4,0.1l0-0.4c0-3.9-0.1-8.1-0.1-12.6l0,0.1c-1.7-4.8-3.4-10-5.6-15.3c-1.1-2.5-3.3-4.7-4.1-7.8
									c-0.2-0.8-0.3-1.6-0.2-2.4c0.1-0.8,0.5-1.7,1.3-2.2c0.8-0.5,1.6-0.6,2.5-0.6c0.8,0.1,1.6,0.2,2.4,0.5l-0.6,0.4
									c0-0.9-0.1-1.7,0.1-2.6c0.2-0.9,0.4-1.9,1.1-2.6c0.7-0.8,1.9-0.9,2.8-0.8c1,0.2,1.8,0.5,2.7,1l-0.6,0.4
									c-0.2-1.2-0.4-2.6,0.4-3.9c0.5-0.8,1.4-1.3,2.3-1.4c0.9-0.1,1.7,0,2.6,0.2l-0.5,0.6c-0.6-1-1.2-2-1.9-2.8
									c-0.5-0.5-0.7-1.2-0.7-1.9c0-0.7,0.3-1.3,0.6-1.8c0.4-0.5,0.9-1,1.5-1.2c0.3-0.1,0.6-0.2,0.9-0.2c0.3,0,0.7,0,1,0.1
									c1.2,0.4,2.1,1.1,3.1,1.7c3.7,2.7,6.8,5.7,10,8.5c0.4,0.3,0.8,0.7,1.1,0.8c0.3,0.1,0.8-0.1,1.2-0.4c0.8-0.5,1.6-1.2,2.4-1.8
									c1.6-1.3,3.3-2.5,5-3.4c1.7-0.9,3.5-1.9,5.6-1.8c2.1,0,3.8,1.4,4.6,3.1l0.1,0.3l-0.2,0.2c-5,3.6-9.5,7.1-12.7,10.9
									c-0.8,1-1.4,2-1.8,3c-0.3,1.1-0.6,2.2-0.8,3.2c-0.5,2.1-0.9,4-1.3,5.8c-0.7,3.4-1.3,6.2-1.7,8.1c-0.2,0.9-0.4,1.6-0.5,2.1
									C135.7,212.3,135.6,212.5,135.6,212.5c0,0,0-0.3,0.1-0.7c0.1-0.5,0.2-1.2,0.4-2.1c0.4-1.9,0.9-4.7,1.5-8.1
									c0.4-1.8,0.8-3.7,1.2-5.8c0.2-1.1,0.5-2.2,0.8-3.3c0.4-1.2,1-2.2,1.8-3.2c3.2-3.9,7.7-7.5,12.8-11.1l-0.1,0.4
									c-0.7-1.5-2.3-2.7-4-2.7c-1.8-0.1-3.5,0.9-5.2,1.8c-1.7,1-3.3,2.1-4.9,3.4c-0.8,0.6-1.6,1.3-2.5,1.9c-0.5,0.3-1,0.6-1.8,0.5
									c-0.7-0.3-1-0.7-1.4-1c-3.2-2.8-6.3-5.8-9.9-8.5c-0.9-0.6-1.8-1.3-2.8-1.6c-0.2-0.1-0.4-0.1-0.7-0.1c-0.3,0-0.5,0.1-0.7,0.2
									c-0.5,0.2-0.9,0.5-1.2,0.9c-0.6,0.8-0.7,2,0,2.7c0.8,0.9,1.4,1.9,2,2.9l0.5,0.9l-1-0.3c-1.4-0.4-3.2-0.3-3.9,0.9
									c-0.6,0.9-0.5,2.2-0.3,3.3l0.1,0.9l-0.8-0.5c-0.7-0.4-1.6-0.8-2.4-0.9c-0.8-0.1-1.6,0-2.1,0.5c-1,1.1-1,3-0.9,4.6l0,0.6
									l-0.6-0.2c-1.3-0.5-3-0.8-4.1-0.1c-0.5,0.3-0.8,1-0.9,1.6c-0.1,0.7,0,1.4,0.1,2.1c0.4,1.4,1.1,2.7,1.8,3.9
									c0.7,1.2,1.7,2.4,2.2,3.8c2.2,5.3,3.9,10.5,5.6,15.4l0,0.1l0,0.1c0,4.5,0,8.7,0,12.6l-0.4-0.3c9.7-1.9,17.7-3.5,23.5-4.7
									l-0.2,0.2c-0.6-3.5-1.1-6.2-1.4-8.1c-0.1-0.9-0.3-1.6-0.3-2.1C135.6,212.8,135.6,212.5,135.6,212.5z"/>
							</g>
						</g>
					</g>
					<g>
						<g>
							<path class="st10" d="M120.7,179.4c-0.1,0.1,1.3,1.2,2.9,2.7c1.6,1.4,2.8,2.7,2.9,2.6c0.1-0.1-1.1-1.4-2.7-2.8
								C122.2,180.3,120.7,179.3,120.7,179.4z"/>
						</g>
					</g>
					<g>
						<g>
							<path class="st10" d="M115.4,183.5c-0.1,0,0.4,1.3,1.4,2.6c1,1.3,2.1,2.1,2.2,2.1c0.1-0.1-0.9-1-1.9-2.3
								C116.2,184.6,115.5,183.5,115.4,183.5z"/>
						</g>
					</g>
					<g>
						<g>
							<path class="st10" d="M109.9,188.2c-0.1,0.1,0.5,1,1.2,2c0.8,1.1,1.4,1.9,1.5,1.8c0.1-0.1-0.5-1-1.2-2
								C110.7,189,110,188.2,109.9,188.2z"/>
						</g>
					</g>
				</g>
			</g>
			<path class="st12" d="M200.9,208l-25.3,25.2l-25.9,32.6l-10.3-43.4l-26.3,5.4c0,0,1.9,49,10,71.2c1.5,4.2,6.1,7.4,8.1,8.3
				c12.7,6,25.2-3.3,25.2-3.3s53.1-35.6,58.9-59.5c2.7-11.3,1.6-24.7-3-30.2C208.1,209.5,200.9,208,200.9,208z"/>
			<g>
				<path class="st4" d="M215.2,244.6c0,0-0.1,0.3-0.2,0.8c-0.2,0.5-0.3,1.3-0.7,2.2c-0.7,2-2,4.7-4.2,8c-2.1,3.3-5.1,7.1-8.8,11.2
					c-3.8,4.1-8.3,8.5-13.5,13.2c-5.2,4.7-11.2,9.5-17.7,14.5c-3.3,2.5-6.7,5-10.3,7.5c-0.9,0.6-1.8,1.3-2.7,1.9
					c-0.9,0.6-1.8,1.3-2.8,1.8c-2,1.1-4.1,2.1-6.3,2.8c-4.4,1.4-9.4,1.7-14.1,0.3c-0.6-0.1-1.1-0.4-1.7-0.6
					c-0.6-0.2-1.2-0.4-1.7-0.8c-1.1-0.6-2.1-1.3-3.1-2.1c-1.9-1.6-3.6-3.6-4.6-6c-1.7-4.8-2.9-9.8-4-14.8c-1-5.1-1.9-10.3-2.5-15.6
					c-1.9-14.1-2.9-27.9-3.5-40.9l0-0.2l0.2,0c9.2-1.9,18-3.7,26.3-5.4l0.2,0l0.1,0.2c3.9,16.5,7.4,31.2,10.3,43.4l-0.3-0.1
					c8.9-9.6,16-17.2,21-22.5c2.5-2.6,4.4-4.7,5.7-6.1c0.6-0.7,1.1-1.2,1.5-1.6c0.3-0.3,0.5-0.5,0.5-0.5s-0.2,0.2-0.5,0.6
					c-0.3,0.4-0.8,0.9-1.4,1.6c-1.3,1.4-3.2,3.5-5.6,6.1c-4.9,5.3-12,13-20.8,22.7l-0.2,0.2l-0.1-0.3c-2.9-12.2-6.4-26.9-10.4-43.4
					l0.3,0.2c-8.3,1.7-17.1,3.5-26.3,5.4l0.2-0.3c0.6,13,1.7,26.8,3.5,40.9c0.7,5.3,1.6,10.5,2.5,15.6c1.1,5.1,2.3,10,3.9,14.8
					c0.9,2.3,2.6,4.2,4.4,5.8c0.9,0.8,1.9,1.5,3,2.1c0.5,0.3,1.1,0.5,1.6,0.7c0.6,0.2,1.1,0.5,1.7,0.6c4.6,1.4,9.5,1.2,13.8-0.2
					c2.2-0.7,4.3-1.6,6.2-2.7c1-0.6,1.9-1.2,2.8-1.8c0.9-0.6,1.8-1.3,2.7-1.9c3.6-2.5,7-5,10.3-7.5c6.5-5,12.5-9.8,17.7-14.4
					c5.2-4.6,9.8-9,13.5-13.1c3.8-4.1,6.7-7.8,8.9-11.1c2.1-3.3,3.5-6,4.2-7.9c0.4-0.9,0.6-1.7,0.8-2.2
					C215.1,244.8,215.2,244.6,215.2,244.6z"/>
			</g>
			<g>
				<path class="st4" d="M154.5,285.7c-0.1,0,0.2-1.3,0.4-3.3c0.1-1,0.1-2.3,0-3.6c-0.1-1.4-0.3-2.8-0.7-4.4c-0.8-3-2.1-5.6-3.1-7.4
					c-1.1-1.8-1.9-2.8-1.8-2.8c0,0,0.2,0.2,0.6,0.7c0.4,0.4,0.9,1.1,1.5,2c1.2,1.7,2.5,4.3,3.3,7.4c0.4,1.6,0.6,3.1,0.7,4.5
					c0,1.4,0,2.6-0.1,3.7c-0.1,1-0.3,1.9-0.5,2.4C154.6,285.4,154.5,285.7,154.5,285.7z"/>
			</g>
			<g>
				<path class="st4" d="M150.9,167.7c0,0.1-0.6,0.1-1.4-0.1c-0.8-0.2-1.9-0.4-3.2-0.5c-1.2-0.1-2.3,0-3.1,0.2
					c-0.8,0.2-1.1,0.5-1.2,0.4c-0.1,0-0.1-0.2,0.1-0.4c0.2-0.2,0.5-0.5,0.9-0.7c0.8-0.4,2.1-0.7,3.5-0.5c1.4,0.1,2.5,0.5,3.3,0.9
					C150.5,167.3,150.9,167.6,150.9,167.7z"/>
			</g>
		</g>
		<g class="st13">
			<path d="M191,328.4c0,0-11.6-1.4-17.8-2.4c-3.4-0.5-8.6-1.1-9.6-2c-1.2-1.2-1.2-3.1-1.3-4.8c-2.2-28.8,7.7-60.1,38.4-78.7
				l7.8,2.1l-0.5,18.8L191,328.4z"/>
		</g>
	</g>
</g>
<g id="Character_2">
	<g>
		<g>
			<g>
				<g>
					<g>
						<g>
							<g>
								<g>
									<g>
										<g>
											<g>
												<g>
													<g>
														<path d="M371.7,103.5c3.9,0.4,7.9-2.6,8.6-6.5c0.7-3.9-1.8-8.1-5.6-9.2c2.4-2.6,2.9-6.7,1.2-9.7
															c-1.7-3.1-5.4-4.8-8.8-4.2c-0.2-3.4-2.4-6.7-5.4-8.2c-3.1-1.6-6.9-1.4-9.9,0.4c-3.9-3.2-10-3.1-13.9,0.1
															c-3.4-0.5-7,1.3-8.4,4.4c-1.5,3.1-0.8,7,1.7,9.4"/>
													</g>
												</g>
											</g>
										</g>
									</g>
								</g>
							</g>
						</g>
						<g>
							<g>
								<g>
									<g>
										<g>
											<g>
												<g>
													<path class="st9" d="M336.5,74.1l1.8,0c17.8-0.4,32.9,12.9,34.7,30.6c1.7,16.4,3.4,34.6,3.5,43.5
														c0.2,18.3-18,21.6-18,21.6l2.1,21.9l-44.4-0.3l-5.8-79.6C308.1,92.7,317.4,75.7,336.5,74.1z"/>
												</g>
											</g>
										</g>
									</g>
								</g>
								<g>
									<g>
										<g>
											<g>
												<g>
													<g>
														<g>
															<g>
																<g>
																	<g>
																		<g>
																			<path class="st10" d="M358.4,169.7c0,0-12.8,1-25.2-6.5c0,0,7.4,13.3,25.7,11.3L358.4,169.7z"/>
																		</g>
																	</g>
																</g>
															</g>
														</g>
													</g>
												</g>
											</g>
										</g>
									</g>
								</g>
								<g>
									<g>
										<g>
											<g>
												<g>
													<g>
														<g>
															<g>
																<g>
																	<g>
																		<g>
																			<g>
																				<g>
																					<g>
																						<path class="st4" d="M367.3,124.5c0.1,1.4-1,2.6-2.5,2.7c-1.4,0.1-2.7-0.9-2.7-2.3c-0.1-1.4,1-2.6,2.5-2.7
																							C366,122.1,367.3,123.1,367.3,124.5z"/>
																					</g>
																				</g>
																			</g>
																		</g>
																	</g>
																</g>
															</g>
														</g>
													</g>
												</g>
											</g>
										</g>
									</g>
								</g>
								<g>
									<g>
										<g>
											<g>
												<g>
													<g>
														<g>
															<g>
																<g>
																	<g>
																		<g>
																			<g>
																				<g>
																					<g>
																						<g>
																							<path class="st4" d="M369.2,113.7c-0.3,0.3-2.3-1.1-5.1-1c-2.8,0-4.8,1.5-5.2,1.2c-0.2-0.1,0.2-0.8,1-1.4
																								c0.9-0.7,2.4-1.3,4.1-1.4c1.8,0,3.2,0.6,4.1,1.2C369.1,112.9,369.4,113.5,369.2,113.7z"/>
																						</g>
																					</g>
																				</g>
																			</g>
																		</g>
																	</g>
																</g>
															</g>
														</g>
													</g>
												</g>
											</g>
										</g>
									</g>
								</g>
								<g>
									<g>
										<g>
											<g>
												<g>
													<g>
														<g>
															<g>
																<g>
																	<g>
																		<g>
																			<g>
																				<g>
																					<g>
																						<path class="st4" d="M343.1,124.5c0.1,1.4-1,2.6-2.5,2.7c-1.4,0.1-2.7-0.9-2.7-2.3c-0.1-1.4,1-2.6,2.5-2.7
																							C341.8,122.1,343,123.1,343.1,124.5z"/>
																					</g>
																				</g>
																			</g>
																		</g>
																	</g>
																</g>
															</g>
														</g>
													</g>
												</g>
											</g>
										</g>
									</g>
								</g>
								<g>
									<g>
										<g>
											<g>
												<g>
													<g>
														<g>
															<g>
																<g>
																	<g>
																		<g>
																			<g>
																				<g>
																					<g>
																						<g>
																							<path class="st4" d="M341.6,114.9c-0.3,0.3-2.3-1.1-5.1-1c-2.8,0-4.8,1.5-5.2,1.2c-0.2-0.1,0.2-0.8,1-1.4
																								c0.9-0.7,2.4-1.3,4.1-1.4c1.8,0,3.2,0.6,4.1,1.2C341.4,114.1,341.7,114.7,341.6,114.9z"/>
																						</g>
																					</g>
																				</g>
																			</g>
																		</g>
																	</g>
																</g>
															</g>
														</g>
													</g>
												</g>
											</g>
										</g>
									</g>
								</g>
								<g>
									<g>
										<g>
											<g>
												<g>
													<g>
														<g>
															<g>
																<g>
																	<g>
																		<g>
																			<g>
																				<g>
																					<g>
																						<path class="st4" d="M352.3,135.5c0-0.2,1.7-0.5,4.5-0.9c0.7-0.1,1.4-0.2,1.5-0.7c0.2-0.5-0.2-1.3-0.5-2.1
																							c-0.7-1.7-1.5-3.5-2.3-5.4c-3.1-7.7-5.4-14.1-5.1-14.2c0.3-0.1,3.1,6,6.2,13.7c0.8,1.9,1.5,3.7,2.2,5.5
																							c0.3,0.8,0.8,1.7,0.4,2.8c-0.2,0.5-0.7,0.9-1.2,1.1c-0.5,0.2-0.9,0.2-1.2,0.2
																							C354.1,135.6,352.3,135.6,352.3,135.5z"/>
																					</g>
																				</g>
																			</g>
																		</g>
																	</g>
																</g>
															</g>
														</g>
													</g>
												</g>
											</g>
										</g>
									</g>
								</g>
								<g>
									<g>
										<g>
											<g>
												<g>
													<g>
														<g>
															<g>
																<g>
																	<g>
																		<path class="st4" d="M342.2,109c-0.4,0.7-2.8,0-5.8,0c-3-0.1-5.5,0.5-5.7-0.2c-0.1-0.4,0.4-1,1.4-1.6
																			c1-0.6,2.6-1.1,4.4-1c1.8,0,3.3,0.6,4.3,1.2C341.9,108,342.3,108.7,342.2,109z"/>
																	</g>
																</g>
															</g>
														</g>
													</g>
												</g>
											</g>
										</g>
									</g>
								</g>
								<g>
									<g>
										<g>
											<g>
												<g>
													<g>
														<g>
															<g>
																<g>
																	<g>
																		<path class="st4" d="M369.1,102.1c-0.6,0.7-2.9,0-5.7,0.1c-2.8,0-5.1,0.5-5.7-0.1c-0.2-0.3,0.1-1,1.1-1.6
																			c1-0.6,2.7-1.2,4.6-1.2c1.9,0,3.6,0.5,4.6,1.2C369,101.1,369.3,101.8,369.1,102.1z"/>
																	</g>
																</g>
															</g>
														</g>
													</g>
												</g>
											</g>
										</g>
									</g>
								</g>
								<g>
									<g>
										<g>
											<g>
												<g>
													<g>
														<g>
															<g>
																<g>
																	<path d="M371,96.3c0,0-5.1-11.3-10.7-13.9c-6.8-3.1-9.5,4.3-15.9,2.7c-6.4-1.6-12.9-4.6-19.3,0.5
																		c-7,5.6-3.6,9.3-3.8,17.4c-1,33-6.8,42.4-8.9,26.9c-0.2-1.7-5-2.9-5.8-10.1c-1.1-9.3-1.7-20.6,0.2-27.2
																		c1.6-5.6,4.7-9.5,10.3-13.9c8.8-6.9,21.2-7.3,29.6-6.7C355,72.7,371.4,81.9,371,96.3z"/>
																</g>
															</g>
														</g>
													</g>
												</g>
											</g>
										</g>
									</g>
								</g>
								<g>
									<g>
										<g>
											<g>
												<g>
													<g>
														<g>
															<g>
																<g>
																	<path class="st9" d="M313.6,129.4c-0.2-2.8-2.7-5-5.5-4.7c-3.4,0.4-7.2,2.4-6.8,9.5c0.7,12.5,13.1,9.2,13.1,8.9
																		C314.4,142.8,313.9,134.6,313.6,129.4z"/>
																</g>
															</g>
														</g>
													</g>
												</g>
											</g>
										</g>
									</g>
								</g>
								<g>
									<g>
										<g>
											<g>
												<g>
													<g>
														<g>
															<g>
																<g>
																	<path class="st10" d="M311.5,138.5c-0.1,0-0.2,0.2-0.6,0.4c-0.3,0.2-1,0.3-1.6,0.1c-1.3-0.4-2.6-2.4-2.8-4.7
																		c-0.1-1.1,0.1-2.2,0.4-3.2c0.3-0.9,0.9-1.6,1.5-1.8c0.7-0.2,1.1,0.2,1.3,0.5c0.2,0.3,0.1,0.6,0.2,0.6
																		c0,0,0.3-0.2,0.1-0.7c-0.1-0.2-0.2-0.5-0.5-0.8c-0.3-0.2-0.8-0.3-1.2-0.3c-1,0.1-1.8,1.1-2.2,2.1
																		c-0.4,1-0.7,2.3-0.6,3.5c0.2,2.5,1.6,4.8,3.5,5.2c0.9,0.2,1.6-0.1,2-0.4C311.5,138.8,311.5,138.5,311.5,138.5z"/>
																</g>
															</g>
														</g>
													</g>
												</g>
											</g>
										</g>
									</g>
								</g>
							</g>
							<g>
								<g>
									<g>
										<g>
											<g>
												<g>
													<g>
														<g>
															<path class="st7" d="M313.3,105.2c1.7,1.1,3.4,2.2,5.4,2.3c2,0.1,4.2-1,4.5-3c0.1-0.9-0.1-1.9,0.4-2.6
																c0.7-0.8,1.9-0.6,3-0.5c3.6,0.3,7.8-3.8,8.6-7.4c1,1.4,3,1.7,4.4,0.8c1.4-0.9,1.9-1.5,3-2.7c1.1-1.3,2.6-2.4,4.2-2.2
																c0.9,0.1,1.8,0.6,2.7,0.5c1.6-0.2,2.4-2.1,2.6-3.8c0.2-1.6,0.4-3.5,1.7-4.5c1.3-0.9,3-0.4,4.5-0.2
																c1.5,0.2,3.5-0.2,3.8-1.7c0.2-0.8-0.2-1.6-0.6-2.3c-2-3-6.3-4.3-9.6-2.8c-1.3-4.1-5.3-7.2-9.6-7.6
																c-4.3-0.4-8.7,2.1-10.7,5.9c-2.7-2.3-6.6-3.3-10-2.4c-3.5,0.9-6.4,3.5-7.7,6.9c-3.1-0.7-6.5,0.5-8.4,3.1
																c-1.9,2.5-2.1,6.2-0.5,8.9c-2.2,1.3-4.1,3.6-4.1,6.2c0,2.6,2.6,5.1,5.1,4.4c-1,2-0.1,4.8,1.9,5.8
																c2,1.1,4.7,0.4,5.9-1.6"/>
														</g>
													</g>
												</g>
											</g>
										</g>
									</g>
								</g>
							</g>
							<g>
								<g>
									<g>
										<g>
											<g>
												<g>
													<g>
														<g>
															<g>
																<path class="st11" d="M352.8,78.8c0,0,0,0.1,0,0.2c0,0.2,0,0.4-0.1,0.7c-0.1,0.6-0.3,1.4-0.9,2.4
																	c-0.5,1-1.4,2.1-2.7,3c-1.3,0.9-3.1,1.6-5.1,1.6l0.2-0.3c0.4,1.1,0.3,2.3-0.2,3.5c-0.5,1.1-1.3,2.1-2.1,3.1
																	c-0.4,0.5-0.8,1-1.4,1.5c-0.6,0.4-1.3,0.7-2,0.8c-1.4,0.2-3-0.2-4.1-1.3l0.5-0.1c-0.3,2.5-1.6,5-3.8,6.6
																	c-1.2,0.9-2.6,1.4-4.1,1.4c-1.4,0-2.8-0.4-4.1-0.8l0.3-0.2c-0.6,1.6-1.6,2.9-2.9,3.9c-1.2,1-2.8,1.6-4.3,1.3
																	c-3-0.6-5-3-5.4-5.3l0.3,0.1c-1.4,0.8-3,0.9-4.3,0.7c-1.3-0.2-2.3-0.7-3-1.3c-0.7-0.5-1.2-1.1-1.4-1.5
																	c-0.2-0.4-0.3-0.6-0.3-0.6c0.1-0.1,0.4,0.9,1.9,2c0.7,0.5,1.7,1,3,1.1c1.2,0.2,2.7,0,4-0.8l0.2-0.1l0.1,0.3
																	c0.4,2.1,2.4,4.4,5.1,4.9c1.4,0.3,2.8-0.3,3.9-1.2c1.2-1,2.1-2.3,2.7-3.7l0.1-0.2l0.2,0.1c1.2,0.4,2.6,0.8,3.9,0.8
																	c1.3,0,2.6-0.5,3.8-1.3c2.1-1.5,3.4-3.8,3.6-6.2l0.1-0.6l0.4,0.4c0.9,1,2.3,1.4,3.6,1.2c0.6-0.1,1.2-0.3,1.7-0.7
																	c0.5-0.3,0.9-0.9,1.3-1.4c0.8-1,1.6-1.9,2-3c0.5-1,0.6-2.2,0.2-3.1l-0.1-0.3l0.3,0c1.9,0.1,3.6-0.6,4.9-1.4
																	c1.3-0.9,2.1-1.9,2.7-2.9C352.8,80.1,352.8,78.8,352.8,78.8z"/>
															</g>
														</g>
													</g>
												</g>
											</g>
										</g>
									</g>
								</g>
							</g>
						</g>
					</g>
				</g>
			</g>
			<path class="st9" d="M262.9,189.7c0,0-47,16.6-60.6,23.4c-10.6,5.3-17.4,24.7-1,32.8c12.2,6,78.2-5.5,78.2-5.5L262.9,189.7z"/>
			<g>
				<g>
					<g>
						<g>
							<path class="st4" d="M406.4,354.3l-119.5-4.5l-4.3,40.7l-4.8,81.6l61,0.3c0-0.3,7.6-45.9,7.6-45.9l3.4-0.9l-0.3,46.8h57.2
								c3-38.7,4.7-71.2,4.8-74.3C412.4,373.9,406.4,354.3,406.4,354.3z"/>
							<g>
								<g>
									<g>
										<g>
											<g>
												<g>
													<g>
														<g>
															<g>
																<g>
																	<path class="st11" d="M342.1,401.1c0,0.1,0.6,0.4,1.8,0.9c1.2,0.5,3,1.3,5.3,1.6c1.2,0.2,2.5,0.2,3.9-0.1
																		c1.4-0.3,2.8-1,4-2.1c1.2-1.2,1.9-2.8,2.3-4.4c0.4-1.7,0.6-3.4,0.9-5.2c1.1-7.1,1.7-13.5,2-18.1
																		c0.2-2.3,0.3-4.2,0.3-5.5c0-1.3,0-2,0-2c-0.1,0-0.2,0.7-0.3,2c-0.2,1.5-0.4,3.3-0.6,5.5c-0.5,4.6-1.2,11-2.3,18.1
																		c-0.5,3.5-0.9,7-2.9,9.2c-2.1,2.1-5.1,2.4-7.3,2.2c-2.3-0.2-4.1-0.9-5.3-1.3C342.8,401.3,342.2,401,342.1,401.1z"
																		/>
																</g>
															</g>
														</g>
													</g>
												</g>
											</g>
										</g>
									</g>
								</g>
							</g>
							<g>
								<g>
									<g>
										<g>
											<g>
												<g>
													<g>
														<g>
															<g>
																<g>
																	<path class="st11" d="M353.5,367.7c0,0-0.3-0.2-0.9-0.2c-0.6,0-1.5,0.2-2.3,0.9c-0.8,0.7-1.7,1.8-1.7,3.4
																		c0,1.6,1.3,3,2.9,3.5c1.6,0.5,3.5,0.1,4.4-1.1c0.9-1.2,0.9-2.7,0.7-3.7c-0.3-1-0.9-1.7-1.4-2.1
																		c-0.5-0.3-0.8-0.4-0.8-0.3c-0.1,0.1,1.2,0.7,1.6,2.6c0.2,0.9,0.1,2.1-0.7,3c-0.7,0.9-2.2,1.2-3.5,0.8
																		c-1.3-0.4-2.3-1.5-2.3-2.7c-0.1-1.2,0.6-2.2,1.2-2.8C352.1,367.5,353.5,367.8,353.5,367.7z"/>
																</g>
															</g>
														</g>
													</g>
												</g>
											</g>
										</g>
									</g>
								</g>
							</g>
							<g>
								<g>
									<g>
										<g>
											<g>
												<g>
													<g>
														<g>
															<g>
																<g>
																	<path class="st11" d="M286.9,388c0,0.1,0.5,0.1,1.5,0.2c0.9,0.1,2.3,0,4-0.1c3.4-0.3,8-1.3,12.7-3.5
																		c4.7-2.2,8.4-5.1,10.8-7.6c1.2-1.2,2.1-2.2,2.6-3c0.6-0.8,0.8-1.2,0.8-1.2c-0.1-0.1-1.4,1.5-3.9,3.8
																		c-2.4,2.3-6.1,5-10.7,7.2c-4.6,2.2-9.1,3.2-12.4,3.7C289,387.9,286.9,387.8,286.9,388z"/>
																</g>
															</g>
														</g>
													</g>
												</g>
											</g>
										</g>
									</g>
								</g>
							</g>
						</g>
					</g>
				</g>
			</g>
			<g>
				<g>
					<path class="st12" d="M408.8,347.7c-2.3-5.3-1.9-5.8-1.9-5.8l-6.6-58.1l-6.4-56.5l-5.2-41.9l-29.9-6.4c0,0-3.4,9.5-17.9,9.8
						c-16.6,0.3-26.2-14.6-26.2-14.6L267,184.4l18,123.3l2.2,33.2c0,0-3.6,5.4-3.6,11.1c0,5.8-0.2,9.6-0.2,9.6
						c44.4,12.2,88.4,22.7,128.9,10.9C412.2,372.6,411.2,353,408.8,347.7z"/>
					<g>
						<path class="st12" d="M377.8,183.1c0,0,17.2,1.9,23.3,8.4c6.1,6.5,25.6,38.6,25.6,38.6L398.4,269L385.3,251L377.8,183.1z"/>
					</g>
					<g>
						<g>
							<g>
								<path class="st4" d="M391,203.2c0.2,0,3,21.3,6.1,47.7c3.1,26.3,5.4,47.7,5.2,47.7c-0.2,0-3-21.3-6.1-47.7
									C393,224.6,390.7,203.2,391,203.2z"/>
							</g>
						</g>
					</g>
				</g>
			</g>
			<polygon class="st12" points="267,184.4 228.7,201.4 242.6,240.2 279.4,246 			"/>
			<g>
				<path class="st4" d="M272.2,210.1c0.3,0,2.1,15.1,4.1,33.7c2,18.7,3.4,33.8,3.2,33.9c-0.3,0-2.1-15.1-4.1-33.8
					C273.4,225.3,272,210.1,272.2,210.1z"/>
			</g>
			<g class="st13">
				<path d="M281.7,406.5c20.8-7.5,32.3-22.2,41.6-37.8c9.3-15.6,10.6-37.6,4.7-54.8c0,0-42.9,41.5-43.2,42.4
					C284.4,357.3,281.7,406.5,281.7,406.5z"/>
			</g>
			<g class="st13">
				<path d="M340.1,188.2c-0.5,4.2,1.8,8.3,4.7,11.4c2.9,3.1,6.4,5.7,9,9c3,3.8,4.7,8.4,6.4,13c3.5,9.5,7,19,10.5,28.5
					c3,8.2,6.1,16.5,10.8,23.7c4.8,7.3,11.5,13.7,19.8,16.3l-6.3-53.5l-33.3-53.5L340.1,188.2z"/>
			</g>
			<g>
				<g>
					<path class="st9" d="M374.6,188.7c0-0.7,0.5-25.5-1.1-28.2c-1.7-2.7-3-5.2-3.3-7.7c0,0,0.9-1.5-0.7-2.4
						c-1.7-0.9-4.3,1.3-4.3,5.3s0.4,10.8,0.4,10.8s-18.3-10.4-23.3-10.7c-5-0.3-12.5-1.2-12.9,1.2c-0.4,2.4-0.1,3,2.6,3.9
						c2.6,0.9,6.8,1.6,10.9,2.9c4.1,1.4,6,2.3,6,2.3s-9.3-2.8-11.4,0c-2.1,2.8-1.8,5.2-0.5,6.6c0,0-2.8,1.2-2.5,4.2
						c0.3,3.1,1.7,3.8,1.7,3.8s-2.7,2.1-1.4,4.7c1.3,2.7,4.4,1,7.3,4c2.9,3,10.1,10,12.9,11.6c2.8,1.6,9.2,2.2,9.2,2.2L374.6,188.7z
						"/>
					<g>
						<path class="st10" d="M374.6,188.7c0,0,0,0.1-0.2,0.3c-0.1,0.2-0.3,0.4-0.5,0.7c-0.5,0.7-1.2,1.6-2.1,2.9
							c-1.8,2.5-4.5,6.2-7.8,10.8l0,0.1l-0.1,0c-1.3-0.1-2.6-0.3-3.9-0.6c-1.4-0.3-2.8-0.6-4.2-1.1c-0.7-0.3-1.4-0.7-2-1.1
							c-0.6-0.4-1.3-1-1.9-1.5c-1.2-1-2.5-2.1-3.8-3.3c-1.3-1.2-2.5-2.4-3.8-3.7c-0.6-0.6-1.3-1.3-2-1.9c-0.7-0.7-1.3-1.3-2.1-1.8
							c-0.8-0.5-1.7-0.7-2.7-0.9c-0.9-0.2-2-0.4-2.7-1.3c-0.7-0.8-1-2-0.7-3c0.3-1.1,0.9-1.9,1.8-2.6l0,0.4c-0.7-0.5-1.1-1.2-1.4-2
							c-0.3-0.8-0.4-1.5-0.4-2.4c0-0.8,0.2-1.7,0.7-2.4c0.5-0.7,1.2-1.3,2-1.6l-0.1,0.4c-1.2-1.2-1.3-3-0.8-4.5
							c0.3-0.8,0.6-1.5,1.1-2.1c0.2-0.3,0.6-0.7,0.9-0.9c0.4-0.2,0.8-0.3,1.2-0.4c1.6-0.3,3.3-0.2,4.9,0c1.6,0.2,3.2,0.6,4.8,1
							l-0.2,0.4c-2.4-1.1-5-2-7.6-2.8c-2.7-0.8-5.4-1.3-8.2-2.1c-1-0.3-2-0.6-2.9-1.2c-0.5-0.3-0.8-0.8-0.9-1.4
							c-0.1-0.6,0-1.1,0.1-1.6c0-0.2,0.1-0.5,0.2-0.8c0.2-0.3,0.4-0.4,0.6-0.6c0.5-0.3,1-0.4,1.5-0.5c1-0.2,2-0.2,3-0.2
							c2,0,4,0.2,5.9,0.3c1,0.1,1.9,0.1,2.9,0.3c0.5,0.1,0.9,0.3,1.4,0.4l1.4,0.5c3.6,1.4,7,3,10.2,4.7c3.3,1.7,6.4,3.3,9.4,5
							l-0.3,0.2c-0.2-3.9-0.5-7.7-0.4-11.3c0.1-1.8,0.8-3.7,2.3-4.7c0.4-0.2,0.8-0.4,1.3-0.4c0.5,0,0.9,0.2,1.3,0.4
							c0.4,0.3,0.7,0.7,0.7,1.1c0.1,0.5,0,0.9-0.3,1.3l0-0.1c0.4,2.8,1.8,5.2,3.1,7.3c0.2,0.3,0.4,0.6,0.4,0.9
							c0.1,0.3,0.2,0.6,0.2,0.9c0.1,0.6,0.2,1.2,0.3,1.8c0.1,1.2,0.2,2.4,0.3,3.5c0.2,4.5,0.2,8.4,0.2,11.6c0,3.2-0.1,5.7-0.1,7.3
							c0,0.8,0,1.5-0.1,1.9C374.6,188.4,374.6,188.7,374.6,188.7s0-0.2,0-0.7c0-0.4,0-1.1,0-1.9c0-1.7,0-4.2,0-7.3
							c0-3.2-0.1-7.1-0.3-11.6c-0.1-1.1-0.1-2.3-0.3-3.5c-0.1-0.6-0.1-1.2-0.3-1.8c-0.1-0.6-0.2-1.2-0.6-1.7
							c-1.3-2.2-2.7-4.6-3.1-7.5l0-0.1l0-0.1c0.2-0.3,0.3-0.7,0.2-1.1c-0.1-0.4-0.3-0.7-0.6-0.9c-0.6-0.5-1.5-0.4-2.1,0
							c-1.4,0.9-2,2.7-2.2,4.4c-0.1,3.6,0.2,7.4,0.4,11.3l0,0.4l-0.3-0.2c-3-1.7-6.1-3.4-9.4-5c-3.2-1.6-6.6-3.3-10.2-4.6l-1.4-0.5
							c-0.5-0.1-0.9-0.3-1.4-0.4c-0.9-0.2-1.9-0.2-2.9-0.3c-2-0.1-3.9-0.3-5.9-0.3c-1,0-2,0-2.9,0.2c-0.9,0.2-2,0.5-2,1.5
							c-0.1,0.5-0.1,1-0.1,1.4c0.1,0.5,0.3,0.8,0.7,1.1c0.8,0.5,1.8,0.8,2.8,1.1c2.7,0.8,5.5,1.3,8.2,2.1c2.7,0.8,5.3,1.7,7.7,2.9
							l-0.2,0.4c-1.6-0.4-3.2-0.8-4.8-1c-1.6-0.2-3.2-0.3-4.7,0c-0.7,0.2-1.4,0.5-1.8,1.1c-0.4,0.6-0.8,1.3-1,2
							c-0.5,1.4-0.3,3.1,0.7,4.1l0.2,0.2l-0.3,0.1c-0.7,0.3-1.3,0.9-1.8,1.5c-0.4,0.6-0.7,1.4-0.6,2.2c0,0.8,0.2,1.5,0.4,2.2
							c0.2,0.7,0.6,1.4,1.2,1.7l0.3,0.2l-0.2,0.2c-0.8,0.6-1.4,1.5-1.6,2.4c-0.2,0.9,0,1.9,0.6,2.6c0.6,0.7,1.6,1,2.5,1.2
							c0.9,0.2,1.9,0.5,2.8,1c0.9,0.5,1.6,1.2,2.2,1.9c0.7,0.7,1.3,1.3,1.9,1.9c1.3,1.3,2.6,2.5,3.8,3.7c1.3,1.2,2.5,2.3,3.7,3.3
							c1.2,1,2.4,2,3.8,2.5c1.4,0.5,2.8,0.9,4.1,1.1c1.4,0.3,2.7,0.5,3.9,0.6l-0.1,0.1c3.4-4.6,6.1-8.2,7.9-10.7
							c0.9-1.2,1.6-2.2,2.1-2.8c0.2-0.3,0.4-0.5,0.6-0.7C374.5,188.7,374.6,188.7,374.6,188.7z"/>
					</g>
				</g>
				<path class="st9" d="M433.9,246.6c-1.8-3.5-6-10.8-7.9-15.2l-13.1,4.8c0,0-37-50-38.2-50c-1.2,0-17.3,14.9-17.3,14.9
					c0.7,0.7,34.1,77.2,46.8,85.4c12.8,8.3,22.3,13.5,29.2,1.7C440.2,276.3,441.9,261.9,433.9,246.6z"/>
				<g>
					<path class="st10" d="M429.6,258.6c0,0-0.2-0.3-0.6-1c-0.4-0.6-0.9-1.6-1.6-2.7c-1.4-2.2-3.4-5.3-5.8-8.5
						c-2.4-3.2-4.8-5.9-6.5-7.9c-0.8-0.9-1.5-1.7-2-2.4c-0.5-0.6-0.7-0.9-0.7-0.9c0,0,0.3,0.3,0.8,0.8c0.5,0.5,1.3,1.3,2.2,2.3
						c1.8,1.9,4.2,4.7,6.7,7.9c2.5,3.2,4.4,6.3,5.7,8.6c0.6,1.2,1.1,2.1,1.5,2.8C429.5,258.2,429.6,258.5,429.6,258.6z"/>
				</g>
			</g>
			<g>
				<path class="st4" d="M354.2,147.1c-0.3,0.2-1.7-1.2-3.9-1.9c-2.2-0.8-4.1-0.6-4.2-1c0-0.2,0.4-0.5,1.3-0.7
					c0.9-0.2,2.1-0.1,3.4,0.3c1.3,0.5,2.3,1.3,2.8,1.9C354.2,146.5,354.4,147,354.2,147.1z"/>
			</g>
			<g>
				<path class="st4" d="M387.7,347.3c0,0-0.1,0.1-0.5,0.3c-0.3,0.2-0.8,0.4-1.4,0.7c-1.2,0.5-3.1,1.1-5.4,1.5
					c-2.3,0.3-5.2,0.4-8.3,0c-3.1-0.4-6.5-1.2-9.9-2.2c-6.9-2.1-13-4.4-17.3-6.2c-2.2-0.9-3.9-1.7-5.1-2.2c-0.6-0.3-1-0.5-1.4-0.6
					c-0.3-0.2-0.5-0.2-0.5-0.3c0,0,0.2,0,0.5,0.2c0.4,0.1,0.8,0.3,1.4,0.6c1.3,0.5,3,1.2,5.2,2.1c4.4,1.7,10.5,4,17.4,6.1
					c3.4,1,6.8,1.8,9.8,2.2c3.1,0.4,5.9,0.4,8.2,0.1c2.3-0.3,4.2-0.8,5.4-1.3C387,347.6,387.7,347.3,387.7,347.3z"/>
			</g>
		</g>
		<g>
			<g>
				<path class="st6" d="M297.2,251.9c-16.7-11.2-36.6-15.3-49.6-15.3c-12.2,0-30.1,1.9-46.4,11.1c-10.1,5.7-18.1,13.5-23.9,23.1
					c-6.9,11.4-10.6,25.5-11.1,42c-0.1,2.5,0.8,4.8,2.6,6.6c1.7,1.8,4.1,2.8,6.5,2.8l32,0c4.5,0,8.4-3.4,9-7.8
					c1.4-10,7.4-26.9,31.3-27.3c18.2-0.3,25.7,12.9,28.1,18.6c3.9,9.3,2.9,20.2-2.7,29.4c-8.5,14-24.2,16.2-32.7,16.2
					c-9.9,0-17.9,8-17.9,17.8l0,34.4c0,5,4.1,9.1,9.1,9.1l31.2,0c5,0,9.1-4.1,9.1-9.1l0-7.2c0-0.2,0.1-0.3,0.3-0.4
					c7.1-2.5,20.7-8.4,33.1-20.7c15.7-15.6,23.7-35.8,23.7-60C328.9,280.6,311.7,261.7,297.2,251.9z"/>
				<path class="st6" d="M248.7,421.2l-2.7,0c-13,0-23.6,10.6-23.6,23.6s10.6,23.6,23.6,23.6l2.7,0c13,0,23.6-10.6,23.6-23.6
					C272.3,431.8,261.7,421.2,248.7,421.2z"/>
			</g>
			<g class="st13">
				<path d="M327.7,293.1c-0.4-3.5-1.3-6.9-2.6-10.1c-6.2-15.6-20.9-26.2-37.5-28.1l-80.4-9.1c8.7,8.9,20.2,10.7,32.3,13.8
					c12.1,3.1,25.1,7.8,37.3,10.4c3.9,0.8,8,1.9,11,4.5c3,2.5,4.6,6.3,6.2,9.8c2.3,5.3,4.6,10.6,7,15.9c2.7,6.1,6.2,12.9,13.3,13.3
					c2.9,0.2,5.7-0.9,7.9-2.8C327.4,306.3,328.5,299.4,327.7,293.1z"/>
			</g>
			<g>
				<path class="st9" d="M326.6,271.5c-0.6-1.1-12.8-16-18.9-21.8c-3.9-3.7-9.8-6.3-13.5-7.7c0,0-61.2-22.1-65.4-24.2l-27.5,28.1
					c9.6,2.7,74.5,18.3,90.5,21.8c2.8,3.3,5.6,5.9,5.6,5.9l4.7,10.9c0,0,0.5,4,0.2,8.3c-0.3,4.3,3.1,2.6,3.1,2.6s-0.2,2.7,0.1,6.5
					c0,0,0,0.1,0,0.1c0.2,2.9,4.3,3.2,5.2,0.5l3.2-9.9c0,0-0.4,9-0.6,14c0,0.9,0.1,1.7,0.4,2.3c1.2,2.6,5.1,2.2,5.8-0.7l3.7-15.6
					l-1.2-9.6l3.1,8.7c0,0,0.9,4.7,0.7,11.2c-0.1,2.6,0.8,3.7,1.9,4.1c1.8,0.7,3.7-0.8,3.9-2.7l1.2-14.5
					C332.7,290,327.2,272.6,326.6,271.5z"/>
				<g>
					<path class="st10" d="M224.8,216.7c0-0.1,1.8,0.2,4.5,0.9c2.7,0.8,6.4,2,10.5,3.6c4,1.6,7.6,3.1,10.2,4.2
						c2.6,1.1,4.2,1.8,4.2,1.9c0,0.1-1.7-0.4-4.4-1.3c-2.7-1-6.3-2.4-10.3-4c-4-1.6-7.6-3-10.3-3.9
						C226.4,217.3,224.7,216.8,224.8,216.7z"/>
				</g>
			</g>
		</g>
	</g>
</g>
</svg>
