<?xml version="1.0" encoding="UTF-8"?>
<!DOCTYPE svg PUBLIC "-//W3C//DTD SVG 1.1//EN" "http://www.w3.org/Graphics/SVG/1.1/DTD/svg11.dtd">
<svg xmlns="http://www.w3.org/2000/svg" viewBox="0 0 512 512" version="1.1" width="512px" height="512px" style="shape-rendering:geometricPrecision; text-rendering:geometricPrecision; image-rendering:optimizeQuality; fill-rule:evenodd; clip-rule:evenodd" xmlns:xlink="http://www.w3.org/1999/xlink">
<g><path style="opacity:0.98" fill="#5cc45c" d="M 474.5,132.5 C 468.86,138.806 462.86,144.806 456.5,150.5C 444.5,138.833 432.5,127.167 420.5,115.5C 411.369,105.868 402.036,96.3683 392.5,87C 389.076,87.3605 385.742,88.3605 382.5,90C 376.833,90.6667 371.167,90.6667 365.5,90C 362.258,88.3605 358.924,87.3605 355.5,87C 301.965,140.701 248.299,194.201 194.5,247.5C 194.333,235.495 194.5,223.495 195,211.5C 220.702,185.965 246.202,160.299 271.5,134.5C 303.965,101.535 336.632,68.7013 369.5,36C 372.5,34 375.5,34 378.5,36C 410.701,68.0346 442.701,100.201 474.5,132.5 Z"/></g>
<g><path style="opacity:1" fill="#a0e457" d="M 420.5,115.5 C 419.62,118.262 418.454,120.929 417,123.5C 416.107,126.433 415.607,129.433 415.5,132.5C 416.554,139.044 418.054,145.377 420,151.5C 402.299,169.368 384.465,187.035 366.5,204.5C 352.035,179.731 331.035,171.564 303.5,180C 285.215,188.731 275.549,203.231 274.5,223.5C 274.701,230.631 275.701,237.631 277.5,244.5C 272.473,246.683 267.807,249.517 263.5,253C 250.106,267.063 236.106,280.397 221.5,293C 209.383,296.027 200.55,291.86 195,280.5C 194.5,269.505 194.333,258.505 194.5,247.5C 248.299,194.201 301.965,140.701 355.5,87C 358.924,87.3605 362.258,88.3605 365.5,90C 371.167,90.6667 376.833,90.6667 382.5,90C 385.742,88.3605 389.076,87.3605 392.5,87C 402.036,96.3683 411.369,105.868 420.5,115.5 Z"/></g>
<g><path style="opacity:1" fill="#93cc4a" d="M 420.5,115.5 C 432.5,127.167 444.5,138.833 456.5,150.5C 458.137,151.974 459.137,153.808 459.5,156C 457.45,160.983 456.117,166.15 455.5,171.5C 456.396,178.31 457.562,184.977 459,191.5C 402.5,248 346,304.5 289.5,361C 283.125,359.667 276.625,358.5 270,357.5C 264.463,358.051 259.129,359.384 254,361.5C 252.167,361.481 250.667,360.815 249.5,359.5C 254.16,352.203 259.327,345.203 265,338.5C 276.702,326.965 288.202,315.298 299.5,303.5C 310.833,292.5 322.167,281.5 333.5,270.5C 356.519,263.459 368.852,247.792 370.5,223.5C 369.955,216.99 368.622,210.656 366.5,204.5C 384.465,187.035 402.299,169.368 420,151.5C 418.054,145.377 416.554,139.044 415.5,132.5C 415.607,129.433 416.107,126.433 417,123.5C 418.454,120.929 419.62,118.262 420.5,115.5 Z"/></g>
<g><path style="opacity:0.995" fill="#fbd6c2" d="M 271.5,134.5 C 246.202,160.299 220.702,185.965 195,211.5C 194.5,223.495 194.333,235.495 194.5,247.5C 194.333,258.505 194.5,269.505 195,280.5C 200.55,291.86 209.383,296.027 221.5,293C 236.106,280.397 250.106,267.063 263.5,253C 267.807,249.517 272.473,246.683 277.5,244.5C 281.455,241.735 285.788,239.735 290.5,238.5C 284.735,242.417 279.068,246.584 273.5,251C 257.333,267.167 241.167,283.333 225,299.5C 215.667,311.5 206.333,323.5 197,335.5C 188.944,343.554 179.778,350.054 169.5,355C 147.693,362.269 126.026,369.936 104.5,378C 97.2608,384.047 90.5942,390.547 84.5,397.5C 68.7811,382.782 53.7811,367.449 39.5,351.5C 51.798,338.702 64.298,326.035 77,313.5C 91.0425,281.374 102.709,248.374 112,214.5C 116.101,204.81 122.268,196.643 130.5,190C 151.454,174.048 172.121,157.714 192.5,141C 199.712,134.311 208.212,130.477 218,129.5C 235.862,130.975 253.695,132.641 271.5,134.5 Z"/></g>
<g><path style="opacity:1" fill="#4ead4e" d="M 474.5,132.5 C 486.833,144.5 499.167,156.5 511.5,168.5C 511.5,171.167 511.5,173.833 511.5,176.5C 432.368,255.132 353.368,333.965 274.5,413C 273.128,413.402 271.795,413.902 270.5,414.5C 269.205,413.902 267.872,413.402 266.5,413C 255.298,401.631 243.965,390.465 232.5,379.5C 238.177,372.793 243.843,366.127 249.5,359.5C 250.667,360.815 252.167,361.481 254,361.5C 259.129,359.384 264.463,358.051 270,357.5C 276.625,358.5 283.125,359.667 289.5,361C 346,304.5 402.5,248 459,191.5C 457.562,184.977 456.396,178.31 455.5,171.5C 456.117,166.15 457.45,160.983 459.5,156C 459.137,153.808 458.137,151.974 456.5,150.5C 462.86,144.806 468.86,138.806 474.5,132.5 Z"/></g>
<g><path style="opacity:1" fill="#f2e7d6" d="M 366.5,204.5 C 368.622,210.656 369.955,216.99 370.5,223.5C 368.852,247.792 356.519,263.459 333.5,270.5C 334.925,269.078 335.925,267.411 336.5,265.5C 345.221,260.021 347.721,252.354 344,242.5C 342.167,239.333 339.667,236.833 336.5,235C 320.727,229.903 305.394,231.07 290.5,238.5C 285.788,239.735 281.455,241.735 277.5,244.5C 275.701,237.631 274.701,230.631 274.5,223.5C 275.549,203.231 285.215,188.731 303.5,180C 331.035,171.564 352.035,179.731 366.5,204.5 Z"/></g>
<g><path style="opacity:1" fill="#fecdac" d="M 336.5,265.5 C 329.523,257.861 320.856,255.027 310.5,257C 301.837,261.655 294.337,267.822 288,275.5C 285.036,279.906 284.702,284.573 287,289.5C 291.003,294.335 295.17,299.002 299.5,303.5C 288.202,315.298 276.702,326.965 265,338.5C 259.327,345.203 254.16,352.203 249.5,359.5C 243.843,366.127 238.177,372.793 232.5,379.5C 224.707,386.238 216.041,391.738 206.5,396C 184.938,403.076 163.605,410.742 142.5,419C 135.996,424.337 129.996,430.171 124.5,436.5C 115.5,427.833 106.5,419.167 97.5,410.5C 92.8604,406.527 88.5271,402.194 84.5,397.5C 90.5942,390.547 97.2608,384.047 104.5,378C 126.026,369.936 147.693,362.269 169.5,355C 179.778,350.054 188.944,343.554 197,335.5C 206.333,323.5 215.667,311.5 225,299.5C 241.167,283.333 257.333,267.167 273.5,251C 279.068,246.584 284.735,242.417 290.5,238.5C 305.394,231.07 320.727,229.903 336.5,235C 339.667,236.833 342.167,239.333 344,242.5C 347.721,252.354 345.221,260.021 336.5,265.5 Z"/></g>
<g><path style="opacity:1" fill="#efeeee" d="M 336.5,265.5 C 335.925,267.411 334.925,269.078 333.5,270.5C 322.167,281.5 310.833,292.5 299.5,303.5C 295.17,299.002 291.003,294.335 287,289.5C 284.702,284.573 285.036,279.906 288,275.5C 294.337,267.822 301.837,261.655 310.5,257C 320.856,255.027 329.523,257.861 336.5,265.5 Z"/></g>
<g><path style="opacity:0.994" fill="#464c50" d="M 39.5,351.5 C 53.7811,367.449 68.7811,382.782 84.5,397.5C 88.5271,402.194 92.8604,406.527 97.5,410.5C 86.5529,419.779 76.2195,429.779 66.5,440.5C 43.8063,418.473 21.473,396.14 -0.5,373.5C -0.5,370.5 -0.5,367.5 -0.5,364.5C 6.99567,357.172 14.6623,350.005 22.5,343C 24.8333,342.333 27.1667,342.333 29.5,343C 32.9997,345.669 36.333,348.502 39.5,351.5 Z"/></g>
<g><path style="opacity:1" fill="#343a3a" d="M 97.5,410.5 C 106.5,419.167 115.5,427.833 124.5,436.5C 126.795,439.297 129.295,441.964 132,444.5C 134,447.833 134,451.167 132,454.5C 126.199,461.302 120.032,467.802 113.5,474C 109.33,476.788 104.997,477.121 100.5,475C 88.9646,463.632 77.6313,452.132 66.5,440.5C 76.2195,429.779 86.5529,419.779 97.5,410.5 Z"/></g>
</svg>
