<?xml version="1.0" encoding="utf-8"?>
<!-- Generator: Adobe Illustrator 24.2.0, SVG Export Plug-In . SVG Version: 6.00 Build 0)  -->
<svg version="1.1" id="Layer_1" xmlns="http://www.w3.org/2000/svg" xmlns:xlink="http://www.w3.org/1999/xlink" x="0px" y="0px"
	 viewBox="0 0 246.71 261" style="enable-background:new 0 0 246.71 261;" xml:space="preserve">
<style type="text/css">
	.st0{fill-rule:evenodd;clip-rule:evenodd;fill:#6E5C9F;}
	.st1{fill-rule:evenodd;clip-rule:evenodd;fill:#2E2450;}
	.st2{fill-rule:evenodd;clip-rule:evenodd;fill:#E1A240;}
	.st3{fill-rule:evenodd;clip-rule:evenodd;fill:#EEC554;}
	.st4{fill-rule:evenodd;clip-rule:evenodd;fill:#D47A3E;}
	.st5{fill-rule:evenodd;clip-rule:evenodd;fill:#F3E6D9;}
	.st6{fill-rule:evenodd;clip-rule:evenodd;fill:#606060;}
	.st7{fill-rule:evenodd;clip-rule:evenodd;fill:#FFFFFF;}
</style>
<g>
	<path class="st0" d="M39.23,213.16c0,1-0.81,1.81-1.82,1.81c-1,0-1.81-0.81-1.81-1.81V74.99c0-11.33,4.63-21.63,12.1-29.09
		c7.47-7.46,17.76-12.1,29.09-12.1c11.33,0,21.62,4.63,29.09,12.1c7.46,7.46,12.1,17.76,12.1,29.09v138.16c0,1-0.81,1.81-1.82,1.81
		c-1,0-1.81-0.81-1.81-1.81V74.99c0-10.33-4.23-19.72-11.04-26.53c-6.81-6.81-16.2-11.04-26.52-11.04
		c-10.33,0-19.72,4.23-26.53,11.04c-6.81,6.81-11.03,16.2-11.03,26.53V213.16z"/>
	<path class="st1" d="M42.39,216.67h141.57c1.7,0,3.09,1.39,3.09,3.09l0,0c0,1.7-1.39,3.09-3.09,3.09H42.39
		c-1.7,0-3.09-1.39-3.09-3.09l0,0C39.3,218.06,40.69,216.67,42.39,216.67z"/>
	<g>
		<path class="st2" d="M76.55,143.06h101.91c1.86,0,3.38,1.52,3.38,3.38v63.35c0,1.86-1.52,3.37-3.38,3.37H76.55
			c-1.86,0-3.38-1.52-3.38-3.37v-63.35C73.17,144.58,74.69,143.06,76.55,143.06z"/>
		<path class="st3" d="M43.89,143.06h41.39c2.17,0,3.94,1.77,3.94,3.94v62.22c0,2.17-1.77,3.94-3.94,3.94H43.89
			c-2.17,0-3.94-1.77-3.94-3.94V147C39.95,144.83,41.72,143.06,43.89,143.06z"/>
		<path class="st3" d="M125.11,165.72h25.9c2.32,0,4.22,1.9,4.22,4.22v10.7c0,2.32-1.9,4.22-4.22,4.22h-25.9
			c-2.32,0-4.22-1.9-4.22-4.22v-10.7C120.89,167.62,122.79,165.72,125.11,165.72z"/>
		<rect x="92.45" y="143.06" class="st3" width="5.91" height="70.1"/>
		<rect x="103.01" y="143.06" class="st3" width="5.91" height="70.1"/>
		<rect x="161.15" y="143.06" class="st3" width="5.91" height="70.1"/>
		<rect x="171.7" y="143.06" class="st3" width="5.91" height="70.1"/>
		<path class="st2" d="M53.43,167.05h22.3c2,0,3.64,1.64,3.64,3.64v9.21c0,2-1.64,3.63-3.64,3.63h-22.3c-2,0-3.63-1.64-3.63-3.63
			v-9.21C49.8,168.68,51.43,167.05,53.43,167.05z"/>
		<g>
			<path class="st4" d="M87.74,143.06h62.54c1.14,0,2.07-0.93,2.07-2.07v-38.88c0-1.14-0.93-2.07-2.07-2.07H87.74
				c-1.14,0-2.07,0.93-2.07,2.07v38.88C85.67,142.13,86.6,143.06,87.74,143.06z"/>
			<path class="st2" d="M67.7,143.06h25.4c1.33,0,2.42-1.09,2.42-2.42v-38.18c0-1.33-1.09-2.42-2.42-2.42H67.7
				c-1.33,0-2.42,1.09-2.42,2.42v38.18C65.28,141.97,66.37,143.06,67.7,143.06z"/>
			<rect x="116.52" y="100.04" class="st5" width="13.19" height="18.31"/>
		</g>
	</g>
	<path class="st0" d="M36.84,213.15H109c1.7,0,3.09,1.39,3.09,3.09v0c0,1.7-1.39,3.09-3.09,3.09H36.84c-1.7,0-3.09-1.39-3.09-3.09v0
		C33.76,214.54,35.14,213.15,36.84,213.15z"/>
	<path class="st1" d="M100.32,213.15h87.69c1.7,0,3.09,1.39,3.09,3.09v0c0,1.7-1.39,3.09-3.09,3.09h-87.69
		c-1.7,0-3.09-1.39-3.09-3.09v0C97.23,214.54,98.61,213.15,100.32,213.15z"/>
	<path class="st1" d="M46.91,232.24c2.88,0,5.22-2.35,5.22-5.23c0-2.87-2.35-5.22-5.22-5.22c-2.88,0-5.22,2.35-5.22,5.22
		C41.68,229.89,44.03,232.24,46.91,232.24z"/>
	<path class="st1" d="M88.7,232.24c2.88,0,5.22-2.35,5.22-5.23c0-2.87-2.35-5.22-5.22-5.22s-5.22,2.35-5.22,5.22
		C83.47,229.89,85.82,232.24,88.7,232.24z"/>
	<path class="st1" d="M135.81,232.24c2.88,0,5.22-2.35,5.22-5.23c0-2.87-2.34-5.22-5.22-5.22c-2.88,0-5.22,2.35-5.22,5.22
		C130.59,229.89,132.94,232.24,135.81,232.24z"/>
	<path class="st1" d="M177.6,232.24c2.88,0,5.22-2.35,5.22-5.23c0-2.87-2.34-5.22-5.22-5.22c-2.88,0-5.22,2.35-5.22,5.22
		C172.38,229.89,174.73,232.24,177.6,232.24z"/>
	<path class="st6" d="M202.24,26.1h-57.7c-4.19,0-7.62,3.43-7.62,7.62v31.42v2.32v20c0,0.35,0.2,0.65,0.53,0.79
		c0.32,0.13,0.68,0.06,0.93-0.18l12.98-12.99h50.88c4.19,0,7.62-3.43,7.62-7.62V33.72C209.86,29.53,206.43,26.1,202.24,26.1z"/>
	<path class="st7" d="M166.23,54.86c-1.28-1.28-1.28-3.37,0-4.65c1.29-1.28,3.37-1.28,4.65,0l2.69,2.69l7.31-9.96
		c1.07-1.46,3.13-1.78,4.59-0.71c1.46,1.07,1.78,3.13,0.71,4.59l-9.44,12.88c-0.13,0.2-0.28,0.39-0.45,0.57
		c-1.28,1.28-3.37,1.28-4.65,0L166.23,54.86z"/>
</g>
</svg>
