<?xml version="1.0" encoding="utf-8"?>
<!-- Generator: Adobe Illustrator 25.0.1, SVG Export Plug-In . SVG Version: 6.00 Build 0)  -->
<svg version="1.1" id="Capa_1" xmlns="http://www.w3.org/2000/svg" xmlns:xlink="http://www.w3.org/1999/xlink" x="0px" y="0px"
	 viewBox="0 0 693 528" style="enable-background:new 0 0 693 528;" xml:space="preserve">
<style type="text/css">
	.st0{fill:#E1E1E1;}
	.st1{fill:#ECECEC;}
	.st2{fill:#E4A100;}
	.st3{fill:#375A64;}
	.st4{fill:#1A2E35;}
	.st5{fill:#FAFAFA;}
	.st6{opacity:0.3;}
	.st7{fill:#FFFFFF;}
	.st8{fill:#FF9A6C;}
	.st9{fill:#EB7446;}
	.st10{fill:#FF4F5B;}
	.st11{fill:#D29F02;}
	.st12{fill:#4A5157;}
</style>
<g>
	
		<rect x="145.9" y="124.5" transform="matrix(0.9945 -0.1047 0.1047 0.9945 -31.2697 32.5844)" class="st0" width="297.5" height="379.2"/>
</g>
<g>
	
		<rect x="165.4" y="138.1" transform="matrix(0.9889 -0.1484 0.1484 0.9889 -42.8839 49.9683)" class="st1" width="296.2" height="348.8"/>
</g>
<g>
	<g>
		<path class="st0" d="M549.3,149.2c0,0-11.6-7.7-25.7,20.1C509.5,197,504.1,213,504.1,213s-3.7,5.8-7.7,2
			c-4-3.8-9.5-14.6-16.2-12.6c-7,2-9.4,9.9-8,21.4c1.3,11.5,3.4,36.9,3.5,39.2c0.2,2.3-1.1,5.6-4.3,3.4s-21.2-22.2-30.2-13.1
			c-9,9.1,0,40.7,0.9,44.1c0.9,3.5,0.2,4.9-1.4,5.8c-1.6,0.9-7.1-6.5-12.4-12c-5.4-5.5-12.5-10.9-17.3-5.2s-6.3,29.4,16.2,67.8
			l11.6,17.1l20.7-1.2c44.2-5.2,62.2-20.6,63.9-27.9c1.7-7.2-7-9.7-14.6-10.7c-7.6-1-16.7-0.9-17-2.7c-0.3-1.8,0.5-3.3,3.8-4.6
			c3.3-1.4,33.9-13.1,35.8-25.8c1.9-12.7-25-15-28.6-16.2c-3.6-1.2-1.7-4.2,0.2-5.5c1.9-1.2,23.4-14.9,33.4-20.8
			c10-5.9,14.9-12.5,12.3-19.3c-2.5-6.6-14.4-4.5-19.9-5.4c-5.4-0.9-3-7.4-3-7.4s9.5-13.9,23.2-41.9c13.6-28,0.2-32.7,0.2-32.7"/>
	</g>
	<g>
		<g>
			<path class="st1" d="M536.6,174c0,0-0.1,0.2-0.3,0.6c-0.2,0.4-0.5,1-0.8,1.7c-0.7,1.5-1.8,3.8-3.2,6.6
				c-2.8,5.8-6.8,14.1-11.9,24.3c-10.1,20.5-24.3,48.7-40,79.9c-15.8,31.1-30,59.3-40.2,79.8c-5.1,10.2-9.2,18.5-12,24.2
				c-1.4,2.8-2.5,5.1-3.3,6.6c-0.4,0.7-0.7,1.3-0.9,1.7c-0.2,0.4-0.3,0.6-0.3,0.6s0.1-0.2,0.3-0.6c0.2-0.4,0.5-1,0.8-1.7
				c0.7-1.5,1.8-3.8,3.2-6.6c2.8-5.8,6.8-14.1,11.9-24.3c10.1-20.5,24.3-48.7,40-79.9c15.8-31.1,30-59.3,40.2-79.8
				c5.1-10.2,9.2-18.5,12-24.2c1.4-2.8,2.5-5.1,3.3-6.6c0.4-0.7,0.7-1.3,0.9-1.7C536.5,174.2,536.6,174,536.6,174z"/>
		</g>
	</g>
	<g>
		<g>
			<path class="st1" d="M487.2,217.7c0,0,0.2,0.5,0.5,1.4c0.3,0.9,0.7,2.2,1.2,3.9c0.9,3.3,2.1,7.9,3.3,13c1.2,5,2.2,9.6,3,13.1
				c0.4,1.6,0.7,2.9,0.9,4c0.2,0.9,0.3,1.5,0.3,1.5c0,0-0.2-0.5-0.5-1.4c-0.3-0.9-0.7-2.2-1.1-3.9c-0.9-3.3-2-7.9-3.2-13
				c-1.2-5-2.3-9.6-3.1-13c-0.4-1.6-0.7-2.9-1-3.9C487.2,218.3,487.1,217.7,487.2,217.7z"/>
		</g>
	</g>
	<g>
		<g>
			<path class="st1" d="M498.4,254.9c0-0.2,9.3-3,20.9-6.4c11.6-3.3,21.1-5.9,21.1-5.7c0,0.2-9.3,3-20.9,6.4
				C507.9,252.5,498.4,255.1,498.4,254.9z"/>
		</g>
	</g>
	<g>
		<g>
			<path class="st1" d="M472,301.6c0,0,0.5-0.1,1.5-0.1c1.1,0,2.5,0,4.2,0c3.5,0,8.3,0,13.7-0.2c5.3-0.2,10.2-0.5,13.7-0.8
				c1.6-0.1,3-0.2,4.1-0.3c1-0.1,1.5-0.1,1.5,0c0,0-0.5,0.1-1.5,0.3c-1,0.1-2.4,0.3-4.1,0.5c-3.5,0.4-8.3,0.8-13.7,1
				c-5.4,0.2-10.2,0.1-13.7,0c-1.8-0.1-3.2-0.1-4.2-0.2C472.5,301.7,472,301.7,472,301.6z"/>
		</g>
	</g>
	<g>
		<g>
			<path class="st1" d="M454.5,270.2c0,0,0.3,0.4,0.8,1.2c0.5,0.9,1.2,2,2,3.3c1.7,2.8,3,7.6,6.4,10.9c2.5,4.3,4.7,8.2,6.2,11
				c0.7,1.3,1.3,2.5,1.8,3.4c0.4,0.8,0.6,1.3,0.6,1.3c0,0-0.3-0.4-0.8-1.2c-0.5-0.9-1.2-2-2-3.3c-1.7-2.8-3.9-6.6-6.4-10.9
				c-2.5-4.3-4.7-8.2-6.2-11c-0.7-1.3-1.3-2.5-1.8-3.4C454.7,270.7,454.4,270.2,454.5,270.2z"/>
		</g>
	</g>
	<g>
		<g>
			<path class="st1" d="M426,308.5c0,0,0.4,0.5,1,1.5c0.7,1.1,1.5,2.5,2.6,4.2c2.2,3.6,5.1,8.5,8.3,13.9c3.2,5.5,6.1,10.4,8.1,14
				c1,1.7,1.8,3.2,2.4,4.3c0.6,1,0.8,1.6,0.8,1.6c0,0-0.4-0.5-1-1.5c-0.7-1.1-1.5-2.5-2.6-4.2c-2.2-3.6-5.1-8.5-8.3-13.9
				c-3.2-5.5-6.1-10.4-8.1-14c-1-1.7-1.8-3.2-2.4-4.3C426.2,309.1,425.9,308.5,426,308.5z"/>
		</g>
	</g>
	<g>
		<g>
			<path class="st1" d="M448.9,347c0,0,0.7-0.1,1.9-0.1c1.4,0,3.1-0.1,5.3-0.2c4.4-0.1,10.6-0.4,17.3-0.8c6.8-0.4,12.9-1,17.3-1.4
				c2.1-0.2,3.9-0.4,5.2-0.5c1.2-0.1,1.9-0.2,1.9-0.1c0,0-0.7,0.2-1.9,0.4c-1.2,0.2-3,0.4-5.2,0.7c-4.4,0.5-10.5,1.2-17.3,1.6
				c-6.8,0.4-12.9,0.6-17.4,0.6c-2.2,0-4,0-5.3,0C449.6,347,448.9,347,448.9,347z"/>
		</g>
	</g>
</g>
<g>
	<g>
		<path class="st2" d="M105.3,338.3c4-2.2,9-2.3,13.3-0.9c4.4,1.4,8.2,4.2,11.5,7.3c6.4,6.2,10.4,15.6,12.7,24.1
			c-9.7,1.9-19.6-3.6-24.5-6.7C110.5,357.2,99.5,343.6,105.3,338.3"/>
	</g>
	<g>
		<path class="st2" d="M159.5,371c-4.7-2.1-7.7-7.1-8.1-12.2c-0.4-5.1,1.7-10.2,5.2-14c1.6-1.8,3.7-3.4,6-3.2
			c2.2,0.1,4.1,1.8,5.1,3.8c0.9,2,1,4.3,0.8,6.5C167.8,359.3,165.7,366.5,159.5,371"/>
	</g>
	<g>
		<g>
			<path class="st2" d="M175.1,395c0,0-0.5-0.4-1.3-1.3c-0.9-1-2-2.2-3.3-3.7c-2.7-3.1-6.7-7.5-9.3-13.5c-2.6-5.9-3.2-12-2.6-16.2
				c0.3-2.1,0.8-3.8,1.2-4.9c0.2-0.6,0.4-1,0.5-1.2c0.1-0.3,0.2-0.4,0.2-0.4c0.1,0-1.1,2.4-1.5,6.6c-0.5,4.1,0.2,10,2.7,15.9
				c2.5,5.9,6.4,10.3,9.1,13.5c1.4,1.6,2.4,2.9,3.2,3.8C174.8,394.4,175.2,394.9,175.1,395z"/>
		</g>
	</g>
	<g>
		<g>
			<path class="st2" d="M114.5,348c0,0,0.2,0.1,0.7,0.4c0.5,0.3,1.1,0.8,1.9,1.3c1.6,1.1,4,2.8,6.8,4.8c5.7,4.1,13.6,9.9,22.1,16.5
				c8.5,6.6,16.1,12.8,21.5,17.3c2.7,2.3,4.9,4.1,6.4,5.4c0.7,0.6,1.3,1.1,1.7,1.5c0.4,0.3,0.6,0.5,0.6,0.6c0,0-0.2-0.1-0.6-0.5
				c-0.5-0.4-1.1-0.8-1.8-1.4c-1.6-1.3-3.8-3.1-6.5-5.3c-5.5-4.4-13.1-10.5-21.6-17.2c-8.5-6.6-16.3-12.5-22-16.7
				c-2.8-2.1-5.1-3.8-6.7-5c-0.7-0.6-1.3-1-1.8-1.4C114.7,348.2,114.5,348,114.5,348z"/>
		</g>
	</g>
	<g>
		<path class="st2" d="M155.9,384.4c-9.5-5.2-21.5-5.3-31.1-0.5c-2.5,1.2-5,3.3-4.8,6.1c0.2,2.7,3.1,4.4,5.8,5.2
			c11,3.2,23.8-1,30.7-10.2"/>
	</g>
	<g>
		<g>
			<path class="st2" d="M132.2,388.1c0,0,0.5-0.3,1.5-0.8c0.5-0.3,1.1-0.6,1.8-0.8c0.7-0.3,1.5-0.7,2.5-0.9c0.9-0.3,2-0.6,3.1-0.9
				c1.1-0.3,2.4-0.5,3.7-0.7c2.6-0.3,5.5-0.4,8.5,0c3,0.4,5.8,1.1,8.3,2c1.2,0.5,2.4,1,3.4,1.5c1.1,0.5,2,1.1,2.8,1.6
				c0.9,0.5,1.5,1.1,2.2,1.5c0.6,0.5,1.2,0.9,1.6,1.3c0.8,0.7,1.3,1.2,1.2,1.2c-0.1,0.1-1.9-1.6-5.2-3.6c-0.8-0.5-1.8-1-2.8-1.5
				c-1-0.5-2.2-1-3.4-1.4c-2.4-0.9-5.2-1.6-8.2-1.9c-3-0.3-5.8-0.3-8.4,0c-1.3,0.2-2.5,0.3-3.6,0.6c-1.1,0.2-2.2,0.5-3.1,0.8
				C134.4,387,132.2,388.2,132.2,388.1z"/>
		</g>
	</g>
</g>
<g>
	<g>
		<g>
			<path class="st3" d="M454.4,429.5c-8-5.2-10.9-11.8-12.2-21.3c-1.3-9.5,1.8-19.5,8.3-26.5c5.4-5.9,12.9-9.9,16.8-16.9
				c4.1-7.4,3.6-17.3,9.5-23.4c4.1-4.2,10.2-5.5,15.2-8.5c4.1-2.4,7.4-6,11.1-8.9c3.7-3,8.2-5.5,12.9-5.3c7.2,0.3,13,7.1,13.6,14.2
				c0.6,7.2-3.1,14.2-8.4,19c-3.8,3.5-8.6,6.3-11.1,10.9c-4.6,8.7,1,20.2-3.9,28.7c-3.6,6.2-12.2,9.4-13.1,16.5
				c-0.3,2.6,0.5,5.2,0.6,7.8c0.3,8.2-7.2,15.1-15.2,16.9C470.5,434.5,462.2,432.3,454.4,429.5"/>
		</g>
		<g>
			<g>
				<path class="st4" d="M501.7,348c0,0-0.3,0.4-0.8,1c-0.6,0.7-1.4,1.5-2.4,2.6c-1.1,1.1-2.4,2.5-3.8,4.2c-1.4,1.7-3.2,3.5-4.8,5.7
					c-1.7,2.2-3.7,4.5-5.5,7.2c-0.9,1.3-2,2.6-2.9,4.1c-1,1.4-1.9,2.9-2.9,4.5c-3.9,6.2-7.8,13.2-11.1,21
					c-3.3,7.8-5.8,15.4-7.5,22.5c-0.8,3.6-1.6,6.9-2.1,10.2c-0.6,3.2-0.9,6.2-1.2,9c-0.4,2.7-0.4,5.2-0.6,7.4
					c-0.2,2.2-0.2,4.1-0.2,5.6c0,1.5-0.1,2.6-0.1,3.6c0,0.8-0.1,1.2-0.1,1.2c0,0-0.1-0.4-0.1-1.2c0-0.9-0.1-2.1-0.1-3.6
					c0-1.6-0.1-3.5,0-5.7c0.1-2.2,0.1-4.7,0.4-7.5c0.3-2.8,0.5-5.8,1.1-9c0.4-3.2,1.2-6.7,2-10.2c1.7-7.1,4.2-14.9,7.5-22.7
					c3.4-7.8,7.3-14.9,11.3-21.1c1-1.5,2-3,3-4.5c1-1.5,2-2.8,3-4.1c1.9-2.7,3.9-5,5.6-7.1c1.7-2.2,3.5-4,5-5.6
					c1.5-1.7,2.8-3,3.9-4.1c1.1-1,1.9-1.8,2.6-2.5C501.3,348.3,501.6,348,501.7,348z"/>
			</g>
		</g>
	</g>
</g>
<g>
	<g>
		<rect x="163.3" y="139.7" class="st5" width="296.2" height="348.8"/>
	</g>
	<g>
		<g>
			<path class="st4" d="M461.6,487.1c0-2.3-0.1-141-0.3-348.8l0.3,0.3c-87.5,0-188.8,0-296.2,0h0l0.3-0.3c0,128.8,0,248.7,0,348.8
				l-0.3-0.3C343.8,487,459.5,487.1,461.6,487.1c-2.1,0-117.8,0.1-296.2,0.3l-0.3,0v-0.3c0-100,0-220,0-348.8l0-0.3h0.3h0
				c107.4,0,208.7,0,296.2,0h0.3l0,0.3C461.7,346.2,461.6,484.8,461.6,487.1z"/>
		</g>
	</g>
</g>
<g>
	<path d="M330.2,195.4h-5.8l-1.2,2.8h-1.1l4.7-10.4h1.1l4.7,10.4h-1.2L330.2,195.4z M329.8,194.5l-2.5-5.6l-2.5,5.6H329.8z"/>
	<path d="M341.2,187.1v11h-1v-1.5c-0.6,1.1-1.7,1.6-3,1.6c-2.2,0-3.9-1.6-3.9-4c0-2.4,1.7-4,3.9-4c1.2,0,2.3,0.5,3,1.5v-4.7H341.2z
		 M340.1,194.2c0-1.8-1.2-3-2.9-3c-1.7,0-2.9,1.2-2.9,3c0,1.8,1.2,3,2.9,3C338.9,197.3,340.1,196.1,340.1,194.2z"/>
	<path d="M351.2,187.1v11h-1v-1.5c-0.6,1.1-1.7,1.6-3,1.6c-2.2,0-3.9-1.6-3.9-4c0-2.4,1.7-4,3.9-4c1.2,0,2.3,0.5,3,1.5v-4.7H351.2z
		 M350.2,194.2c0-1.8-1.2-3-2.9-3c-1.7,0-2.9,1.2-2.9,3c0,1.8,1.2,3,2.9,3C348.9,197.3,350.2,196.1,350.2,194.2z"/>
	<path d="M365,190.3v7.8h-1v-1.4c-0.5,0.9-1.6,1.5-2.8,1.5c-2,0-3.3-1.1-3.3-3.3v-4.5h1.1v4.4c0,1.7,0.9,2.5,2.3,2.5
		c1.6,0,2.6-1.1,2.6-2.8v-4.1H365z"/>
	<path d="M366.9,197.2l0.5-0.8c0.6,0.5,1.7,0.9,2.8,0.9c1.5,0,2.1-0.5,2.1-1.3c0-2-5-0.4-5-3.5c0-1.3,1.1-2.2,3.1-2.2
		c1,0,2.1,0.3,2.8,0.7l-0.5,0.8c-0.7-0.5-1.5-0.7-2.3-0.7c-1.4,0-2,0.5-2,1.3c0,2.1,5,0.5,5,3.5c0,1.3-1.2,2.2-3.2,2.2
		C368.8,198.2,367.5,197.8,366.9,197.2z"/>
	<path d="M382,194.6h-6.5c0.1,1.6,1.4,2.7,3.1,2.7c0.9,0,1.8-0.3,2.4-1l0.6,0.7c-0.7,0.8-1.8,1.3-3,1.3c-2.4,0-4.1-1.7-4.1-4
		c0-2.3,1.6-4,3.8-4c2.2,0,3.8,1.6,3.8,4C382,194.3,382,194.4,382,194.6z M375.5,193.8h5.5c-0.1-1.5-1.2-2.6-2.8-2.6
		C376.7,191.2,375.6,192.2,375.5,193.8z"/>
	<path d="M388.1,190.3v1c-0.1,0-0.2,0-0.3,0c-1.6,0-2.6,1-2.6,2.9v4h-1.1v-7.8h1v1.5C385.6,190.8,386.6,190.3,388.1,190.3z"/>
</g>
<g>
	<g>
		<path class="st4" d="M308.7,299.5c0,0,0-0.2,0-0.6c0-0.4,0-1.1,0-1.9c0-1.7,0-4.1,0-7.2c0-6.3-0.1-15.4-0.1-26.8l0.2,0.2
			c-27.5,0-69.4,0.1-116.2,0.1h0l0.3-0.3c0,12.7,0,25,0,36.5l-0.3-0.3c33.4,0.1,62.4,0.1,83.1,0.1c10.4,0,18.6,0.1,24.3,0.1
			c2.8,0,5,0,6.5,0c0.7,0,1.3,0,1.7,0C308.5,299.5,308.7,299.5,308.7,299.5s-0.2,0-0.6,0c-0.4,0-0.9,0-1.7,0c-1.5,0-3.7,0-6.5,0
			c-5.7,0-13.9,0-24.3,0.1c-20.7,0-49.8,0.1-83.3,0.1l-0.3,0l0-0.3c0-11.6,0-23.9,0-36.5l0-0.3h0.3h0c46.8,0,88.7,0.1,116.2,0.1
			l0.2,0l0,0.2c0,11.5-0.1,20.7-0.1,26.9c0,3.1,0,5.5,0,7.1c0,0.8,0,1.4,0,1.8C308.7,299.3,308.7,299.5,308.7,299.5z"/>
	</g>
</g>
<g>
	<g>
		<path class="st4" d="M437.3,349c0,0,0-0.8,0-2.4c0-1.6,0-3.9,0-7c0-6.2,0-15.3-0.1-27.1l0.1,0.1c-47,0-139.1,0.1-244.9,0.2h0
			l0.3-0.3c0,12.5,0,24.8,0,36.5l-0.3-0.3c69.1,0.1,130.3,0.1,174.2,0.1c22,0,39.6,0.1,51.8,0.1c6.1,0,10.8,0,14,0
			c1.6,0,2.8,0,3.6,0C436.9,349,437.3,349,437.3,349s-0.4,0-1.2,0c-0.8,0-2,0-3.6,0c-3.2,0-7.9,0-13.9,0c-12.2,0-29.8,0.1-51.7,0.1
			c-44,0-105.2,0.1-174.5,0.1l-0.3,0l0-0.3c0-11.7,0-24,0-36.5v-0.3h0.3h0c105.8,0.1,197.9,0.1,244.9,0.2l0.1,0l0,0.1
			c0,11.8-0.1,21-0.1,27.2c0,3.1,0,5.4,0,7C437.4,348.2,437.3,349,437.3,349z"/>
	</g>
</g>
<g>
	<g>
		<path class="st4" d="M437.3,398.1c0,0,0-0.8,0-2.4c0-1.6,0-3.9,0-7c0-6.2,0-15.3-0.1-27.1l0.1,0.1c-47,0-139.1,0.1-244.9,0.2h0
			l0.3-0.3c0,12.5,0,24.8,0,36.5l-0.3-0.3c69.1,0.1,130.3,0.1,174.2,0.1c22,0,39.6,0.1,51.8,0.1c6.1,0,10.8,0,14,0
			c1.6,0,2.8,0,3.6,0C436.9,398.1,437.3,398.1,437.3,398.1s-0.4,0-1.2,0c-0.8,0-2,0-3.6,0c-3.2,0-7.9,0-13.9,0
			c-12.2,0-29.8,0.1-51.7,0.1c-44,0-105.2,0.1-174.5,0.1l-0.3,0l0-0.3c0-11.7,0-24,0-36.5v-0.3h0.3h0c105.8,0.1,197.9,0.1,244.9,0.2
			h0.1l0,0.1c0,11.8-0.1,21-0.1,27.2c0,3.1,0,5.4,0,7C437.4,397.3,437.3,398.1,437.3,398.1z"/>
	</g>
</g>
<g>
	<g>
		<path class="st4" d="M437.3,299.5c0,0,0-0.2,0-0.6c0-0.4,0-1.1,0-1.9c0-1.7,0-4.1,0-7.2c0-6.3-0.1-15.4-0.1-26.8l0.2,0.2
			c-27.5,0-69.4,0.1-116.2,0.1h0l0.3-0.3c0,12.7,0,25,0,36.5l-0.3-0.3c33.4,0.1,62.4,0.1,83.1,0.1c10.4,0,18.6,0.1,24.3,0.1
			c2.8,0,5,0,6.5,0c0.7,0,1.3,0,1.7,0C437.1,299.5,437.3,299.5,437.3,299.5s-0.2,0-0.6,0c-0.4,0-0.9,0-1.7,0c-1.5,0-3.7,0-6.5,0
			c-5.7,0-13.9,0-24.3,0.1c-20.7,0-49.8,0.1-83.3,0.1l-0.3,0l0-0.3c0-11.6,0-23.9,0-36.5v-0.3h0.3h0c46.8,0,88.7,0.1,116.2,0.1
			l0.2,0l0,0.2c0,11.5-0.1,20.7-0.1,26.9c0,3.1,0,5.5,0,7.1c0,0.8,0,1.4,0,1.8C437.4,299.3,437.3,299.5,437.3,299.5z"/>
	</g>
</g>
<g>
	<g>
		<g>
			<g>
				<g>
					<path class="st2" d="M216.8,286.5c0,0-0.3,0-0.9,0.1c-0.7,0-1.6,0.1-2.6,0.1c-2.3,0.1-5.6,0.2-9.5,0.2l-0.4,0l0.1-0.3
						c0.3-1.1,0.9-2.2,1.8-3.1c0.9-0.9,2.2-1.4,3.5-1.7l-0.1,0.6c-1.5-0.6-2.5-2.1-2.6-3.7c-0.2-1.8,0.9-3.7,2.5-4.4
						c1.6-0.8,3.6-0.2,4.6,1c1.1,1.2,1.3,2.9,1,4.2c-0.4,1.4-1.3,2.4-2.4,2.9l-0.1-0.4c1.1,0.2,2.1,0.6,2.8,1.1
						c0.7,0.5,1.2,1.2,1.5,1.7C216.7,285.8,216.8,286.6,216.8,286.5c0,0-0.1-0.2-0.2-0.4c-0.1-0.3-0.3-0.7-0.7-1.2
						c-0.6-1-2.1-2.3-4.2-2.6l-0.8-0.1l0.7-0.3c1-0.4,1.8-1.4,2.1-2.6c0.3-1.2,0-2.7-0.9-3.7c-0.9-1.1-2.6-1.5-3.9-0.8
						c-1.4,0.6-2.3,2.2-2.1,3.8c0.1,1.4,1,2.7,2.3,3.2l1,0.4l-1,0.2c-1.2,0.2-2.4,0.7-3.2,1.5c-0.9,0.8-1.4,1.8-1.7,2.8l-0.3-0.3
						c3.8,0,7,0,9.4,0.1c1.1,0,2,0,2.7,0C216.4,286.5,216.8,286.5,216.8,286.5z"/>
				</g>
			</g>
		</g>
	</g>
</g>
<g>
	<g>
		<g>
			<g>
				<g>
					<path class="st2" d="M353.1,286.5c0,0-0.3,0-0.9,0.1c-0.7,0-1.6,0.1-2.6,0.1c-2.3,0.1-5.6,0.2-9.5,0.2l-0.4,0l0.1-0.3
						c0.3-1.1,0.9-2.2,1.8-3.1c0.9-0.9,2.2-1.4,3.5-1.7l-0.1,0.6c-1.5-0.6-2.5-2.1-2.6-3.7c-0.2-1.8,0.9-3.7,2.5-4.4
						c1.6-0.8,3.6-0.2,4.6,1c1.1,1.2,1.3,2.9,1,4.2c-0.4,1.4-1.3,2.4-2.4,2.9l-0.1-0.4c1.1,0.2,2.1,0.6,2.8,1.1
						c0.7,0.5,1.2,1.2,1.5,1.7C353,285.8,353.1,286.6,353.1,286.5c0,0-0.1-0.2-0.2-0.4c-0.1-0.3-0.3-0.7-0.7-1.2
						c-0.6-1-2.1-2.3-4.2-2.6l-0.8-0.1l0.7-0.3c1-0.4,1.8-1.4,2.1-2.6c0.3-1.2,0-2.7-0.9-3.7c-0.9-1.1-2.6-1.5-3.9-0.8
						c-1.4,0.6-2.3,2.2-2.1,3.8c0.1,1.4,1,2.7,2.3,3.2l1,0.4l-1,0.2c-1.2,0.2-2.4,0.7-3.2,1.5c-0.9,0.8-1.4,1.8-1.7,2.8l-0.3-0.3
						c3.8,0,7,0,9.4,0.1c1.1,0,2,0,2.7,0C352.7,286.5,353,286.5,353.1,286.5z"/>
				</g>
			</g>
		</g>
	</g>
</g>
<g>
	<path class="st4" d="M230.4,278.5v3.1h4v0.7h-4v3.3h-0.8v-7.8h5.4v0.7H230.4z"/>
	<path class="st4" d="M236.2,277.8c0-0.3,0.3-0.6,0.6-0.6c0.3,0,0.6,0.2,0.6,0.5c0,0.3-0.2,0.6-0.6,0.6
		C236.4,278.4,236.2,278.1,236.2,277.8z M236.4,279.7h0.8v5.9h-0.8V279.7z"/>
	<path class="st4" d="M242.3,279.6v0.8c-0.1,0-0.1,0-0.2,0c-1.2,0-2,0.8-2,2.2v3h-0.8v-5.9h0.8v1.2
		C240.5,280.1,241.3,279.6,242.3,279.6z"/>
	<path class="st4" d="M243,284.9l0.4-0.6c0.5,0.4,1.3,0.7,2.1,0.7c1.1,0,1.6-0.4,1.6-1c0-1.5-3.8-0.3-3.8-2.6c0-1,0.8-1.7,2.3-1.7
		c0.8,0,1.6,0.2,2.1,0.5l-0.3,0.6c-0.5-0.4-1.1-0.5-1.7-0.5c-1.1,0-1.5,0.4-1.5,1c0,1.6,3.8,0.4,3.8,2.6c0,1-0.9,1.7-2.4,1.7
		C244.4,285.6,243.5,285.3,243,284.9z"/>
	<path class="st4" d="M252.4,285.2c-0.3,0.3-0.8,0.4-1.2,0.4c-1.1,0-1.7-0.6-1.7-1.7v-3.6h-1.1v-0.7h1.1v-1.3h0.8v1.3h1.8v0.7h-1.8
		v3.5c0,0.7,0.4,1.1,1,1.1c0.3,0,0.6-0.1,0.9-0.3L252.4,285.2z"/>
	<path class="st4" d="M262.1,282.2v3.4h-0.8v-3.3c0-1.2-0.6-1.9-1.8-1.9c-1.3,0-2.1,0.8-2.1,2.1v3.1h-0.8v-5.9h0.8v1.1
		c0.4-0.7,1.2-1.1,2.2-1.1C261.2,279.6,262.1,280.5,262.1,282.2z"/>
	<path class="st4" d="M268.7,281.9v3.6H268v-0.9c-0.4,0.6-1.1,1-2,1c-1.3,0-2.1-0.7-2.1-1.7c0-0.9,0.6-1.7,2.3-1.7h1.9v-0.4
		c0-1-0.6-1.6-1.7-1.6c-0.8,0-1.5,0.3-2,0.7l-0.4-0.6c0.6-0.5,1.5-0.8,2.4-0.8C267.9,279.6,268.7,280.4,268.7,281.9z M267.9,283.8
		v-1h-1.8c-1.1,0-1.5,0.4-1.5,1.1c0,0.7,0.5,1.1,1.5,1.1C267,285,267.6,284.6,267.9,283.8z"/>
	<path class="st4" d="M280.6,282.2v3.4h-0.8v-3.3c0-1.2-0.6-1.9-1.7-1.9c-1.2,0-2,0.8-2,2.1v3.1h-0.8v-3.3c0-1.2-0.6-1.9-1.7-1.9
		c-1.2,0-2,0.8-2,2.1v3.1h-0.8v-5.9h0.8v1.1c0.4-0.7,1.2-1.1,2.2-1.1c1,0,1.7,0.4,2.1,1.2c0.4-0.8,1.3-1.2,2.3-1.2
		C279.6,279.6,280.6,280.5,280.6,282.2z"/>
	<path class="st4" d="M287.9,282.9h-4.9c0.1,1.2,1,2,2.3,2c0.7,0,1.4-0.3,1.8-0.8l0.4,0.5c-0.5,0.6-1.3,1-2.3,1
		c-1.8,0-3.1-1.3-3.1-3c0-1.7,1.2-3,2.9-3c1.7,0,2.8,1.2,2.8,3C287.9,282.7,287.9,282.8,287.9,282.9z M282.9,282.3h4.2
		c-0.1-1.2-0.9-2-2.1-2C283.9,280.3,283,281.1,282.9,282.3z"/>
</g>
<g>
	<path class="st4" d="M236.2,336v0.7h-5.5v-7.8h5.4v0.7h-4.5v2.8h4v0.7h-4v2.9H236.2z"/>
	<path class="st4" d="M247.7,333.3v3.4h-0.8v-3.3c0-1.2-0.6-1.9-1.7-1.9c-1.2,0-2,0.8-2,2.1v3.1h-0.8v-3.3c0-1.2-0.6-1.9-1.7-1.9
		c-1.2,0-2,0.8-2,2.1v3.1H238v-5.9h0.8v1.1c0.4-0.7,1.2-1.1,2.2-1.1c1,0,1.7,0.4,2.1,1.2c0.4-0.8,1.3-1.2,2.3-1.2
		C246.8,330.8,247.7,331.6,247.7,333.3z"/>
	<path class="st4" d="M254.3,333.1v3.6h-0.8v-0.9c-0.4,0.6-1.1,1-2,1c-1.3,0-2.1-0.7-2.1-1.7c0-0.9,0.6-1.7,2.3-1.7h1.9V333
		c0-1-0.6-1.6-1.7-1.6c-0.8,0-1.5,0.3-2,0.7l-0.4-0.6c0.6-0.5,1.5-0.8,2.4-0.8C253.4,330.8,254.3,331.6,254.3,333.1z M253.5,334.9
		v-1h-1.8c-1.1,0-1.5,0.4-1.5,1.1c0,0.7,0.5,1.1,1.5,1.1C252.5,336.1,253.2,335.7,253.5,334.9z"/>
	<path class="st4" d="M256.3,329c0-0.3,0.3-0.6,0.6-0.6c0.3,0,0.6,0.2,0.6,0.5c0,0.3-0.2,0.6-0.6,0.6
		C256.5,329.5,256.3,329.3,256.3,329z M256.4,330.8h0.8v5.9h-0.8V330.8z"/>
	<path class="st4" d="M259.4,328.4h0.8v8.3h-0.8V328.4z"/>
</g>
<g>
	<path class="st4" d="M233,380.5c0,1.7-1.2,2.7-3.2,2.7h-2.1v2.5h-0.8v-7.8h2.9C231.8,377.8,233,378.8,233,380.5z M232.1,380.5
		c0-1.3-0.8-2-2.4-2h-2.1v3.9h2.1C231.3,382.4,232.1,381.7,232.1,380.5z"/>
	<path class="st4" d="M239,382v3.6h-0.8v-0.9c-0.4,0.6-1.1,1-2,1c-1.3,0-2.1-0.7-2.1-1.7c0-0.9,0.6-1.7,2.3-1.7h1.9V382
		c0-1-0.6-1.6-1.7-1.6c-0.8,0-1.5,0.3-2,0.7l-0.4-0.6c0.6-0.5,1.5-0.8,2.4-0.8C238.1,379.7,239,380.5,239,382z M238.2,383.9v-1h-1.8
		c-1.1,0-1.5,0.4-1.5,1.1c0,0.7,0.5,1.1,1.5,1.1C237.2,385.1,237.9,384.6,238.2,383.9z"/>
	<path class="st4" d="M240.3,385l0.4-0.6c0.5,0.4,1.3,0.7,2.1,0.7c1.1,0,1.6-0.4,1.6-1c0-1.5-3.8-0.3-3.8-2.6c0-1,0.8-1.7,2.3-1.7
		c0.8,0,1.6,0.2,2.1,0.5l-0.3,0.6c-0.5-0.4-1.1-0.5-1.7-0.5c-1.1,0-1.5,0.4-1.5,1c0,1.6,3.8,0.4,3.8,2.6c0,1-0.9,1.7-2.4,1.7
		C241.7,385.7,240.8,385.4,240.3,385z"/>
	<path class="st4" d="M245.8,385l0.4-0.6c0.5,0.4,1.3,0.7,2.1,0.7c1.1,0,1.6-0.4,1.6-1c0-1.5-3.8-0.3-3.8-2.6c0-1,0.8-1.7,2.3-1.7
		c0.8,0,1.6,0.2,2.1,0.5l-0.3,0.6c-0.5-0.4-1.1-0.5-1.7-0.5c-1.1,0-1.5,0.4-1.5,1c0,1.6,3.8,0.4,3.8,2.6c0,1-0.9,1.7-2.4,1.7
		C247.2,385.7,246.2,385.4,245.8,385z"/>
	<path class="st4" d="M260.5,379.8l-2.2,5.9h-0.7l-1.9-4.8l-1.9,4.8h-0.7l-2.2-5.9h0.8l1.8,5l1.9-5h0.7l1.9,5l1.9-5H260.5z"/>
	<path class="st4" d="M261,382.7c0-1.7,1.3-3,3-3c1.7,0,3,1.2,3,3c0,1.7-1.3,3-3,3C262.3,385.7,261,384.4,261,382.7z M266.2,382.7
		c0-1.4-0.9-2.3-2.2-2.3c-1.3,0-2.2,0.9-2.2,2.3c0,1.4,0.9,2.3,2.2,2.3C265.2,385,266.2,384.1,266.2,382.7z"/>
	<path class="st4" d="M271.5,379.7v0.8c-0.1,0-0.1,0-0.2,0c-1.2,0-2,0.8-2,2.2v3h-0.8v-5.9h0.8v1.2
		C269.7,380.1,270.4,379.7,271.5,379.7z"/>
	<path class="st4" d="M278.3,377.3v8.3h-0.8v-1.2c-0.5,0.8-1.3,1.2-2.3,1.2c-1.7,0-2.9-1.2-2.9-3c0-1.8,1.3-3,2.9-3
		c0.9,0,1.7,0.4,2.2,1.2v-3.5H278.3z M277.5,382.7c0-1.4-0.9-2.3-2.2-2.3c-1.3,0-2.2,0.9-2.2,2.3c0,1.4,0.9,2.3,2.2,2.3
		C276.5,385,277.5,384.1,277.5,382.7z"/>
</g>
<g>
	<path class="st4" d="M361.7,278.8h0.8v7.1h4.4v0.7h-5.2V278.8z"/>
	<path class="st4" d="M372.6,283v3.6h-0.8v-0.9c-0.4,0.6-1.1,1-2,1c-1.3,0-2.1-0.7-2.1-1.7c0-0.9,0.6-1.7,2.3-1.7h1.9V283
		c0-1-0.6-1.6-1.7-1.6c-0.8,0-1.5,0.3-2,0.7l-0.4-0.6c0.6-0.5,1.5-0.8,2.4-0.8C371.7,280.7,372.6,281.5,372.6,283z M371.8,284.9v-1
		h-1.8c-1.1,0-1.5,0.4-1.5,1.1c0,0.7,0.5,1.1,1.5,1.1C370.8,286.1,371.5,285.7,371.8,284.9z"/>
	<path class="st4" d="M373.9,286l0.4-0.6c0.5,0.4,1.3,0.7,2.1,0.7c1.1,0,1.6-0.4,1.6-1c0-1.5-3.8-0.3-3.8-2.6c0-1,0.8-1.7,2.3-1.7
		c0.8,0,1.6,0.2,2.1,0.5l-0.3,0.6c-0.5-0.4-1.1-0.5-1.7-0.5c-1.1,0-1.5,0.4-1.5,1c0,1.6,3.8,0.4,3.8,2.6c0,1-0.9,1.7-2.4,1.7
		C375.3,286.7,374.4,286.4,373.9,286z"/>
	<path class="st4" d="M383.3,286.3c-0.3,0.3-0.8,0.4-1.2,0.4c-1.1,0-1.7-0.6-1.7-1.7v-3.6h-1.1v-0.7h1.1v-1.3h0.8v1.3h1.8v0.7h-1.8
		v3.5c0,0.7,0.4,1.1,1,1.1c0.3,0,0.6-0.1,0.9-0.3L383.3,286.3z"/>
	<path class="st4" d="M393.1,283.3v3.4h-0.8v-3.3c0-1.2-0.6-1.9-1.8-1.9c-1.3,0-2.1,0.8-2.1,2.1v3.1h-0.8v-5.9h0.8v1.1
		c0.4-0.7,1.2-1.1,2.2-1.1C392.1,280.7,393.1,281.6,393.1,283.3z"/>
	<path class="st4" d="M399.6,283v3.6h-0.8v-0.9c-0.4,0.6-1.1,1-2,1c-1.3,0-2.1-0.7-2.1-1.7c0-0.9,0.6-1.7,2.3-1.7h1.9V283
		c0-1-0.6-1.6-1.7-1.6c-0.8,0-1.5,0.3-2,0.7l-0.4-0.6c0.6-0.5,1.5-0.8,2.4-0.8C398.8,280.7,399.6,281.5,399.6,283z M398.8,284.9v-1
		H397c-1.1,0-1.5,0.4-1.5,1.1c0,0.7,0.5,1.1,1.5,1.1C397.9,286.1,398.5,285.7,398.8,284.9z"/>
	<path class="st4" d="M411.5,283.3v3.4h-0.8v-3.3c0-1.2-0.6-1.9-1.7-1.9c-1.2,0-2,0.8-2,2.1v3.1h-0.8v-3.3c0-1.2-0.6-1.9-1.7-1.9
		c-1.2,0-2,0.8-2,2.1v3.1h-0.8v-5.9h0.8v1.1c0.4-0.7,1.2-1.1,2.2-1.1c1,0,1.7,0.4,2.1,1.2c0.4-0.8,1.3-1.2,2.3-1.2
		C410.6,280.7,411.5,281.6,411.5,283.3z"/>
	<path class="st4" d="M418.8,284h-4.9c0.1,1.2,1,2,2.3,2c0.7,0,1.4-0.3,1.8-0.8l0.4,0.5c-0.5,0.6-1.3,1-2.3,1c-1.8,0-3.1-1.3-3.1-3
		c0-1.7,1.2-3,2.9-3c1.7,0,2.8,1.2,2.8,3C418.8,283.8,418.8,283.9,418.8,284z M413.9,283.4h4.2c-0.1-1.2-0.9-2-2.1-2
		C414.8,281.4,414,282.2,413.9,283.4z"/>
</g>
<g>
	<g>
		<path class="st2" d="M215.5,376.7l0-1.2c0-2.2-1.8-3.9-3.9-3.9c-2.2,0-3.9,1.8-3.9,3.9l0,1.2c-1.1,0.2-1.9,1.1-1.9,2.2v7
			c0,1.2,1,2.2,2.2,2.2h7.3c1.2,0,2.2-1,2.2-2.2v-7C217.4,377.7,216.6,376.8,215.5,376.7z M212.6,384.2h-1.9l0.3-1.4
			c-0.3-0.2-0.6-0.6-0.6-1c0-0.6,0.5-1.2,1.2-1.2c0.6,0,1.2,0.5,1.2,1.2c0,0.4-0.2,0.8-0.5,1C212.4,383.3,212.6,384.2,212.6,384.2z
			 M214.6,376.7h-6.1l0-1.2c0-1.7,1.4-3.1,3.1-3.1c1.7,0,3.1,1.4,3.1,3.1L214.6,376.7z"/>
	</g>
	<g>
		<g>
			<path class="st2" d="M214.6,376.7c0,0-0.1-0.3-0.1-0.7c0-0.4,0-1.1-0.4-1.8c-0.4-0.7-1.1-1.3-2.1-1.4c-1-0.2-2.1,0.3-2.7,1.3
				c-0.2,0.4-0.4,0.8-0.4,1.3c0,0.5,0,0.9,0,1.4l-0.3-0.3C211.9,376.5,214.5,376.6,214.6,376.7c0.1,0.1-2.4,0.2-6.1,0.3l-0.3,0
				l0-0.3c0-0.5,0-0.9,0-1.4c0-0.5,0.2-1.1,0.5-1.6c0.7-1.2,2.2-1.7,3.3-1.5c1.2,0.2,2,1,2.4,1.8c0.4,0.8,0.3,1.5,0.3,2
				C214.7,376.5,214.6,376.7,214.6,376.7z"/>
		</g>
	</g>
	<g>
		<g>
			<path class="st2" d="M212.6,384.2c0-0.1-0.3-0.6-0.5-1.4l0-0.1l0.1-0.1c0.3-0.2,0.5-0.8,0.2-1.2c-0.2-0.5-1-0.6-1.4-0.1
				c-0.4,0.4-0.3,1.1,0.2,1.3l0.2,0.1l0,0.2c-0.1,0.5-0.2,0.9-0.3,1.4l-0.2-0.3C211.7,384,212.5,384.1,212.6,384.2
				c0.1,0-0.6,0.2-1.9,0.2l-0.3,0l0.1-0.3c0.1-0.5,0.2-0.9,0.3-1.4l0.1,0.3c-0.7-0.4-1-1.5-0.3-2.2c0.3-0.4,0.8-0.5,1.3-0.4
				c0.5,0.1,0.8,0.4,1,0.7c0.4,0.8,0,1.6-0.5,1.8l0.1-0.2C212.6,383.7,212.6,384.2,212.6,384.2z"/>
		</g>
	</g>
	<g>
		<g>
			<path class="st2" d="M215.5,376.7c0,0,0.2,0,0.5,0c0.3,0.1,0.8,0.3,1.2,0.8c0.2,0.3,0.3,0.6,0.4,1c0,0.4,0,0.8,0,1.3
				c0,0.9,0,1.9,0,3c0,0.6,0,1.1,0,1.8c0,0.6,0.1,1.2-0.1,2c-0.2,0.7-0.7,1.3-1.5,1.6c-0.4,0.2-0.8,0.2-1.1,0.2c-0.4,0-0.7,0-1.1,0
				c-1.5,0-3,0-4.6,0c-0.4,0-0.8,0-1.2,0c-0.4,0-0.9-0.1-1.3-0.3c-0.8-0.4-1.4-1.4-1.3-2.4c0-1.8,0-3.5,0-5.2c0-0.4,0-0.8,0-1.2
				c0-0.4,0-0.9,0.2-1.3c0.3-0.9,1.1-1.5,2-1.6l-0.2,0.3c0-0.6,0-1,0-1.6c0.1-0.6,0.2-1.1,0.5-1.5c0.5-0.9,1.3-1.6,2.2-1.9
				c1.8-0.7,3.6,0.1,4.5,1.1c0.9,1,1,2.2,1,2.9C215.5,376.3,215.5,376.7,215.5,376.7c0,0,0-0.3-0.1-1.1c0-0.7-0.2-1.7-1.1-2.7
				c-0.8-0.9-2.4-1.5-4.1-0.9c-0.8,0.3-1.5,0.9-1.9,1.7c-0.2,0.4-0.4,0.9-0.4,1.4c0,0.5,0,1,0,1.6l0,0.2l-0.2,0
				c-0.7,0.1-1.3,0.6-1.5,1.2c-0.1,0.3-0.1,0.7-0.1,1.1c0,0.4,0,0.8,0,1.2c0,1.7,0,3.4,0,5.2c-0.1,0.8,0.3,1.5,1,1.8
				c0.3,0.2,0.7,0.3,1,0.2c0.4,0,0.8,0,1.2,0c1.6,0,3.1,0,4.6,0c0.7,0,1.5,0.1,2-0.1c0.6-0.2,1-0.7,1.2-1.3c0.1-0.5,0.1-1.2,0.1-1.8
				c0-0.6,0-1.2,0-1.8c0-1.1,0-2.1,0-3c0-0.4,0-0.9,0-1.2c0-0.4-0.2-0.7-0.3-0.9C216.3,376.7,215.4,376.8,215.5,376.7z"/>
		</g>
	</g>
</g>
<g>
	<g>
		<g>
			<g>
				<g>
					<path class="st2" d="M220.5,338.4c0,0,0-0.3-0.1-0.9c0-0.6-0.1-1.4-0.1-2.4c-0.1-2.1-0.1-5-0.2-8.5l0.2,0.2
						c-4.9,0.1-10.9,0.1-17.5,0.2c-0.1,0.1,0.6-0.6,0.3-0.3v0l0,0l0,0l0,0l0,0l0,0.1l0,0.2l0,0.4l0,0.8c0,0.5,0,1,0,1.5c0,1,0,2,0,3
						c0,2,0,3.9,0,5.7l-0.3-0.3c5.1,0,9.5,0,12.5,0c1.5,0,2.7,0,3.6,0C220,338.4,220.5,338.4,220.5,338.4s-0.4,0-1.2,0.1
						c-0.9,0-2.1,0.1-3.6,0.1c-3.1,0.1-7.5,0.2-12.7,0.3l-0.3,0l0-0.3c0-1.8,0-3.7-0.1-5.7c0-1,0-2,0-3c0-0.5,0-1,0-1.5l0-0.8l0-0.4
						l0-0.2l0-0.1l0,0l0,0l0,0v0l0,0c-0.3,0.3,0.4-0.4,0.3-0.3c6.6,0,12.6-0.1,17.5-0.1l0.2,0l0,0.2c0,3.6,0,6.5,0,8.7
						c0,1,0,1.7,0,2.3C220.5,338.2,220.5,338.5,220.5,338.4z"/>
				</g>
			</g>
		</g>
	</g>
	<g>
		<g>
			<path class="st2" d="M220.4,326.6c0,0.1-0.9,0.8-2.4,2c-1.5,1.2-3.7,2.8-6.1,4.5c0.3,0-0.4,0-0.4,0l0,0l0,0l0,0l0,0l-0.1,0
				l-0.1-0.1l-0.2-0.2l-0.4-0.3c-0.3-0.2-0.6-0.4-0.9-0.6c-0.6-0.4-1.1-0.8-1.6-1.2c-1-0.7-1.9-1.4-2.8-2c-1.6-1.2-2.5-1.9-2.5-2
				s1.1,0.6,2.7,1.6c0.9,0.6,1.8,1.2,2.8,1.9c0.5,0.4,1.1,0.7,1.7,1.1c0.3,0.2,0.6,0.4,0.9,0.6l0.4,0.3l0.2,0.2l0.1,0.1l0.1,0l0,0
				l0,0l0,0l0,0c0.1,0-0.7,0-0.3,0c2.4-1.7,4.6-3.3,6.2-4.4C219.3,327.2,220.3,326.6,220.4,326.6z"/>
		</g>
	</g>
	<g>
		<g>
			<path class="st2" d="M203.3,338.6c-0.1-0.1,1.1-1.8,2.7-3.9c1.6-2,3-3.6,3.2-3.5c0.1,0.1-1.1,1.8-2.7,3.9
				C204.8,337.1,203.4,338.7,203.3,338.6z"/>
		</g>
	</g>
	<g>
		<g>
			<path class="st2" d="M214.8,331.2c0.1-0.1,1.5,1.4,3.1,3.4c1.6,2,2.7,3.7,2.6,3.8c-0.1,0.1-1.5-1.4-3.1-3.4
				C215.9,333,214.7,331.3,214.8,331.2z"/>
		</g>
	</g>
</g>
<g>
	<g>
		<path class="st2" d="M434.7,454.3H195.1c-1.5,0-2.7-1.2-2.7-2.7v-32c0-1.5,1.2-2.7,2.7-2.7h239.6c1.5,0,2.7,1.2,2.7,2.7v32
			C437.3,453.1,436.2,454.3,434.7,454.3z"/>
	</g>
	<g class="st6">
		<path d="M435.7,454.3H196.9c-4,0-5.4-1.4-5.4-3.1V420c0-1.7,1.4-3.1,3.1-3.1h238.8c1.7,0,3.1,1.4,3.1,3.1v31.2
			C436.5,452.9,435.1,454.3,435.7,454.3z"/>
	</g>
	<g>
		<path class="st2" d="M434.7,449.1H195.1c-1.5,0-2.7-1.2-2.7-2.7v-32c0-1.5,1.2-2.7,2.7-2.7h239.6c1.5,0,2.7,1.2,2.7,2.7v32
			C437.3,447.9,436.2,449.1,434.7,449.1z"/>
	</g>
	<g>
		<path class="st7" d="M294.2,431.3c0-2.3,1.8-4,4.1-4c1.2,0,2.3,0.4,3,1.2l-0.7,0.7c-0.6-0.6-1.3-0.9-2.2-0.9c-1.8,0-3.1,1.3-3.1,3
			c0,1.7,1.3,3,3.1,3c0.9,0,1.6-0.3,2.2-0.9l0.7,0.7c-0.7,0.8-1.8,1.2-3,1.2C296,435.3,294.2,433.6,294.2,431.3z"/>
		<path class="st7" d="M308.1,435.2l-1.7-2.4c-0.2,0-0.3,0-0.5,0H304v2.4h-1.1v-7.8h3.1c2,0,3.3,1,3.3,2.7c0,1.2-0.6,2.1-1.7,2.5
			l1.9,2.6H308.1z M308.1,430.1c0-1.1-0.7-1.8-2.2-1.8H304v3.5h1.9C307.4,431.9,308.1,431.2,308.1,430.1z"/>
		<path class="st7" d="M316.7,434.2v1H311v-7.8h5.5v1h-4.4v2.4h3.9v0.9h-3.9v2.5H316.7z"/>
		<path class="st7" d="M323.5,433.2h-4.2l-0.9,2h-1.2l3.5-7.8h1.1l3.6,7.8h-1.2L323.5,433.2z M323.1,432.3l-1.7-3.8l-1.7,3.8H323.1z
			"/>
		<path class="st7" d="M327.9,428.3h-2.7v-1h6.5v1H329v6.9h-1.1V428.3z"/>
		<path class="st7" d="M338.5,434.2v1h-5.7v-7.8h5.5v1H334v2.4h3.9v0.9H334v2.5H338.5z"/>
	</g>
</g>
<g>
	<g>
		
			<ellipse transform="matrix(0.7071 -0.7071 0.7071 0.7071 -33.9837 198.4659)" class="st0" cx="222.6" cy="140.3" rx="80.9" ry="80.9"/>
	</g>
	<g>
		<path class="st4" d="M268.9,30.9c-2.9,3.5-3.4,8.8-1.2,12.7c1,1.8,2.6,3.4,2.8,5.5c0.4,3.4-2.9,6.4-2.3,9.7
			c0.4,2.3,2.3,3.9,3.4,5.9c1.3,2.6,1,6-0.9,8.3c-1.5,1.8-3.8,2.9-4.7,5.1c-0.7,1.6-0.5,3.4-1.1,5c-0.9,2.5-3.5,4.2-6.2,4.6
			c-2.7,0.5-5.4,0-8-0.5c0.2-1,0.4-1.9,0.6-2.9c-0.9,1.6-2.8,2.5-4.6,2.6c-1.8,0.1-3.6-0.3-5.4-0.8c-1.1-4.9-2.2-10.1-0.6-15
			c1.4-4.3,4.7-7.7,7.5-11.3c3.1-4,5.5-8.5,7.3-13.2c1.3-3.4,2.2-7,3.9-10.1c1.8-3.2,4.6-6,8.1-6.7"/>
	</g>
	<g>
		<g>
			<path class="st8" d="M321.5,98.9l-16,1.1c0,0-0.1-3.1-0.2-4.1c-0.1-3.5,0.9-5.2,1.4-5.8c0.2-0.3,0.4-1,0.4-1
				c0.1-1.2-1.7-7.3-2.3-9.6c-0.8-2.7,0.7-4.1,1.3-3c1.1,2,3.9,10.7,4.8,11.4c0.9,0.8,0.4-3.7,0.4-3.7c-1.4-9.5-2-10.9-0.3-11.2
				c1.9-0.4,4.1,13.7,4.1,13.7s-0.3-2,1.2-2.4c1.5-0.4,2.2,1.6,2.2,1.6c-0.2-1,1.2-1.2,1.2-1.2C323.4,85.2,321.5,98.9,321.5,98.9
				l-16,1.1l-7.7,53.5l-8.2-12.5l-21.4,15.2l19.3,23c3.4,4,8.4,6.3,13.7,6.1l0,0c8.8-0.3,15.9-7.3,16.4-16.1L321.5,98.9z"/>
		</g>
		<g>
			<g>
				<path class="st9" d="M309,99c-0.1-0.1,0.8-0.8,1.9-2.2c0.6-0.7,1.2-1.6,1.8-2.6c0.3-0.5,0.6-1.1,0.9-1.6
					c0.3-0.6,0.6-1.2,0.5-1.8c0-0.3-0.2-0.6-0.5-0.7c-0.3-0.1-0.6,0-0.9,0.2c-0.7,0.3-1.3,0.7-1.8,1.1c-1,0.8-1.8,1.7-2.3,2.4
					l-0.2,0.3l-0.1-0.3c-0.6-1.2-1.4-1.5-1.3-1.6c0,0,0.9,0.2,1.6,1.4l-0.3,0c0.4-0.8,1.2-1.8,2.3-2.7c0.5-0.4,1.2-0.8,1.9-1.2
					c0.4-0.2,0.8-0.3,1.3-0.2c0.5,0.2,0.8,0.7,0.9,1.2c0.1,0.9-0.4,1.5-0.6,2.1c-0.3,0.6-0.6,1.2-0.9,1.7c-0.6,1-1.3,1.9-2,2.6
					C310,98.4,309,99.1,309,99z"/>
			</g>
		</g>
		<g>
			<g>
				<path class="st9" d="M315.3,87.6c0.1,0,0.1,1.1,0,2.9c-0.1,1-0.1,2-0.2,3.2c0,0.6-0.1,1.3,0,1.8c0,0.6,0.5,1,0.9,0.8
					c0.4-0.2,0.6-0.9,0.8-1.5c0.2-0.6,0.3-1.2,0.4-1.8c0.2-1.2,0.4-2.2,0.6-3.1c0.3-1.8,0.6-2.9,0.7-2.9c0.1,0,0,1.1-0.3,2.9
					c-0.1,0.9-0.3,2-0.5,3.2c-0.1,0.6-0.2,1.2-0.4,1.9c-0.2,0.6-0.3,1.4-1.1,1.9c-0.4,0.2-1,0.1-1.3-0.2c-0.3-0.3-0.5-0.7-0.5-1.1
					c-0.1-0.7,0-1.3,0.1-1.9c0.1-1.1,0.2-2.2,0.3-3.2C315.1,88.7,315.3,87.6,315.3,87.6z"/>
			</g>
		</g>
		<g>
			<g>
				<path class="st9" d="M318,91.7c0.1,0-0.1,0.7-0.1,1.7c0.1,0.5,0.1,1.2,0.5,1.6c0.2,0.2,0.3,0.2,0.5,0c0.2-0.2,0.4-0.6,0.5-1
					c1.4-2.9,1.5-5.6,1.7-5.6c0.2,0,0.3,2.8-1.2,5.9c-0.2,0.4-0.3,0.7-0.6,1.1c-0.1,0.2-0.4,0.4-0.7,0.4c-0.3,0-0.5-0.2-0.7-0.3
					c-0.3-0.3-0.4-0.7-0.4-1c-0.1-0.3-0.1-0.6-0.1-0.9C317.6,92.2,318,91.6,318,91.7z"/>
			</g>
		</g>
	</g>
	<g>
		<g>
			<g>
				<path class="st7" d="M250.7,192.3l1.5,23.3c-45.5,17.4-79.3-11.5-79.3-11.5l6.8-20.8l1.2-36.4l-8.8,9.7l-4.1-3.4l-20.9-17.4
					l-4.5-3.7l21.7-22.9c27.4-29.5,48.7-20.4,48.7-20.4l32,3c0,0,22.1,3.1,32.9,22.5c8.7,15.8,18.2,32.5,18.2,32.5l-27.4,19.6
					l-8.7-16L250.7,192.3z"/>
			</g>
		</g>
	</g>
	<g>
		<path class="st8" d="M141.7,139.9c0,1.4,0,2.7,0.1,4.1c0.2,5.5,0.9,10.9,2.2,16c0,0.1,0,0.1,0,0.2c0.2,0.7,0.3,1.3,0.5,1.9
			c0.7,2.5,1.7,4.8,2.6,7.2c0.1,0.3,0.2,0.6,0.3,0.9c2.9-0.8,10.6-8,20-17.6l-20.9-17.4C143.8,138.3,142.6,139.6,141.7,139.9z"/>
	</g>
	<g>
		<g>
			<g>
				<g>
					<g>
						<path class="st8" d="M242.1,94.8c1.1-7.9,2.4-16.3,2.4-16.3s10.5-0.3,14.4-13.3c3.8-12.4,5.7-42.1,5.7-42.1l0,0
							c-13.9-8-31.9-6.4-44,3.9l0,0l-8,64.6c-0.9,7.5,4.8,14.3,12.8,15.2h0C233.6,107.7,241,102.3,242.1,94.8z"/>
					</g>
				</g>
				<g>
					<g>
						<g>
							<path class="st4" d="M257.7,45.5c-0.1,0.9-0.9,1.6-1.9,1.5c-0.9-0.1-1.6-0.9-1.6-1.8c0.1-0.9,0.9-1.6,1.9-1.5
								C257.1,43.8,257.8,44.6,257.7,45.5z"/>
						</g>
					</g>
					<g>
						<g>
							<g>
								<path class="st4" d="M260.7,44c-0.2,0.2-1.4-0.9-3.2-1.2c-1.8-0.3-3.3,0.5-3.5,0.2c-0.1-0.1,0.2-0.5,0.8-0.8
									c0.6-0.3,1.7-0.6,2.8-0.5c1.1,0.2,2.1,0.7,2.5,1.2C260.7,43.5,260.8,43.9,260.7,44z"/>
							</g>
						</g>
					</g>
				</g>
				<g>
					<g>
						<g>
							<path class="st4" d="M238.8,43.2c-0.1,0.9-0.9,1.6-1.9,1.5c-0.9-0.1-1.6-0.9-1.6-1.8c0.1-0.9,0.9-1.6,1.9-1.5
								C238.2,41.5,238.9,42.3,238.8,43.2z"/>
						</g>
					</g>
					<g>
						<g>
							<g>
								<path class="st4" d="M241.4,42c-0.2,0.2-1.4-0.9-3.2-1.2c-1.8-0.3-3.3,0.5-3.5,0.2c-0.1-0.1,0.2-0.5,0.8-0.8
									c0.6-0.3,1.7-0.6,2.8-0.5c1.1,0.2,2.1,0.7,2.5,1.2C241.4,41.5,241.6,41.9,241.4,42z"/>
							</g>
						</g>
					</g>
				</g>
				<g>
					<g>
						<g>
							<path class="st4" d="M246.2,56.6c0-0.1,1.2-0.1,3.1-0.1c0.5,0,0.9,0,1.1-0.3c0.2-0.3,0-0.9-0.1-1.4c-0.3-1.2-0.6-2.5-0.9-3.8
								c-1.2-5.4-2-9.7-1.8-9.8c0.2,0,1.4,4.3,2.6,9.6c0.3,1.3,0.6,2.6,0.8,3.8c0.1,0.6,0.3,1.2,0,1.9c-0.2,0.3-0.6,0.5-0.9,0.6
								c-0.3,0.1-0.6,0-0.8,0C247.4,56.8,246.2,56.7,246.2,56.6z"/>
						</g>
					</g>
				</g>
				<g>
					<g>
						<path class="st9" d="M244.5,78.5c0,0-9.1-0.7-17.2-7.2c0,0,3.1,9.8,16.6,10.4L244.5,78.5z"/>
					</g>
				</g>
			</g>
		</g>
	</g>
	<g>
		<path class="st4" d="M250.8,19c0.9,2.1-0.5,4.6-2.4,5.8c-1.9,1.2-4.3,1.5-6.5,1.8c-2.2,0.4-4.6,0.9-6.3,2.4
			c-3.1,2.8-2.3,6.9-5.5,10.6c-1.7,1.9-3.6,3.2-6.6,2.8c-2.5-0.4-5.8,0.2-7.1,3.1c-1.2,2.8,0.3,5.1,1.7,7.8c1.4,2.7,1,5.4,0.2,8.4
			c-0.6,2.1-2.4,3.8-2.8,5.9c-0.6,3.4,2.3,7.3,0.3,10.1c-2,2.8-7,1.5-9.3,4.2c-0.8,0.9-1.3,2.4-2.4,2.7c-0.7,0.2-1.5-0.1-2.1-0.4
			c-3.5-1.5-6.9-2.9-10.4-4.4c0.3-1.1,0.5-2.1,0.8-3.2c-1.5,1.5-3.8,2.3-6,2c-2.1-0.3-4.1-1.7-5.1-3.6c2.1-1.3,4.2-2.7,6-4.5
			c1.7-1.8,3-4.1,3.1-6.6c0.1-3-1.5-6.1-0.6-9c1.3-4.1,6.9-5.2,9.4-8.7c2.3-3.3,1.5-8.1,3.9-11.4c2.8-3.8,8.6-4,11.8-7.4
			c2.1-2.4,2.6-5.8,4.2-8.5c1.9-3.3,5.3-5.6,8.9-6.8c3.6-1.2,7.5-1.4,11.3-1.3c2.9,0.1,5.8,0.3,8.3,1.7c2.5,1.4,4.4,4.2,3.8,7"/>
	</g>
	<g>
		<g>
			<path class="st8" d="M223.5,42.4c-1.4-0.5-2.9-0.6-4.3-0.3c-1.4,0.3-2.8,1.2-3.5,2.4c-0.8,1.3-0.9,2.8-0.6,4.3
				c0.3,1.4,1,2.8,1.9,3.9c0.6,0.8,1.4,1.6,2.4,2.1c1,0.5,2.1,0.5,3-0.1"/>
		</g>
	</g>
	<g>
		<g>
			<g>
				<path class="st9" d="M221.6,50.9c0.2,0.1-0.6,0.9-1.8,0.3c-0.6-0.3-1.1-0.9-1.4-1.6c-0.3-0.8-0.4-1.6-0.4-2.5
					c0-0.9,0.4-1.8,0.9-2.4c0.6-0.6,1.4-0.9,2-0.8c1.3,0.2,1.6,1.1,1.5,1.1c-0.1,0.1-0.6-0.5-1.5-0.4c-0.9,0-1.8,1.1-1.9,2.5
					c0,1.5,0.3,2.9,1.1,3.4C220.8,51.1,221.5,50.8,221.6,50.9z"/>
			</g>
		</g>
	</g>
	<g>
		<path class="st4" d="M250.9,19.7c-1.1,2.8,0.1,6.4,2.8,7.9c1.5,0.9,3.3,1.1,4.6,2.3c1.3,1.2,1.7,3,1.9,4.7s0.2,3.5,1,5
			c0.7,1.6,2.3,2.9,4,2.6c1-2.8,1.9-5.7,2.9-8.5c1.1-3.1,2.1-6.5,1.4-9.7c-1.1-4.6-5.6-7.6-10.2-8.9c-2.1-0.6-4.4-0.9-6.4,0.1
			c-2,0.9-3.3,3.5-2.3,5.4"/>
	</g>
	<g>
		<g>
			<path class="st3" d="M195.4,81.1c0,0,0.3-0.2,0.7-0.7c0.4-0.5,0.8-1.4,0.9-2.6c0.2-1.2-0.1-2.7-0.3-4.5c0-0.9-0.1-1.9,0.3-2.9
				c0.3-1,0.9-2,1.6-2.8c1.5-1.7,3.6-3,5.4-4.9c0.9-0.9,1.7-2,2.1-3.3c0.4-1.3,0.3-2.7,0.1-4.2c-0.2-1.4-0.6-2.9-0.8-4.5
				c-0.2-1.6-0.1-3.2,0.5-4.8c1.1-3.1,3.9-5.8,7.4-6.5c3.4-0.7,6.9-0.3,9.7-1.7c1.4-0.7,2.4-1.9,3-3.3c0.7-1.4,1-2.8,1.5-4.2
				c0.4-1.4,0.9-2.8,1.7-4c0.8-1.2,1.9-2.1,3.2-2.7c2.5-1,5.1-0.9,7.3-0.8c2.2,0.1,4.2,0.1,5.9-0.3c1.7-0.5,3.1-1.2,3.9-2.1
				c0.8-0.9,1-1.9,1.2-2.5c0.1-0.6,0.1-1,0.1-1c0,0,0,0.3,0,1c-0.1,0.6-0.3,1.7-1.1,2.7c-0.8,1-2.3,1.7-4,2.2
				c-1.7,0.5-3.8,0.5-6,0.4c-2.2-0.1-4.7-0.2-7.1,0.8c-1.2,0.5-2.2,1.3-2.9,2.5c-0.7,1.1-1.2,2.5-1.6,3.9c-0.4,1.4-0.8,2.9-1.5,4.3
				c-0.3,0.7-0.8,1.4-1.3,2c-0.6,0.6-1.2,1.1-2,1.5c-3.1,1.5-6.6,1-9.8,1.8c-3.3,0.6-5.9,3.2-6.9,6.1c-0.5,1.5-0.7,3-0.5,4.5
				c0.2,1.5,0.5,3,0.7,4.5c0.2,1.5,0.3,3-0.2,4.4c-0.4,1.4-1.3,2.6-2.2,3.5c-1.9,1.9-4,3.2-5.5,4.8c-1.5,1.6-2,3.6-1.9,5.4
				c0.1,1.7,0.4,3.3,0.1,4.6c-0.2,1.3-0.6,2.2-1.1,2.7C195.7,81,195.4,81.1,195.4,81.1z"/>
		</g>
	</g>
	<g>
		<g>
			<path class="st3" d="M257,87.8c0,0,0.2-0.2,0.5-0.6c0.3-0.4,0.6-1.2,0.7-2.2c0.1-1-0.2-2.2-0.1-3.7c0.1-1.5,0.9-3.1,2-4.6
				c1.1-1.5,2.5-3,2.9-5.1c0.4-2.1-0.5-4.3-0.9-6.7c-0.2-1.2-0.2-2.6,0.2-3.8c0.4-1.3,1.1-2.4,1.8-3.5c0.7-1.1,1.5-2.2,2.2-3.4
				c0.6-1.2,1.1-2.5,1.2-3.8c0-1.3-0.6-2.6-1.3-3.7c-0.7-1.2-1.5-2.3-1.9-3.6c-0.8-2.7-0.2-5.3,0-7.7c0.1-1.2,0.1-2.4-0.1-3.5
				c-0.2-1.1-0.6-2.1-1.3-2.9c-1.3-1.7-3.1-2.7-4.7-3.5c-1.6-0.9-3.1-1.6-4.3-2.6c-1.2-0.9-2-1.9-2.5-2.8c-0.5-0.9-0.7-1.7-0.7-2.3
				c0-0.5,0.1-0.8,0.1-0.8c0,0,0,0.3,0.1,0.8c0.1,0.5,0.2,1.3,0.8,2.2c0.5,0.9,1.4,1.8,2.5,2.7c1.1,0.9,2.6,1.6,4.3,2.5
				c1.6,0.9,3.5,1.8,4.9,3.6c0.7,0.9,1.2,2,1.4,3.1c0.2,1.2,0.2,2.4,0.1,3.6c-0.2,2.4-0.7,5,0,7.5c0.3,1.2,1.1,2.3,1.8,3.5
				c0.7,1.2,1.4,2.5,1.4,4c0,1.5-0.6,2.9-1.2,4.1c-0.7,1.2-1.5,2.3-2.2,3.4c-0.7,1.1-1.4,2.2-1.7,3.4c-0.4,1.2-0.4,2.4-0.2,3.6
				c0.4,2.3,1.3,4.6,0.9,6.9c-0.2,1.1-0.7,2.1-1.3,2.9c-0.6,0.8-1.2,1.6-1.7,2.3c-1.1,1.4-1.9,2.9-2,4.3c-0.1,1.4,0.1,2.7,0,3.7
				c-0.1,1-0.5,1.8-0.8,2.2C257.3,87.7,257,87.8,257,87.8z"/>
		</g>
	</g>
	<g>
		<g>
			<path class="st3" d="M183.6,75.7c0,0,0.4,0.1,1.1,0.1c0.7,0,1.8-0.1,3-0.6c1.2-0.5,2.7-1.5,3.8-3c1.1-1.6,1.9-3.7,2.1-6.1
				c0.3-2.4-0.3-5-0.4-8c0-1.5,0.1-3,1-4.4c0.8-1.4,2.3-2.3,3.6-3.1c1.3-0.9,2.7-1.8,3.3-3.3c0.6-1.5,0.6-3.2,0.7-5
				c0.1-1.8,0.3-3.6,1-5.3c0.4-0.8,0.8-1.7,1.6-2.4c0.7-0.7,1.7-1.1,2.6-1.2c1.9-0.3,3.8-0.1,5.5-0.3c1.8-0.1,3.4-0.9,4.6-2.1
				c1.2-1.2,2.1-2.7,2.9-4.1c0.8-1.5,1.4-3,2.1-4.5c0.7-1.5,1.6-2.8,2.6-4c1-1.2,2.3-2.1,3.8-2.6c1.4-0.4,2.9-0.3,4.2,0
				c1.3,0.3,2.5,0.9,3.6,1.4c2.2,1,4.3,1.9,6.2,2c1.9,0.1,3.6-0.3,4.8-0.7c2.6-1,3.6-2.1,3.7-2.1c0,0-0.2,0.3-0.8,0.7
				c-0.6,0.4-1.5,1-2.8,1.5c-1.3,0.5-3,0.9-4.9,0.9c-2,0-4.1-0.9-6.4-1.9c-1.1-0.5-2.3-1-3.6-1.3c-1.3-0.3-2.7-0.4-4,0
				c-1.3,0.4-2.5,1.3-3.5,2.4c-1,1.1-1.8,2.5-2.5,3.9c-1.4,2.9-2.5,6.3-5.1,8.8c-0.7,0.6-1.4,1.2-2.3,1.6c-0.9,0.4-1.8,0.6-2.7,0.7
				c-1.8,0.2-3.7,0-5.5,0.3c-0.9,0.2-1.7,0.5-2.3,1.1c-0.6,0.6-1.1,1.4-1.4,2.2c-0.7,1.6-0.9,3.4-1,5.1c-0.1,1.7-0.1,3.5-0.8,5.2
				c-0.7,1.7-2.2,2.7-3.6,3.6c-1.4,0.9-2.7,1.7-3.5,3c-0.8,1.2-0.9,2.8-0.9,4.2c0,2.8,0.6,5.5,0.3,8c-0.2,2.5-1,4.7-2.2,6.3
				c-1.2,1.6-2.7,2.6-4,3.1c-1.3,0.5-2.4,0.6-3.1,0.5C184,75.9,183.6,75.7,183.6,75.7z"/>
		</g>
	</g>
	<g>
		<g>
			<path class="st3" d="M268.1,31.9c-0.1,0,0.1-1.4-1-3.3c-0.5-0.9-1.3-1.9-2.4-2.8c-1.1-0.9-2.5-1.6-4-2.3c-1.5-0.7-3-1.3-4.3-2
				c-1.3-0.7-2.4-1.5-3.2-2.3c-0.8-0.8-1.3-1.5-1.6-2.1c-0.3-0.6-0.4-0.9-0.3-0.9c0.1-0.1,0.6,1.3,2.2,2.7c0.8,0.7,1.9,1.4,3.1,2.1
				c1.3,0.7,2.7,1.3,4.3,2c1.5,0.7,3,1.5,4.1,2.4c1.1,1,2,2,2.5,3c0.5,1,0.7,1.9,0.7,2.5C268.3,31.6,268.2,31.9,268.1,31.9z"/>
		</g>
	</g>
	<g>
		<g>
			<path class="st4" d="M242.1,37.4c-0.1,0.1-0.5,0-1.2-0.2c-0.6-0.2-1.6-0.3-2.6-0.3c-1,0-1.9,0.1-2.6,0.3
				c-0.7,0.1-1.1,0.3-1.2,0.2c-0.1-0.1,0.2-0.6,0.8-1c0.7-0.4,1.7-0.7,2.9-0.7c1.2,0,2.2,0.3,2.9,0.7
				C242,36.8,242.2,37.3,242.1,37.4z"/>
		</g>
	</g>
	<g>
		<g>
			<path class="st4" d="M258.9,39.7c0,0.3-1.3,0.4-2.7,0.2c-1.4-0.2-2.6-0.6-2.5-1c0-0.3,1.3-0.4,2.7-0.2
				C257.8,38.9,259,39.4,258.9,39.7z"/>
		</g>
	</g>
	<g>
		<g>
			<path class="st4" d="M218.7,54.3c0,0,0.1,0.1,0.3,0.3c0.2,0.2,0.4,0.5,0.6,1c0.5,0.9,0.8,2.4,0.5,4.2c-0.2,1.8-1,3.9-2.1,5.9
				c-0.5,1.1-0.8,2.2-0.5,3.4c0.3,1.2,1,2.3,1.6,3.5c0.7,1.2,1.1,2.6,0.9,4c-0.2,1.3-0.8,2.5-1.6,3.5c-0.8,0.9-1.9,1.5-2.9,1.8
				c-1.1,0.3-2,0.3-2.9,0.3c-1.8,0-3.1,0.4-3.9,1c-0.8,0.6-1,1.1-1.1,1.1c0,0,0-0.1,0.2-0.4c0.1-0.2,0.4-0.6,0.8-0.9
				c0.8-0.7,2.3-1.2,4.1-1.2c0.9-0.1,1.9-0.1,2.8-0.4c1-0.3,1.9-0.8,2.7-1.7c0.7-0.8,1.3-2,1.4-3.2c0.2-1.2-0.2-2.5-0.8-3.6
				c-0.6-1.2-1.4-2.3-1.7-3.7c-0.3-1.4,0.1-2.7,0.6-3.8c0.5-1.1,1-2,1.4-3c0.4-1,0.6-1.9,0.8-2.8c0.3-1.7,0.1-3.2-0.3-4.1
				C219,54.8,218.6,54.4,218.7,54.3z"/>
		</g>
	</g>
	<g>
		<g>
			<path class="st4" d="M272.1,85.3c0,0-0.2,0.1-0.7,0.1c-0.5,0-1.3-0.3-1.9-1c-0.6-0.7-1.2-1.9-0.9-3.2c0.2-1.4,1.1-2.7,2.2-3.9
				c1.1-1.2,2.5-2.4,3.5-4c0.4-0.8,0.7-1.8,0.6-2.8c0-1-0.3-2-0.7-3c-0.8-2-2.1-3.9-2.8-6.3c-0.3-1.2-0.4-2.5,0-3.7
				c0.4-1.2,1.1-2.3,1.7-3.4c0.6-1.1,1-2.2,0.7-3.4c-0.2-1.1-1-2.1-1.8-2.9c-0.8-0.9-1.7-1.6-2.4-2.6c-0.8-0.9-1.3-2-1.6-3.1
				c-0.6-2.2-0.3-4.3,0.1-6.3c0.4-1.9,1-3.6,1.3-5.2c0.8-3.2,0.4-5.9-0.3-7.6c-0.8-1.7-1.7-2.2-1.6-2.3c0,0,0.1,0,0.2,0.1
				c0.1,0.1,0.3,0.2,0.4,0.4c0.4,0.3,0.8,0.9,1.2,1.7c0.4,0.8,0.8,1.9,0.9,3.3c0.1,1.3,0,2.8-0.3,4.5c-0.3,1.6-0.8,3.4-1.2,5.2
				c-0.4,1.9-0.6,4,0,6c0.3,1,0.8,2,1.5,2.8c0.7,0.9,1.6,1.6,2.4,2.5c0.8,0.9,1.7,1.9,1.9,3.2c0.3,1.3-0.2,2.7-0.8,3.8
				c-0.6,1.1-1.3,2.1-1.7,3.2c-0.3,1.1-0.3,2.3,0,3.4c0.6,2.2,1.9,4.2,2.7,6.2c0.4,1,0.7,2.1,0.7,3.2c0,1.1-0.2,2.1-0.7,3
				c-1,1.8-2.5,2.9-3.6,4.1c-1.1,1.2-2,2.4-2.2,3.7c-0.3,1.2,0.2,2.3,0.8,3c0.6,0.7,1.3,1,1.7,1C271.8,85.3,272.1,85.2,272.1,85.3z"
				/>
		</g>
	</g>
	<g>
		<g>
			<path class="st9" d="M317.2,100.8c-0.2,0.1-0.9-1.5-2.5-2.7c-1.6-1.2-3.3-1.5-3.2-1.7c0-0.2,1.9-0.1,3.6,1.2
				C316.8,99,317.4,100.8,317.2,100.8z"/>
		</g>
	</g>
	<g>
		<g>
			<path class="st9" d="M300.1,163.8c-0.1,0.1-1.1-2.2-1.7-5.2c-0.6-3-0.7-5.4-0.5-5.5c0.2,0,0.5,2.4,1.1,5.3
				C299.6,161.4,300.2,163.8,300.1,163.8z"/>
		</g>
	</g>
	<g class="st6">
		<path d="M180.9,146.9l5.1-5.3c0,0-2.2,38.1-3.7,42.6c-1.5,4.6-9.4,19.8-9.4,19.8l6.8-20.8L180.9,146.9z"/>
	</g>
	<g>
		<g>
			<path class="st4" d="M192.2,135.2c0.1,0.1-4.4,5-10,10.9c-5.7,5.9-10.3,10.6-10.5,10.5c-0.1-0.1,4.4-5,10-10.9
				C187.4,139.7,192.1,135.1,192.2,135.2z"/>
		</g>
	</g>
	<g>
		<g>
			<path class="st4" d="M263.5,132.2c0,0,0,0.4,0,1.2c-0.1,0.8-0.2,1.9-0.4,3.2c-0.4,2.7-1,6.5-1.8,10.6c-0.9,4.1-1.8,7.8-2.5,10.4
				c-0.4,1.3-0.7,2.4-0.9,3.1c-0.2,0.7-0.4,1.1-0.4,1.1c0,0,0-0.4,0.2-1.2c0.2-0.9,0.5-1.9,0.8-3.2c0.6-2.7,1.5-6.3,2.4-10.4
				c0.9-4.1,1.5-7.8,2-10.5c0.2-1.2,0.4-2.3,0.6-3.2C263.4,132.6,263.5,132.2,263.5,132.2z"/>
		</g>
	</g>
	<g>
		<path class="st10" d="M240.4,59.6c1-0.9,2.8-0.7,3.6,0.4c0.8,1.1,0.4,2.9-0.8,3.6c-1.2,0.7-2.9,0.1-3.5-1.2
			c-0.5-1.3,0.2-2.9,1.5-3.3"/>
	</g>
	<g>
		<g>
			<g>
				<path class="st4" d="M240.6,57.1c0.3,0,0,2,1.5,3.7c1.5,1.7,3.7,1.7,3.6,2c0,0.1-0.5,0.3-1.4,0.2c-0.9-0.1-2.1-0.6-3.1-1.6
					c-0.9-1-1.2-2.2-1.2-3.1C240.2,57.5,240.5,57.1,240.6,57.1z"/>
			</g>
		</g>
	</g>
	<g>
		<path class="st4" d="M215.1,27.3c1.2-1.7,2.4-3.6,2.5-5.7c0.1-3-2.4-5.8-5.3-6.1c-3-0.3-5.9,1.8-6.7,4.7c-0.7,2.9,0.8,6.1,3.4,7.5
			c2.6,1.4,6.1,0.8,8.2-1.3"/>
	</g>
	<g>
		<g>
			<path class="st3" d="M217.8,21.3c0.2,0,0.2,2.1-1.2,4.2c-1.4,2.1-3.3,2.9-3.4,2.8c-0.1-0.2,1.6-1.1,2.9-3.1
				C217.4,23.3,217.6,21.3,217.8,21.3z"/>
		</g>
	</g>
	<g>
		<g>
			<path class="st3" d="M214.2,27.7c-0.2,0,0.3-3-0.8-6.4c-1-3.4-3.2-5.6-3-5.7c0-0.1,0.6,0.4,1.4,1.3c0.8,0.9,1.6,2.4,2.2,4.2
				c0.6,1.8,0.7,3.5,0.6,4.7C214.5,27,214.3,27.8,214.2,27.7z"/>
		</g>
	</g>
</g>
<g>
	<path class="st11" d="M238.5,153.5l-14.8-19l-4.1,3.2l14.8,19c1.3,1.7,1,4.2-0.7,5.6l-2,1.6l0,0l-8.8,6.9c-0.8,0.6-1.8,0.9-2.8,0.8
		l-0.1,0c-1.1-0.1-2-0.6-2.6-1.5l-4.6-5.9l0,0l-3.5-4.5c0,0-0.1-0.1-0.1-0.1c-0.6-0.8-0.8-1.8-0.7-2.8c0.1-1,0.6-1.9,1.4-2.5l0,0
		l1.1-1l-3.1-4l-0.9,0.7c-0.7,0.6-1.4,1.2-1.8,1.7c-2.6,3.3-2.7,8-0.1,11.3l1.9,2.5l0,0l6.1,7.9c1.5,1.9,3.7,3.1,6.1,3.4l0.2,0
		c2.4,0.2,4.7-0.4,6.5-1.9l6.5-5l0,0l4.4-3.4C240.9,163.3,241.6,157.5,238.5,153.5z"/>
	<path class="st12" d="M225.2,158.7l-14.8-19c-1.3-1.7-1-4.2,0.7-5.6l2.1-1.6l0,0l8.8-6.9c0.8-0.6,1.8-0.9,2.8-0.8l0.1,0
		c1.1,0.1,2,0.6,2.6,1.5l4.6,5.9l0,0l3.5,4.5c0,0,0.1,0.1,0.1,0.1c0.6,0.8,0.8,1.8,0.7,2.8c-0.1,1-0.6,1.9-1.3,2.5l0,0l-0.1,0.1
		l-1.1,1l3.1,4l0.9-0.7c0.7-0.7,1.4-1.3,1.8-1.7c2.6-3.3,2.7-8,0.1-11.3l-1.9-2.5l0,0l-6.1-7.9c-1.5-1.9-3.7-3.1-6.1-3.4l-0.2,0
		c-2.4-0.2-4.7,0.4-6.5,1.9l-6.4,5l0,0l-4.5,3.5c-4,3.1-4.7,8.9-1.6,12.8l14.8,19L225.2,158.7z"/>
</g>
<g>
	<circle class="st2" cx="254.8" cy="208.9" r="29.2"/>
</g>
<g class="st6">
	<circle cx="254.6" cy="208.9" r="29.2"/>
</g>
<g>
	<circle class="st2" cx="254.8" cy="203.5" r="29.2"/>
</g>
<g>
	<g>
		<g>
			<path class="st7" d="M254.8,220.8c-0.8,0-1.5-7.7-1.5-17.3c0-9.5,0.7-17.3,1.5-17.3c0.8,0,1.5,7.7,1.5,17.3
				C256.3,213,255.6,220.8,254.8,220.8z"/>
		</g>
	</g>
	<g>
		<g>
			<path class="st7" d="M272,203.5c0,0.8-7.7,1.5-17.3,1.5c-9.5,0-17.3-0.7-17.3-1.5c0-0.8,7.7-1.5,17.3-1.5
				C264.3,202,272,202.7,272,203.5z"/>
		</g>
	</g>
</g>
</svg>
