
<svg xmlns="http://www.w3.org/2000/svg" version="1.1" viewBox="0 0 512 512" style="shape-rendering:geometricPrecision; text-rendering:geometricPrecision; image-rendering:optimizeQuality; fill-rule:evenodd; clip-rule:evenodd" xmlns:xlink="http://www.w3.org/1999/xlink">
<g><path style="opacity:0.993" fill="#fcca92" d="M 240.5,31.5 C 293.558,27.4608 331.058,49.4608 353,97.5C 368.676,146.458 356.843,187.291 317.5,220C 286.428,241.022 253.095,245.355 217.5,233C 167.139,209.459 145.639,169.959 153,114.5C 161.476,78.0237 182.976,52.5237 217.5,38C 225.163,35.3384 232.829,33.1717 240.5,31.5 Z"/></g>
<g><path style="opacity:0.996" fill="#ff8b00" d="M 164.5,239.5 C 170.581,239.726 176.581,240.559 182.5,242C 192.315,246.076 201.982,250.409 211.5,255C 250.198,268.014 287.198,264.347 322.5,244C 339.711,237.221 356.044,238.888 371.5,249C 391.231,266.073 406.398,286.573 417,310.5C 431.53,346.28 441.863,383.28 448,421.5C 451.417,451.188 438.917,470.354 410.5,479C 307.167,479.667 203.833,479.667 100.5,479C 72.0794,470.346 59.5794,451.18 63,421.5C 68.498,389.508 76.498,358.174 87,327.5C 98.1282,295.408 116.628,268.574 142.5,247C 149.449,242.962 156.783,240.462 164.5,239.5 Z"/></g>
</svg>
